<?xml version="1.0" encoding="UTF-8" standalone="no"?>
<!-- Created with Inkscape (http://www.inkscape.org/) -->
<svg xmlns:svg="http://www.w3.org/2000/svg" xmlns="http://www.w3.org/2000/svg" xmlns:xlink="http://www.w3.org/1999/xlink" version="1.0" width="527.14288" height="510" id="svg2">
  <defs id="defs4">
    <linearGradient id="linearGradient4105">
      <stop style="stop-color:#205c32;stop-opacity:1" offset="0" id="stop4107"/>
      <stop style="stop-color:#3fb662;stop-opacity:1" offset="1" id="stop4109"/>
    </linearGradient>
    <linearGradient x1="246.3268" y1="378.62106" x2="193.63454" y2="453.13596" id="linearGradient10232" xlink:href="#linearGradient4105" gradientUnits="userSpaceOnUse" gradientTransform="translate(128.42857,-33.92352)"/>
  </defs>
  <g transform="translate(-86.428574,-97.362183)" id="layer1">
    <g transform="translate(-0.7142792,-10.714294)" id="g5116">
      <path d="M 398.42786 383.07648 A 47.713566 47.713566 0 1 1  303.00073,383.07648 A 47.713566 47.713566 0 1 1  398.42786 383.07648 z" transform="translate(-41.285714,142)" style="opacity:1;fill:url(#linearGradient10232);fill-opacity:1;fill-rule:evenodd;stroke:#000000;stroke-width:10;stroke-miterlimit:4;stroke-dasharray:none;stroke-opacity:1" id="path3134"/>
      <use transform="translate(80,-320)" id="use4123" x="0" y="0" width="744.09448" height="1052.3622" xlink:href="#path3134"/>
      <use transform="translate(-317.92857,0)" id="use4127" x="0" y="0" width="744.09448" height="1052.3622" xlink:href="#use4125"/>
      <use transform="translate(-79.999995,320)" id="use4131" x="0" y="0" width="744.09448" height="1052.3622" xlink:href="#use4127"/>
      <use transform="translate(157.92857,0)" id="use4125" x="0" y="0" width="744.09448" height="1052.3622" xlink:href="#use4123"/>
      <use transform="translate(-80,320)" id="use4129" x="0" y="0" width="744.09448" height="1052.3622" xlink:href="#use4125"/>
      <path d="M 62.857143,370 L 62.857143,256.7857 L 460.85714,256.7857 L 460.85714,143.57141" transform="translate(87.142853,108.07648)" style="fill:none;fill-rule:evenodd;stroke:#000000;stroke-width:10;stroke-linecap:butt;stroke-linejoin:miter;stroke-miterlimit:4;stroke-dasharray:none;stroke-opacity:1" id="path10234"/>
      <path d="M 310.71428,476.64791 L 310.71428,365.21934" style="fill:none;fill-rule:evenodd;stroke:#000000;stroke-width:10;stroke-linecap:butt;stroke-linejoin:miter;stroke-miterlimit:4;stroke-dasharray:none;stroke-opacity:1" id="path11205"/>
      <use transform="translate(158,0)" id="use12176" x="0" y="0" width="527.14288" height="510" xlink:href="#path11205"/>
      <use transform="translate(-82,-114)" id="use12178" x="0" y="0" width="527.14288" height="510" xlink:href="#path11205"/>
      <use transform="translate(162,0)" id="use12180" x="0" y="0" width="527.14288" height="510" xlink:href="#use12178"/>
    </g>
  </g>
</svg>