<?xml version="1.0" encoding="UTF-8" standalone="no"?>
<svg
   xmlns:dc="http://purl.org/dc/elements/1.1/"
   xmlns:cc="http://creativecommons.org/ns#"
   xmlns:rdf="http://www.w3.org/1999/02/22-rdf-syntax-ns#"
   xmlns:svg="http://www.w3.org/2000/svg"
   xmlns="http://www.w3.org/2000/svg"
   xmlns:sodipodi="http://sodipodi.sourceforge.net/DTD/sodipodi-0.dtd"
   xmlns:inkscape="http://www.inkscape.org/namespaces/inkscape"
   width="557pt"
   height="367.05078pt"
   viewBox="0 0 557 367.05078"
   version="1.1"
   id="svg123"
   sodipodi:docname="sine-waves-02-v01.svg"
   inkscape:version="0.92.2 (5c3e80d, 2017-08-06)">
  <metadata
     id="metadata129">
    <rdf:RDF>
      <cc:Work
         rdf:about="">
        <dc:format>image/svg+xml</dc:format>
        <dc:type
           rdf:resource="http://purl.org/dc/dcmitype/StillImage" />
        <dc:title />
      </cc:Work>
    </rdf:RDF>
  </metadata>
  <defs
     id="defs127" />
  <sodipodi:namedview
     pagecolor="#ffffff"
     bordercolor="#666666"
     borderopacity="1"
     objecttolerance="10"
     gridtolerance="10"
     guidetolerance="10"
     inkscape:pageopacity="0"
     inkscape:pageshadow="2"
     inkscape:window-width="1920"
     inkscape:window-height="1027"
     id="namedview125"
     showgrid="false"
     fit-margin-top="0"
     fit-margin-left="0"
     fit-margin-right="0"
     fit-margin-bottom="0"
     inkscape:zoom="1.0146982"
     inkscape:cx="348.33265"
     inkscape:cy="238.95502"
     inkscape:window-x="-8"
     inkscape:window-y="-8"
     inkscape:window-maximized="1"
     inkscape:current-layer="surface21605" />
  <g
     id="surface21605"
     transform="translate(-19.5,-16.5)">
    <path
       style="fill:none;stroke:#7f7f7f;stroke-width:20;stroke-linecap:butt;stroke-linejoin:miter;stroke-miterlimit:10;stroke-opacity:1"
       d="M 400,7660 H 11520"
       transform="scale(0.05)"
       id="path4"
       inkscape:connector-curvature="0" />
    <path
       style="fill:none;stroke:#000000;stroke-width:20;stroke-linecap:butt;stroke-linejoin:miter;stroke-miterlimit:10;stroke-opacity:1"
       d="m 400,7661.0156 v 0"
       transform="scale(0.05)"
       id="path6"
       inkscape:connector-curvature="0" />
    <path
       style="fill:none;stroke:#000000;stroke-width:20;stroke-linecap:butt;stroke-linejoin:miter;stroke-miterlimit:10;stroke-opacity:1"
       d="m 11518.984,7661.0156 v 0"
       transform="scale(0.05)"
       id="path8"
       inkscape:connector-curvature="0" />
    <path
       style="fill:none;stroke:#7f7f7f;stroke-width:20;stroke-linecap:butt;stroke-linejoin:miter;stroke-miterlimit:10;stroke-opacity:1"
       d="M 400,6440 H 11520"
       transform="scale(0.05)"
       id="path10"
       inkscape:connector-curvature="0" />
    <path
       style="fill:none;stroke:#000000;stroke-width:20;stroke-linecap:butt;stroke-linejoin:miter;stroke-miterlimit:10;stroke-opacity:1"
       d="m 400,6441.0156 v 0"
       transform="scale(0.05)"
       id="path12"
       inkscape:connector-curvature="0" />
    <path
       style="fill:none;stroke:#000000;stroke-width:20;stroke-linecap:butt;stroke-linejoin:miter;stroke-miterlimit:10;stroke-opacity:1"
       d="m 11518.984,6441.0156 v 0"
       transform="scale(0.05)"
       id="path14"
       inkscape:connector-curvature="0" />
    <path
       style="fill:none;stroke:#7f7f7f;stroke-width:20;stroke-linecap:butt;stroke-linejoin:miter;stroke-miterlimit:10;stroke-opacity:1"
       d="M 400,5220 H 11520"
       transform="scale(0.05)"
       id="path16"
       inkscape:connector-curvature="0" />
    <path
       style="fill:none;stroke:#000000;stroke-width:20;stroke-linecap:butt;stroke-linejoin:miter;stroke-miterlimit:10;stroke-opacity:1"
       d="m 400,5221.0156 v 0"
       transform="scale(0.05)"
       id="path18"
       inkscape:connector-curvature="0" />
    <path
       style="fill:none;stroke:#000000;stroke-width:20;stroke-linecap:butt;stroke-linejoin:miter;stroke-miterlimit:10;stroke-opacity:1"
       d="m 11518.984,5221.0156 v 0"
       transform="scale(0.05)"
       id="path20"
       inkscape:connector-curvature="0" />
    <path
       style="fill:none;stroke:#7f7f7f;stroke-width:20;stroke-linecap:butt;stroke-linejoin:miter;stroke-miterlimit:10;stroke-opacity:1"
       d="M 400,4000 H 11520"
       transform="scale(0.05)"
       id="path22"
       inkscape:connector-curvature="0" />
    <path
       style="fill:none;stroke:#000000;stroke-width:20;stroke-linecap:butt;stroke-linejoin:miter;stroke-miterlimit:10;stroke-opacity:1"
       d="m 400,4000 v 0"
       transform="scale(0.05)"
       id="path24"
       inkscape:connector-curvature="0" />
    <path
       style="fill:none;stroke:#000000;stroke-width:20;stroke-linecap:butt;stroke-linejoin:miter;stroke-miterlimit:10;stroke-opacity:1"
       d="m 11518.984,4000 v 0"
       transform="scale(0.05)"
       id="path26"
       inkscape:connector-curvature="0" />
    <path
       style="fill:none;stroke:#7f7f7f;stroke-width:20;stroke-linecap:butt;stroke-linejoin:miter;stroke-miterlimit:10;stroke-opacity:1"
       d="M 400,2780 H 11520"
       transform="scale(0.05)"
       id="path28"
       inkscape:connector-curvature="0" />
    <path
       style="fill:none;stroke:#000000;stroke-width:20;stroke-linecap:butt;stroke-linejoin:miter;stroke-miterlimit:10;stroke-opacity:1"
       d="m 400,2780 v 0"
       transform="scale(0.05)"
       id="path30"
       inkscape:connector-curvature="0" />
    <path
       style="fill:none;stroke:#000000;stroke-width:20;stroke-linecap:butt;stroke-linejoin:miter;stroke-miterlimit:10;stroke-opacity:1"
       d="m 11518.984,2780 v 0"
       transform="scale(0.05)"
       id="path32"
       inkscape:connector-curvature="0" />
    <path
       style="fill:none;stroke:#7f7f7f;stroke-width:20;stroke-linecap:butt;stroke-linejoin:miter;stroke-miterlimit:10;stroke-opacity:1"
       d="M 400,1560 H 11520"
       transform="scale(0.05)"
       id="path34"
       inkscape:connector-curvature="0" />
    <path
       style="fill:none;stroke:#000000;stroke-width:20;stroke-linecap:butt;stroke-linejoin:miter;stroke-miterlimit:10;stroke-opacity:1"
       d="m 400,1560 v 0"
       transform="scale(0.05)"
       id="path36"
       inkscape:connector-curvature="0" />
    <path
       style="fill:none;stroke:#000000;stroke-width:20;stroke-linecap:butt;stroke-linejoin:miter;stroke-miterlimit:10;stroke-opacity:1"
       d="m 11518.984,1560 v 0"
       transform="scale(0.05)"
       id="path38"
       inkscape:connector-curvature="0" />
    <path
       style="fill:none;stroke:#7f7f7f;stroke-width:20;stroke-linecap:butt;stroke-linejoin:miter;stroke-miterlimit:10;stroke-opacity:1"
       d="M 400,340 H 11520"
       transform="scale(0.05)"
       id="path40"
       inkscape:connector-curvature="0" />
    <path
       style="fill:none;stroke:#000000;stroke-width:20;stroke-linecap:butt;stroke-linejoin:miter;stroke-miterlimit:10;stroke-opacity:1"
       d="m 400,340 v 0"
       transform="scale(0.05)"
       id="path42"
       inkscape:connector-curvature="0" />
    <path
       style="fill:none;stroke:#000000;stroke-width:20;stroke-linecap:butt;stroke-linejoin:miter;stroke-miterlimit:10;stroke-opacity:1"
       d="m 11518.984,340 v 0"
       transform="scale(0.05)"
       id="path44"
       inkscape:connector-curvature="0" />
    <path
       style="fill:none;stroke:#7f7f7f;stroke-width:20;stroke-linecap:butt;stroke-linejoin:miter;stroke-miterlimit:10;stroke-opacity:1"
       d="M 400,7660 V 340"
       transform="scale(0.05)"
       id="path46"
       inkscape:connector-curvature="0" />
    <path
       style="fill:none;stroke:#000000;stroke-width:20;stroke-linecap:butt;stroke-linejoin:miter;stroke-miterlimit:10;stroke-opacity:1"
       d="m 400,7661.0156 v 0"
       transform="scale(0.05)"
       id="path48"
       inkscape:connector-curvature="0" />
    <path
       style="fill:none;stroke:#000000;stroke-width:20;stroke-linecap:butt;stroke-linejoin:miter;stroke-miterlimit:10;stroke-opacity:1"
       d="m 400,340 v 0"
       transform="scale(0.05)"
       id="path50"
       inkscape:connector-curvature="0" />
    <path
       style="fill:none;stroke:#7f7f7f;stroke-width:20;stroke-linecap:butt;stroke-linejoin:miter;stroke-miterlimit:10;stroke-opacity:1"
       d="M 1520,7660 V 340"
       transform="scale(0.05)"
       id="path52"
       inkscape:connector-curvature="0" />
    <path
       style="fill:none;stroke:#000000;stroke-width:20;stroke-linecap:butt;stroke-linejoin:miter;stroke-miterlimit:10;stroke-opacity:1"
       d="m 1512.0313,7661.0156 v 0"
       transform="scale(0.05)"
       id="path54"
       inkscape:connector-curvature="0" />
    <path
       style="fill:none;stroke:#000000;stroke-width:20;stroke-linecap:butt;stroke-linejoin:miter;stroke-miterlimit:10;stroke-opacity:1"
       d="m 1512.0313,340 v 0"
       transform="scale(0.05)"
       id="path56"
       inkscape:connector-curvature="0" />
    <path
       style="fill:none;stroke:#7f7f7f;stroke-width:20;stroke-linecap:butt;stroke-linejoin:miter;stroke-miterlimit:10;stroke-opacity:1"
       d="M 2620,7660 V 340"
       transform="scale(0.05)"
       id="path58"
       inkscape:connector-curvature="0" />
    <path
       style="fill:none;stroke:#000000;stroke-width:20;stroke-linecap:butt;stroke-linejoin:miter;stroke-miterlimit:10;stroke-opacity:1"
       d="m 2623.9844,7661.0156 v 0"
       transform="scale(0.05)"
       id="path60"
       inkscape:connector-curvature="0" />
    <path
       style="fill:none;stroke:#000000;stroke-width:20;stroke-linecap:butt;stroke-linejoin:miter;stroke-miterlimit:10;stroke-opacity:1"
       d="m 2623.9844,340 v 0"
       transform="scale(0.05)"
       id="path62"
       inkscape:connector-curvature="0" />
    <path
       style="fill:none;stroke:#7f7f7f;stroke-width:20;stroke-linecap:butt;stroke-linejoin:miter;stroke-miterlimit:10;stroke-opacity:1"
       d="M 3740,7660 V 340"
       transform="scale(0.05)"
       id="path64"
       inkscape:connector-curvature="0" />
    <path
       style="fill:none;stroke:#000000;stroke-width:20;stroke-linecap:butt;stroke-linejoin:miter;stroke-miterlimit:10;stroke-opacity:1"
       d="m 3736.0156,7661.0156 v 0"
       transform="scale(0.05)"
       id="path66"
       inkscape:connector-curvature="0" />
    <path
       style="fill:none;stroke:#000000;stroke-width:20;stroke-linecap:butt;stroke-linejoin:miter;stroke-miterlimit:10;stroke-opacity:1"
       d="m 3736.0156,340 v 0"
       transform="scale(0.05)"
       id="path68"
       inkscape:connector-curvature="0" />
    <path
       style="fill:none;stroke:#7f7f7f;stroke-width:20;stroke-linecap:butt;stroke-linejoin:miter;stroke-miterlimit:10;stroke-opacity:1"
       d="M 4840,7660 V 340"
       transform="scale(0.05)"
       id="path70"
       inkscape:connector-curvature="0" />
    <path
       style="fill:none;stroke:#000000;stroke-width:20;stroke-linecap:butt;stroke-linejoin:miter;stroke-miterlimit:10;stroke-opacity:1"
       d="m 4847.9687,7661.0156 v 0"
       transform="scale(0.05)"
       id="path72"
       inkscape:connector-curvature="0" />
    <path
       style="fill:none;stroke:#000000;stroke-width:20;stroke-linecap:butt;stroke-linejoin:miter;stroke-miterlimit:10;stroke-opacity:1"
       d="m 4847.9687,340 v 0"
       transform="scale(0.05)"
       id="path74"
       inkscape:connector-curvature="0" />
    <path
       style="fill:none;stroke:#7f7f7f;stroke-width:20;stroke-linecap:butt;stroke-linejoin:miter;stroke-miterlimit:10;stroke-opacity:1"
       d="M 5960,7660 V 340"
       transform="scale(0.05)"
       id="path76"
       inkscape:connector-curvature="0" />
    <path
       style="fill:none;stroke:#000000;stroke-width:20;stroke-linecap:butt;stroke-linejoin:miter;stroke-miterlimit:10;stroke-opacity:1"
       d="m 5960,7661.0156 v 0"
       transform="scale(0.05)"
       id="path78"
       inkscape:connector-curvature="0" />
    <path
       style="fill:none;stroke:#000000;stroke-width:20;stroke-linecap:butt;stroke-linejoin:miter;stroke-miterlimit:10;stroke-opacity:1"
       d="m 5960,340 v 0"
       transform="scale(0.05)"
       id="path80"
       inkscape:connector-curvature="0" />
    <path
       style="fill:none;stroke:#7f7f7f;stroke-width:20;stroke-linecap:butt;stroke-linejoin:miter;stroke-miterlimit:10;stroke-opacity:1"
       d="M 7080,7660 V 340"
       transform="scale(0.05)"
       id="path82"
       inkscape:connector-curvature="0" />
    <path
       style="fill:none;stroke:#000000;stroke-width:20;stroke-linecap:butt;stroke-linejoin:miter;stroke-miterlimit:10;stroke-opacity:1"
       d="m 7071.0156,7661.0156 v 0"
       transform="scale(0.05)"
       id="path84"
       inkscape:connector-curvature="0" />
    <path
       style="fill:none;stroke:#000000;stroke-width:20;stroke-linecap:butt;stroke-linejoin:miter;stroke-miterlimit:10;stroke-opacity:1"
       d="m 7071.0156,340 v 0"
       transform="scale(0.05)"
       id="path86"
       inkscape:connector-curvature="0" />
    <path
       style="fill:none;stroke:#7f7f7f;stroke-width:20;stroke-linecap:butt;stroke-linejoin:miter;stroke-miterlimit:10;stroke-opacity:1"
       d="M 8180,7660 V 340"
       transform="scale(0.05)"
       id="path88"
       inkscape:connector-curvature="0" />
    <path
       style="fill:none;stroke:#000000;stroke-width:20;stroke-linecap:butt;stroke-linejoin:miter;stroke-miterlimit:10;stroke-opacity:1"
       d="m 8182.9687,7661.0156 v 0"
       transform="scale(0.05)"
       id="path90"
       inkscape:connector-curvature="0" />
    <path
       style="fill:none;stroke:#000000;stroke-width:20;stroke-linecap:butt;stroke-linejoin:miter;stroke-miterlimit:10;stroke-opacity:1"
       d="m 8182.9687,340 v 0"
       transform="scale(0.05)"
       id="path92"
       inkscape:connector-curvature="0" />
    <path
       style="fill:none;stroke:#7f7f7f;stroke-width:20;stroke-linecap:butt;stroke-linejoin:miter;stroke-miterlimit:10;stroke-opacity:1"
       d="M 9300,7660 V 340"
       transform="scale(0.05)"
       id="path94"
       inkscape:connector-curvature="0" />
    <path
       style="fill:none;stroke:#000000;stroke-width:20;stroke-linecap:butt;stroke-linejoin:miter;stroke-miterlimit:10;stroke-opacity:1"
       d="m 9295,7661.0156 v 0"
       transform="scale(0.05)"
       id="path96"
       inkscape:connector-curvature="0" />
    <path
       style="fill:none;stroke:#000000;stroke-width:20;stroke-linecap:butt;stroke-linejoin:miter;stroke-miterlimit:10;stroke-opacity:1"
       d="m 9295,340 v 0"
       transform="scale(0.05)"
       id="path98"
       inkscape:connector-curvature="0" />
    <path
       style="fill:none;stroke:#7f7f7f;stroke-width:20;stroke-linecap:butt;stroke-linejoin:miter;stroke-miterlimit:10;stroke-opacity:1"
       d="M 10400,7660 V 480"
       transform="scale(0.05)"
       id="path100"
       inkscape:connector-curvature="0" />
    <path
       style="fill:none;stroke:#7f7f7f;stroke-width:20;stroke-linecap:butt;stroke-linejoin:miter;stroke-miterlimit:10;stroke-opacity:1"
       d="M 10400,480 V 340"
       transform="scale(0.05)"
       id="path102"
       inkscape:connector-curvature="0" />
    <path
       style="fill:none;stroke:#000000;stroke-width:20;stroke-linecap:butt;stroke-linejoin:miter;stroke-miterlimit:10;stroke-opacity:1"
       d="m 10407.031,7661.0156 v 0"
       transform="scale(0.05)"
       id="path104"
       inkscape:connector-curvature="0" />
    <path
       style="fill:none;stroke:#000000;stroke-width:20;stroke-linecap:butt;stroke-linejoin:miter;stroke-miterlimit:10;stroke-opacity:1"
       d="m 10407.031,340 v 0"
       transform="scale(0.05)"
       id="path106"
       inkscape:connector-curvature="0" />
    <path
       style="fill:none;stroke:#7f7f7f;stroke-width:20;stroke-linecap:butt;stroke-linejoin:miter;stroke-miterlimit:10;stroke-opacity:1"
       d="M 11520,7660 V 340"
       transform="scale(0.05)"
       id="path108"
       inkscape:connector-curvature="0" />
    <path
       style="fill:none;stroke:#000000;stroke-width:20;stroke-linecap:butt;stroke-linejoin:miter;stroke-miterlimit:10;stroke-opacity:1"
       d="m 11518.984,7661.0156 v 0"
       transform="scale(0.05)"
       id="path110"
       inkscape:connector-curvature="0" />
    <path
       style="fill:none;stroke:#000000;stroke-width:20;stroke-linecap:butt;stroke-linejoin:miter;stroke-miterlimit:10;stroke-opacity:1"
       d="m 11518.984,340 v 0"
       transform="scale(0.05)"
       id="path112"
       inkscape:connector-curvature="0" />
    <path
       style="fill:none;stroke:#000000;stroke-width:20;stroke-linecap:butt;stroke-linejoin:miter;stroke-miterlimit:10;stroke-opacity:1"
       d="M 400,340 V 7660 H 11520 V 340 H 400"
       transform="scale(0.05)"
       id="path114"
       inkscape:connector-curvature="0" />
    <path
       style="fill:none;stroke:#0000ff;stroke-width:20;stroke-linecap:butt;stroke-linejoin:miter;stroke-miterlimit:10;stroke-opacity:1"
       d="M 400,4000 512.03125,3032.3171 625,2439.3484 l 112.03125,-435 178.59075,-249.8258 v 0 l 158.3624,289.8258 112.0312,455.9375 112.9688,606.0156 112.0312,1275.8188 111.9532,671.0156 112.0312,577.0312 68.5437,228.4443 140.7769,99.6813 169.5225,-10.6724 105.129,-93.0107 78.0592,-406.4737 111.9531,-617.9688 113.0469,-986.1827 111.9531,-956.6673 112.0312,-562.9687 162.6204,-385.7892 89.1653,-187.7107 79.941,159.1412 118.2733,221.3118 111.9532,496.0156 112.0312,630 112.0313,1281.8344 112.9687,656.0156 112.0313,545.9375 93.6604,180.9092 152.2455,27.4041 166.8311,-31.7001 57.1532,-153.5418 92.0629,-446.0401 112.0312,-641.0156 111.9531,-989.1515 113.0469,-940.6517 161.6047,-497.6255 112.0313,-360.6795 63.3171,-133.7262 64.993,124.0625 101.5782,357.8397 169.4445,524.1134 113.0468,942.6829 111.9532,990.1671 112.0312,637.9688 107.7423,432.6184 78.0591,152.7526 156.3782,23.0714 160.0852,-17.7404 59.6883,-192.6552 112.0313,-550 112.9687,-658.0468 L 6465,3241.3015 l 112.0312,-627.9688 96.3382,-299.8558 161.9229,-436.4515 78.6921,-114.7083 58.4438,126.2293 133.2951,451.4508 145.2923,562.3199 111.9531,957.6829 113.0469,986.1046 77.981,791.1028 94.4497,173.4426 213.7256,122.2692 v 0 l 265.0321,-157.3312 51.5416,-133.9329 83.2857,-604.5348 111.9531,-975.089 113.0469,-971.7454 111.9531,-602.9688 108.3355,-385.509 82.3878,-200.6518 79.7857,-133.6219 108.2575,174.5648 182.2491,510.2179 112.9688,595 112.0312,969.7142 112.0313,978.1358 112.9687,690.6156 117.2578,195.824 132.859,30.8311 v 0 l 204.0932,-18.9025 106.806,-293.7682 112.968,-710.6156 112.032,-984.1515 111.953,-961.6673 112.031,-573.9843 105.129,-289.7909 169.523,-338.3728 41.473,109.7491 133.875,244.3521 112.031,481.0156 111.953,621.0156 113.047,1279.8032 111.953,662.0312"
       transform="scale(0.05)"
       id="path116"
       inkscape:connector-curvature="0"
       sodipodi:nodetypes="cccccccccccccccccccccccccccccccccccccccccccccccccccccccccccccccccccccccccccccccccccccccccccccccccccc" />
    <path
       style="fill:none;stroke:#ff0000;stroke-width:20;stroke-linecap:butt;stroke-linejoin:miter;stroke-miterlimit:10;stroke-opacity:1"
       d="M 400,4000 512.03125,4168.9844 625,4317.9687 l 112.03125,108.0469 111.95312,56.9531 113.04688,-3.9843 111.95315,-62.9688 112.0312,-113.9844 112.9688,-151.0156 112.0312,-170 111.9532,-168.0468 75.4458,-91.7196 598.6167,-7.2648 111.9531,155 113.0469,171.0156 111.9531,166.0156 112.0312,140 112.9688,97.9688 112.0312,43.0468 111.9532,-17.0312 113.0468,-75 111.9532,-123.9844 112.0312,-158.0469 112.0313,-170.9374 115.5819,-192.8081 671.3712,-2.1919 112.0312,160 111.9531,171.9531 113.0469,162.0312 111.9531,131.9531 112.0313,86.0157 112.9687,30 L 5005,4457.9687 5117.0312,4370 5228.9844,4237.0312 5342.0312,4075 l 111.9532,-172.0312 112.0312,-160 673.9844,1.4614 112.9687,201.5854 112.0313,171.0156 112.0312,156.9532 112.9688,123.0468 112.0312,73.9844 111.9532,16.0156 112.0312,-45 112.9688,-99.0625 112.0312,-140.9375 111.9531,-166.0156 113.0469,-171.0156 77.9809,-130.4652 708.0348,4.0993 111.9531,246.3659 113.0469,170 111.9531,151.0156 112.0312,112.9688 111.9532,61.0156 113.0468,2.0312 111.9532,-58.0468 112.0312,-110 112.9688,-147.9688 112.0312,-170 112.0313,-168.0468 76.3833,-121.8364 597.6014,-4.1011 112.968,151.9531 112.032,170 111.953,168.0468 L 10620,4335 l 112.969,102.9687 112.031,48.0469 112.031,-12.0312 112.969,-70 112.031,-121.0157 111.953,-155 113.047,-170.9374 111.953,-165"
       transform="scale(0.05)"
       id="path118"
       inkscape:connector-curvature="0"
       sodipodi:nodetypes="ccccccccccccccccccccccccccccccccccccccccccccccccccccccccccccccccccccccccccccc" />
    <path
       style="fill:none;stroke:#000000;stroke-width:20;stroke-linecap:butt;stroke-linejoin:miter;stroke-miterlimit:10;stroke-opacity:1"
       d="M 400,340 V 7660 H 11520 V 340 H 400"
       transform="scale(0.05)"
       id="path120"
       inkscape:connector-curvature="0" />
  </g>
</svg>
