<?xml version="1.0" encoding="UTF-8" standalone="no"?>
<!-- Created with matplotlib (http://matplotlib.org/) -->

<svg
   xmlns:dc="http://purl.org/dc/elements/1.1/"
   xmlns:cc="http://creativecommons.org/ns#"
   xmlns:rdf="http://www.w3.org/1999/02/22-rdf-syntax-ns#"
   xmlns:svg="http://www.w3.org/2000/svg"
   xmlns="http://www.w3.org/2000/svg"
   xmlns:xlink="http://www.w3.org/1999/xlink"
   xmlns:sodipodi="http://sodipodi.sourceforge.net/DTD/sodipodi-0.dtd"
   xmlns:inkscape="http://www.inkscape.org/namespaces/inkscape"
   height="320.48883pt"
   version="1.1"
   viewBox="0 0 434.04947 320.48883"
   width="434.04947pt"
   id="svg138"
   sodipodi:docname="01-rs-edited.svg"
   inkscape:version="0.92.2 (5c3e80d, 2017-08-06)">
  <metadata
     id="metadata142">
    <rdf:RDF>
      <cc:Work
         rdf:about="">
        <dc:format>image/svg+xml</dc:format>
        <dc:type
           rdf:resource="http://purl.org/dc/dcmitype/StillImage" />
        <dc:title></dc:title>
      </cc:Work>
    </rdf:RDF>
  </metadata>
  <sodipodi:namedview
     pagecolor="#ffffff"
     bordercolor="#666666"
     borderopacity="1"
     objecttolerance="10"
     gridtolerance="10"
     guidetolerance="10"
     inkscape:pageopacity="0"
     inkscape:pageshadow="2"
     inkscape:window-width="1920"
     inkscape:window-height="1027"
     id="namedview140"
     showgrid="false"
     fit-margin-top="0"
     fit-margin-left="0"
     fit-margin-right="0"
     fit-margin-bottom="0"
     inkscape:zoom="2.0125506"
     inkscape:cx="289.36631"
     inkscape:cy="213.65921"
     inkscape:window-x="-8"
     inkscape:window-y="-8"
     inkscape:window-maximized="1"
     inkscape:current-layer="patch_12" />
  <defs
     id="defs4"
     style="stroke-linecap:butt;stroke-linejoin:round">
    <marker
       inkscape:isstock="true"
       style="overflow:visible;stroke-linecap:butt;stroke-linejoin:round"
       id="marker1553"
       refX="0"
       refY="0"
       orient="auto"
       inkscape:stockid="Arrow2Mend">
      <path
         transform="scale(-0.6)"
         d="M 8.7185878,4.0337352 -2.2072895,0.01601326 8.7185884,-4.0017078 c -1.7454984,2.3720609 -1.7354408,5.6174519 -6e-7,8.035443 z"
         style="fill:#000000;fill-opacity:1;fill-rule:evenodd;stroke:#000000;stroke-width:0.625;stroke-linecap:butt;stroke-linejoin:round;stroke-opacity:1"
         id="path1551"
         inkscape:connector-curvature="0" />
    </marker>
    <marker
       inkscape:stockid="Arrow2Mend"
       orient="auto"
       refY="0"
       refX="0"
       id="marker1489"
       style="overflow:visible;stroke-linecap:butt;stroke-linejoin:round"
       inkscape:isstock="true"
       inkscape:collect="always">
      <path
         id="path1487"
         style="fill:#000000;fill-opacity:1;fill-rule:evenodd;stroke:#000000;stroke-width:0.625;stroke-linecap:butt;stroke-linejoin:round;stroke-opacity:1"
         d="M 8.7185878,4.0337352 -2.2072895,0.01601326 8.7185884,-4.0017078 c -1.7454984,2.3720609 -1.7354408,5.6174519 -6e-7,8.035443 z"
         transform="scale(-0.6)"
         inkscape:connector-curvature="0" />
    </marker>
    <marker
       inkscape:isstock="true"
       style="overflow:visible;stroke-linecap:butt;stroke-linejoin:round"
       id="marker1431"
       refX="0"
       refY="0"
       orient="auto"
       inkscape:stockid="Arrow2Mend"
       inkscape:collect="always">
      <path
         transform="scale(-0.6)"
         d="M 8.7185878,4.0337352 -2.2072895,0.01601326 8.7185884,-4.0017078 c -1.7454984,2.3720609 -1.7354408,5.6174519 -6e-7,8.035443 z"
         style="fill:#000000;fill-opacity:1;fill-rule:evenodd;stroke:#000000;stroke-width:0.625;stroke-linecap:butt;stroke-linejoin:round;stroke-opacity:1"
         id="path1429"
         inkscape:connector-curvature="0" />
    </marker>
    <marker
       inkscape:stockid="Arrow2Mend"
       orient="auto"
       refY="0"
       refX="0"
       id="marker1379"
       style="overflow:visible;stroke-linecap:butt;stroke-linejoin:round"
       inkscape:isstock="true"
       inkscape:collect="always">
      <path
         id="path1377"
         style="fill:#000000;fill-opacity:1;fill-rule:evenodd;stroke:#000000;stroke-width:0.625;stroke-linecap:butt;stroke-linejoin:round;stroke-opacity:1"
         d="M 8.7185878,4.0337352 -2.2072895,0.01601326 8.7185884,-4.0017078 c -1.7454984,2.3720609 -1.7354408,5.6174519 -6e-7,8.035443 z"
         transform="scale(-0.6)"
         inkscape:connector-curvature="0" />
    </marker>
    <marker
       inkscape:isstock="true"
       style="overflow:visible;stroke-linecap:butt;stroke-linejoin:round"
       id="marker1333"
       refX="0"
       refY="0"
       orient="auto"
       inkscape:stockid="Arrow2Mend"
       inkscape:collect="always">
      <path
         transform="scale(-0.6)"
         d="M 8.7185878,4.0337352 -2.2072895,0.01601326 8.7185884,-4.0017078 c -1.7454984,2.3720609 -1.7354408,5.6174519 -6e-7,8.035443 z"
         style="fill:#000000;fill-opacity:1;fill-rule:evenodd;stroke:#000000;stroke-width:0.625;stroke-linecap:butt;stroke-linejoin:round;stroke-opacity:1"
         id="path1331"
         inkscape:connector-curvature="0" />
    </marker>
    <marker
       inkscape:stockid="Arrow2Mend"
       orient="auto"
       refY="0"
       refX="0"
       id="marker1293"
       style="overflow:visible;stroke-linecap:butt;stroke-linejoin:round"
       inkscape:isstock="true"
       inkscape:collect="always">
      <path
         id="path1291"
         style="fill:#000000;fill-opacity:1;fill-rule:evenodd;stroke:#000000;stroke-width:0.625;stroke-linecap:butt;stroke-linejoin:round;stroke-opacity:1"
         d="M 8.7185878,4.0337352 -2.2072895,0.01601326 8.7185884,-4.0017078 c -1.7454984,2.3720609 -1.7354408,5.6174519 -6e-7,8.035443 z"
         transform="scale(-0.6)"
         inkscape:connector-curvature="0" />
    </marker>
    <marker
       inkscape:isstock="true"
       style="overflow:visible;stroke-linecap:butt;stroke-linejoin:round"
       id="marker1259"
       refX="0"
       refY="0"
       orient="auto"
       inkscape:stockid="Arrow2Mend"
       inkscape:collect="always">
      <path
         transform="scale(-0.6)"
         d="M 8.7185878,4.0337352 -2.2072895,0.01601326 8.7185884,-4.0017078 c -1.7454984,2.3720609 -1.7354408,5.6174519 -6e-7,8.035443 z"
         style="fill:#000000;fill-opacity:1;fill-rule:evenodd;stroke:#000000;stroke-width:0.625;stroke-linecap:butt;stroke-linejoin:round;stroke-opacity:1"
         id="path1257"
         inkscape:connector-curvature="0" />
    </marker>
    <marker
       inkscape:stockid="Arrow2Mend"
       orient="auto"
       refY="0"
       refX="0"
       id="Arrow2Mend"
       style="overflow:visible;stroke-linecap:butt;stroke-linejoin:round"
       inkscape:isstock="true"
       inkscape:collect="always">
      <path
         id="path976"
         style="fill:#000000;fill-opacity:1;fill-rule:evenodd;stroke:#000000;stroke-width:0.625;stroke-linecap:butt;stroke-linejoin:round;stroke-opacity:1"
         d="M 8.7185878,4.0337352 -2.2072895,0.01601326 8.7185884,-4.0017078 c -1.7454984,2.3720609 -1.7354408,5.6174519 -6e-7,8.035443 z"
         transform="scale(-0.6)"
         inkscape:connector-curvature="0" />
    </marker>
    <style
       type="text/css"
       id="style2">
*{stroke-linecap:butt;stroke-linejoin:round;}
  </style>
  </defs>
  <g
     id="figure_1"
     style="stroke-linecap:butt;stroke-linejoin:round"
     transform="translate(-14.64,-12.110529)">
    <g
       id="patch_1"
       style="stroke-linecap:butt;stroke-linejoin:round" />
    <g
       id="axes_1"
       style="stroke-linecap:butt;stroke-linejoin:round">
      <g
         id="patch_2"
         style="stroke-linecap:butt;stroke-linejoin:round">
        <path
           d="M 29.415,70.34 H 447.48 V 13.32 H 29.415 Z"
           style="fill:#ffffff;stroke-linecap:butt;stroke-linejoin:round"
           id="path9"
           inkscape:connector-curvature="0" />
      </g>
      <g
         id="matplotlib.axis_1"
         style="stroke-linecap:butt;stroke-linejoin:round">
        <g
           id="text_1"
           style="stroke-linecap:butt;stroke-linejoin:round">
          <!-- t -->
          <defs
             id="defs13">
            <path
               d="m 29.296875,9 c -2.5,-2.796875 -3.796875,-4.09375 -7,-4.09375 -3.890625,0 -4.796875,2.390625 -4.796875,9.5 v 28.6875 h 11.296875 v 4.203125 H 17.5 L 17.59375,61 H 15 C 11.40625,52.5 8.40625,48.296875 3.703125,45.40625 v -2.3125 h 5.5 v -31.5 c 0,-9 2.890625,-12.59375 9.59375,-12.59375 6.40625,0 8.5,3 12.40625,8.40625 z"
               id="STIXTwoMath-74"
               inkscape:connector-curvature="0"
               style="stroke-linecap:butt;stroke-linejoin:round" />
          </defs>
          <g
             transform="matrix(0.1,0,0,-0.1,236.8725,81.399375)"
             id="g17"
             style="stroke-linecap:butt;stroke-linejoin:round">
            <use
               xlink:href="#STIXTwoMath-74"
               id="use15"
               style="stroke-linecap:butt;stroke-linejoin:round"
               x="0"
               y="0"
               width="100%"
               height="100%" />
          </g>
        </g>
      </g>
      <g
         id="matplotlib.axis_2"
         style="stroke-linecap:butt;stroke-linejoin:round">
        <g
           id="text_2"
           style="stroke-linecap:butt;stroke-linejoin:round">
          <!-- $R$ -->
          <defs
             id="defs22">
            <path
               d="M 13.203125,65.296875 H 38.40625 q 9.6875,0 15.03125,-3.796875 5.359375,-3.796875 5.359375,-10.296875 0,-7.796875 -6.59375,-12.796875 -3.90625,-3 -13.109375,-5.109375 L 48,9.796875 Q 49.703125,5.203125 51.546875,3.390625 53.40625,1.59375 56.703125,1.59375 V 0 H 42 l -12.296875,32.40625 -6.609375,0.5 -5.5,-20.3125 Q 16.296875,8 16.296875,6.296875 16.296875,4 17.59375,3 18.90625,2 23,1.59375 V 0 H -1.296875 v 1.59375 q 4,0.5 5.640625,2.203125 Q 6,5.5 7.203125,10.09375 L 19.09375,53.203125 q 1.203125,4.59375 1.203125,6.296875 0,1.796875 -1.390625,2.796875 -1.203125,0.796875 -5.703125,1.40625 z m 17.390625,-6 -6.296875,-22.703125 q 3.109375,-0.5 5.109375,-0.5 8.890625,0 13.890625,4 5,4 5,11 0,5.203125 -3.109375,8.203125 -3.09375,3 -8.890625,3 -4.890625,0 -5.703125,-3 z"
               id="STIXGeneral-Italic-52"
               inkscape:connector-curvature="0"
               style="stroke-linecap:butt;stroke-linejoin:round" />
          </defs>
          <g
             transform="matrix(0,-0.1,-0.1,0,23.215,44.93)"
             id="g26"
             style="stroke-linecap:butt;stroke-linejoin:round">
            <use
               transform="translate(0,0.703125)"
               xlink:href="#STIXGeneral-Italic-52"
               id="use24"
               style="stroke-linecap:butt;stroke-linejoin:round"
               x="0"
               y="0"
               width="100%"
               height="100%" />
          </g>
        </g>
      </g>
      <g
         id="line2d_1"
         style="stroke-linecap:butt;stroke-linejoin:round">
        <path
           clip-path="url(#p0961f4360d)"
           d="m 29.415,70.34 h 0.854414 v 0 0 h 0.854415 v 0 0 h 0.854414 v 0 0 h 0.854415 v 0 0 h 0.854414 v 0 0 h 0.854415 v 0 0 h 0.854414 v 0 0 h 0.854415 v 0 0 h 0.854414 v 0 0 h 0.854415 v 0 0 h 0.854414 v 0 0 h 0.854415 v 0 0 h 0.854414 v 0 0 h 0.854415 v 0 0 h 0.854414 v 0 0 h 0.854415 v 0 0 h 0.854414 v 0 0 h 0.854414 v 0 0 h 0.854415 v 0 0 h 0.854414 v 0 0 h 0.854415 v 0 0 h 0.854414 v 0 0 h 0.854415 v 0 0 h 0.854414 v 0 0 h 0.854415 v 0 0 h 0.854414 v 0 0 h 0.854415 v 0 0 h 0.854414 v 0 0 h 0.854415 v 0 0 h 0.854414 v 0 0 h 0.854415 v 0 0 h 0.854414 v 0 0 h 0.854414 v 0 0 h 0.854415 v 0 0 h 0.854414 v 0 0 h 0.854415 v 0 0 h 0.854414 v 0 0 h 0.854415 v 0 0 h 0.854414 v 0 0 h 0.854415 v 0 0 h 0.854414 v 0 0 h 0.854415 v 0 0 h 0.854414 v 0 0 h 0.854415 v 0 0 h 0.854414 v 0 0 h 0.854415 v 0 0 h 0.854414 v 0 0 h 0.854415 v 0 0 h 0.854414 v 0 0 h 0.854414 v 0 0 h 0.854415 v 0 0 h 0.854414 v 0 0 h 0.854415 v 0 0 h 0.854414 v 0 0 h 0.854415 v 0 0 h 0.854414 v 0 0 h 0.854415 v 0 0 h 0.854414 v 0 0 h 0.854415 v 0 0 h 0.854414 v 0 0 h 0.854415 v 0 0 h 0.854414 v 0 0 h 0.854415 v 0 0 h 0.854414 v 0 0 h 0.854415 v 0 0 h 0.854414 v 0 0 h 0.854414 v 0 0 h 0.854415 v 0 0 h 0.854414 v 0 0 h 0.854415 v 0 0 h 0.854414 v 0 0 h 0.854415 v 0 0 h 0.854414 v 0 0 h 0.854415 v 0 0 h 0.854414 v 0 0 H 94.3505 v 0 0 h 0.854414 v 0 0 h 0.854415 v 0 0 h 0.854414 v 0 0 h 0.854415 v 0 0 h 0.854414 v 0 0 h 0.854415 v 0 0 h 0.854413 v 0 0 h 0.85442 v 0 0 h 0.85441 v 0 0 h 0.85441 v 0 0 h 0.85442 v 0 0 h 0.85441 v 0 0 h 0.85442 v 0 0 h 0.85441 v 0 0 h 0.85442 v 0 0 h 0.85441 v 0 0 h 0.85442 v 0 0 h 0.85441 v 0 0 h 0.85441 v 0 0 h 0.85442 v 0 0 h 0.85441 v 0 0 h 0.85442 v 0 0 h 0.85441 v 0 0 h 0.85442 v 0 0 h 0.85441 v 0 0 h 0.85442 v 0 0 h 0.85441 v 0 0 h 0.85442 v 0 0 h 0.85441 v 0 0 h 0.85441 v 0 0 h 0.85442 v 0 0 h 0.85441 v 0 0 h 0.85442 v 0 0 h 0.85441 v 0 0 h 0.85442 v 0 0 h 0.85441 v 0 0 h 0.85442 v 0 0 h 0.85441 v 0 0 h 0.85441 v 0 0 h 0.85442 v 0 0 h 0.85441 v 0 0 h 0.85442 v 0 0 h 0.85441 v 0 0 h 0.85442 v 0 0 h 0.85441 v 0 0 h 0.85441 v 0 0 h 0.85442 v 0 0 h 0.85441 v 0 0 h 0.85442 v 0 0 h 0.85441 v 0 0 h 0.85442 v 0 0 h 0.85441 v 0 0 h 0.85442 v 0 0 h 0.85441 v 0 0 h 0.85442 v 0 0 h 0.85441 v 0 0 h 0.85441 v 0 0 h 0.85442 V 16.035238 H 257.54366 V 70.34 h 170.02848 v 0"
           style="fill:none;stroke:#1f77b4;stroke-width:1.5;stroke-linecap:square;stroke-linejoin:round"
           id="path30"
           inkscape:connector-curvature="0" />
      </g>
      <g
         id="patch_3"
         style="stroke-linecap:butt;stroke-linejoin:round">
        <path
           d="M 29.415,70.34 V 13.32"
           style="fill:none;stroke:#000000;stroke-width:0.80000001;stroke-linecap:square;stroke-linejoin:miter;marker-end:url(#marker1259)"
           id="path33"
           inkscape:connector-curvature="0" />
      </g>
      <g
         id="patch_4"
         style="stroke-linecap:butt;stroke-linejoin:round">
        <path
           d="M 29.415,70.34 H 447.48"
           style="fill:none;stroke:#000000;stroke-width:0.80000001;stroke-linecap:square;stroke-linejoin:miter;marker-end:url(#Arrow2Mend)"
           id="path36"
           inkscape:connector-curvature="0" />
      </g>
    </g>
    <g
       id="axes_2"
       style="stroke-linecap:butt;stroke-linejoin:round">
      <g
         id="patch_5"
         style="stroke-linecap:butt;stroke-linejoin:round">
        <path
           d="M 29.415,154.04 H 447.48 V 97.02 H 29.415 Z"
           style="fill:#ffffff;stroke-linecap:butt;stroke-linejoin:round"
           id="path40"
           inkscape:connector-curvature="0" />
      </g>
      <g
         id="matplotlib.axis_3"
         style="stroke-linecap:butt;stroke-linejoin:round">
        <g
           id="text_3"
           style="stroke-linecap:butt;stroke-linejoin:round">
          <!-- t -->
          <g
             transform="matrix(0.1,0,0,-0.1,236.8725,165.09937)"
             id="g45"
             style="stroke-linecap:butt;stroke-linejoin:round">
            <use
               xlink:href="#STIXTwoMath-74"
               id="use43"
               style="stroke-linecap:butt;stroke-linejoin:round"
               x="0"
               y="0"
               width="100%"
               height="100%" />
          </g>
        </g>
      </g>
      <g
         id="matplotlib.axis_4"
         style="stroke-linecap:butt;stroke-linejoin:round">
        <g
           id="text_4"
           style="stroke-linecap:butt;stroke-linejoin:round">
          <!-- $S$ -->
          <defs
             id="defs50">
            <path
               d="m 50.796875,66.703125 -4,-20 L 45,47 q 0,8.296875 -2.5,12.296875 -2.5,4 -9.40625,4 -5.1875,0 -8.1875,-2.65625 -3,-2.640625 -3,-7.34375 0,-3.796875 1.59375,-6.34375 1.59375,-2.546875 8.296875,-9.25 6.703125,-6.796875 9,-10.90625 2.296875,-4.09375 2.296875,-9.09375 0,-8.5 -5.75,-14 -5.75,-5.5 -14.4375,-5.5 Q 19.09375,-1.796875 12.5,0.5 9.296875,1.703125 7.796875,1.703125 4.5,1.703125 3.5,-1.5 H 1.703125 l 3.390625,22.40625 2,-0.203125 q -0.1875,-0.90625 -0.1875,-2.296875 0,-7.3125 4.046875,-12.015625 4.046875,-4.6875 10.34375,-4.6875 5.796875,0 9.453125,3.546875 3.65625,3.546875 3.65625,9.25 0,3.296875 -1.3125,5.9375 -1.296875,2.65625 -4.6875,6.359375 L 24.5,31 q -0.296875,0.296875 -1.703125,1.84375 -1.390625,1.5625 -2.203125,2.359375 -4.5,4.796875 -6,7.84375 -1.5,3.046875 -1.5,7.15625 0,7.59375 5.15625,11.984375 5.15625,4.40625 12.65625,4.40625 5.1875,0 8.5,-1.390625 Q 42.296875,64.09375 44,64.09375 q 1.703125,0 2.59375,0.5 0.90625,0.5 1.90625,2.109375 z"
               id="STIXGeneral-Italic-53"
               inkscape:connector-curvature="0"
               style="stroke-linecap:butt;stroke-linejoin:round" />
          </defs>
          <g
             transform="matrix(0,-0.1,-0.1,0,23.215,128.03)"
             id="g54"
             style="stroke-linecap:butt;stroke-linejoin:round">
            <use
               transform="translate(0,0.296875)"
               xlink:href="#STIXGeneral-Italic-53"
               id="use52"
               style="stroke-linecap:butt;stroke-linejoin:round"
               x="0"
               y="0"
               width="100%"
               height="100%" />
          </g>
        </g>
      </g>
      <g
         id="line2d_2"
         style="stroke-linecap:butt;stroke-linejoin:round">
        <path
           clip-path="url(#p526a60155c)"
           d="m 29.415,154.04 h 0.854414 v 0 0 h 0.854415 v 0 0 h 0.854414 v 0 0 h 0.854415 v 0 0 h 0.854414 v 0 0 h 0.854415 v 0 0 h 0.854414 v 0 0 h 0.854415 v 0 0 h 0.854414 v 0 0 h 0.854415 v 0 0 h 0.854414 v 0 0 h 0.854415 v 0 0 h 0.854414 v 0 0 h 0.854415 v 0 0 h 0.854414 v 0 0 h 0.854415 v 0 0 h 0.854414 v 0 0 h 0.854414 v 0 0 h 0.854415 v 0 0 h 0.854414 v 0 0 h 0.854415 v 0 0 h 0.854414 v 0 0 h 0.854415 v 0 0 h 0.854414 v 0 0 h 0.854415 v 0 0 h 0.854414 v 0 0 h 0.854415 v 0 0 h 0.854414 v 0 0 h 0.854415 v 0 0 h 0.854414 v 0 0 h 0.854415 v 0 0 h 0.854414 v 0 0 h 0.854414 v 0 0 h 0.854415 v 0 0 h 0.854414 v 0 0 h 0.854415 v 0 0 h 0.854414 v 0 0 h 0.854415 v 0 0 h 0.854414 v 0 0 h 0.854415 v 0 0 h 0.854414 v 0 0 h 0.854415 v 0 0 h 0.854414 v 0 0 h 0.854415 v 0 0 h 0.854414 v 0 0 h 0.854415 v 0 0 h 0.854414 v 0 0 h 0.854415 v 0 0 h 0.854414 v 0 0 h 0.854414 v 0 0 h 0.854415 v 0 0 h 0.854414 v 0 0 h 0.854415 v 0 0 h 0.854414 v 0 0 h 0.854415 v 0 0 h 0.854414 v 0 0 h 0.854415 v 0 0 h 0.854414 v 0 0 h 0.854415 v 0 0 h 0.854414 v 0 0 h 0.854415 v 0 0 h 0.854414 v 0 0 h 0.854415 v 0 0 h 0.854414 v 0 0 h 0.854415 v 0 0 h 0.854414 v 0 0 h 0.854414 V 99.735238 H 143.90654 V 154.04 H 257.54366 V 99.735238 H 371.18079 V 154.04 h 56.39135 v 0"
           style="fill:none;stroke:#1f77b4;stroke-width:1.5;stroke-linecap:square;stroke-linejoin:round"
           id="path58"
           inkscape:connector-curvature="0" />
      </g>
      <g
         id="patch_6"
         style="stroke-linecap:butt;stroke-linejoin:round">
        <path
           d="M 29.415,154.04 V 97.02"
           style="fill:none;stroke:#000000;stroke-width:0.80000001;stroke-linecap:square;stroke-linejoin:miter;marker-end:url(#marker1333)"
           id="path61"
           inkscape:connector-curvature="0" />
      </g>
      <g
         id="patch_7"
         style="stroke-linecap:butt;stroke-linejoin:round">
        <path
           d="M 29.415,154.04 H 447.48"
           style="fill:none;stroke:#000000;stroke-width:0.80000001;stroke-linecap:square;stroke-linejoin:miter;marker-end:url(#marker1293)"
           id="path64"
           inkscape:connector-curvature="0" />
      </g>
    </g>
    <g
       id="axes_3"
       style="stroke-linecap:butt;stroke-linejoin:round">
      <g
         id="patch_8"
         style="stroke-linecap:butt;stroke-linejoin:round">
        <path
           d="M 29.415,237.74 H 447.48 V 180.72 H 29.415 Z"
           style="fill:#ffffff;stroke-linecap:butt;stroke-linejoin:round"
           id="path68"
           inkscape:connector-curvature="0" />
      </g>
      <g
         id="matplotlib.axis_5"
         style="stroke-linecap:butt;stroke-linejoin:round">
        <g
           id="text_5"
           style="stroke-linecap:butt;stroke-linejoin:round">
          <!-- t -->
          <g
             transform="matrix(0.1,0,0,-0.1,236.8725,248.79937)"
             id="g73"
             style="stroke-linecap:butt;stroke-linejoin:round">
            <use
               xlink:href="#STIXTwoMath-74"
               id="use71"
               style="stroke-linecap:butt;stroke-linejoin:round"
               x="0"
               y="0"
               width="100%"
               height="100%" />
          </g>
        </g>
      </g>
      <g
         id="matplotlib.axis_6"
         style="stroke-linecap:butt;stroke-linejoin:round">
        <g
           id="text_6"
           style="stroke-linecap:butt;stroke-linejoin:round">
          <!-- $Q$ -->
          <defs
             id="defs78">
            <path
               d="m 6.90625,-16.90625 -1,1.609375 q 5.796875,4.09375 8.34375,6.09375 2.546875,2 9.34375,8 Q 15.09375,0.5 10.546875,6.640625 6,12.796875 6,22.5 q 0,9.296875 4.59375,18.5 4.609375,9.203125 12.703125,16.203125 11.109375,9.390625 24.109375,9.390625 10.09375,0 16.296875,-6.703125 6.203125,-6.6875 6.203125,-16.984375 0,-11.703125 -7.109375,-22.953125 -7.09375,-11.25 -18.5,-17.25 Q 37.5,-1 27.90625,-1.59375 L 22.5,-7.296875 H 25 q 3.5,0 12.296875,-2 8.609375,-2.109375 11.109375,-2.109375 5.390625,0 8.984375,1.65625 3.609375,1.65625 7.8125,6.046875 l 1.59375,-1.09375 q -2.390625,-3.40625 -5.203125,-5.90625 -8.296875,-7.5 -19.09375,-7.5 -6.59375,0 -14.796875,2.609375 -5.5,1.796875 -9.296875,1.796875 -5.90625,0 -11.5,-3.109375 z M 59.40625,48 q 0,7.09375 -3.453125,11.1875 Q 52.5,63.296875 46.5,63.296875 q -11,0 -19.40625,-12.5 -4.5,-6.703125 -7.546875,-15.953125 Q 16.5,25.59375 16.5,18.296875 q 0,-7.5 3.390625,-12.046875 3.40625,-4.546875 9.015625,-4.546875 11.390625,0 19.796875,12.390625 4.59375,7 7.640625,16.59375 3.0625,9.609375 3.0625,17.3125 z"
               id="STIXGeneral-Italic-51"
               inkscape:connector-curvature="0"
               style="stroke-linecap:butt;stroke-linejoin:round" />
          </defs>
          <g
             transform="matrix(0,-0.1,-0.1,0,23.215,212.88)"
             id="g82"
             style="stroke-linecap:butt;stroke-linejoin:round">
            <use
               transform="translate(0,0.40625)"
               xlink:href="#STIXGeneral-Italic-51"
               id="use80"
               style="stroke-linecap:butt;stroke-linejoin:round"
               x="0"
               y="0"
               width="100%"
               height="100%" />
          </g>
        </g>
      </g>
      <g
         id="line2d_3"
         style="stroke-linecap:butt;stroke-linejoin:round">
        <path
           clip-path="url(#p78dc60d01b)"
           d="m 29.415,235.14818 h 0.854414 v 0 0 h 0.854415 v 0 0 h 0.854414 v 0 0 h 0.854415 v 0 0 h 0.854414 v 0 0 h 0.854415 v 0 0 h 0.854414 v 0 0 h 0.854415 v 0 0 h 0.854414 v 0 0 h 0.854415 v 0 0 h 0.854414 v 0 0 h 0.854415 v 0 0 h 0.854414 v 0 0 h 0.854415 v 0 0 h 0.854414 v 0 0 h 0.854415 v 0 0 h 0.854414 v 0 0 h 0.854414 v 0 0 h 0.854415 v 0 0 h 0.854414 v 0 0 h 0.854415 v 0 0 h 0.854414 v 0 0 h 0.854415 v 0 0 h 0.854414 v 0 0 h 0.854415 v 0 0 h 0.854414 v 0 0 h 0.854415 v 0 0 h 0.854414 v 0 0 h 0.854415 v 0 0 h 0.854414 v 0 0 h 0.854415 v 0 0 h 0.854414 v 0 0 h 0.854414 v 0 0 h 0.854415 v 0 0 h 0.854414 v 0 0 h 0.854415 v 0 0 h 0.854414 v 0 0 h 0.854415 v 0 0 h 0.854414 v 0 0 h 0.854415 v 0 0 h 0.854414 v 0 0 h 0.854415 v 0 0 h 0.854414 v 0 0 h 0.854415 v 0 0 h 0.854414 v 0 0 h 0.854415 v 0 0 h 0.854414 v 0 0 h 0.854415 v 0 0 h 0.854414 v 0 0 h 0.854414 v 0 0 h 0.854415 v 0 0 h 0.854414 v 0 0 h 0.854415 v 0 0 h 0.854414 v 0 0 h 0.854415 v 0 0 h 0.854414 v 0 0 h 0.854415 v 0 0 h 0.854414 v 0 0 h 0.854415 v 0 0 h 0.854414 v 0 0 h 0.854415 v 0 0 h 0.854414 v 0 0 h 0.854415 v 0 0 h 0.854414 v 0 0 h 0.854415 v 0 0 h 0.854414 v 0 0 h 0.854414 v -51.83636 h 57.245771 v 51.83636 h 113.63712 v -51.83636 h 170.02848 v 0"
           style="fill:none;stroke:#1f77b4;stroke-width:1.5;stroke-linecap:square;stroke-linejoin:round"
           id="path86"
           inkscape:connector-curvature="0" />
      </g>
      <g
         id="patch_9"
         style="stroke-linecap:butt;stroke-linejoin:round">
        <path
           d="M 29.415,237.74 V 180.72"
           style="fill:none;stroke:#000000;stroke-width:0.80000001;stroke-linecap:square;stroke-linejoin:miter;marker-end:url(#marker1431)"
           id="path89"
           inkscape:connector-curvature="0" />
      </g>
      <g
         id="patch_10"
         style="stroke-linecap:butt;stroke-linejoin:round">
        <path
           d="M 29.415,237.74 H 447.48"
           style="fill:none;stroke:#000000;stroke-width:0.80000001;stroke-linecap:square;stroke-linejoin:miter;marker-end:url(#marker1379)"
           id="path92"
           inkscape:connector-curvature="0" />
      </g>
    </g>
    <g
       id="axes_4"
       style="stroke-linecap:butt;stroke-linejoin:round">
      <g
         id="patch_11"
         style="stroke-linecap:butt;stroke-linejoin:round">
        <path
           d="M 29.415,321.44 H 447.48 V 264.42 H 29.415 Z"
           style="fill:#ffffff;stroke-linecap:butt;stroke-linejoin:round"
           id="path96"
           inkscape:connector-curvature="0" />
      </g>
      <g
         id="matplotlib.axis_7"
         style="stroke-linecap:butt;stroke-linejoin:round">
        <g
           id="text_7"
           style="stroke-linecap:butt;stroke-linejoin:round">
          <!-- t -->
          <g
             transform="matrix(0.1,0,0,-0.1,236.8725,332.49937)"
             id="g101"
             style="stroke-linecap:butt;stroke-linejoin:round">
            <use
               xlink:href="#STIXTwoMath-74"
               id="use99"
               style="stroke-linecap:butt;stroke-linejoin:round"
               x="0"
               y="0"
               width="100%"
               height="100%" />
          </g>
        </g>
      </g>
      <g
         id="matplotlib.axis_8"
         style="stroke-linecap:butt;stroke-linejoin:round">
        <g
           id="text_8"
           style="stroke-linecap:butt;stroke-linejoin:round">
          <!-- $\overline{Q}$ -->
          <g
             transform="matrix(0,-0.1,-0.1,0,23.215,296.58)"
             id="g109"
             style="stroke-linecap:butt;stroke-linejoin:round">
            <use
               transform="translate(0,1.15625)"
               xlink:href="#STIXGeneral-Italic-51"
               id="use105"
               style="stroke-linecap:butt;stroke-linejoin:round"
               x="0"
               y="0"
               width="100%"
               height="100%" />
            <path
               d="m 0,79.5 v 6.25 H 72.199982 V 79.5 Z"
               id="path107"
               inkscape:connector-curvature="0"
               style="stroke-linecap:butt;stroke-linejoin:round" />
          </g>
        </g>
      </g>
      <g
         id="line2d_4"
         style="stroke-linecap:butt;stroke-linejoin:round">
        <path
           clip-path="url(#pc164dc01fa)"
           d="m 29.415,318.84818 h 0.854414 v -51.83636 h 56.391355 v 51.83636 h 57.245771 v -51.83636 h 113.63712 v 51.83636 h 170.02848 v 0"
           style="fill:none;stroke:#1f77b4;stroke-width:1.5;stroke-linecap:square;stroke-linejoin:round"
           id="path113"
           inkscape:connector-curvature="0" />
      </g>
      <g
         id="patch_12"
         style="stroke-linecap:butt;stroke-linejoin:round">
        <path
           d="M 29.415,321.44 V 264.42"
           style="fill:none;stroke:#000000;stroke-width:0.80000001;stroke-linecap:square;stroke-linejoin:miter;marker-end:url(#marker1553)"
           id="path116"
           inkscape:connector-curvature="0" />
      </g>
      <g
         id="patch_13"
         style="stroke-linecap:butt;stroke-linejoin:round">
        <path
           d="M 29.415,321.44 H 447.48"
           style="fill:none;stroke:#000000;stroke-width:0.80000001;stroke-linecap:square;stroke-linejoin:miter;marker-end:url(#marker1489)"
           id="path119"
           inkscape:connector-curvature="0" />
      </g>
    </g>
  </g>
  <defs
     id="defs136">
    <clipPath
       id="p0961f4360d"
       style="stroke-linecap:butt;stroke-linejoin:round">
      <rect
         height="57.02"
         width="418.065"
         x="29.415001"
         y="13.32"
         id="rect124"
         style="stroke-linecap:butt;stroke-linejoin:round" />
    </clipPath>
    <clipPath
       id="p526a60155c"
       style="stroke-linecap:butt;stroke-linejoin:round">
      <rect
         height="57.02"
         width="418.065"
         x="29.415001"
         y="97.019997"
         id="rect127"
         style="stroke-linecap:butt;stroke-linejoin:round" />
    </clipPath>
    <clipPath
       id="p78dc60d01b"
       style="stroke-linecap:butt;stroke-linejoin:round">
      <rect
         height="57.02"
         width="418.065"
         x="29.415001"
         y="180.72"
         id="rect130"
         style="stroke-linecap:butt;stroke-linejoin:round" />
    </clipPath>
    <clipPath
       id="pc164dc01fa"
       style="stroke-linecap:butt;stroke-linejoin:round">
      <rect
         height="57.02"
         width="418.065"
         x="29.415001"
         y="264.42001"
         id="rect133"
         style="stroke-linecap:butt;stroke-linejoin:round" />
    </clipPath>
  </defs>
</svg>
