<?xml version="1.0" encoding="utf-8" standalone="no"?>
<!DOCTYPE svg PUBLIC "-//W3C//DTD SVG 1.1//EN"
  "http://www.w3.org/Graphics/SVG/1.1/DTD/svg11.dtd">
<!-- Created with matplotlib (http://matplotlib.org/) -->
<svg height="345pt" version="1.1" viewBox="0 0 460 345" width="460pt" xmlns="http://www.w3.org/2000/svg" xmlns:xlink="http://www.w3.org/1999/xlink">
 <defs>
  <style type="text/css">
*{stroke-linecap:butt;stroke-linejoin:round;}
  </style>
 </defs>
 <g id="figure_1">
  <g id="patch_1">
   <path d="M 0 345.6 
L 460.8 345.6 
L 460.8 0 
L 0 0 
z
" style="fill:#ffffff;"/>
  </g>
  <g id="axes_1">
   <g id="patch_2">
    <path d="M 29.415 53.6 
L 447.48 53.6 
L 447.48 13.32 
L 29.415 13.32 
z
" style="fill:#ffffff;"/>
   </g>
   <g id="matplotlib.axis_1">
    <g id="text_1">
     <!-- t -->
     <defs>
      <path d="M 29.296875 9 
C 26.796875 6.203125 25.5 4.90625 22.296875 4.90625 
C 18.40625 4.90625 17.5 7.296875 17.5 14.40625 
L 17.5 43.09375 
L 28.796875 43.09375 
L 28.796875 47.296875 
L 17.5 47.296875 
L 17.59375 61 
L 15 61 
C 11.40625 52.5 8.40625 48.296875 3.703125 45.40625 
L 3.703125 43.09375 
L 9.203125 43.09375 
L 9.203125 11.59375 
C 9.203125 2.59375 12.09375 -1 18.796875 -1 
C 25.203125 -1 27.296875 2 31.203125 7.40625 
z
" id="STIXTwoMath-74"/>
     </defs>
     <g transform="translate(236.8725 64.659375)scale(0.1 -0.1)">
      <use xlink:href="#STIXTwoMath-74"/>
     </g>
    </g>
   </g>
   <g id="matplotlib.axis_2">
    <g id="text_2">
     <!-- $R$ -->
     <defs>
      <path d="M 13.203125 65.296875 
L 38.40625 65.296875 
Q 48.09375 65.296875 53.4375 61.5 
Q 58.796875 57.703125 58.796875 51.203125 
Q 58.796875 43.40625 52.203125 38.40625 
Q 48.296875 35.40625 39.09375 33.296875 
L 48 9.796875 
Q 49.703125 5.203125 51.546875 3.390625 
Q 53.40625 1.59375 56.703125 1.59375 
L 56.703125 0 
L 42 0 
L 29.703125 32.40625 
L 23.09375 32.90625 
L 17.59375 12.59375 
Q 16.296875 8 16.296875 6.296875 
Q 16.296875 4 17.59375 3 
Q 18.90625 2 23 1.59375 
L 23 0 
L -1.296875 0 
L -1.296875 1.59375 
Q 2.703125 2.09375 4.34375 3.796875 
Q 6 5.5 7.203125 10.09375 
L 19.09375 53.203125 
Q 20.296875 57.796875 20.296875 59.5 
Q 20.296875 61.296875 18.90625 62.296875 
Q 17.703125 63.09375 13.203125 63.703125 
z
M 30.59375 59.296875 
L 24.296875 36.59375 
Q 27.40625 36.09375 29.40625 36.09375 
Q 38.296875 36.09375 43.296875 40.09375 
Q 48.296875 44.09375 48.296875 51.09375 
Q 48.296875 56.296875 45.1875 59.296875 
Q 42.09375 62.296875 36.296875 62.296875 
Q 31.40625 62.296875 30.59375 59.296875 
z
" id="STIXGeneral-Italic-52"/>
     </defs>
     <g transform="translate(23.215 36.56)rotate(-90)scale(0.1 -0.1)">
      <use transform="translate(0 0.703125)" xlink:href="#STIXGeneral-Italic-52"/>
     </g>
    </g>
   </g>
   <g id="line2d_1">
    <path clip-path="url(#pf627721713)" d="M 29.415 15.238095 
L 30.269414 15.238095 
L 30.269414 15.238095 
L 30.269414 15.238095 
L 31.123829 15.238095 
L 31.123829 15.238095 
L 31.123829 15.238095 
L 31.978243 15.238095 
L 31.978243 15.238095 
L 31.978243 15.238095 
L 32.832658 15.238095 
L 32.832658 15.238095 
L 32.832658 15.238095 
L 33.687072 15.238095 
L 33.687072 15.238095 
L 33.687072 15.238095 
L 34.541487 15.238095 
L 34.541487 15.238095 
L 34.541487 15.238095 
L 35.395901 15.238095 
L 35.395901 15.238095 
L 35.395901 15.238095 
L 36.250316 15.238095 
L 36.250316 15.238095 
L 36.250316 15.238095 
L 37.10473 15.238095 
L 37.10473 15.238095 
L 37.10473 15.238095 
L 37.959145 15.238095 
L 37.959145 15.238095 
L 37.959145 15.238095 
L 38.813559 15.238095 
L 38.813559 15.238095 
L 38.813559 15.238095 
L 39.667974 15.238095 
L 39.667974 15.238095 
L 39.667974 15.238095 
L 40.522388 15.238095 
L 40.522388 15.238095 
L 40.522388 15.238095 
L 41.376803 15.238095 
L 41.376803 15.238095 
L 41.376803 15.238095 
L 42.231217 15.238095 
L 42.231217 15.238095 
L 42.231217 15.238095 
L 43.085632 15.238095 
L 43.085632 15.238095 
L 43.085632 15.238095 
L 43.940046 15.238095 
L 43.940046 15.238095 
L 43.940046 15.238095 
L 44.79446 15.238095 
L 44.79446 15.238095 
L 44.79446 15.238095 
L 45.648875 15.238095 
L 45.648875 15.238095 
L 45.648875 15.238095 
L 46.503289 15.238095 
L 46.503289 15.238095 
L 46.503289 15.238095 
L 47.357704 15.238095 
L 47.357704 15.238095 
L 47.357704 15.238095 
L 48.212118 15.238095 
L 48.212118 15.238095 
L 48.212118 15.238095 
L 49.066533 15.238095 
L 49.066533 15.238095 
L 49.066533 15.238095 
L 49.920947 15.238095 
L 49.920947 15.238095 
L 49.920947 15.238095 
L 50.775362 15.238095 
L 50.775362 15.238095 
L 50.775362 15.238095 
L 51.629776 15.238095 
L 51.629776 15.238095 
L 51.629776 15.238095 
L 52.484191 15.238095 
L 52.484191 15.238095 
L 52.484191 15.238095 
L 53.338605 15.238095 
L 53.338605 15.238095 
L 53.338605 15.238095 
L 54.19302 15.238095 
L 54.19302 15.238095 
L 54.19302 15.238095 
L 55.047434 15.238095 
L 55.047434 15.238095 
L 55.047434 15.238095 
L 55.901849 15.238095 
L 55.901849 15.238095 
L 55.901849 15.238095 
L 56.756263 15.238095 
L 56.756263 15.238095 
L 56.756263 15.238095 
L 57.610677 15.238095 
L 57.610677 15.238095 
L 57.610677 15.238095 
L 58.465092 15.238095 
L 58.465092 15.238095 
L 58.465092 15.238095 
L 59.319506 15.238095 
L 59.319506 15.238095 
L 59.319506 15.238095 
L 60.173921 15.238095 
L 60.173921 15.238095 
L 60.173921 15.238095 
L 61.028335 15.238095 
L 61.028335 15.238095 
L 61.028335 15.238095 
L 61.88275 15.238095 
L 61.88275 15.238095 
L 61.88275 15.238095 
L 62.737164 15.238095 
L 62.737164 15.238095 
L 62.737164 15.238095 
L 63.591579 15.238095 
L 63.591579 15.238095 
L 63.591579 15.238095 
L 64.445993 15.238095 
L 64.445993 15.238095 
L 64.445993 15.238095 
L 65.300408 15.238095 
L 65.300408 15.238095 
L 65.300408 15.238095 
L 66.154822 15.238095 
L 66.154822 15.238095 
L 66.154822 15.238095 
L 67.009237 15.238095 
L 67.009237 15.238095 
L 67.009237 15.238095 
L 67.863651 15.238095 
L 67.863651 15.238095 
L 67.863651 15.238095 
L 68.718066 15.238095 
L 68.718066 15.238095 
L 68.718066 15.238095 
L 69.57248 15.238095 
L 69.57248 15.238095 
L 69.57248 15.238095 
L 70.426895 15.238095 
L 70.426895 15.238095 
L 70.426895 15.238095 
L 71.281309 15.238095 
L 71.281309 15.238095 
L 71.281309 15.238095 
L 72.135723 15.238095 
L 72.135723 15.238095 
L 72.135723 15.238095 
L 72.990138 15.238095 
L 72.990138 15.238095 
L 72.990138 15.238095 
L 73.844552 15.238095 
L 73.844552 15.238095 
L 73.844552 15.238095 
L 74.698967 15.238095 
L 74.698967 15.238095 
L 74.698967 15.238095 
L 75.553381 15.238095 
L 75.553381 15.238095 
L 75.553381 15.238095 
L 76.407796 15.238095 
L 76.407796 15.238095 
L 76.407796 15.238095 
L 77.26221 15.238095 
L 77.26221 15.238095 
L 77.26221 15.238095 
L 78.116625 15.238095 
L 78.116625 15.238095 
L 78.116625 15.238095 
L 78.971039 15.238095 
L 78.971039 15.238095 
L 78.971039 15.238095 
L 79.825454 15.238095 
L 79.825454 15.238095 
L 79.825454 15.238095 
L 80.679868 15.238095 
L 80.679868 15.238095 
L 80.679868 15.238095 
L 81.534283 15.238095 
L 81.534283 15.238095 
L 81.534283 15.238095 
L 82.388697 15.238095 
L 82.388697 15.238095 
L 82.388697 15.238095 
L 83.243112 15.238095 
L 83.243112 15.238095 
L 83.243112 15.238095 
L 84.097526 15.238095 
L 84.097526 15.238095 
L 84.097526 15.238095 
L 84.951941 15.238095 
L 84.951941 15.238095 
L 84.951941 15.238095 
L 85.806355 15.238095 
L 85.806355 15.238095 
L 85.806355 15.238095 
L 86.660769 15.238095 
L 86.660769 53.6 
L 200.297894 53.6 
L 200.297894 15.238095 
L 257.543663 15.238095 
L 257.543663 53.6 
L 427.572143 53.6 
L 427.572143 53.6 
" style="fill:none;stroke:#1f77b4;stroke-linecap:square;stroke-width:1.5;"/>
   </g>
   <g id="patch_3">
    <path d="M 29.415 53.6 
L 29.415 13.32 
" style="fill:none;stroke:#000000;stroke-linecap:square;stroke-linejoin:miter;stroke-width:0.8;"/>
   </g>
   <g id="patch_4">
    <path d="M 29.415 53.6 
L 447.48 53.6 
" style="fill:none;stroke:#000000;stroke-linecap:square;stroke-linejoin:miter;stroke-width:0.8;"/>
   </g>
  </g>
  <g id="axes_2">
   <g id="patch_5">
    <path d="M 29.415 120.56 
L 447.48 120.56 
L 447.48 80.28 
L 29.415 80.28 
z
" style="fill:#ffffff;"/>
   </g>
   <g id="matplotlib.axis_3">
    <g id="text_3">
     <!-- t -->
     <g transform="translate(236.8725 131.619375)scale(0.1 -0.1)">
      <use xlink:href="#STIXTwoMath-74"/>
     </g>
    </g>
   </g>
   <g id="matplotlib.axis_4">
    <g id="text_4">
     <!-- $S$ -->
     <defs>
      <path d="M 50.796875 66.703125 
L 46.796875 46.703125 
L 45 47 
Q 45 55.296875 42.5 59.296875 
Q 40 63.296875 33.09375 63.296875 
Q 27.90625 63.296875 24.90625 60.640625 
Q 21.90625 58 21.90625 53.296875 
Q 21.90625 49.5 23.5 46.953125 
Q 25.09375 44.40625 31.796875 37.703125 
Q 38.5 30.90625 40.796875 26.796875 
Q 43.09375 22.703125 43.09375 17.703125 
Q 43.09375 9.203125 37.34375 3.703125 
Q 31.59375 -1.796875 22.90625 -1.796875 
Q 19.09375 -1.796875 12.5 0.5 
Q 9.296875 1.703125 7.796875 1.703125 
Q 4.5 1.703125 3.5 -1.5 
L 1.703125 -1.5 
L 5.09375 20.90625 
L 7.09375 20.703125 
Q 6.90625 19.796875 6.90625 18.40625 
Q 6.90625 11.09375 10.953125 6.390625 
Q 15 1.703125 21.296875 1.703125 
Q 27.09375 1.703125 30.75 5.25 
Q 34.40625 8.796875 34.40625 14.5 
Q 34.40625 17.796875 33.09375 20.4375 
Q 31.796875 23.09375 28.40625 26.796875 
L 24.5 31 
Q 24.203125 31.296875 22.796875 32.84375 
Q 21.40625 34.40625 20.59375 35.203125 
Q 16.09375 40 14.59375 43.046875 
Q 13.09375 46.09375 13.09375 50.203125 
Q 13.09375 57.796875 18.25 62.1875 
Q 23.40625 66.59375 30.90625 66.59375 
Q 36.09375 66.59375 39.40625 65.203125 
Q 42.296875 64.09375 44 64.09375 
Q 45.703125 64.09375 46.59375 64.59375 
Q 47.5 65.09375 48.5 66.703125 
z
" id="STIXGeneral-Italic-53"/>
     </defs>
     <g transform="translate(23.215 102.92)rotate(-90)scale(0.1 -0.1)">
      <use transform="translate(0 0.296875)" xlink:href="#STIXGeneral-Italic-53"/>
     </g>
    </g>
   </g>
   <g id="line2d_2">
    <path clip-path="url(#pb054bdc556)" d="M 29.415 120.56 
L 30.269414 120.56 
L 30.269414 120.56 
L 30.269414 120.56 
L 31.123829 120.56 
L 31.123829 120.56 
L 31.123829 120.56 
L 31.978243 120.56 
L 31.978243 120.56 
L 31.978243 120.56 
L 32.832658 120.56 
L 32.832658 120.56 
L 32.832658 120.56 
L 33.687072 120.56 
L 33.687072 120.56 
L 33.687072 120.56 
L 34.541487 120.56 
L 34.541487 120.56 
L 34.541487 120.56 
L 35.395901 120.56 
L 35.395901 120.56 
L 35.395901 120.56 
L 36.250316 120.56 
L 36.250316 120.56 
L 36.250316 120.56 
L 37.10473 120.56 
L 37.10473 120.56 
L 37.10473 120.56 
L 37.959145 120.56 
L 37.959145 120.56 
L 37.959145 120.56 
L 38.813559 120.56 
L 38.813559 120.56 
L 38.813559 120.56 
L 39.667974 120.56 
L 39.667974 120.56 
L 39.667974 120.56 
L 40.522388 120.56 
L 40.522388 120.56 
L 40.522388 120.56 
L 41.376803 120.56 
L 41.376803 120.56 
L 41.376803 120.56 
L 42.231217 120.56 
L 42.231217 120.56 
L 42.231217 120.56 
L 43.085632 120.56 
L 43.085632 120.56 
L 43.085632 120.56 
L 43.940046 120.56 
L 43.940046 120.56 
L 43.940046 120.56 
L 44.79446 120.56 
L 44.79446 120.56 
L 44.79446 120.56 
L 45.648875 120.56 
L 45.648875 120.56 
L 45.648875 120.56 
L 46.503289 120.56 
L 46.503289 120.56 
L 46.503289 120.56 
L 47.357704 120.56 
L 47.357704 120.56 
L 47.357704 120.56 
L 48.212118 120.56 
L 48.212118 120.56 
L 48.212118 120.56 
L 49.066533 120.56 
L 49.066533 120.56 
L 49.066533 120.56 
L 49.920947 120.56 
L 49.920947 120.56 
L 49.920947 120.56 
L 50.775362 120.56 
L 50.775362 120.56 
L 50.775362 120.56 
L 51.629776 120.56 
L 51.629776 120.56 
L 51.629776 120.56 
L 52.484191 120.56 
L 52.484191 120.56 
L 52.484191 120.56 
L 53.338605 120.56 
L 53.338605 120.56 
L 53.338605 120.56 
L 54.19302 120.56 
L 54.19302 120.56 
L 54.19302 120.56 
L 55.047434 120.56 
L 55.047434 120.56 
L 55.047434 120.56 
L 55.901849 120.56 
L 55.901849 120.56 
L 55.901849 120.56 
L 56.756263 120.56 
L 56.756263 120.56 
L 56.756263 120.56 
L 57.610677 120.56 
L 57.610677 120.56 
L 57.610677 120.56 
L 58.465092 120.56 
L 58.465092 120.56 
L 58.465092 120.56 
L 59.319506 120.56 
L 59.319506 120.56 
L 59.319506 120.56 
L 60.173921 120.56 
L 60.173921 120.56 
L 60.173921 120.56 
L 61.028335 120.56 
L 61.028335 120.56 
L 61.028335 120.56 
L 61.88275 120.56 
L 61.88275 120.56 
L 61.88275 120.56 
L 62.737164 120.56 
L 62.737164 120.56 
L 62.737164 120.56 
L 63.591579 120.56 
L 63.591579 120.56 
L 63.591579 120.56 
L 64.445993 120.56 
L 64.445993 120.56 
L 64.445993 120.56 
L 65.300408 120.56 
L 65.300408 120.56 
L 65.300408 120.56 
L 66.154822 120.56 
L 66.154822 120.56 
L 66.154822 120.56 
L 67.009237 120.56 
L 67.009237 120.56 
L 67.009237 120.56 
L 67.863651 120.56 
L 67.863651 120.56 
L 67.863651 120.56 
L 68.718066 120.56 
L 68.718066 120.56 
L 68.718066 120.56 
L 69.57248 120.56 
L 69.57248 120.56 
L 69.57248 120.56 
L 70.426895 120.56 
L 70.426895 120.56 
L 70.426895 120.56 
L 71.281309 120.56 
L 71.281309 120.56 
L 71.281309 120.56 
L 72.135723 120.56 
L 72.135723 120.56 
L 72.135723 120.56 
L 72.990138 120.56 
L 72.990138 120.56 
L 72.990138 120.56 
L 73.844552 120.56 
L 73.844552 120.56 
L 73.844552 120.56 
L 74.698967 120.56 
L 74.698967 120.56 
L 74.698967 120.56 
L 75.553381 120.56 
L 75.553381 120.56 
L 75.553381 120.56 
L 76.407796 120.56 
L 76.407796 120.56 
L 76.407796 120.56 
L 77.26221 120.56 
L 77.26221 120.56 
L 77.26221 120.56 
L 78.116625 120.56 
L 78.116625 120.56 
L 78.116625 120.56 
L 78.971039 120.56 
L 78.971039 120.56 
L 78.971039 120.56 
L 79.825454 120.56 
L 79.825454 120.56 
L 79.825454 120.56 
L 80.679868 120.56 
L 80.679868 120.56 
L 80.679868 120.56 
L 81.534283 120.56 
L 81.534283 120.56 
L 81.534283 120.56 
L 82.388697 120.56 
L 82.388697 120.56 
L 82.388697 120.56 
L 83.243112 120.56 
L 83.243112 120.56 
L 83.243112 120.56 
L 84.097526 120.56 
L 84.097526 120.56 
L 84.097526 120.56 
L 84.951941 120.56 
L 84.951941 120.56 
L 84.951941 120.56 
L 85.806355 120.56 
L 85.806355 120.56 
L 85.806355 120.56 
L 86.660769 120.56 
L 86.660769 82.198095 
L 143.906539 82.198095 
L 143.906539 120.56 
L 314.789433 120.56 
L 314.789433 82.198095 
L 371.180788 82.198095 
L 371.180788 120.56 
L 427.572143 120.56 
L 427.572143 120.56 
" style="fill:none;stroke:#1f77b4;stroke-linecap:square;stroke-width:1.5;"/>
   </g>
   <g id="patch_6">
    <path d="M 29.415 120.56 
L 29.415 80.28 
" style="fill:none;stroke:#000000;stroke-linecap:square;stroke-linejoin:miter;stroke-width:0.8;"/>
   </g>
   <g id="patch_7">
    <path d="M 29.415 120.56 
L 447.48 120.56 
" style="fill:none;stroke:#000000;stroke-linecap:square;stroke-linejoin:miter;stroke-width:0.8;"/>
   </g>
  </g>
  <g id="axes_3">
   <g id="patch_8">
    <path d="M 29.415 187.52 
L 447.48 187.52 
L 447.48 147.24 
L 29.415 147.24 
z
" style="fill:#ffffff;"/>
   </g>
   <g id="matplotlib.axis_5">
    <g id="text_5">
     <!-- t -->
     <g transform="translate(236.8725 198.579375)scale(0.1 -0.1)">
      <use xlink:href="#STIXTwoMath-74"/>
     </g>
    </g>
   </g>
   <g id="matplotlib.axis_6">
    <g id="text_6">
     <!-- $C$ -->
     <defs>
      <path d="M 68.90625 66.40625 
L 65.203125 46.40625 
L 63.40625 46.703125 
Q 61.59375 63 48.5 63 
Q 37.59375 63 28.59375 53.296875 
Q 23.296875 47.703125 20.546875 39.703125 
Q 17.796875 31.703125 17.796875 23.203125 
Q 17.796875 2.703125 35.296875 2.703125 
Q 41.5 2.703125 46.640625 5.296875 
Q 51.796875 7.90625 58.203125 14.59375 
L 60 13.09375 
Q 53.296875 5.203125 46.84375 1.703125 
Q 40.40625 -1.796875 32.703125 -1.796875 
Q 21 -1.796875 13.796875 5.140625 
Q 6.59375 12.09375 6.59375 24.296875 
Q 6.59375 34.59375 11.6875 43.9375 
Q 16.796875 53.296875 25.296875 59.296875 
Q 35.5 66.59375 47.203125 66.59375 
Q 54.09375 66.59375 58.90625 64.90625 
Q 60.90625 64.203125 63 64.203125 
Q 65.703125 64.203125 66.796875 66.40625 
z
" id="STIXGeneral-Italic-43"/>
     </defs>
     <g transform="translate(23.215 170.73)rotate(-90)scale(0.1 -0.1)">
      <use transform="translate(0 0.40625)" xlink:href="#STIXGeneral-Italic-43"/>
     </g>
    </g>
   </g>
   <g id="line2d_3">
    <path clip-path="url(#p1e70f10f64)" d="M 29.415 149.158095 
L 30.269414 149.158095 
L 30.269414 149.158095 
L 30.269414 149.158095 
L 31.123829 149.158095 
L 31.123829 149.158095 
L 31.123829 149.158095 
L 31.978243 149.158095 
L 31.978243 149.158095 
L 31.978243 149.158095 
L 32.832658 149.158095 
L 32.832658 149.158095 
L 32.832658 149.158095 
L 33.687072 149.158095 
L 33.687072 149.158095 
L 33.687072 149.158095 
L 34.541487 149.158095 
L 34.541487 149.158095 
L 34.541487 149.158095 
L 35.395901 149.158095 
L 35.395901 149.158095 
L 35.395901 149.158095 
L 36.250316 149.158095 
L 36.250316 149.158095 
L 36.250316 149.158095 
L 37.10473 149.158095 
L 37.10473 149.158095 
L 37.10473 149.158095 
L 37.959145 149.158095 
L 37.959145 149.158095 
L 37.959145 149.158095 
L 38.813559 149.158095 
L 38.813559 149.158095 
L 38.813559 149.158095 
L 39.667974 149.158095 
L 39.667974 149.158095 
L 39.667974 149.158095 
L 40.522388 149.158095 
L 40.522388 149.158095 
L 40.522388 149.158095 
L 41.376803 149.158095 
L 41.376803 149.158095 
L 41.376803 149.158095 
L 42.231217 149.158095 
L 42.231217 149.158095 
L 42.231217 149.158095 
L 43.085632 149.158095 
L 43.085632 149.158095 
L 43.085632 149.158095 
L 43.940046 149.158095 
L 43.940046 149.158095 
L 43.940046 149.158095 
L 44.79446 149.158095 
L 44.79446 149.158095 
L 44.79446 149.158095 
L 45.648875 149.158095 
L 45.648875 149.158095 
L 45.648875 149.158095 
L 46.503289 149.158095 
L 46.503289 149.158095 
L 46.503289 149.158095 
L 47.357704 149.158095 
L 47.357704 149.158095 
L 47.357704 149.158095 
L 48.212118 149.158095 
L 48.212118 149.158095 
L 48.212118 149.158095 
L 49.066533 149.158095 
L 49.066533 149.158095 
L 49.066533 149.158095 
L 49.920947 149.158095 
L 49.920947 149.158095 
L 49.920947 149.158095 
L 50.775362 149.158095 
L 50.775362 149.158095 
L 50.775362 149.158095 
L 51.629776 149.158095 
L 51.629776 149.158095 
L 51.629776 149.158095 
L 52.484191 149.158095 
L 52.484191 149.158095 
L 52.484191 149.158095 
L 53.338605 149.158095 
L 53.338605 149.158095 
L 53.338605 149.158095 
L 54.19302 149.158095 
L 54.19302 149.158095 
L 54.19302 149.158095 
L 55.047434 149.158095 
L 55.047434 149.158095 
L 55.047434 149.158095 
L 55.901849 149.158095 
L 55.901849 149.158095 
L 55.901849 149.158095 
L 56.756263 149.158095 
L 56.756263 149.158095 
L 56.756263 149.158095 
L 57.610677 149.158095 
L 57.610677 149.158095 
L 57.610677 149.158095 
L 58.465092 149.158095 
L 58.465092 187.52 
L 86.660769 187.52 
L 86.660769 149.158095 
L 114.856447 149.158095 
L 114.856447 187.52 
L 143.906539 187.52 
L 143.906539 149.158095 
L 172.102216 149.158095 
L 172.102216 187.52 
L 200.297894 187.52 
L 200.297894 149.158095 
L 229.347986 149.158095 
L 229.347986 187.52 
L 257.543663 187.52 
L 257.543663 149.158095 
L 285.739341 149.158095 
L 285.739341 187.52 
L 314.789433 187.52 
L 314.789433 149.158095 
L 342.98511 149.158095 
L 342.98511 187.52 
L 371.180788 187.52 
L 371.180788 149.158095 
L 400.23088 149.158095 
L 400.23088 187.52 
L 427.572143 187.52 
L 427.572143 187.52 
" style="fill:none;stroke:#1f77b4;stroke-linecap:square;stroke-width:1.5;"/>
   </g>
   <g id="patch_9">
    <path d="M 29.415 187.52 
L 29.415 147.24 
" style="fill:none;stroke:#000000;stroke-linecap:square;stroke-linejoin:miter;stroke-width:0.8;"/>
   </g>
   <g id="patch_10">
    <path d="M 29.415 187.52 
L 447.48 187.52 
" style="fill:none;stroke:#000000;stroke-linecap:square;stroke-linejoin:miter;stroke-width:0.8;"/>
   </g>
  </g>
  <g id="axes_4">
   <g id="patch_11">
    <path d="M 29.415 254.48 
L 447.48 254.48 
L 447.48 214.2 
L 29.415 214.2 
z
" style="fill:#ffffff;"/>
   </g>
   <g id="matplotlib.axis_7">
    <g id="text_7">
     <!-- t -->
     <g transform="translate(236.8725 265.539375)scale(0.1 -0.1)">
      <use xlink:href="#STIXTwoMath-74"/>
     </g>
    </g>
   </g>
   <g id="matplotlib.axis_8">
    <g id="text_8">
     <!-- $Q$ -->
     <defs>
      <path d="M 6.90625 -16.90625 
L 5.90625 -15.296875 
Q 11.703125 -11.203125 14.25 -9.203125 
Q 16.796875 -7.203125 23.59375 -1.203125 
Q 15.09375 0.5 10.546875 6.640625 
Q 6 12.796875 6 22.5 
Q 6 31.796875 10.59375 41 
Q 15.203125 50.203125 23.296875 57.203125 
Q 34.40625 66.59375 47.40625 66.59375 
Q 57.5 66.59375 63.703125 59.890625 
Q 69.90625 53.203125 69.90625 42.90625 
Q 69.90625 31.203125 62.796875 19.953125 
Q 55.703125 8.703125 44.296875 2.703125 
Q 37.5 -1 27.90625 -1.59375 
L 22.5 -7.296875 
L 25 -7.296875 
Q 28.5 -7.296875 37.296875 -9.296875 
Q 45.90625 -11.40625 48.40625 -11.40625 
Q 53.796875 -11.40625 57.390625 -9.75 
Q 61 -8.09375 65.203125 -3.703125 
L 66.796875 -4.796875 
Q 64.40625 -8.203125 61.59375 -10.703125 
Q 53.296875 -18.203125 42.5 -18.203125 
Q 35.90625 -18.203125 27.703125 -15.59375 
Q 22.203125 -13.796875 18.40625 -13.796875 
Q 12.5 -13.796875 6.90625 -16.90625 
z
M 59.40625 48 
Q 59.40625 55.09375 55.953125 59.1875 
Q 52.5 63.296875 46.5 63.296875 
Q 35.5 63.296875 27.09375 50.796875 
Q 22.59375 44.09375 19.546875 34.84375 
Q 16.5 25.59375 16.5 18.296875 
Q 16.5 10.796875 19.890625 6.25 
Q 23.296875 1.703125 28.90625 1.703125 
Q 40.296875 1.703125 48.703125 14.09375 
Q 53.296875 21.09375 56.34375 30.6875 
Q 59.40625 40.296875 59.40625 48 
z
" id="STIXGeneral-Italic-51"/>
     </defs>
     <g transform="translate(23.215 237.99)rotate(-90)scale(0.1 -0.1)">
      <use transform="translate(0 0.40625)" xlink:href="#STIXGeneral-Italic-51"/>
     </g>
    </g>
   </g>
   <g id="line2d_4">
    <path clip-path="url(#pced6fbf83c)" d="M 29.415 252.649091 
L 30.269414 252.649091 
L 30.269414 252.649091 
L 30.269414 252.649091 
L 31.123829 252.649091 
L 31.123829 252.649091 
L 31.123829 252.649091 
L 31.978243 252.649091 
L 31.978243 252.649091 
L 31.978243 252.649091 
L 32.832658 252.649091 
L 32.832658 252.649091 
L 32.832658 252.649091 
L 33.687072 252.649091 
L 33.687072 252.649091 
L 33.687072 252.649091 
L 34.541487 252.649091 
L 34.541487 252.649091 
L 34.541487 252.649091 
L 35.395901 252.649091 
L 35.395901 252.649091 
L 35.395901 252.649091 
L 36.250316 252.649091 
L 36.250316 252.649091 
L 36.250316 252.649091 
L 37.10473 252.649091 
L 37.10473 252.649091 
L 37.10473 252.649091 
L 37.959145 252.649091 
L 37.959145 252.649091 
L 37.959145 252.649091 
L 38.813559 252.649091 
L 38.813559 252.649091 
L 38.813559 252.649091 
L 39.667974 252.649091 
L 39.667974 252.649091 
L 39.667974 252.649091 
L 40.522388 252.649091 
L 40.522388 252.649091 
L 40.522388 252.649091 
L 41.376803 252.649091 
L 41.376803 252.649091 
L 41.376803 252.649091 
L 42.231217 252.649091 
L 42.231217 252.649091 
L 42.231217 252.649091 
L 43.085632 252.649091 
L 43.085632 252.649091 
L 43.085632 252.649091 
L 43.940046 252.649091 
L 43.940046 252.649091 
L 43.940046 252.649091 
L 44.79446 252.649091 
L 44.79446 252.649091 
L 44.79446 252.649091 
L 45.648875 252.649091 
L 45.648875 252.649091 
L 45.648875 252.649091 
L 46.503289 252.649091 
L 46.503289 252.649091 
L 46.503289 252.649091 
L 47.357704 252.649091 
L 47.357704 252.649091 
L 47.357704 252.649091 
L 48.212118 252.649091 
L 48.212118 252.649091 
L 48.212118 252.649091 
L 49.066533 252.649091 
L 49.066533 252.649091 
L 49.066533 252.649091 
L 49.920947 252.649091 
L 49.920947 252.649091 
L 49.920947 252.649091 
L 50.775362 252.649091 
L 50.775362 252.649091 
L 50.775362 252.649091 
L 51.629776 252.649091 
L 51.629776 252.649091 
L 51.629776 252.649091 
L 52.484191 252.649091 
L 52.484191 252.649091 
L 52.484191 252.649091 
L 53.338605 252.649091 
L 53.338605 252.649091 
L 53.338605 252.649091 
L 54.19302 252.649091 
L 54.19302 252.649091 
L 54.19302 252.649091 
L 55.047434 252.649091 
L 55.047434 252.649091 
L 55.047434 252.649091 
L 55.901849 252.649091 
L 55.901849 252.649091 
L 55.901849 252.649091 
L 56.756263 252.649091 
L 56.756263 252.649091 
L 56.756263 252.649091 
L 57.610677 252.649091 
L 57.610677 252.649091 
L 57.610677 252.649091 
L 58.465092 252.649091 
L 58.465092 252.649091 
L 58.465092 252.649091 
L 59.319506 252.649091 
L 59.319506 252.649091 
L 59.319506 252.649091 
L 60.173921 252.649091 
L 60.173921 252.649091 
L 60.173921 252.649091 
L 61.028335 252.649091 
L 61.028335 252.649091 
L 61.028335 252.649091 
L 61.88275 252.649091 
L 61.88275 252.649091 
L 61.88275 252.649091 
L 62.737164 252.649091 
L 62.737164 252.649091 
L 62.737164 252.649091 
L 63.591579 252.649091 
L 63.591579 252.649091 
L 63.591579 252.649091 
L 64.445993 252.649091 
L 64.445993 252.649091 
L 64.445993 252.649091 
L 65.300408 252.649091 
L 65.300408 252.649091 
L 65.300408 252.649091 
L 66.154822 252.649091 
L 66.154822 252.649091 
L 66.154822 252.649091 
L 67.009237 252.649091 
L 67.009237 252.649091 
L 67.009237 252.649091 
L 67.863651 252.649091 
L 67.863651 252.649091 
L 67.863651 252.649091 
L 68.718066 252.649091 
L 68.718066 252.649091 
L 68.718066 252.649091 
L 69.57248 252.649091 
L 69.57248 252.649091 
L 69.57248 252.649091 
L 70.426895 252.649091 
L 70.426895 252.649091 
L 70.426895 252.649091 
L 71.281309 252.649091 
L 71.281309 252.649091 
L 71.281309 252.649091 
L 72.135723 252.649091 
L 72.135723 252.649091 
L 72.135723 252.649091 
L 72.990138 252.649091 
L 72.990138 252.649091 
L 72.990138 252.649091 
L 73.844552 252.649091 
L 73.844552 252.649091 
L 73.844552 252.649091 
L 74.698967 252.649091 
L 74.698967 252.649091 
L 74.698967 252.649091 
L 75.553381 252.649091 
L 75.553381 252.649091 
L 75.553381 252.649091 
L 76.407796 252.649091 
L 76.407796 252.649091 
L 76.407796 252.649091 
L 77.26221 252.649091 
L 77.26221 252.649091 
L 77.26221 252.649091 
L 78.116625 252.649091 
L 78.116625 252.649091 
L 78.116625 252.649091 
L 78.971039 252.649091 
L 78.971039 252.649091 
L 78.971039 252.649091 
L 79.825454 252.649091 
L 79.825454 252.649091 
L 79.825454 252.649091 
L 80.679868 252.649091 
L 80.679868 252.649091 
L 80.679868 252.649091 
L 81.534283 252.649091 
L 81.534283 252.649091 
L 81.534283 252.649091 
L 82.388697 252.649091 
L 82.388697 252.649091 
L 82.388697 252.649091 
L 83.243112 252.649091 
L 83.243112 252.649091 
L 83.243112 252.649091 
L 84.097526 252.649091 
L 84.097526 252.649091 
L 84.097526 252.649091 
L 84.951941 252.649091 
L 84.951941 252.649091 
L 84.951941 252.649091 
L 85.806355 252.649091 
L 85.806355 252.649091 
L 85.806355 252.649091 
L 86.660769 252.649091 
L 86.660769 216.030909 
L 201.152308 216.030909 
L 201.152308 252.649091 
L 314.789433 252.649091 
L 314.789433 216.030909 
L 427.572143 216.030909 
L 427.572143 216.030909 
" style="fill:none;stroke:#1f77b4;stroke-linecap:square;stroke-width:1.5;"/>
   </g>
   <g id="patch_12">
    <path d="M 29.415 254.48 
L 29.415 214.2 
" style="fill:none;stroke:#000000;stroke-linecap:square;stroke-linejoin:miter;stroke-width:0.8;"/>
   </g>
   <g id="patch_13">
    <path d="M 29.415 254.48 
L 447.48 254.48 
" style="fill:none;stroke:#000000;stroke-linecap:square;stroke-linejoin:miter;stroke-width:0.8;"/>
   </g>
  </g>
  <g id="axes_5">
   <g id="patch_14">
    <path d="M 29.415 321.44 
L 447.48 321.44 
L 447.48 281.16 
L 29.415 281.16 
z
" style="fill:#ffffff;"/>
   </g>
   <g id="matplotlib.axis_9">
    <g id="text_9">
     <!-- t -->
     <g transform="translate(236.8725 332.499375)scale(0.1 -0.1)">
      <use xlink:href="#STIXTwoMath-74"/>
     </g>
    </g>
   </g>
   <g id="matplotlib.axis_10">
    <g id="text_10">
     <!-- $\overline{Q}$ -->
     <g transform="translate(23.215 304.95)rotate(-90)scale(0.1 -0.1)">
      <use transform="translate(0 1.15625)" xlink:href="#STIXGeneral-Italic-51"/>
      <path d="M 0 79.5 
L 0 85.75 
L 72.199982 85.75 
L 72.199982 79.5 
L 0 79.5 
z
"/>
     </g>
    </g>
   </g>
   <g id="line2d_5">
    <path clip-path="url(#paf3b4498bf)" d="M 29.415 319.609091 
L 30.269414 319.609091 
L 30.269414 282.990909 
L 86.660769 282.990909 
L 86.660769 319.609091 
L 201.152308 319.609091 
L 201.152308 282.990909 
L 314.789433 282.990909 
L 314.789433 319.609091 
L 427.572143 319.609091 
L 427.572143 319.609091 
" style="fill:none;stroke:#1f77b4;stroke-linecap:square;stroke-width:1.5;"/>
   </g>
   <g id="patch_15">
    <path d="M 29.415 321.44 
L 29.415 281.16 
" style="fill:none;stroke:#000000;stroke-linecap:square;stroke-linejoin:miter;stroke-width:0.8;"/>
   </g>
   <g id="patch_16">
    <path d="M 29.415 321.44 
L 447.48 321.44 
" style="fill:none;stroke:#000000;stroke-linecap:square;stroke-linejoin:miter;stroke-width:0.8;"/>
   </g>
  </g>
 </g>
 <defs>
  <clipPath id="pf627721713">
   <rect height="40.28" width="418.065" x="29.415" y="13.32"/>
  </clipPath>
  <clipPath id="pb054bdc556">
   <rect height="40.28" width="418.065" x="29.415" y="80.28"/>
  </clipPath>
  <clipPath id="p1e70f10f64">
   <rect height="40.28" width="418.065" x="29.415" y="147.24"/>
  </clipPath>
  <clipPath id="pced6fbf83c">
   <rect height="40.28" width="418.065" x="29.415" y="214.2"/>
  </clipPath>
  <clipPath id="paf3b4498bf">
   <rect height="40.28" width="418.065" x="29.415" y="281.16"/>
  </clipPath>
 </defs>
</svg>
