<?xml version="1.0" encoding="utf-8" standalone="no"?>
<!DOCTYPE svg PUBLIC "-//W3C//DTD SVG 1.1//EN"
  "http://www.w3.org/Graphics/SVG/1.1/DTD/svg11.dtd">
<!-- Created with matplotlib (http://matplotlib.org/) -->
<svg height="345pt" version="1.1" viewBox="0 0 460 345" width="460pt" xmlns="http://www.w3.org/2000/svg" xmlns:xlink="http://www.w3.org/1999/xlink">
 <defs>
  <style type="text/css">
*{stroke-linecap:butt;stroke-linejoin:round;}
  </style>
 </defs>
 <g id="figure_1">
  <g id="patch_1">
   <path d="M 0 345.6 
L 460.8 345.6 
L 460.8 0 
L 0 0 
z
" style="fill:#ffffff;"/>
  </g>
  <g id="axes_1">
   <g id="patch_2">
    <path d="M 29.415 53.6 
L 447.48 53.6 
L 447.48 13.32 
L 29.415 13.32 
z
" style="fill:#ffffff;"/>
   </g>
   <g id="matplotlib.axis_1">
    <g id="text_1">
     <!-- t -->
     <defs>
      <path d="M 29.296875 9 
C 26.796875 6.203125 25.5 4.90625 22.296875 4.90625 
C 18.40625 4.90625 17.5 7.296875 17.5 14.40625 
L 17.5 43.09375 
L 28.796875 43.09375 
L 28.796875 47.296875 
L 17.5 47.296875 
L 17.59375 61 
L 15 61 
C 11.40625 52.5 8.40625 48.296875 3.703125 45.40625 
L 3.703125 43.09375 
L 9.203125 43.09375 
L 9.203125 11.59375 
C 9.203125 2.59375 12.09375 -1 18.796875 -1 
C 25.203125 -1 27.296875 2 31.203125 7.40625 
z
" id="STIXTwoMath-74"/>
     </defs>
     <g transform="translate(236.8725 64.659375)scale(0.1 -0.1)">
      <use xlink:href="#STIXTwoMath-74"/>
     </g>
    </g>
   </g>
   <g id="matplotlib.axis_2">
    <g id="text_2">
     <!-- $J$ -->
     <defs>
      <path d="M 49.09375 65.296875 
L 49.09375 63.703125 
Q 44.796875 63.09375 43.5 61.9375 
Q 42.203125 60.796875 40.90625 56.296875 
L 30.59375 19.59375 
Q 27.703125 9.203125 23.5 3.703125 
Q 19.296875 -1.796875 11.09375 -1.796875 
Q 5.796875 -1.796875 2.59375 0.59375 
Q -0.59375 3 -0.59375 7 
Q -0.59375 9.40625 0.65625 11 
Q 1.90625 12.59375 3.90625 12.59375 
Q 5.90625 12.59375 7.453125 11.25 
Q 9 9.90625 9 8 
Q 9 7.40625 8.84375 6.546875 
Q 8.703125 5.703125 8.703125 5.296875 
Q 8.703125 1.40625 12.203125 1.40625 
Q 15.703125 1.40625 17.5 7.796875 
L 30.203125 53.203125 
Q 31.40625 57.59375 31.40625 59.59375 
Q 31.40625 61.59375 29.90625 62.4375 
Q 28.40625 63.296875 23.703125 63.703125 
L 23.703125 65.296875 
z
" id="STIXGeneral-Italic-4a"/>
     </defs>
     <g transform="translate(23.215 35.71)rotate(-90)scale(0.1 -0.1)">
      <use transform="translate(0 0.703125)" xlink:href="#STIXGeneral-Italic-4a"/>
     </g>
    </g>
   </g>
   <g id="line2d_1">
    <path clip-path="url(#p61d345de9c)" d="M 29.415 15.238095 
L 30.269414 15.238095 
L 30.269414 15.238095 
L 30.269414 15.238095 
L 31.123829 15.238095 
L 31.123829 15.238095 
L 31.123829 15.238095 
L 31.978243 15.238095 
L 31.978243 15.238095 
L 31.978243 15.238095 
L 32.832658 15.238095 
L 32.832658 15.238095 
L 32.832658 15.238095 
L 33.687072 15.238095 
L 33.687072 15.238095 
L 33.687072 15.238095 
L 34.541487 15.238095 
L 34.541487 15.238095 
L 34.541487 15.238095 
L 35.395901 15.238095 
L 35.395901 15.238095 
L 35.395901 15.238095 
L 36.250316 15.238095 
L 36.250316 15.238095 
L 36.250316 15.238095 
L 37.10473 15.238095 
L 37.10473 15.238095 
L 37.10473 15.238095 
L 37.959145 15.238095 
L 37.959145 15.238095 
L 37.959145 15.238095 
L 38.813559 15.238095 
L 38.813559 15.238095 
L 38.813559 15.238095 
L 39.667974 15.238095 
L 39.667974 15.238095 
L 39.667974 15.238095 
L 40.522388 15.238095 
L 40.522388 15.238095 
L 40.522388 15.238095 
L 41.376803 15.238095 
L 41.376803 15.238095 
L 41.376803 15.238095 
L 42.231217 15.238095 
L 42.231217 15.238095 
L 42.231217 15.238095 
L 43.085632 15.238095 
L 43.085632 15.238095 
L 43.085632 15.238095 
L 43.940046 15.238095 
L 43.940046 15.238095 
L 43.940046 15.238095 
L 44.79446 15.238095 
L 44.79446 15.238095 
L 44.79446 15.238095 
L 45.648875 15.238095 
L 45.648875 15.238095 
L 45.648875 15.238095 
L 46.503289 15.238095 
L 46.503289 15.238095 
L 46.503289 15.238095 
L 47.357704 15.238095 
L 47.357704 15.238095 
L 47.357704 15.238095 
L 48.212118 15.238095 
L 48.212118 15.238095 
L 48.212118 15.238095 
L 49.066533 15.238095 
L 49.066533 15.238095 
L 49.066533 15.238095 
L 49.920947 15.238095 
L 49.920947 15.238095 
L 49.920947 15.238095 
L 50.775362 15.238095 
L 50.775362 15.238095 
L 50.775362 15.238095 
L 51.629776 15.238095 
L 51.629776 15.238095 
L 51.629776 15.238095 
L 52.484191 15.238095 
L 52.484191 15.238095 
L 52.484191 15.238095 
L 53.338605 15.238095 
L 53.338605 15.238095 
L 53.338605 15.238095 
L 54.19302 15.238095 
L 54.19302 15.238095 
L 54.19302 15.238095 
L 55.047434 15.238095 
L 55.047434 15.238095 
L 55.047434 15.238095 
L 55.901849 15.238095 
L 55.901849 15.238095 
L 55.901849 15.238095 
L 56.756263 15.238095 
L 56.756263 15.238095 
L 56.756263 15.238095 
L 57.610677 15.238095 
L 57.610677 15.238095 
L 57.610677 15.238095 
L 58.465092 15.238095 
L 58.465092 15.238095 
L 58.465092 15.238095 
L 59.319506 15.238095 
L 59.319506 15.238095 
L 59.319506 15.238095 
L 60.173921 15.238095 
L 60.173921 15.238095 
L 60.173921 15.238095 
L 61.028335 15.238095 
L 61.028335 15.238095 
L 61.028335 15.238095 
L 61.88275 15.238095 
L 61.88275 15.238095 
L 61.88275 15.238095 
L 62.737164 15.238095 
L 62.737164 15.238095 
L 62.737164 15.238095 
L 63.591579 15.238095 
L 63.591579 15.238095 
L 63.591579 15.238095 
L 64.445993 15.238095 
L 64.445993 15.238095 
L 64.445993 15.238095 
L 65.300408 15.238095 
L 65.300408 15.238095 
L 65.300408 15.238095 
L 66.154822 15.238095 
L 66.154822 15.238095 
L 66.154822 15.238095 
L 67.009237 15.238095 
L 67.009237 15.238095 
L 67.009237 15.238095 
L 67.863651 15.238095 
L 67.863651 15.238095 
L 67.863651 15.238095 
L 68.718066 15.238095 
L 68.718066 15.238095 
L 68.718066 15.238095 
L 69.57248 15.238095 
L 69.57248 15.238095 
L 69.57248 15.238095 
L 70.426895 15.238095 
L 70.426895 15.238095 
L 70.426895 15.238095 
L 71.281309 15.238095 
L 71.281309 15.238095 
L 71.281309 15.238095 
L 72.135723 15.238095 
L 72.135723 15.238095 
L 72.135723 15.238095 
L 72.990138 15.238095 
L 72.990138 15.238095 
L 72.990138 15.238095 
L 73.844552 15.238095 
L 73.844552 15.238095 
L 73.844552 15.238095 
L 74.698967 15.238095 
L 74.698967 15.238095 
L 74.698967 15.238095 
L 75.553381 15.238095 
L 75.553381 15.238095 
L 75.553381 15.238095 
L 76.407796 15.238095 
L 76.407796 15.238095 
L 76.407796 15.238095 
L 77.26221 15.238095 
L 77.26221 15.238095 
L 77.26221 15.238095 
L 78.116625 15.238095 
L 78.116625 15.238095 
L 78.116625 15.238095 
L 78.971039 15.238095 
L 78.971039 15.238095 
L 78.971039 15.238095 
L 79.825454 15.238095 
L 79.825454 15.238095 
L 79.825454 15.238095 
L 80.679868 15.238095 
L 80.679868 15.238095 
L 80.679868 15.238095 
L 81.534283 15.238095 
L 81.534283 15.238095 
L 81.534283 15.238095 
L 82.388697 15.238095 
L 82.388697 15.238095 
L 82.388697 15.238095 
L 83.243112 15.238095 
L 83.243112 15.238095 
L 83.243112 15.238095 
L 84.097526 15.238095 
L 84.097526 15.238095 
L 84.097526 15.238095 
L 84.951941 15.238095 
L 84.951941 15.238095 
L 84.951941 15.238095 
L 85.806355 15.238095 
L 85.806355 15.238095 
L 85.806355 15.238095 
L 86.660769 15.238095 
L 86.660769 53.6 
L 257.543663 53.6 
L 257.543663 15.238095 
L 371.180788 15.238095 
L 371.180788 53.6 
L 427.572143 53.6 
L 427.572143 53.6 
" style="fill:none;stroke:#1f77b4;stroke-linecap:square;stroke-width:1.5;"/>
   </g>
   <g id="patch_3">
    <path d="M 29.415 53.6 
L 29.415 13.32 
" style="fill:none;stroke:#000000;stroke-linecap:square;stroke-linejoin:miter;stroke-width:0.8;"/>
   </g>
   <g id="patch_4">
    <path d="M 29.415 53.6 
L 447.48 53.6 
" style="fill:none;stroke:#000000;stroke-linecap:square;stroke-linejoin:miter;stroke-width:0.8;"/>
   </g>
  </g>
  <g id="axes_2">
   <g id="patch_5">
    <path d="M 29.415 120.56 
L 447.48 120.56 
L 447.48 80.28 
L 29.415 80.28 
z
" style="fill:#ffffff;"/>
   </g>
   <g id="matplotlib.axis_3">
    <g id="text_3">
     <!-- t -->
     <g transform="translate(236.8725 131.619375)scale(0.1 -0.1)">
      <use xlink:href="#STIXTwoMath-74"/>
     </g>
    </g>
   </g>
   <g id="matplotlib.axis_4">
    <g id="text_4">
     <!-- $K$ -->
     <defs>
      <path d="M 72.203125 65.296875 
L 72.203125 63.703125 
Q 69.40625 63.703125 64.5 60 
L 34.703125 37.5 
L 51.5 8.203125 
Q 53.796875 4.203125 55.5 3.140625 
Q 57.203125 2.09375 61.90625 1.59375 
L 61.90625 0 
L 34.40625 0 
L 34.40625 1.59375 
L 37.296875 1.90625 
Q 41.90625 2.296875 41.90625 5.09375 
Q 41.90625 5.703125 41.75 6.390625 
Q 41.59375 7.09375 41.09375 8.046875 
Q 40.59375 9 40.296875 9.546875 
Q 40 10.09375 39.203125 11.5 
Q 38.40625 12.90625 38.203125 13.296875 
L 25.90625 34.796875 
L 19.40625 11.09375 
Q 18.296875 7.296875 18.296875 6 
Q 18.296875 3.703125 19.75 2.84375 
Q 21.203125 2 25.40625 1.59375 
L 25.40625 0 
L 0.703125 0 
L 0.703125 1.59375 
Q 5 2.09375 6.296875 3.296875 
Q 7.59375 4.5 8.796875 8.703125 
L 21.203125 53.203125 
Q 22.59375 58.203125 22.59375 59.40625 
Q 22.59375 61.5 20.890625 62.5 
Q 19.203125 63.5 14.703125 63.703125 
L 14.703125 65.296875 
L 41.703125 65.296875 
L 41.703125 63.703125 
Q 37.5 63.40625 35.203125 61.84375 
Q 32.90625 60.296875 31.796875 56.296875 
L 26.5 36.90625 
L 41.796875 47.796875 
Q 56.09375 57.90625 56.09375 61.5 
Q 56.09375 63 52.5 63.40625 
L 50.09375 63.703125 
L 50.09375 65.296875 
z
" id="STIXGeneral-Italic-4b"/>
     </defs>
     <g transform="translate(23.215 103.77)rotate(-90)scale(0.1 -0.1)">
      <use transform="translate(0 0.703125)" xlink:href="#STIXGeneral-Italic-4b"/>
     </g>
    </g>
   </g>
   <g id="line2d_2">
    <path clip-path="url(#p04a77c5896)" d="M 29.415 120.56 
L 30.269414 120.56 
L 30.269414 120.56 
L 30.269414 120.56 
L 31.123829 120.56 
L 31.123829 120.56 
L 31.123829 120.56 
L 31.978243 120.56 
L 31.978243 120.56 
L 31.978243 120.56 
L 32.832658 120.56 
L 32.832658 120.56 
L 32.832658 120.56 
L 33.687072 120.56 
L 33.687072 120.56 
L 33.687072 120.56 
L 34.541487 120.56 
L 34.541487 120.56 
L 34.541487 120.56 
L 35.395901 120.56 
L 35.395901 120.56 
L 35.395901 120.56 
L 36.250316 120.56 
L 36.250316 120.56 
L 36.250316 120.56 
L 37.10473 120.56 
L 37.10473 120.56 
L 37.10473 120.56 
L 37.959145 120.56 
L 37.959145 120.56 
L 37.959145 120.56 
L 38.813559 120.56 
L 38.813559 120.56 
L 38.813559 120.56 
L 39.667974 120.56 
L 39.667974 120.56 
L 39.667974 120.56 
L 40.522388 120.56 
L 40.522388 120.56 
L 40.522388 120.56 
L 41.376803 120.56 
L 41.376803 120.56 
L 41.376803 120.56 
L 42.231217 120.56 
L 42.231217 120.56 
L 42.231217 120.56 
L 43.085632 120.56 
L 43.085632 120.56 
L 43.085632 120.56 
L 43.940046 120.56 
L 43.940046 120.56 
L 43.940046 120.56 
L 44.79446 120.56 
L 44.79446 120.56 
L 44.79446 120.56 
L 45.648875 120.56 
L 45.648875 120.56 
L 45.648875 120.56 
L 46.503289 120.56 
L 46.503289 120.56 
L 46.503289 120.56 
L 47.357704 120.56 
L 47.357704 120.56 
L 47.357704 120.56 
L 48.212118 120.56 
L 48.212118 120.56 
L 48.212118 120.56 
L 49.066533 120.56 
L 49.066533 120.56 
L 49.066533 120.56 
L 49.920947 120.56 
L 49.920947 120.56 
L 49.920947 120.56 
L 50.775362 120.56 
L 50.775362 120.56 
L 50.775362 120.56 
L 51.629776 120.56 
L 51.629776 120.56 
L 51.629776 120.56 
L 52.484191 120.56 
L 52.484191 120.56 
L 52.484191 120.56 
L 53.338605 120.56 
L 53.338605 120.56 
L 53.338605 120.56 
L 54.19302 120.56 
L 54.19302 120.56 
L 54.19302 120.56 
L 55.047434 120.56 
L 55.047434 120.56 
L 55.047434 120.56 
L 55.901849 120.56 
L 55.901849 120.56 
L 55.901849 120.56 
L 56.756263 120.56 
L 56.756263 120.56 
L 56.756263 120.56 
L 57.610677 120.56 
L 57.610677 120.56 
L 57.610677 120.56 
L 58.465092 120.56 
L 58.465092 120.56 
L 58.465092 120.56 
L 59.319506 120.56 
L 59.319506 120.56 
L 59.319506 120.56 
L 60.173921 120.56 
L 60.173921 120.56 
L 60.173921 120.56 
L 61.028335 120.56 
L 61.028335 120.56 
L 61.028335 120.56 
L 61.88275 120.56 
L 61.88275 120.56 
L 61.88275 120.56 
L 62.737164 120.56 
L 62.737164 120.56 
L 62.737164 120.56 
L 63.591579 120.56 
L 63.591579 120.56 
L 63.591579 120.56 
L 64.445993 120.56 
L 64.445993 120.56 
L 64.445993 120.56 
L 65.300408 120.56 
L 65.300408 120.56 
L 65.300408 120.56 
L 66.154822 120.56 
L 66.154822 120.56 
L 66.154822 120.56 
L 67.009237 120.56 
L 67.009237 120.56 
L 67.009237 120.56 
L 67.863651 120.56 
L 67.863651 120.56 
L 67.863651 120.56 
L 68.718066 120.56 
L 68.718066 120.56 
L 68.718066 120.56 
L 69.57248 120.56 
L 69.57248 120.56 
L 69.57248 120.56 
L 70.426895 120.56 
L 70.426895 120.56 
L 70.426895 120.56 
L 71.281309 120.56 
L 71.281309 120.56 
L 71.281309 120.56 
L 72.135723 120.56 
L 72.135723 120.56 
L 72.135723 120.56 
L 72.990138 120.56 
L 72.990138 120.56 
L 72.990138 120.56 
L 73.844552 120.56 
L 73.844552 120.56 
L 73.844552 120.56 
L 74.698967 120.56 
L 74.698967 120.56 
L 74.698967 120.56 
L 75.553381 120.56 
L 75.553381 120.56 
L 75.553381 120.56 
L 76.407796 120.56 
L 76.407796 120.56 
L 76.407796 120.56 
L 77.26221 120.56 
L 77.26221 120.56 
L 77.26221 120.56 
L 78.116625 120.56 
L 78.116625 120.56 
L 78.116625 120.56 
L 78.971039 120.56 
L 78.971039 120.56 
L 78.971039 120.56 
L 79.825454 120.56 
L 79.825454 120.56 
L 79.825454 120.56 
L 80.679868 120.56 
L 80.679868 120.56 
L 80.679868 120.56 
L 81.534283 120.56 
L 81.534283 120.56 
L 81.534283 120.56 
L 82.388697 120.56 
L 82.388697 120.56 
L 82.388697 120.56 
L 83.243112 120.56 
L 83.243112 120.56 
L 83.243112 120.56 
L 84.097526 120.56 
L 84.097526 120.56 
L 84.097526 120.56 
L 84.951941 120.56 
L 84.951941 120.56 
L 84.951941 120.56 
L 85.806355 120.56 
L 85.806355 120.56 
L 85.806355 120.56 
L 86.660769 120.56 
L 86.660769 120.56 
L 86.660769 120.56 
L 87.515184 120.56 
L 87.515184 120.56 
L 87.515184 120.56 
L 88.369598 120.56 
L 88.369598 120.56 
L 88.369598 120.56 
L 89.224013 120.56 
L 89.224013 120.56 
L 89.224013 120.56 
L 90.078427 120.56 
L 90.078427 120.56 
L 90.078427 120.56 
L 90.932842 120.56 
L 90.932842 120.56 
L 90.932842 120.56 
L 91.787256 120.56 
L 91.787256 120.56 
L 91.787256 120.56 
L 92.641671 120.56 
L 92.641671 120.56 
L 92.641671 120.56 
L 93.496085 120.56 
L 93.496085 120.56 
L 93.496085 120.56 
L 94.3505 120.56 
L 94.3505 120.56 
L 94.3505 120.56 
L 95.204914 120.56 
L 95.204914 120.56 
L 95.204914 120.56 
L 96.059329 120.56 
L 96.059329 120.56 
L 96.059329 120.56 
L 96.913743 120.56 
L 96.913743 120.56 
L 96.913743 120.56 
L 97.768158 120.56 
L 97.768158 120.56 
L 97.768158 120.56 
L 98.622572 120.56 
L 98.622572 120.56 
L 98.622572 120.56 
L 99.476987 120.56 
L 99.476987 120.56 
L 99.476987 120.56 
L 100.331401 120.56 
L 100.331401 120.56 
L 100.331401 120.56 
L 101.185815 120.56 
L 101.185815 120.56 
L 101.185815 120.56 
L 102.04023 120.56 
L 102.04023 120.56 
L 102.04023 120.56 
L 102.894644 120.56 
L 102.894644 120.56 
L 102.894644 120.56 
L 103.749059 120.56 
L 103.749059 120.56 
L 103.749059 120.56 
L 104.603473 120.56 
L 104.603473 120.56 
L 104.603473 120.56 
L 105.457888 120.56 
L 105.457888 120.56 
L 105.457888 120.56 
L 106.312302 120.56 
L 106.312302 120.56 
L 106.312302 120.56 
L 107.166717 120.56 
L 107.166717 120.56 
L 107.166717 120.56 
L 108.021131 120.56 
L 108.021131 120.56 
L 108.021131 120.56 
L 108.875546 120.56 
L 108.875546 120.56 
L 108.875546 120.56 
L 109.72996 120.56 
L 109.72996 120.56 
L 109.72996 120.56 
L 110.584375 120.56 
L 110.584375 120.56 
L 110.584375 120.56 
L 111.438789 120.56 
L 111.438789 120.56 
L 111.438789 120.56 
L 112.293204 120.56 
L 112.293204 120.56 
L 112.293204 120.56 
L 113.147618 120.56 
L 113.147618 120.56 
L 113.147618 120.56 
L 114.002032 120.56 
L 114.002032 120.56 
L 114.002032 120.56 
L 114.856447 120.56 
L 114.856447 120.56 
L 114.856447 120.56 
L 115.710861 120.56 
L 115.710861 120.56 
L 115.710861 120.56 
L 116.565276 120.56 
L 116.565276 120.56 
L 116.565276 120.56 
L 117.41969 120.56 
L 117.41969 120.56 
L 117.41969 120.56 
L 118.274105 120.56 
L 118.274105 120.56 
L 118.274105 120.56 
L 119.128519 120.56 
L 119.128519 120.56 
L 119.128519 120.56 
L 119.982934 120.56 
L 119.982934 120.56 
L 119.982934 120.56 
L 120.837348 120.56 
L 120.837348 120.56 
L 120.837348 120.56 
L 121.691763 120.56 
L 121.691763 120.56 
L 121.691763 120.56 
L 122.546177 120.56 
L 122.546177 120.56 
L 122.546177 120.56 
L 123.400592 120.56 
L 123.400592 120.56 
L 123.400592 120.56 
L 124.255006 120.56 
L 124.255006 120.56 
L 124.255006 120.56 
L 125.109421 120.56 
L 125.109421 120.56 
L 125.109421 120.56 
L 125.963835 120.56 
L 125.963835 120.56 
L 125.963835 120.56 
L 126.81825 120.56 
L 126.81825 120.56 
L 126.81825 120.56 
L 127.672664 120.56 
L 127.672664 120.56 
L 127.672664 120.56 
L 128.527078 120.56 
L 128.527078 120.56 
L 128.527078 120.56 
L 129.381493 120.56 
L 129.381493 120.56 
L 129.381493 120.56 
L 130.235907 120.56 
L 130.235907 120.56 
L 130.235907 120.56 
L 131.090322 120.56 
L 131.090322 120.56 
L 131.090322 120.56 
L 131.944736 120.56 
L 131.944736 120.56 
L 131.944736 120.56 
L 132.799151 120.56 
L 132.799151 120.56 
L 132.799151 120.56 
L 133.653565 120.56 
L 133.653565 120.56 
L 133.653565 120.56 
L 134.50798 120.56 
L 134.50798 120.56 
L 134.50798 120.56 
L 135.362394 120.56 
L 135.362394 120.56 
L 135.362394 120.56 
L 136.216809 120.56 
L 136.216809 120.56 
L 136.216809 120.56 
L 137.071223 120.56 
L 137.071223 120.56 
L 137.071223 120.56 
L 137.925638 120.56 
L 137.925638 120.56 
L 137.925638 120.56 
L 138.780052 120.56 
L 138.780052 120.56 
L 138.780052 120.56 
L 139.634467 120.56 
L 139.634467 120.56 
L 139.634467 120.56 
L 140.488881 120.56 
L 140.488881 120.56 
L 140.488881 120.56 
L 141.343296 120.56 
L 141.343296 120.56 
L 141.343296 120.56 
L 142.19771 120.56 
L 142.19771 120.56 
L 142.19771 120.56 
L 143.052124 120.56 
L 143.052124 120.56 
L 143.052124 120.56 
L 143.906539 120.56 
L 143.906539 82.198095 
L 200.297894 82.198095 
L 200.297894 120.56 
L 257.543663 120.56 
L 257.543663 82.198095 
L 371.180788 82.198095 
L 371.180788 120.56 
L 427.572143 120.56 
L 427.572143 120.56 
" style="fill:none;stroke:#1f77b4;stroke-linecap:square;stroke-width:1.5;"/>
   </g>
   <g id="patch_6">
    <path d="M 29.415 120.56 
L 29.415 80.28 
" style="fill:none;stroke:#000000;stroke-linecap:square;stroke-linejoin:miter;stroke-width:0.8;"/>
   </g>
   <g id="patch_7">
    <path d="M 29.415 120.56 
L 447.48 120.56 
" style="fill:none;stroke:#000000;stroke-linecap:square;stroke-linejoin:miter;stroke-width:0.8;"/>
   </g>
  </g>
  <g id="axes_3">
   <g id="patch_8">
    <path d="M 29.415 187.52 
L 447.48 187.52 
L 447.48 147.24 
L 29.415 147.24 
z
" style="fill:#ffffff;"/>
   </g>
   <g id="matplotlib.axis_5">
    <g id="text_5">
     <!-- t -->
     <g transform="translate(236.8725 198.579375)scale(0.1 -0.1)">
      <use xlink:href="#STIXTwoMath-74"/>
     </g>
    </g>
   </g>
   <g id="matplotlib.axis_6">
    <g id="text_6">
     <!-- $C$ -->
     <defs>
      <path d="M 68.90625 66.40625 
L 65.203125 46.40625 
L 63.40625 46.703125 
Q 61.59375 63 48.5 63 
Q 37.59375 63 28.59375 53.296875 
Q 23.296875 47.703125 20.546875 39.703125 
Q 17.796875 31.703125 17.796875 23.203125 
Q 17.796875 2.703125 35.296875 2.703125 
Q 41.5 2.703125 46.640625 5.296875 
Q 51.796875 7.90625 58.203125 14.59375 
L 60 13.09375 
Q 53.296875 5.203125 46.84375 1.703125 
Q 40.40625 -1.796875 32.703125 -1.796875 
Q 21 -1.796875 13.796875 5.140625 
Q 6.59375 12.09375 6.59375 24.296875 
Q 6.59375 34.59375 11.6875 43.9375 
Q 16.796875 53.296875 25.296875 59.296875 
Q 35.5 66.59375 47.203125 66.59375 
Q 54.09375 66.59375 58.90625 64.90625 
Q 60.90625 64.203125 63 64.203125 
Q 65.703125 64.203125 66.796875 66.40625 
z
" id="STIXGeneral-Italic-43"/>
     </defs>
     <g transform="translate(23.215 170.73)rotate(-90)scale(0.1 -0.1)">
      <use transform="translate(0 0.40625)" xlink:href="#STIXGeneral-Italic-43"/>
     </g>
    </g>
   </g>
   <g id="line2d_3">
    <path clip-path="url(#p92ad8135f1)" d="M 29.415 149.158095 
L 30.269414 149.158095 
L 30.269414 149.158095 
L 30.269414 149.158095 
L 31.123829 149.158095 
L 31.123829 149.158095 
L 31.123829 149.158095 
L 31.978243 149.158095 
L 31.978243 149.158095 
L 31.978243 149.158095 
L 32.832658 149.158095 
L 32.832658 149.158095 
L 32.832658 149.158095 
L 33.687072 149.158095 
L 33.687072 149.158095 
L 33.687072 149.158095 
L 34.541487 149.158095 
L 34.541487 149.158095 
L 34.541487 149.158095 
L 35.395901 149.158095 
L 35.395901 149.158095 
L 35.395901 149.158095 
L 36.250316 149.158095 
L 36.250316 149.158095 
L 36.250316 149.158095 
L 37.10473 149.158095 
L 37.10473 149.158095 
L 37.10473 149.158095 
L 37.959145 149.158095 
L 37.959145 149.158095 
L 37.959145 149.158095 
L 38.813559 149.158095 
L 38.813559 149.158095 
L 38.813559 149.158095 
L 39.667974 149.158095 
L 39.667974 149.158095 
L 39.667974 149.158095 
L 40.522388 149.158095 
L 40.522388 149.158095 
L 40.522388 149.158095 
L 41.376803 149.158095 
L 41.376803 149.158095 
L 41.376803 149.158095 
L 42.231217 149.158095 
L 42.231217 149.158095 
L 42.231217 149.158095 
L 43.085632 149.158095 
L 43.085632 149.158095 
L 43.085632 149.158095 
L 43.940046 149.158095 
L 43.940046 149.158095 
L 43.940046 149.158095 
L 44.79446 149.158095 
L 44.79446 149.158095 
L 44.79446 149.158095 
L 45.648875 149.158095 
L 45.648875 149.158095 
L 45.648875 149.158095 
L 46.503289 149.158095 
L 46.503289 149.158095 
L 46.503289 149.158095 
L 47.357704 149.158095 
L 47.357704 149.158095 
L 47.357704 149.158095 
L 48.212118 149.158095 
L 48.212118 149.158095 
L 48.212118 149.158095 
L 49.066533 149.158095 
L 49.066533 149.158095 
L 49.066533 149.158095 
L 49.920947 149.158095 
L 49.920947 149.158095 
L 49.920947 149.158095 
L 50.775362 149.158095 
L 50.775362 149.158095 
L 50.775362 149.158095 
L 51.629776 149.158095 
L 51.629776 149.158095 
L 51.629776 149.158095 
L 52.484191 149.158095 
L 52.484191 149.158095 
L 52.484191 149.158095 
L 53.338605 149.158095 
L 53.338605 149.158095 
L 53.338605 149.158095 
L 54.19302 149.158095 
L 54.19302 149.158095 
L 54.19302 149.158095 
L 55.047434 149.158095 
L 55.047434 149.158095 
L 55.047434 149.158095 
L 55.901849 149.158095 
L 55.901849 149.158095 
L 55.901849 149.158095 
L 56.756263 149.158095 
L 56.756263 149.158095 
L 56.756263 149.158095 
L 57.610677 149.158095 
L 57.610677 149.158095 
L 57.610677 149.158095 
L 58.465092 149.158095 
L 58.465092 187.52 
L 86.660769 187.52 
L 86.660769 149.158095 
L 114.856447 149.158095 
L 114.856447 187.52 
L 143.906539 187.52 
L 143.906539 149.158095 
L 172.102216 149.158095 
L 172.102216 187.52 
L 200.297894 187.52 
L 200.297894 149.158095 
L 229.347986 149.158095 
L 229.347986 187.52 
L 257.543663 187.52 
L 257.543663 149.158095 
L 285.739341 149.158095 
L 285.739341 187.52 
L 314.789433 187.52 
L 314.789433 149.158095 
L 342.98511 149.158095 
L 342.98511 187.52 
L 371.180788 187.52 
L 371.180788 149.158095 
L 400.23088 149.158095 
L 400.23088 187.52 
L 427.572143 187.52 
L 427.572143 187.52 
" style="fill:none;stroke:#1f77b4;stroke-linecap:square;stroke-width:1.5;"/>
   </g>
   <g id="patch_9">
    <path d="M 29.415 187.52 
L 29.415 147.24 
" style="fill:none;stroke:#000000;stroke-linecap:square;stroke-linejoin:miter;stroke-width:0.8;"/>
   </g>
   <g id="patch_10">
    <path d="M 29.415 187.52 
L 447.48 187.52 
" style="fill:none;stroke:#000000;stroke-linecap:square;stroke-linejoin:miter;stroke-width:0.8;"/>
   </g>
  </g>
  <g id="axes_4">
   <g id="patch_11">
    <path d="M 29.415 254.48 
L 447.48 254.48 
L 447.48 214.2 
L 29.415 214.2 
z
" style="fill:#ffffff;"/>
   </g>
   <g id="matplotlib.axis_7">
    <g id="text_7">
     <!-- t -->
     <g transform="translate(236.8725 265.539375)scale(0.1 -0.1)">
      <use xlink:href="#STIXTwoMath-74"/>
     </g>
    </g>
   </g>
   <g id="matplotlib.axis_8">
    <g id="text_8">
     <!-- $Q$ -->
     <defs>
      <path d="M 6.90625 -16.90625 
L 5.90625 -15.296875 
Q 11.703125 -11.203125 14.25 -9.203125 
Q 16.796875 -7.203125 23.59375 -1.203125 
Q 15.09375 0.5 10.546875 6.640625 
Q 6 12.796875 6 22.5 
Q 6 31.796875 10.59375 41 
Q 15.203125 50.203125 23.296875 57.203125 
Q 34.40625 66.59375 47.40625 66.59375 
Q 57.5 66.59375 63.703125 59.890625 
Q 69.90625 53.203125 69.90625 42.90625 
Q 69.90625 31.203125 62.796875 19.953125 
Q 55.703125 8.703125 44.296875 2.703125 
Q 37.5 -1 27.90625 -1.59375 
L 22.5 -7.296875 
L 25 -7.296875 
Q 28.5 -7.296875 37.296875 -9.296875 
Q 45.90625 -11.40625 48.40625 -11.40625 
Q 53.796875 -11.40625 57.390625 -9.75 
Q 61 -8.09375 65.203125 -3.703125 
L 66.796875 -4.796875 
Q 64.40625 -8.203125 61.59375 -10.703125 
Q 53.296875 -18.203125 42.5 -18.203125 
Q 35.90625 -18.203125 27.703125 -15.59375 
Q 22.203125 -13.796875 18.40625 -13.796875 
Q 12.5 -13.796875 6.90625 -16.90625 
z
M 59.40625 48 
Q 59.40625 55.09375 55.953125 59.1875 
Q 52.5 63.296875 46.5 63.296875 
Q 35.5 63.296875 27.09375 50.796875 
Q 22.59375 44.09375 19.546875 34.84375 
Q 16.5 25.59375 16.5 18.296875 
Q 16.5 10.796875 19.890625 6.25 
Q 23.296875 1.703125 28.90625 1.703125 
Q 40.296875 1.703125 48.703125 14.09375 
Q 53.296875 21.09375 56.34375 30.6875 
Q 59.40625 40.296875 59.40625 48 
z
" id="STIXGeneral-Italic-51"/>
     </defs>
     <g transform="translate(23.215 237.99)rotate(-90)scale(0.1 -0.1)">
      <use transform="translate(0 0.40625)" xlink:href="#STIXGeneral-Italic-51"/>
     </g>
    </g>
   </g>
   <g id="line2d_4">
    <path clip-path="url(#pc6db991584)" d="M 29.415 252.649091 
L 30.269414 252.649091 
L 30.269414 252.649091 
L 30.269414 252.649091 
L 31.123829 252.649091 
L 31.123829 252.649091 
L 31.123829 252.649091 
L 31.978243 252.649091 
L 31.978243 252.649091 
L 31.978243 252.649091 
L 32.832658 252.649091 
L 32.832658 252.649091 
L 32.832658 252.649091 
L 33.687072 252.649091 
L 33.687072 252.649091 
L 33.687072 252.649091 
L 34.541487 252.649091 
L 34.541487 252.649091 
L 34.541487 252.649091 
L 35.395901 252.649091 
L 35.395901 252.649091 
L 35.395901 252.649091 
L 36.250316 252.649091 
L 36.250316 252.649091 
L 36.250316 252.649091 
L 37.10473 252.649091 
L 37.10473 252.649091 
L 37.10473 252.649091 
L 37.959145 252.649091 
L 37.959145 252.649091 
L 37.959145 252.649091 
L 38.813559 252.649091 
L 38.813559 252.649091 
L 38.813559 252.649091 
L 39.667974 252.649091 
L 39.667974 252.649091 
L 39.667974 252.649091 
L 40.522388 252.649091 
L 40.522388 252.649091 
L 40.522388 252.649091 
L 41.376803 252.649091 
L 41.376803 252.649091 
L 41.376803 252.649091 
L 42.231217 252.649091 
L 42.231217 252.649091 
L 42.231217 252.649091 
L 43.085632 252.649091 
L 43.085632 252.649091 
L 43.085632 252.649091 
L 43.940046 252.649091 
L 43.940046 252.649091 
L 43.940046 252.649091 
L 44.79446 252.649091 
L 44.79446 252.649091 
L 44.79446 252.649091 
L 45.648875 252.649091 
L 45.648875 252.649091 
L 45.648875 252.649091 
L 46.503289 252.649091 
L 46.503289 252.649091 
L 46.503289 252.649091 
L 47.357704 252.649091 
L 47.357704 252.649091 
L 47.357704 252.649091 
L 48.212118 252.649091 
L 48.212118 252.649091 
L 48.212118 252.649091 
L 49.066533 252.649091 
L 49.066533 252.649091 
L 49.066533 252.649091 
L 49.920947 252.649091 
L 49.920947 252.649091 
L 49.920947 252.649091 
L 50.775362 252.649091 
L 50.775362 252.649091 
L 50.775362 252.649091 
L 51.629776 252.649091 
L 51.629776 252.649091 
L 51.629776 252.649091 
L 52.484191 252.649091 
L 52.484191 252.649091 
L 52.484191 252.649091 
L 53.338605 252.649091 
L 53.338605 252.649091 
L 53.338605 252.649091 
L 54.19302 252.649091 
L 54.19302 252.649091 
L 54.19302 252.649091 
L 55.047434 252.649091 
L 55.047434 252.649091 
L 55.047434 252.649091 
L 55.901849 252.649091 
L 55.901849 252.649091 
L 55.901849 252.649091 
L 56.756263 252.649091 
L 56.756263 252.649091 
L 56.756263 252.649091 
L 57.610677 252.649091 
L 57.610677 252.649091 
L 57.610677 252.649091 
L 58.465092 252.649091 
L 58.465092 216.030909 
L 172.102216 216.030909 
L 172.102216 252.649091 
L 286.593755 252.649091 
L 286.593755 216.030909 
L 342.98511 216.030909 
L 342.98511 252.649091 
L 427.572143 252.649091 
L 427.572143 252.649091 
" style="fill:none;stroke:#1f77b4;stroke-linecap:square;stroke-width:1.5;"/>
   </g>
   <g id="patch_12">
    <path d="M 29.415 254.48 
L 29.415 214.2 
" style="fill:none;stroke:#000000;stroke-linecap:square;stroke-linejoin:miter;stroke-width:0.8;"/>
   </g>
   <g id="patch_13">
    <path d="M 29.415 254.48 
L 447.48 254.48 
" style="fill:none;stroke:#000000;stroke-linecap:square;stroke-linejoin:miter;stroke-width:0.8;"/>
   </g>
  </g>
  <g id="axes_5">
   <g id="patch_14">
    <path d="M 29.415 321.44 
L 447.48 321.44 
L 447.48 281.16 
L 29.415 281.16 
z
" style="fill:#ffffff;"/>
   </g>
   <g id="matplotlib.axis_9">
    <g id="text_9">
     <!-- t -->
     <g transform="translate(236.8725 332.499375)scale(0.1 -0.1)">
      <use xlink:href="#STIXTwoMath-74"/>
     </g>
    </g>
   </g>
   <g id="matplotlib.axis_10">
    <g id="text_10">
     <!-- $\overline{Q}$ -->
     <g transform="translate(23.215 304.95)rotate(-90)scale(0.1 -0.1)">
      <use transform="translate(0 1.15625)" xlink:href="#STIXGeneral-Italic-51"/>
      <path d="M 0 79.5 
L 0 85.75 
L 72.199982 85.75 
L 72.199982 79.5 
L 0 79.5 
z
"/>
     </g>
    </g>
   </g>
   <g id="line2d_5">
    <path clip-path="url(#p5838745019)" d="M 29.415 319.609091 
L 30.269414 319.609091 
L 30.269414 319.609091 
L 30.269414 319.609091 
L 31.123829 319.609091 
L 31.123829 319.609091 
L 31.123829 319.609091 
L 31.978243 319.609091 
L 31.978243 319.609091 
L 31.978243 319.609091 
L 32.832658 319.609091 
L 32.832658 319.609091 
L 32.832658 319.609091 
L 33.687072 319.609091 
L 33.687072 319.609091 
L 33.687072 319.609091 
L 34.541487 319.609091 
L 34.541487 319.609091 
L 34.541487 319.609091 
L 35.395901 319.609091 
L 35.395901 319.609091 
L 35.395901 319.609091 
L 36.250316 319.609091 
L 36.250316 319.609091 
L 36.250316 319.609091 
L 37.10473 319.609091 
L 37.10473 319.609091 
L 37.10473 319.609091 
L 37.959145 319.609091 
L 37.959145 319.609091 
L 37.959145 319.609091 
L 38.813559 319.609091 
L 38.813559 319.609091 
L 38.813559 319.609091 
L 39.667974 319.609091 
L 39.667974 319.609091 
L 39.667974 319.609091 
L 40.522388 319.609091 
L 40.522388 319.609091 
L 40.522388 319.609091 
L 41.376803 319.609091 
L 41.376803 319.609091 
L 41.376803 319.609091 
L 42.231217 319.609091 
L 42.231217 319.609091 
L 42.231217 319.609091 
L 43.085632 319.609091 
L 43.085632 319.609091 
L 43.085632 319.609091 
L 43.940046 319.609091 
L 43.940046 319.609091 
L 43.940046 319.609091 
L 44.79446 319.609091 
L 44.79446 319.609091 
L 44.79446 319.609091 
L 45.648875 319.609091 
L 45.648875 319.609091 
L 45.648875 319.609091 
L 46.503289 319.609091 
L 46.503289 319.609091 
L 46.503289 319.609091 
L 47.357704 319.609091 
L 47.357704 319.609091 
L 47.357704 319.609091 
L 48.212118 319.609091 
L 48.212118 319.609091 
L 48.212118 319.609091 
L 49.066533 319.609091 
L 49.066533 319.609091 
L 49.066533 319.609091 
L 49.920947 319.609091 
L 49.920947 319.609091 
L 49.920947 319.609091 
L 50.775362 319.609091 
L 50.775362 319.609091 
L 50.775362 319.609091 
L 51.629776 319.609091 
L 51.629776 319.609091 
L 51.629776 319.609091 
L 52.484191 319.609091 
L 52.484191 319.609091 
L 52.484191 319.609091 
L 53.338605 319.609091 
L 53.338605 319.609091 
L 53.338605 319.609091 
L 54.19302 319.609091 
L 54.19302 319.609091 
L 54.19302 319.609091 
L 55.047434 319.609091 
L 55.047434 319.609091 
L 55.047434 319.609091 
L 55.901849 319.609091 
L 55.901849 319.609091 
L 55.901849 319.609091 
L 56.756263 319.609091 
L 56.756263 319.609091 
L 56.756263 319.609091 
L 57.610677 319.609091 
L 57.610677 319.609091 
L 57.610677 319.609091 
L 58.465092 319.609091 
L 58.465092 319.609091 
L 58.465092 319.609091 
L 59.319506 319.609091 
L 59.319506 319.609091 
L 59.319506 319.609091 
L 60.173921 319.609091 
L 60.173921 319.609091 
L 60.173921 319.609091 
L 61.028335 319.609091 
L 61.028335 319.609091 
L 61.028335 319.609091 
L 61.88275 319.609091 
L 61.88275 319.609091 
L 61.88275 319.609091 
L 62.737164 319.609091 
L 62.737164 319.609091 
L 62.737164 319.609091 
L 63.591579 319.609091 
L 63.591579 319.609091 
L 63.591579 319.609091 
L 64.445993 319.609091 
L 64.445993 319.609091 
L 64.445993 319.609091 
L 65.300408 319.609091 
L 65.300408 319.609091 
L 65.300408 319.609091 
L 66.154822 319.609091 
L 66.154822 319.609091 
L 66.154822 319.609091 
L 67.009237 319.609091 
L 67.009237 319.609091 
L 67.009237 319.609091 
L 67.863651 319.609091 
L 67.863651 319.609091 
L 67.863651 319.609091 
L 68.718066 319.609091 
L 68.718066 319.609091 
L 68.718066 319.609091 
L 69.57248 319.609091 
L 69.57248 319.609091 
L 69.57248 319.609091 
L 70.426895 319.609091 
L 70.426895 319.609091 
L 70.426895 319.609091 
L 71.281309 319.609091 
L 71.281309 319.609091 
L 71.281309 319.609091 
L 72.135723 319.609091 
L 72.135723 319.609091 
L 72.135723 319.609091 
L 72.990138 319.609091 
L 72.990138 319.609091 
L 72.990138 319.609091 
L 73.844552 319.609091 
L 73.844552 319.609091 
L 73.844552 319.609091 
L 74.698967 319.609091 
L 74.698967 319.609091 
L 74.698967 319.609091 
L 75.553381 319.609091 
L 75.553381 319.609091 
L 75.553381 319.609091 
L 76.407796 319.609091 
L 76.407796 319.609091 
L 76.407796 319.609091 
L 77.26221 319.609091 
L 77.26221 319.609091 
L 77.26221 319.609091 
L 78.116625 319.609091 
L 78.116625 319.609091 
L 78.116625 319.609091 
L 78.971039 319.609091 
L 78.971039 319.609091 
L 78.971039 319.609091 
L 79.825454 319.609091 
L 79.825454 319.609091 
L 79.825454 319.609091 
L 80.679868 319.609091 
L 80.679868 319.609091 
L 80.679868 319.609091 
L 81.534283 319.609091 
L 81.534283 319.609091 
L 81.534283 319.609091 
L 82.388697 319.609091 
L 82.388697 319.609091 
L 82.388697 319.609091 
L 83.243112 319.609091 
L 83.243112 319.609091 
L 83.243112 319.609091 
L 84.097526 319.609091 
L 84.097526 319.609091 
L 84.097526 319.609091 
L 84.951941 319.609091 
L 84.951941 319.609091 
L 84.951941 319.609091 
L 85.806355 319.609091 
L 85.806355 319.609091 
L 85.806355 319.609091 
L 86.660769 319.609091 
L 86.660769 319.609091 
L 86.660769 319.609091 
L 87.515184 319.609091 
L 87.515184 319.609091 
L 87.515184 319.609091 
L 88.369598 319.609091 
L 88.369598 319.609091 
L 88.369598 319.609091 
L 89.224013 319.609091 
L 89.224013 319.609091 
L 89.224013 319.609091 
L 90.078427 319.609091 
L 90.078427 319.609091 
L 90.078427 319.609091 
L 90.932842 319.609091 
L 90.932842 319.609091 
L 90.932842 319.609091 
L 91.787256 319.609091 
L 91.787256 319.609091 
L 91.787256 319.609091 
L 92.641671 319.609091 
L 92.641671 319.609091 
L 92.641671 319.609091 
L 93.496085 319.609091 
L 93.496085 319.609091 
L 93.496085 319.609091 
L 94.3505 319.609091 
L 94.3505 319.609091 
L 94.3505 319.609091 
L 95.204914 319.609091 
L 95.204914 319.609091 
L 95.204914 319.609091 
L 96.059329 319.609091 
L 96.059329 319.609091 
L 96.059329 319.609091 
L 96.913743 319.609091 
L 96.913743 319.609091 
L 96.913743 319.609091 
L 97.768158 319.609091 
L 97.768158 319.609091 
L 97.768158 319.609091 
L 98.622572 319.609091 
L 98.622572 319.609091 
L 98.622572 319.609091 
L 99.476987 319.609091 
L 99.476987 319.609091 
L 99.476987 319.609091 
L 100.331401 319.609091 
L 100.331401 319.609091 
L 100.331401 319.609091 
L 101.185815 319.609091 
L 101.185815 319.609091 
L 101.185815 319.609091 
L 102.04023 319.609091 
L 102.04023 319.609091 
L 102.04023 319.609091 
L 102.894644 319.609091 
L 102.894644 319.609091 
L 102.894644 319.609091 
L 103.749059 319.609091 
L 103.749059 319.609091 
L 103.749059 319.609091 
L 104.603473 319.609091 
L 104.603473 319.609091 
L 104.603473 319.609091 
L 105.457888 319.609091 
L 105.457888 319.609091 
L 105.457888 319.609091 
L 106.312302 319.609091 
L 106.312302 319.609091 
L 106.312302 319.609091 
L 107.166717 319.609091 
L 107.166717 319.609091 
L 107.166717 319.609091 
L 108.021131 319.609091 
L 108.021131 319.609091 
L 108.021131 319.609091 
L 108.875546 319.609091 
L 108.875546 319.609091 
L 108.875546 319.609091 
L 109.72996 319.609091 
L 109.72996 319.609091 
L 109.72996 319.609091 
L 110.584375 319.609091 
L 110.584375 319.609091 
L 110.584375 319.609091 
L 111.438789 319.609091 
L 111.438789 319.609091 
L 111.438789 319.609091 
L 112.293204 319.609091 
L 112.293204 319.609091 
L 112.293204 319.609091 
L 113.147618 319.609091 
L 113.147618 319.609091 
L 113.147618 319.609091 
L 114.002032 319.609091 
L 114.002032 319.609091 
L 114.002032 319.609091 
L 114.856447 319.609091 
L 114.856447 319.609091 
L 114.856447 319.609091 
L 115.710861 319.609091 
L 115.710861 319.609091 
L 115.710861 319.609091 
L 116.565276 319.609091 
L 116.565276 319.609091 
L 116.565276 319.609091 
L 117.41969 319.609091 
L 117.41969 319.609091 
L 117.41969 319.609091 
L 118.274105 319.609091 
L 118.274105 319.609091 
L 118.274105 319.609091 
L 119.128519 319.609091 
L 119.128519 319.609091 
L 119.128519 319.609091 
L 119.982934 319.609091 
L 119.982934 319.609091 
L 119.982934 319.609091 
L 120.837348 319.609091 
L 120.837348 319.609091 
L 120.837348 319.609091 
L 121.691763 319.609091 
L 121.691763 319.609091 
L 121.691763 319.609091 
L 122.546177 319.609091 
L 122.546177 319.609091 
L 122.546177 319.609091 
L 123.400592 319.609091 
L 123.400592 319.609091 
L 123.400592 319.609091 
L 124.255006 319.609091 
L 124.255006 319.609091 
L 124.255006 319.609091 
L 125.109421 319.609091 
L 125.109421 319.609091 
L 125.109421 319.609091 
L 125.963835 319.609091 
L 125.963835 319.609091 
L 125.963835 319.609091 
L 126.81825 319.609091 
L 126.81825 319.609091 
L 126.81825 319.609091 
L 127.672664 319.609091 
L 127.672664 319.609091 
L 127.672664 319.609091 
L 128.527078 319.609091 
L 128.527078 319.609091 
L 128.527078 319.609091 
L 129.381493 319.609091 
L 129.381493 319.609091 
L 129.381493 319.609091 
L 130.235907 319.609091 
L 130.235907 319.609091 
L 130.235907 319.609091 
L 131.090322 319.609091 
L 131.090322 319.609091 
L 131.090322 319.609091 
L 131.944736 319.609091 
L 131.944736 319.609091 
L 131.944736 319.609091 
L 132.799151 319.609091 
L 132.799151 319.609091 
L 132.799151 319.609091 
L 133.653565 319.609091 
L 133.653565 319.609091 
L 133.653565 319.609091 
L 134.50798 319.609091 
L 134.50798 319.609091 
L 134.50798 319.609091 
L 135.362394 319.609091 
L 135.362394 319.609091 
L 135.362394 319.609091 
L 136.216809 319.609091 
L 136.216809 319.609091 
L 136.216809 319.609091 
L 137.071223 319.609091 
L 137.071223 319.609091 
L 137.071223 319.609091 
L 137.925638 319.609091 
L 137.925638 319.609091 
L 137.925638 319.609091 
L 138.780052 319.609091 
L 138.780052 319.609091 
L 138.780052 319.609091 
L 139.634467 319.609091 
L 139.634467 319.609091 
L 139.634467 319.609091 
L 140.488881 319.609091 
L 140.488881 319.609091 
L 140.488881 319.609091 
L 141.343296 319.609091 
L 141.343296 319.609091 
L 141.343296 319.609091 
L 142.19771 319.609091 
L 142.19771 319.609091 
L 142.19771 319.609091 
L 143.052124 319.609091 
L 143.052124 319.609091 
L 143.052124 319.609091 
L 143.906539 319.609091 
L 143.906539 319.609091 
L 143.906539 319.609091 
L 144.760953 319.609091 
L 144.760953 319.609091 
L 144.760953 319.609091 
L 145.615368 319.609091 
L 145.615368 319.609091 
L 145.615368 319.609091 
L 146.469782 319.609091 
L 146.469782 319.609091 
L 146.469782 319.609091 
L 147.324197 319.609091 
L 147.324197 319.609091 
L 147.324197 319.609091 
L 148.178611 319.609091 
L 148.178611 319.609091 
L 148.178611 319.609091 
L 149.033026 319.609091 
L 149.033026 319.609091 
L 149.033026 319.609091 
L 149.88744 319.609091 
L 149.88744 319.609091 
L 149.88744 319.609091 
L 150.741855 319.609091 
L 150.741855 319.609091 
L 150.741855 319.609091 
L 151.596269 319.609091 
L 151.596269 319.609091 
L 151.596269 319.609091 
L 152.450684 319.609091 
L 152.450684 319.609091 
L 152.450684 319.609091 
L 153.305098 319.609091 
L 153.305098 319.609091 
L 153.305098 319.609091 
L 154.159513 319.609091 
L 154.159513 319.609091 
L 154.159513 319.609091 
L 155.013927 319.609091 
L 155.013927 319.609091 
L 155.013927 319.609091 
L 155.868342 319.609091 
L 155.868342 319.609091 
L 155.868342 319.609091 
L 156.722756 319.609091 
L 156.722756 319.609091 
L 156.722756 319.609091 
L 157.57717 319.609091 
L 157.57717 319.609091 
L 157.57717 319.609091 
L 158.431585 319.609091 
L 158.431585 319.609091 
L 158.431585 319.609091 
L 159.285999 319.609091 
L 159.285999 319.609091 
L 159.285999 319.609091 
L 160.140414 319.609091 
L 160.140414 319.609091 
L 160.140414 319.609091 
L 160.994828 319.609091 
L 160.994828 319.609091 
L 160.994828 319.609091 
L 161.849243 319.609091 
L 161.849243 319.609091 
L 161.849243 319.609091 
L 162.703657 319.609091 
L 162.703657 319.609091 
L 162.703657 319.609091 
L 163.558072 319.609091 
L 163.558072 319.609091 
L 163.558072 319.609091 
L 164.412486 319.609091 
L 164.412486 319.609091 
L 164.412486 319.609091 
L 165.266901 319.609091 
L 165.266901 319.609091 
L 165.266901 319.609091 
L 166.121315 319.609091 
L 166.121315 319.609091 
L 166.121315 319.609091 
L 166.97573 319.609091 
L 166.97573 319.609091 
L 166.97573 319.609091 
L 167.830144 319.609091 
L 167.830144 319.609091 
L 167.830144 319.609091 
L 168.684559 319.609091 
L 168.684559 319.609091 
L 168.684559 319.609091 
L 169.538973 319.609091 
L 169.538973 319.609091 
L 169.538973 319.609091 
L 170.393387 319.609091 
L 170.393387 319.609091 
L 170.393387 319.609091 
L 171.247802 319.609091 
L 171.247802 319.609091 
L 171.247802 319.609091 
L 172.102216 319.609091 
L 172.102216 282.990909 
L 286.593755 282.990909 
L 286.593755 319.609091 
L 342.98511 319.609091 
L 342.98511 282.990909 
L 427.572143 282.990909 
L 427.572143 282.990909 
" style="fill:none;stroke:#1f77b4;stroke-linecap:square;stroke-width:1.5;"/>
   </g>
   <g id="patch_15">
    <path d="M 29.415 321.44 
L 29.415 281.16 
" style="fill:none;stroke:#000000;stroke-linecap:square;stroke-linejoin:miter;stroke-width:0.8;"/>
   </g>
   <g id="patch_16">
    <path d="M 29.415 321.44 
L 447.48 321.44 
" style="fill:none;stroke:#000000;stroke-linecap:square;stroke-linejoin:miter;stroke-width:0.8;"/>
   </g>
  </g>
 </g>
 <defs>
  <clipPath id="p61d345de9c">
   <rect height="40.28" width="418.065" x="29.415" y="13.32"/>
  </clipPath>
  <clipPath id="p04a77c5896">
   <rect height="40.28" width="418.065" x="29.415" y="80.28"/>
  </clipPath>
  <clipPath id="p92ad8135f1">
   <rect height="40.28" width="418.065" x="29.415" y="147.24"/>
  </clipPath>
  <clipPath id="pc6db991584">
   <rect height="40.28" width="418.065" x="29.415" y="214.2"/>
  </clipPath>
  <clipPath id="p5838745019">
   <rect height="40.28" width="418.065" x="29.415" y="281.16"/>
  </clipPath>
 </defs>
</svg>
