<?xml version="1.0" encoding="UTF-8" standalone="no"?>
<svg
   xmlns:dc="http://purl.org/dc/elements/1.1/"
   xmlns:cc="http://creativecommons.org/ns#"
   xmlns:rdf="http://www.w3.org/1999/02/22-rdf-syntax-ns#"
   xmlns:svg="http://www.w3.org/2000/svg"
   xmlns="http://www.w3.org/2000/svg"
   xmlns:sodipodi="http://sodipodi.sourceforge.net/DTD/sodipodi-0.dtd"
   xmlns:inkscape="http://www.inkscape.org/namespaces/inkscape"
   width="557pt"
   height="367.05078pt"
   viewBox="0 0 557 367.05078"
   version="1.1"
   id="svg123"
   sodipodi:docname="sine-waves-01-v02.svg"
   inkscape:version="0.92.2 (5c3e80d, 2017-08-06)">
  <metadata
     id="metadata129">
    <rdf:RDF>
      <cc:Work
         rdf:about="">
        <dc:format>image/svg+xml</dc:format>
        <dc:type
           rdf:resource="http://purl.org/dc/dcmitype/StillImage" />
        <dc:title></dc:title>
      </cc:Work>
    </rdf:RDF>
  </metadata>
  <defs
     id="defs127" />
  <sodipodi:namedview
     pagecolor="#ffffff"
     bordercolor="#666666"
     borderopacity="1"
     objecttolerance="10"
     gridtolerance="10"
     guidetolerance="10"
     inkscape:pageopacity="0"
     inkscape:pageshadow="2"
     inkscape:window-width="1920"
     inkscape:window-height="1027"
     id="namedview125"
     showgrid="false"
     fit-margin-top="0"
     fit-margin-left="0"
     fit-margin-right="0"
     fit-margin-bottom="0"
     inkscape:zoom="1.435"
     inkscape:cx="383.89757"
     inkscape:cy="239.31114"
     inkscape:window-x="-8"
     inkscape:window-y="-8"
     inkscape:window-maximized="1"
     inkscape:current-layer="surface21605" />
  <g
     id="surface21605"
     transform="translate(-19.5,-16.5)">
    <path
       style="fill:none;stroke:#7f7f7f;stroke-width:20;stroke-linecap:butt;stroke-linejoin:miter;stroke-miterlimit:10;stroke-opacity:1"
       d="M 400,7660 H 11520"
       transform="scale(0.05)"
       id="path4"
       inkscape:connector-curvature="0" />
    <path
       style="fill:none;stroke:#000000;stroke-width:20;stroke-linecap:butt;stroke-linejoin:miter;stroke-miterlimit:10;stroke-opacity:1"
       d="m 400,7661.0156 v 0"
       transform="scale(0.05)"
       id="path6"
       inkscape:connector-curvature="0" />
    <path
       style="fill:none;stroke:#000000;stroke-width:20;stroke-linecap:butt;stroke-linejoin:miter;stroke-miterlimit:10;stroke-opacity:1"
       d="m 11518.984,7661.0156 v 0"
       transform="scale(0.05)"
       id="path8"
       inkscape:connector-curvature="0" />
    <path
       style="fill:none;stroke:#7f7f7f;stroke-width:20;stroke-linecap:butt;stroke-linejoin:miter;stroke-miterlimit:10;stroke-opacity:1"
       d="M 400,6440 H 11520"
       transform="scale(0.05)"
       id="path10"
       inkscape:connector-curvature="0" />
    <path
       style="fill:none;stroke:#000000;stroke-width:20;stroke-linecap:butt;stroke-linejoin:miter;stroke-miterlimit:10;stroke-opacity:1"
       d="m 400,6441.0156 v 0"
       transform="scale(0.05)"
       id="path12"
       inkscape:connector-curvature="0" />
    <path
       style="fill:none;stroke:#000000;stroke-width:20;stroke-linecap:butt;stroke-linejoin:miter;stroke-miterlimit:10;stroke-opacity:1"
       d="m 11518.984,6441.0156 v 0"
       transform="scale(0.05)"
       id="path14"
       inkscape:connector-curvature="0" />
    <path
       style="fill:none;stroke:#7f7f7f;stroke-width:20;stroke-linecap:butt;stroke-linejoin:miter;stroke-miterlimit:10;stroke-opacity:1"
       d="M 400,5220 H 11520"
       transform="scale(0.05)"
       id="path16"
       inkscape:connector-curvature="0" />
    <path
       style="fill:none;stroke:#000000;stroke-width:20;stroke-linecap:butt;stroke-linejoin:miter;stroke-miterlimit:10;stroke-opacity:1"
       d="m 400,5221.0156 v 0"
       transform="scale(0.05)"
       id="path18"
       inkscape:connector-curvature="0" />
    <path
       style="fill:none;stroke:#000000;stroke-width:20;stroke-linecap:butt;stroke-linejoin:miter;stroke-miterlimit:10;stroke-opacity:1"
       d="m 11518.984,5221.0156 v 0"
       transform="scale(0.05)"
       id="path20"
       inkscape:connector-curvature="0" />
    <path
       style="fill:none;stroke:#7f7f7f;stroke-width:20;stroke-linecap:butt;stroke-linejoin:miter;stroke-miterlimit:10;stroke-opacity:1"
       d="M 400,4000 H 11520"
       transform="scale(0.05)"
       id="path22"
       inkscape:connector-curvature="0" />
    <path
       style="fill:none;stroke:#000000;stroke-width:20;stroke-linecap:butt;stroke-linejoin:miter;stroke-miterlimit:10;stroke-opacity:1"
       d="m 400,4000 v 0"
       transform="scale(0.05)"
       id="path24"
       inkscape:connector-curvature="0" />
    <path
       style="fill:none;stroke:#000000;stroke-width:20;stroke-linecap:butt;stroke-linejoin:miter;stroke-miterlimit:10;stroke-opacity:1"
       d="m 11518.984,4000 v 0"
       transform="scale(0.05)"
       id="path26"
       inkscape:connector-curvature="0" />
    <path
       style="fill:none;stroke:#7f7f7f;stroke-width:20;stroke-linecap:butt;stroke-linejoin:miter;stroke-miterlimit:10;stroke-opacity:1"
       d="M 400,2780 H 11520"
       transform="scale(0.05)"
       id="path28"
       inkscape:connector-curvature="0" />
    <path
       style="fill:none;stroke:#000000;stroke-width:20;stroke-linecap:butt;stroke-linejoin:miter;stroke-miterlimit:10;stroke-opacity:1"
       d="m 400,2780 v 0"
       transform="scale(0.05)"
       id="path30"
       inkscape:connector-curvature="0" />
    <path
       style="fill:none;stroke:#000000;stroke-width:20;stroke-linecap:butt;stroke-linejoin:miter;stroke-miterlimit:10;stroke-opacity:1"
       d="m 11518.984,2780 v 0"
       transform="scale(0.05)"
       id="path32"
       inkscape:connector-curvature="0" />
    <path
       style="fill:none;stroke:#7f7f7f;stroke-width:20;stroke-linecap:butt;stroke-linejoin:miter;stroke-miterlimit:10;stroke-opacity:1"
       d="M 400,1560 H 11520"
       transform="scale(0.05)"
       id="path34"
       inkscape:connector-curvature="0" />
    <path
       style="fill:none;stroke:#000000;stroke-width:20;stroke-linecap:butt;stroke-linejoin:miter;stroke-miterlimit:10;stroke-opacity:1"
       d="m 400,1560 v 0"
       transform="scale(0.05)"
       id="path36"
       inkscape:connector-curvature="0" />
    <path
       style="fill:none;stroke:#000000;stroke-width:20;stroke-linecap:butt;stroke-linejoin:miter;stroke-miterlimit:10;stroke-opacity:1"
       d="m 11518.984,1560 v 0"
       transform="scale(0.05)"
       id="path38"
       inkscape:connector-curvature="0" />
    <path
       style="fill:none;stroke:#7f7f7f;stroke-width:20;stroke-linecap:butt;stroke-linejoin:miter;stroke-miterlimit:10;stroke-opacity:1"
       d="M 400,340 H 11520"
       transform="scale(0.05)"
       id="path40"
       inkscape:connector-curvature="0" />
    <path
       style="fill:none;stroke:#000000;stroke-width:20;stroke-linecap:butt;stroke-linejoin:miter;stroke-miterlimit:10;stroke-opacity:1"
       d="m 400,340 v 0"
       transform="scale(0.05)"
       id="path42"
       inkscape:connector-curvature="0" />
    <path
       style="fill:none;stroke:#000000;stroke-width:20;stroke-linecap:butt;stroke-linejoin:miter;stroke-miterlimit:10;stroke-opacity:1"
       d="m 11518.984,340 v 0"
       transform="scale(0.05)"
       id="path44"
       inkscape:connector-curvature="0" />
    <path
       style="fill:none;stroke:#7f7f7f;stroke-width:20;stroke-linecap:butt;stroke-linejoin:miter;stroke-miterlimit:10;stroke-opacity:1"
       d="M 400,7660 V 340"
       transform="scale(0.05)"
       id="path46"
       inkscape:connector-curvature="0" />
    <path
       style="fill:none;stroke:#000000;stroke-width:20;stroke-linecap:butt;stroke-linejoin:miter;stroke-miterlimit:10;stroke-opacity:1"
       d="m 400,7661.0156 v 0"
       transform="scale(0.05)"
       id="path48"
       inkscape:connector-curvature="0" />
    <path
       style="fill:none;stroke:#000000;stroke-width:20;stroke-linecap:butt;stroke-linejoin:miter;stroke-miterlimit:10;stroke-opacity:1"
       d="m 400,340 v 0"
       transform="scale(0.05)"
       id="path50"
       inkscape:connector-curvature="0" />
    <path
       style="fill:none;stroke:#7f7f7f;stroke-width:20;stroke-linecap:butt;stroke-linejoin:miter;stroke-miterlimit:10;stroke-opacity:1"
       d="M 1520,7660 V 340"
       transform="scale(0.05)"
       id="path52"
       inkscape:connector-curvature="0" />
    <path
       style="fill:none;stroke:#000000;stroke-width:20;stroke-linecap:butt;stroke-linejoin:miter;stroke-miterlimit:10;stroke-opacity:1"
       d="m 1512.0313,7661.0156 v 0"
       transform="scale(0.05)"
       id="path54"
       inkscape:connector-curvature="0" />
    <path
       style="fill:none;stroke:#000000;stroke-width:20;stroke-linecap:butt;stroke-linejoin:miter;stroke-miterlimit:10;stroke-opacity:1"
       d="m 1512.0313,340 v 0"
       transform="scale(0.05)"
       id="path56"
       inkscape:connector-curvature="0" />
    <path
       style="fill:none;stroke:#7f7f7f;stroke-width:20;stroke-linecap:butt;stroke-linejoin:miter;stroke-miterlimit:10;stroke-opacity:1"
       d="M 2620,7660 V 340"
       transform="scale(0.05)"
       id="path58"
       inkscape:connector-curvature="0" />
    <path
       style="fill:none;stroke:#000000;stroke-width:20;stroke-linecap:butt;stroke-linejoin:miter;stroke-miterlimit:10;stroke-opacity:1"
       d="m 2623.9844,7661.0156 v 0"
       transform="scale(0.05)"
       id="path60"
       inkscape:connector-curvature="0" />
    <path
       style="fill:none;stroke:#000000;stroke-width:20;stroke-linecap:butt;stroke-linejoin:miter;stroke-miterlimit:10;stroke-opacity:1"
       d="m 2623.9844,340 v 0"
       transform="scale(0.05)"
       id="path62"
       inkscape:connector-curvature="0" />
    <path
       style="fill:none;stroke:#7f7f7f;stroke-width:20;stroke-linecap:butt;stroke-linejoin:miter;stroke-miterlimit:10;stroke-opacity:1"
       d="M 3740,7660 V 340"
       transform="scale(0.05)"
       id="path64"
       inkscape:connector-curvature="0" />
    <path
       style="fill:none;stroke:#000000;stroke-width:20;stroke-linecap:butt;stroke-linejoin:miter;stroke-miterlimit:10;stroke-opacity:1"
       d="m 3736.0156,7661.0156 v 0"
       transform="scale(0.05)"
       id="path66"
       inkscape:connector-curvature="0" />
    <path
       style="fill:none;stroke:#000000;stroke-width:20;stroke-linecap:butt;stroke-linejoin:miter;stroke-miterlimit:10;stroke-opacity:1"
       d="m 3736.0156,340 v 0"
       transform="scale(0.05)"
       id="path68"
       inkscape:connector-curvature="0" />
    <path
       style="fill:none;stroke:#7f7f7f;stroke-width:20;stroke-linecap:butt;stroke-linejoin:miter;stroke-miterlimit:10;stroke-opacity:1"
       d="M 4840,7660 V 340"
       transform="scale(0.05)"
       id="path70"
       inkscape:connector-curvature="0" />
    <path
       style="fill:none;stroke:#000000;stroke-width:20;stroke-linecap:butt;stroke-linejoin:miter;stroke-miterlimit:10;stroke-opacity:1"
       d="m 4847.9687,7661.0156 v 0"
       transform="scale(0.05)"
       id="path72"
       inkscape:connector-curvature="0" />
    <path
       style="fill:none;stroke:#000000;stroke-width:20;stroke-linecap:butt;stroke-linejoin:miter;stroke-miterlimit:10;stroke-opacity:1"
       d="m 4847.9687,340 v 0"
       transform="scale(0.05)"
       id="path74"
       inkscape:connector-curvature="0" />
    <path
       style="fill:none;stroke:#7f7f7f;stroke-width:20;stroke-linecap:butt;stroke-linejoin:miter;stroke-miterlimit:10;stroke-opacity:1"
       d="M 5960,7660 V 340"
       transform="scale(0.05)"
       id="path76"
       inkscape:connector-curvature="0" />
    <path
       style="fill:none;stroke:#000000;stroke-width:20;stroke-linecap:butt;stroke-linejoin:miter;stroke-miterlimit:10;stroke-opacity:1"
       d="m 5960,7661.0156 v 0"
       transform="scale(0.05)"
       id="path78"
       inkscape:connector-curvature="0" />
    <path
       style="fill:none;stroke:#000000;stroke-width:20;stroke-linecap:butt;stroke-linejoin:miter;stroke-miterlimit:10;stroke-opacity:1"
       d="m 5960,340 v 0"
       transform="scale(0.05)"
       id="path80"
       inkscape:connector-curvature="0" />
    <path
       style="fill:none;stroke:#7f7f7f;stroke-width:20;stroke-linecap:butt;stroke-linejoin:miter;stroke-miterlimit:10;stroke-opacity:1"
       d="M 7080,7660 V 340"
       transform="scale(0.05)"
       id="path82"
       inkscape:connector-curvature="0" />
    <path
       style="fill:none;stroke:#000000;stroke-width:20;stroke-linecap:butt;stroke-linejoin:miter;stroke-miterlimit:10;stroke-opacity:1"
       d="m 7071.0156,7661.0156 v 0"
       transform="scale(0.05)"
       id="path84"
       inkscape:connector-curvature="0" />
    <path
       style="fill:none;stroke:#000000;stroke-width:20;stroke-linecap:butt;stroke-linejoin:miter;stroke-miterlimit:10;stroke-opacity:1"
       d="m 7071.0156,340 v 0"
       transform="scale(0.05)"
       id="path86"
       inkscape:connector-curvature="0" />
    <path
       style="fill:none;stroke:#7f7f7f;stroke-width:20;stroke-linecap:butt;stroke-linejoin:miter;stroke-miterlimit:10;stroke-opacity:1"
       d="M 8180,7660 V 340"
       transform="scale(0.05)"
       id="path88"
       inkscape:connector-curvature="0" />
    <path
       style="fill:none;stroke:#000000;stroke-width:20;stroke-linecap:butt;stroke-linejoin:miter;stroke-miterlimit:10;stroke-opacity:1"
       d="m 8182.9687,7661.0156 v 0"
       transform="scale(0.05)"
       id="path90"
       inkscape:connector-curvature="0" />
    <path
       style="fill:none;stroke:#000000;stroke-width:20;stroke-linecap:butt;stroke-linejoin:miter;stroke-miterlimit:10;stroke-opacity:1"
       d="m 8182.9687,340 v 0"
       transform="scale(0.05)"
       id="path92"
       inkscape:connector-curvature="0" />
    <path
       style="fill:none;stroke:#7f7f7f;stroke-width:20;stroke-linecap:butt;stroke-linejoin:miter;stroke-miterlimit:10;stroke-opacity:1"
       d="M 9300,7660 V 340"
       transform="scale(0.05)"
       id="path94"
       inkscape:connector-curvature="0" />
    <path
       style="fill:none;stroke:#000000;stroke-width:20;stroke-linecap:butt;stroke-linejoin:miter;stroke-miterlimit:10;stroke-opacity:1"
       d="m 9295,7661.0156 v 0"
       transform="scale(0.05)"
       id="path96"
       inkscape:connector-curvature="0" />
    <path
       style="fill:none;stroke:#000000;stroke-width:20;stroke-linecap:butt;stroke-linejoin:miter;stroke-miterlimit:10;stroke-opacity:1"
       d="m 9295,340 v 0"
       transform="scale(0.05)"
       id="path98"
       inkscape:connector-curvature="0" />
    <path
       style="fill:none;stroke:#7f7f7f;stroke-width:20;stroke-linecap:butt;stroke-linejoin:miter;stroke-miterlimit:10;stroke-opacity:1"
       d="M 10400,7660 V 480"
       transform="scale(0.05)"
       id="path100"
       inkscape:connector-curvature="0" />
    <path
       style="fill:none;stroke:#7f7f7f;stroke-width:20;stroke-linecap:butt;stroke-linejoin:miter;stroke-miterlimit:10;stroke-opacity:1"
       d="M 10400,480 V 340"
       transform="scale(0.05)"
       id="path102"
       inkscape:connector-curvature="0" />
    <path
       style="fill:none;stroke:#000000;stroke-width:20;stroke-linecap:butt;stroke-linejoin:miter;stroke-miterlimit:10;stroke-opacity:1"
       d="m 10407.031,7661.0156 v 0"
       transform="scale(0.05)"
       id="path104"
       inkscape:connector-curvature="0" />
    <path
       style="fill:none;stroke:#000000;stroke-width:20;stroke-linecap:butt;stroke-linejoin:miter;stroke-miterlimit:10;stroke-opacity:1"
       d="m 10407.031,340 v 0"
       transform="scale(0.05)"
       id="path106"
       inkscape:connector-curvature="0" />
    <path
       style="fill:none;stroke:#7f7f7f;stroke-width:20;stroke-linecap:butt;stroke-linejoin:miter;stroke-miterlimit:10;stroke-opacity:1"
       d="M 11520,7660 V 340"
       transform="scale(0.05)"
       id="path108"
       inkscape:connector-curvature="0" />
    <path
       style="fill:none;stroke:#000000;stroke-width:20;stroke-linecap:butt;stroke-linejoin:miter;stroke-miterlimit:10;stroke-opacity:1"
       d="m 11518.984,7661.0156 v 0"
       transform="scale(0.05)"
       id="path110"
       inkscape:connector-curvature="0" />
    <path
       style="fill:none;stroke:#000000;stroke-width:20;stroke-linecap:butt;stroke-linejoin:miter;stroke-miterlimit:10;stroke-opacity:1"
       d="m 11518.984,340 v 0"
       transform="scale(0.05)"
       id="path112"
       inkscape:connector-curvature="0" />
    <path
       style="fill:none;stroke:#000000;stroke-width:20;stroke-linecap:butt;stroke-linejoin:miter;stroke-miterlimit:10;stroke-opacity:1"
       d="M 400,340 V 7660 H 11520 V 340 H 400"
       transform="scale(0.05)"
       id="path114"
       inkscape:connector-curvature="0" />
    <path
       style="fill:none;stroke:#0000ff;stroke-width:20;stroke-linecap:butt;stroke-linejoin:miter;stroke-miterlimit:10;stroke-opacity:1"
       d="M 400,4000 512.03125,3325 625,2732.0313 l 112.03125,-435 111.95312,-225 113.04688,13.9843 111.95315,251.0157 112.0312,455.9375 112.9688,606.0156 112.0312,983.1359 111.9532,671.0156 L 1635,5630.1671 1747.9688,6044.1515 1860,6243.1359 1972.0313,6201.1046 2085,5925.1671 2197.0313,5448.1359 2308.9844,4830.1671 2422.0313,3843.9844 2533.9844,3180 l 112.0312,-562.9687 112.9688,-391.0157 112.0312,-172.0312 111.9532,68.9844 113.0468,301.0156 L 3207.9688,2920 3320,3550 3432.0313,4539.1515 3545,5195.1671 l 112.0313,545.9375 111.9531,369.0625 113.0469,145 111.9531,-97.0312 112.0312,-326.0156 112.9688,-513.9844 112.0312,-641.0156 111.9531,-989.1515 113.0469,-647.9688 111.9531,-528.9844 112.0313,-345 112.9687,-118.0468 112.0313,124.0625 112.0312,350 111.9532,531.9531 113.0468,650 111.9532,990.1671 112.0312,637.9688 112.9688,511.0156 112.0312,320 111.9531,91.0156 113.0469,-151.0156 111.9531,-372.9688 112.0313,-550 112.9687,-658.0468 L 6465,3533.9844 6577.0312,2906.0156 6690,2413.9844 6802.0312,2117.9688 6913.9844,2055 l 112.0312,177.9688 112.9688,396.0156 112.0312,566.0156 111.9531,665 113.0469,986.1046 111.9531,616.0157 L 7700,5934.1515 7812.9687,6205.1671 7925,6241.1046 8037.0312,6037.1203 8150,5618.1359 l 112.0313,-581.0156 111.9531,-975.089 113.0469,-679.0625 111.9531,-602.9688 112.0312,-452.0312 111.9532,-245 L 8936.0156,2075 9047.9688,2305 9160,2745 9272.9688,3340 9385,4017.0313 9497.0313,4995.1671 9610,5584.1515 l 112.0313,431.0156 111.9531,218.9844 113.0469,-18.9844 111.9527,-256.0156 112.032,-461.0156 112.968,-608.9844 112.032,-984.1515 111.953,-668.9844 112.031,-573.9843 112.969,-410 L 10845,2060 l 112.031,47.0313 112.969,280.9375 112.031,481.0156 111.953,621.0156 113.047,987.1203 111.953,662.0312"
       transform="scale(0.05)"
       id="path116"
       inkscape:connector-curvature="0"
       sodipodi:nodetypes="cccccccccccccccccccccccccccccccccccccccccccccccccccccccccccccccccccccccccccccccccccccccccccccccccccc" />
    <path
       style="fill:none;stroke:#ff0000;stroke-width:20;stroke-linecap:butt;stroke-linejoin:miter;stroke-miterlimit:10;stroke-opacity:1"
       d="M 400,4000 512.03125,4168.9844 625,4317.9687 l 112.03125,108.0469 111.95312,56.9531 113.04688,-3.9843 111.95315,-62.9688 112.0312,-113.9844 112.9688,-151.0156 112.0312,-170 111.9532,-168.0468 L 1635,3668.9844 1747.9688,3565 1860,3516.0156 l 112.0313,10 L 2085,3595 l 112.0313,118.9844 111.9531,155 113.0469,171.0156 111.9531,166.0156 112.0312,140 112.9688,97.9688 112.0312,43.0468 L 2982.9688,4470 3096.0156,4395 3207.9688,4271.0156 3320,4112.9687 3432.0313,3942.0313 3545,3777.9688 l 112.0313,-136.9532 111.9531,-92.0312 113.0469,-36.0156 111.9531,24.0625 112.0312,80.9375 112.9688,129.0625 112.0312,160 111.9531,171.9531 113.0469,162.0312 111.9531,131.9531 112.0313,86.0157 112.9687,30 L 5005,4457.9687 5117.0312,4370 5228.9844,4237.0312 5342.0312,4075 l 111.9532,-172.0312 112.0312,-160 112.9688,-126.9532 112.0312,-80 111.9531,-23.0468 113.0469,38.0468 111.9531,92.9688 112.0313,137.0312 112.9687,165 112.0313,171.0156 112.0312,156.9532 112.9688,123.0468 112.0312,73.9844 111.9532,16.0156 112.0312,-45 112.9688,-99.0625 112.0312,-140.9375 111.9531,-166.0156 L 7476.0156,3865 7587.9687,3711.0156 7700,3592.9688 7812.9687,3525 7925,3516.0156 l 112.0312,51.0157 112.9688,105 112.0313,145 111.9531,167.9687 113.0469,170 111.9531,151.0156 112.0312,112.9688 111.9532,61.0156 113.0468,2.0312 111.9532,-58.0468 112.0312,-110 112.9688,-147.9688 112.0312,-170 112.0313,-168.0468 L 9610,3680 l 112.0313,-107.0312 111.9531,-55 113.0469,5 111.9527,64.0625 112.032,115 112.968,151.9531 112.032,170 111.953,168.0468 L 10620,4335 l 112.969,102.9687 112.031,48.0469 112.031,-12.0312 112.969,-70 112.031,-121.0157 111.953,-155 113.047,-170.9374 111.953,-165"
       transform="scale(0.05)"
       id="path118"
       inkscape:connector-curvature="0" />
    <path
       style="fill:none;stroke:#000000;stroke-width:20;stroke-linecap:butt;stroke-linejoin:miter;stroke-miterlimit:10;stroke-opacity:1"
       d="M 400,340 V 7660 H 11520 V 340 H 400"
       transform="scale(0.05)"
       id="path120"
       inkscape:connector-curvature="0" />
  </g>
</svg>
