<?xml version="1.0" encoding="utf-8" standalone="no"?>
<!DOCTYPE svg PUBLIC "-//W3C//DTD SVG 1.1//EN"
  "http://www.w3.org/Graphics/SVG/1.1/DTD/svg11.dtd">
<!-- Created with matplotlib (http://matplotlib.org/) -->
<svg height="345pt" version="1.1" viewBox="0 0 460 345" width="460pt" xmlns="http://www.w3.org/2000/svg" xmlns:xlink="http://www.w3.org/1999/xlink">
 <defs>
  <style type="text/css">
*{stroke-linecap:butt;stroke-linejoin:round;}
  </style>
 </defs>
 <g id="figure_1">
  <g id="patch_1">
   <path d="M 0 345.6 
L 460.8 345.6 
L 460.8 0 
L 0 0 
z
" style="fill:#ffffff;"/>
  </g>
  <g id="axes_1">
   <g id="patch_2">
    <path d="M 56.54 301.93 
L 447.48 301.93 
L 447.48 13.32 
L 56.54 13.32 
z
" style="fill:#ffffff;"/>
   </g>
   <g id="matplotlib.axis_1">
    <g id="xtick_1">
     <g id="line2d_1">
      <path clip-path="url(#pa7ef13dc55)" d="M 56.54 301.93 
L 56.54 13.32 
" style="fill:none;stroke:#b0b0b0;stroke-linecap:square;stroke-width:0.8;"/>
     </g>
     <g id="line2d_2">
      <defs>
       <path d="M 0 0 
L 0 3.5 
" id="mcdb79bdef8" style="stroke:#000000;stroke-width:0.8;"/>
      </defs>
      <g>
       <use style="stroke:#000000;stroke-width:0.8;" x="56.54" xlink:href="#mcdb79bdef8" y="301.93"/>
      </g>
     </g>
     <g id="text_1">
      <!-- 0 -->
      <defs>
       <path d="M 46.796875 31.703125 
C 46.796875 52.296875 37.796875 64.203125 24.90625 64.203125 
C 10.40625 64.203125 2.703125 51 2.703125 32 
C 2.703125 14.296875 8.59375 -1.09375 24.703125 -1.09375 
C 40.40625 -1.09375 46.796875 14.59375 46.796875 31.703125 
z
M 37.09375 31.09375 
C 37.09375 11.90625 32.59375 2.5 24.703125 2.5 
C 16.703125 2.5 12.296875 12.09375 12.296875 31.5 
C 12.296875 51.296875 16.703125 60.796875 24.59375 60.796875 
C 32.796875 60.796875 37.09375 51.40625 37.09375 31.09375 
z
" id="STIXTwoMath-30"/>
      </defs>
      <g transform="translate(54.065 315.989375)scale(0.1 -0.1)">
       <use xlink:href="#STIXTwoMath-30"/>
      </g>
     </g>
    </g>
    <g id="xtick_2">
     <g id="line2d_3">
      <path clip-path="url(#pa7ef13dc55)" d="M 108.25164 301.93 
L 108.25164 13.32 
" style="fill:none;stroke:#b0b0b0;stroke-linecap:square;stroke-width:0.8;"/>
     </g>
     <g id="line2d_4">
      <g>
       <use style="stroke:#000000;stroke-width:0.8;" x="108.25164" xlink:href="#mcdb79bdef8" y="301.93"/>
      </g>
     </g>
     <g id="text_2">
      <!-- 50 -->
      <defs>
       <path d="M 41.703125 54.90625 
L 43.296875 63 
L 15.90625 63 
L 9.703125 36.90625 
L 10.90625 35.40625 
C 12.296875 35.40625 12.796875 35.40625 15.40625 35.203125 
C 29.203125 34.5 37 30.40625 37 17.90625 
C 37 7.5 30.703125 3.703125 23.59375 3.703125 
C 17.203125 3.703125 13.90625 8.59375 9.90625 8.59375 
C 7.40625 8.59375 5.90625 6.59375 5.90625 4.296875 
C 5.90625 0.59375 9.703125 -1.296875 17.40625 -1.296875 
C 33.296875 -1.296875 44.296875 6.5 44.296875 21.90625 
C 44.296875 37.59375 32 42.296875 20.203125 43.203125 
L 15.5 43.5 
L 18.203125 54.90625 
z
" id="STIXTwoMath-35"/>
      </defs>
      <g transform="translate(103.30164 315.989375)scale(0.1 -0.1)">
       <use xlink:href="#STIXTwoMath-35"/>
       <use x="49.499985" xlink:href="#STIXTwoMath-30"/>
      </g>
     </g>
    </g>
    <g id="xtick_3">
     <g id="line2d_5">
      <path clip-path="url(#pa7ef13dc55)" d="M 159.96328 301.93 
L 159.96328 13.32 
" style="fill:none;stroke:#b0b0b0;stroke-linecap:square;stroke-width:0.8;"/>
     </g>
     <g id="line2d_6">
      <g>
       <use style="stroke:#000000;stroke-width:0.8;" x="159.96328" xlink:href="#mcdb79bdef8" y="301.93"/>
      </g>
     </g>
     <g id="text_3">
      <!-- 100 -->
      <defs>
       <path d="M 42.59375 0 
L 42.59375 2.796875 
C 33.40625 2.796875 29.703125 4.59375 29.703125 9.5 
L 29.703125 63.90625 
L 26.796875 63.90625 
L 7.40625 58.40625 
L 7.40625 55.09375 
C 10.5 56.09375 15.59375 56.703125 17.59375 56.703125 
C 20.09375 56.703125 20.90625 55.296875 20.90625 51.796875 
L 20.90625 9.5 
C 20.90625 4.5 17.40625 2.796875 8 2.796875 
L 8 0 
z
" id="STIXTwoMath-31"/>
      </defs>
      <g transform="translate(152.53828 315.989375)scale(0.1 -0.1)">
       <use xlink:href="#STIXTwoMath-31"/>
       <use x="49.499985" xlink:href="#STIXTwoMath-30"/>
       <use x="98.999969" xlink:href="#STIXTwoMath-30"/>
      </g>
     </g>
    </g>
    <g id="xtick_4">
     <g id="line2d_7">
      <path clip-path="url(#pa7ef13dc55)" d="M 211.674921 301.93 
L 211.674921 13.32 
" style="fill:none;stroke:#b0b0b0;stroke-linecap:square;stroke-width:0.8;"/>
     </g>
     <g id="line2d_8">
      <g>
       <use style="stroke:#000000;stroke-width:0.8;" x="211.674921" xlink:href="#mcdb79bdef8" y="301.93"/>
      </g>
     </g>
     <g id="text_4">
      <!-- 150 -->
      <g transform="translate(204.249921 315.989375)scale(0.1 -0.1)">
       <use xlink:href="#STIXTwoMath-31"/>
       <use x="49.499985" xlink:href="#STIXTwoMath-35"/>
       <use x="98.999969" xlink:href="#STIXTwoMath-30"/>
      </g>
     </g>
    </g>
    <g id="xtick_5">
     <g id="line2d_9">
      <path clip-path="url(#pa7ef13dc55)" d="M 263.386561 301.93 
L 263.386561 13.32 
" style="fill:none;stroke:#b0b0b0;stroke-linecap:square;stroke-width:0.8;"/>
     </g>
     <g id="line2d_10">
      <g>
       <use style="stroke:#000000;stroke-width:0.8;" x="263.386561" xlink:href="#mcdb79bdef8" y="301.93"/>
      </g>
     </g>
     <g id="text_5">
      <!-- 200 -->
      <defs>
       <path d="M 46.40625 16 
L 43.5 16 
C 41.203125 10 39.90625 7.90625 34.59375 7.90625 
L 20.703125 7.90625 
L 13.703125 7.59375 
L 13.703125 8.09375 
L 26.90625 20.59375 
C 37.5 31.296875 43.203125 38.203125 43.203125 47.09375 
C 43.203125 57.59375 35.296875 64.40625 24 64.40625 
C 14.296875 64.40625 7.5 58.796875 4.40625 49.09375 
L 6.796875 48.09375 
C 10.5 55.59375 14.90625 57.90625 21.40625 57.90625 
C 29.09375 57.90625 33.90625 53.09375 33.90625 45.59375 
C 33.90625 35.09375 28.90625 28.796875 19 18.59375 
L 3.796875 3.40625 
L 3.796875 0 
L 43.203125 0 
z
" id="STIXTwoMath-32"/>
      </defs>
      <g transform="translate(255.961561 315.989375)scale(0.1 -0.1)">
       <use xlink:href="#STIXTwoMath-32"/>
       <use x="49.499985" xlink:href="#STIXTwoMath-30"/>
       <use x="98.999969" xlink:href="#STIXTwoMath-30"/>
      </g>
     </g>
    </g>
    <g id="xtick_6">
     <g id="line2d_11">
      <path clip-path="url(#pa7ef13dc55)" d="M 315.098201 301.93 
L 315.098201 13.32 
" style="fill:none;stroke:#b0b0b0;stroke-linecap:square;stroke-width:0.8;"/>
     </g>
     <g id="line2d_12">
      <g>
       <use style="stroke:#000000;stroke-width:0.8;" x="315.098201" xlink:href="#mcdb79bdef8" y="301.93"/>
      </g>
     </g>
     <g id="text_6">
      <!-- 250 -->
      <g transform="translate(307.673201 315.989375)scale(0.1 -0.1)">
       <use xlink:href="#STIXTwoMath-32"/>
       <use x="49.499985" xlink:href="#STIXTwoMath-35"/>
       <use x="98.999969" xlink:href="#STIXTwoMath-30"/>
      </g>
     </g>
    </g>
    <g id="xtick_7">
     <g id="line2d_13">
      <path clip-path="url(#pa7ef13dc55)" d="M 366.809841 301.93 
L 366.809841 13.32 
" style="fill:none;stroke:#b0b0b0;stroke-linecap:square;stroke-width:0.8;"/>
     </g>
     <g id="line2d_14">
      <g>
       <use style="stroke:#000000;stroke-width:0.8;" x="366.809841" xlink:href="#mcdb79bdef8" y="301.93"/>
      </g>
     </g>
     <g id="text_7">
      <!-- 300 -->
      <defs>
       <path d="M 8.59375 49.796875 
C 12 55.09375 15.703125 57.90625 21.703125 57.90625 
C 27.90625 57.90625 31.90625 54.5 31.90625 48.59375 
C 31.90625 40.5 24.796875 35 18 35 
L 16.09375 35 
L 16.09375 31.203125 
L 18.09375 31.203125 
C 27.703125 31.203125 36.203125 25.296875 36.203125 16.40625 
C 36.203125 6.59375 30.09375 3.703125 23.796875 3.703125 
C 21.40625 3.703125 20 4.09375 15.703125 6.296875 
C 12.203125 8.09375 11.40625 8.59375 9.796875 8.59375 
C 7.203125 8.59375 5.90625 6.296875 5.90625 4.203125 
C 5.90625 1.59375 8.09375 -1.296875 17.09375 -1.296875 
C 31.703125 -1.296875 44.40625 5.703125 44.40625 19.40625 
C 44.40625 28.296875 37.703125 33.59375 29.703125 36.09375 
L 29.703125 36.40625 
C 36 40.40625 40.5 44.09375 40.5 51 
C 40.5 58.59375 34.59375 64.40625 24.40625 64.40625 
C 16.203125 64.40625 10 59.796875 6.296875 51.09375 
z
" id="STIXTwoMath-33"/>
      </defs>
      <g transform="translate(359.384841 315.989375)scale(0.1 -0.1)">
       <use xlink:href="#STIXTwoMath-33"/>
       <use x="49.499985" xlink:href="#STIXTwoMath-30"/>
       <use x="98.999969" xlink:href="#STIXTwoMath-30"/>
      </g>
     </g>
    </g>
    <g id="xtick_8">
     <g id="line2d_15">
      <path clip-path="url(#pa7ef13dc55)" d="M 418.521481 301.93 
L 418.521481 13.32 
" style="fill:none;stroke:#b0b0b0;stroke-linecap:square;stroke-width:0.8;"/>
     </g>
     <g id="line2d_16">
      <g>
       <use style="stroke:#000000;stroke-width:0.8;" x="418.521481" xlink:href="#mcdb79bdef8" y="301.93"/>
      </g>
     </g>
     <g id="text_8">
      <!-- 350 -->
      <g transform="translate(411.096481 315.989375)scale(0.1 -0.1)">
       <use xlink:href="#STIXTwoMath-33"/>
       <use x="49.499985" xlink:href="#STIXTwoMath-35"/>
       <use x="98.999969" xlink:href="#STIXTwoMath-30"/>
      </g>
     </g>
    </g>
    <g id="text_9">
     <!-- $R_Н$ (Ом) -->
     <defs>
      <path d="M 13.203125 65.296875 
L 38.40625 65.296875 
Q 48.09375 65.296875 53.4375 61.5 
Q 58.796875 57.703125 58.796875 51.203125 
Q 58.796875 43.40625 52.203125 38.40625 
Q 48.296875 35.40625 39.09375 33.296875 
L 48 9.796875 
Q 49.703125 5.203125 51.546875 3.390625 
Q 53.40625 1.59375 56.703125 1.59375 
L 56.703125 0 
L 42 0 
L 29.703125 32.40625 
L 23.09375 32.90625 
L 17.59375 12.59375 
Q 16.296875 8 16.296875 6.296875 
Q 16.296875 4 17.59375 3 
Q 18.90625 2 23 1.59375 
L 23 0 
L -1.296875 0 
L -1.296875 1.59375 
Q 2.703125 2.09375 4.34375 3.796875 
Q 6 5.5 7.203125 10.09375 
L 19.09375 53.203125 
Q 20.296875 57.796875 20.296875 59.5 
Q 20.296875 61.296875 18.90625 62.296875 
Q 17.703125 63.09375 13.203125 63.703125 
z
M 30.59375 59.296875 
L 24.296875 36.59375 
Q 27.40625 36.09375 29.40625 36.09375 
Q 38.296875 36.09375 43.296875 40.09375 
Q 48.296875 44.09375 48.296875 51.09375 
Q 48.296875 56.296875 45.1875 59.296875 
Q 42.09375 62.296875 36.296875 62.296875 
Q 31.40625 62.296875 30.59375 59.296875 
z
" id="STIXGeneral-Italic-52"/>
      <path d="M 74.90625 65.296875 
L 74.90625 63.703125 
Q 70.5 62.90625 69.046875 61.703125 
Q 67.59375 60.5 66.5 56.296875 
L 53.703125 8.203125 
Q 53.40625 7 53.40625 5.796875 
Q 53.40625 3.703125 54.90625 2.890625 
Q 56.40625 2.09375 61.296875 1.59375 
L 61.296875 0 
L 34.09375 0 
L 34.09375 1.59375 
Q 39.203125 2 41.25 3.703125 
Q 43.296875 5.40625 44.296875 9.296875 
L 50.59375 32.59375 
L 21.90625 32.59375 
L 15.296875 8.203125 
Q 15 7.203125 15 6 
Q 15 3.796875 16.25 3 
Q 17.5 2.203125 22 1.59375 
L 22 0 
L -2.59375 0 
L -2.40625 1.59375 
Q 1.796875 2 3.34375 3.640625 
Q 4.90625 5.296875 6.203125 10.203125 
L 17.703125 53.203125 
Q 18.90625 57.796875 18.90625 59.59375 
Q 18.90625 61.796875 17.5 62.5 
Q 16.09375 63.203125 11.296875 63.703125 
L 11.296875 65.296875 
L 38.40625 65.296875 
L 38.40625 63.703125 
Q 33.90625 63.40625 31.546875 61.796875 
Q 29.203125 60.203125 28.203125 56.59375 
L 23 36.796875 
L 51.59375 36.796875 
L 56.09375 53.203125 
Q 57.5 58.40625 57.5 59.5 
Q 57.5 61.40625 55.890625 62.40625 
Q 54.296875 63.40625 50.296875 63.703125 
L 50.296875 65.296875 
z
" id="STIXGeneral-Italic-41d"/>
      <path id="STIXTwoMath-20"/>
      <path d="M 4.296875 27.40625 
C 4.296875 5.40625 14.796875 -10.296875 30.90625 -18.59375 
L 32.5 -15.796875 
C 17.90625 -6.203125 12.5 7.296875 12.5 27.40625 
C 12.5 47.296875 17.90625 60.703125 32.5 70.40625 
L 30.90625 73 
C 14.796875 64.796875 4.296875 49.203125 4.296875 27.40625 
z
" id="STIXTwoMath-28"/>
      <path d="M 68.703125 33.796875 
C 68.703125 53.59375 56.796875 66.90625 36.90625 66.90625 
C 17.09375 66.90625 5 53.203125 5 32.90625 
C 5 11.703125 17 -1.203125 36.90625 -1.203125 
C 56.59375 -1.203125 68.703125 12.90625 68.703125 33.796875 
z
M 58.203125 33.5 
C 58.203125 13.40625 51.203125 3 37 3 
C 22.59375 3 15.5 14.703125 15.5 33.5 
C 15.5 51.796875 23.703125 62.703125 36.59375 62.703125 
C 49.59375 62.703125 58.203125 51.5 58.203125 33.5 
z
" id="STIXTwoMath-41e"/>
      <path d="M 66.59375 0 
L 66.59375 2.796875 
C 60.5 2.796875 59.5 4.09375 59.5 9 
L 59.5 37.90625 
C 59.5 43.5 61 44.40625 66.59375 44.40625 
L 66.59375 47.296875 
L 50.09375 47.296875 
L 34.90625 13 
L 34.59375 13 
L 19.296875 47.296875 
L 2 47.296875 
L 2 44.40625 
C 8.203125 44.40625 9.203125 43.5 9.203125 38 
L 9.203125 10.796875 
C 9.203125 3.5 8.203125 2.796875 1.796875 2.796875 
L 1.796875 0 
L 20.796875 0 
L 20.796875 2.796875 
C 15 2.796875 13.703125 3.5 13.703125 10.796875 
L 13.703125 38.203125 
L 14.09375 38.203125 
L 31.703125 0 
L 33.703125 0 
L 50.796875 38.90625 
L 51.09375 38.90625 
L 51.09375 9 
C 51.09375 4 50.796875 2.796875 44.5 2.796875 
L 44.5 0 
z
" id="STIXTwoMath-43c"/>
      <path d="M 31.296875 27.40625 
C 31.296875 49.203125 20.796875 64.796875 4.703125 73 
L 3.09375 70.40625 
C 17.703125 60.703125 23.09375 47.296875 23.09375 27.40625 
C 23.09375 7.296875 17.703125 -6.203125 3.09375 -15.796875 
L 4.703125 -18.59375 
C 20.796875 -10.296875 31.296875 5.40625 31.296875 27.40625 
z
" id="STIXTwoMath-29"/>
     </defs>
     <g transform="translate(234.31 329.24875)scale(0.1 -0.1)">
      <use xlink:href="#STIXGeneral-Italic-52"/>
      <use transform="translate(61.099991 -13.228125)scale(0.7)" xlink:href="#STIXGeneral-Italic-41d"/>
      <use transform="translate(115.069357 0)" xlink:href="#STIXTwoMath-20"/>
      <use transform="translate(138.569342 0)" xlink:href="#STIXTwoMath-28"/>
      <use transform="translate(174.169333 0)" xlink:href="#STIXTwoMath-41e"/>
      <use transform="translate(247.869315 0)" xlink:href="#STIXTwoMath-43c"/>
      <use transform="translate(317.569296 0)" xlink:href="#STIXTwoMath-29"/>
     </g>
    </g>
   </g>
   <g id="matplotlib.axis_2">
    <g id="ytick_1">
     <g id="line2d_17">
      <path clip-path="url(#pa7ef13dc55)" d="M 56.54 301.93 
L 447.48 301.93 
" style="fill:none;stroke:#b0b0b0;stroke-linecap:square;stroke-width:0.8;"/>
     </g>
     <g id="line2d_18">
      <defs>
       <path d="M 0 0 
L -3.5 0 
" id="m7bce4c7dce" style="stroke:#000000;stroke-width:0.8;"/>
      </defs>
      <g>
       <use style="stroke:#000000;stroke-width:0.8;" x="56.54" xlink:href="#m7bce4c7dce" y="301.93"/>
      </g>
     </g>
     <g id="text_10">
      <!-- 0.000 -->
      <defs>
       <path d="M 18.203125 4.90625 
C 18.203125 8.203125 16.09375 11.09375 12.296875 11.09375 
C 8.59375 11.09375 6.40625 8.296875 6.40625 5 
C 6.40625 1.59375 8.296875 -0.796875 12.203125 -0.796875 
C 16.09375 -0.796875 18.203125 1.796875 18.203125 4.90625 
z
" id="STIXTwoMath-2e"/>
      </defs>
      <g transform="translate(27.280625 305.459687)scale(0.1 -0.1)">
       <use xlink:href="#STIXTwoMath-30"/>
       <use x="49.499985" xlink:href="#STIXTwoMath-2e"/>
       <use x="74.099976" xlink:href="#STIXTwoMath-30"/>
       <use x="123.59996" xlink:href="#STIXTwoMath-30"/>
       <use x="173.099945" xlink:href="#STIXTwoMath-30"/>
      </g>
     </g>
    </g>
    <g id="ytick_2">
     <g id="line2d_19">
      <path clip-path="url(#pa7ef13dc55)" d="M 56.54 266.94697 
L 447.48 266.94697 
" style="fill:none;stroke:#b0b0b0;stroke-linecap:square;stroke-width:0.8;"/>
     </g>
     <g id="line2d_20">
      <g>
       <use style="stroke:#000000;stroke-width:0.8;" x="56.54" xlink:href="#m7bce4c7dce" y="266.94697"/>
      </g>
     </g>
     <g id="text_11">
      <!-- 0.005 -->
      <g transform="translate(27.280625 270.476657)scale(0.1 -0.1)">
       <use xlink:href="#STIXTwoMath-30"/>
       <use x="49.499985" xlink:href="#STIXTwoMath-2e"/>
       <use x="74.099976" xlink:href="#STIXTwoMath-30"/>
       <use x="123.59996" xlink:href="#STIXTwoMath-30"/>
       <use x="173.099945" xlink:href="#STIXTwoMath-35"/>
      </g>
     </g>
    </g>
    <g id="ytick_3">
     <g id="line2d_21">
      <path clip-path="url(#pa7ef13dc55)" d="M 56.54 231.963939 
L 447.48 231.963939 
" style="fill:none;stroke:#b0b0b0;stroke-linecap:square;stroke-width:0.8;"/>
     </g>
     <g id="line2d_22">
      <g>
       <use style="stroke:#000000;stroke-width:0.8;" x="56.54" xlink:href="#m7bce4c7dce" y="231.963939"/>
      </g>
     </g>
     <g id="text_12">
      <!-- 0.010 -->
      <g transform="translate(27.280625 235.493627)scale(0.1 -0.1)">
       <use xlink:href="#STIXTwoMath-30"/>
       <use x="49.499985" xlink:href="#STIXTwoMath-2e"/>
       <use x="74.099976" xlink:href="#STIXTwoMath-30"/>
       <use x="123.59996" xlink:href="#STIXTwoMath-31"/>
       <use x="173.099945" xlink:href="#STIXTwoMath-30"/>
      </g>
     </g>
    </g>
    <g id="ytick_4">
     <g id="line2d_23">
      <path clip-path="url(#pa7ef13dc55)" d="M 56.54 196.980909 
L 447.48 196.980909 
" style="fill:none;stroke:#b0b0b0;stroke-linecap:square;stroke-width:0.8;"/>
     </g>
     <g id="line2d_24">
      <g>
       <use style="stroke:#000000;stroke-width:0.8;" x="56.54" xlink:href="#m7bce4c7dce" y="196.980909"/>
      </g>
     </g>
     <g id="text_13">
      <!-- 0.015 -->
      <g transform="translate(27.280625 200.510597)scale(0.1 -0.1)">
       <use xlink:href="#STIXTwoMath-30"/>
       <use x="49.499985" xlink:href="#STIXTwoMath-2e"/>
       <use x="74.099976" xlink:href="#STIXTwoMath-30"/>
       <use x="123.59996" xlink:href="#STIXTwoMath-31"/>
       <use x="173.099945" xlink:href="#STIXTwoMath-35"/>
      </g>
     </g>
    </g>
    <g id="ytick_5">
     <g id="line2d_25">
      <path clip-path="url(#pa7ef13dc55)" d="M 56.54 161.997879 
L 447.48 161.997879 
" style="fill:none;stroke:#b0b0b0;stroke-linecap:square;stroke-width:0.8;"/>
     </g>
     <g id="line2d_26">
      <g>
       <use style="stroke:#000000;stroke-width:0.8;" x="56.54" xlink:href="#m7bce4c7dce" y="161.997879"/>
      </g>
     </g>
     <g id="text_14">
      <!-- 0.020 -->
      <g transform="translate(27.280625 165.527566)scale(0.1 -0.1)">
       <use xlink:href="#STIXTwoMath-30"/>
       <use x="49.499985" xlink:href="#STIXTwoMath-2e"/>
       <use x="74.099976" xlink:href="#STIXTwoMath-30"/>
       <use x="123.59996" xlink:href="#STIXTwoMath-32"/>
       <use x="173.099945" xlink:href="#STIXTwoMath-30"/>
      </g>
     </g>
    </g>
    <g id="ytick_6">
     <g id="line2d_27">
      <path clip-path="url(#pa7ef13dc55)" d="M 56.54 127.014848 
L 447.48 127.014848 
" style="fill:none;stroke:#b0b0b0;stroke-linecap:square;stroke-width:0.8;"/>
     </g>
     <g id="line2d_28">
      <g>
       <use style="stroke:#000000;stroke-width:0.8;" x="56.54" xlink:href="#m7bce4c7dce" y="127.014848"/>
      </g>
     </g>
     <g id="text_15">
      <!-- 0.025 -->
      <g transform="translate(27.280625 130.544536)scale(0.1 -0.1)">
       <use xlink:href="#STIXTwoMath-30"/>
       <use x="49.499985" xlink:href="#STIXTwoMath-2e"/>
       <use x="74.099976" xlink:href="#STIXTwoMath-30"/>
       <use x="123.59996" xlink:href="#STIXTwoMath-32"/>
       <use x="173.099945" xlink:href="#STIXTwoMath-35"/>
      </g>
     </g>
    </g>
    <g id="ytick_7">
     <g id="line2d_29">
      <path clip-path="url(#pa7ef13dc55)" d="M 56.54 92.031818 
L 447.48 92.031818 
" style="fill:none;stroke:#b0b0b0;stroke-linecap:square;stroke-width:0.8;"/>
     </g>
     <g id="line2d_30">
      <g>
       <use style="stroke:#000000;stroke-width:0.8;" x="56.54" xlink:href="#m7bce4c7dce" y="92.031818"/>
      </g>
     </g>
     <g id="text_16">
      <!-- 0.030 -->
      <g transform="translate(27.280625 95.561506)scale(0.1 -0.1)">
       <use xlink:href="#STIXTwoMath-30"/>
       <use x="49.499985" xlink:href="#STIXTwoMath-2e"/>
       <use x="74.099976" xlink:href="#STIXTwoMath-30"/>
       <use x="123.59996" xlink:href="#STIXTwoMath-33"/>
       <use x="173.099945" xlink:href="#STIXTwoMath-30"/>
      </g>
     </g>
    </g>
    <g id="ytick_8">
     <g id="line2d_31">
      <path clip-path="url(#pa7ef13dc55)" d="M 56.54 57.048788 
L 447.48 57.048788 
" style="fill:none;stroke:#b0b0b0;stroke-linecap:square;stroke-width:0.8;"/>
     </g>
     <g id="line2d_32">
      <g>
       <use style="stroke:#000000;stroke-width:0.8;" x="56.54" xlink:href="#m7bce4c7dce" y="57.048788"/>
      </g>
     </g>
     <g id="text_17">
      <!-- 0.035 -->
      <g transform="translate(27.280625 60.578475)scale(0.1 -0.1)">
       <use xlink:href="#STIXTwoMath-30"/>
       <use x="49.499985" xlink:href="#STIXTwoMath-2e"/>
       <use x="74.099976" xlink:href="#STIXTwoMath-30"/>
       <use x="123.59996" xlink:href="#STIXTwoMath-33"/>
       <use x="173.099945" xlink:href="#STIXTwoMath-35"/>
      </g>
     </g>
    </g>
    <g id="ytick_9">
     <g id="line2d_33">
      <path clip-path="url(#pa7ef13dc55)" d="M 56.54 22.065758 
L 447.48 22.065758 
" style="fill:none;stroke:#b0b0b0;stroke-linecap:square;stroke-width:0.8;"/>
     </g>
     <g id="line2d_34">
      <g>
       <use style="stroke:#000000;stroke-width:0.8;" x="56.54" xlink:href="#m7bce4c7dce" y="22.065758"/>
      </g>
     </g>
     <g id="text_18">
      <!-- 0.040 -->
      <defs>
       <path d="M 48.09375 15.796875 
L 48.09375 22.703125 
L 37.90625 22.703125 
L 37.90625 64.5 
L 31.796875 64.5 
L 1.296875 22.09375 
L 1.296875 15.796875 
L 29 15.796875 
L 29 0 
L 37.90625 0 
L 37.90625 15.796875 
z
M 29 22.703125 
L 6.796875 22.703125 
L 6.796875 23.09375 
L 28.59375 53.59375 
L 29 53.59375 
z
" id="STIXTwoMath-34"/>
      </defs>
      <g transform="translate(27.280625 25.595445)scale(0.1 -0.1)">
       <use xlink:href="#STIXTwoMath-30"/>
       <use x="49.499985" xlink:href="#STIXTwoMath-2e"/>
       <use x="74.099976" xlink:href="#STIXTwoMath-30"/>
       <use x="123.59996" xlink:href="#STIXTwoMath-34"/>
       <use x="173.099945" xlink:href="#STIXTwoMath-30"/>
      </g>
     </g>
    </g>
    <g id="text_19">
     <!-- $I$ (А) -->
     <defs>
      <path d="M 38.40625 65.296875 
L 38.40625 63.703125 
Q 34.203125 63.203125 32.84375 61.890625 
Q 31.5 60.59375 30.203125 56 
L 18.203125 13.09375 
Q 16.703125 7.796875 16.703125 5.5 
Q 16.703125 3.5 17.953125 2.796875 
Q 19.203125 2.09375 23.59375 1.59375 
L 23.59375 0 
L -0.796875 0 
L -0.796875 1.59375 
Q 3.40625 2.40625 4.953125 3.703125 
Q 6.5 5 7.59375 9.09375 
L 19.59375 53.203125 
Q 20.90625 57.796875 20.90625 59.40625 
Q 20.90625 61.40625 19.296875 62.453125 
Q 17.703125 63.5 13.703125 63.703125 
L 13.703125 65.296875 
z
" id="STIXGeneral-Italic-49"/>
      <path d="M 71.40625 0 
L 71.40625 3 
C 66 3 64 5.296875 61.09375 11.90625 
L 37.40625 66.203125 
L 33.296875 66.203125 
L 12.09375 16 
C 7.296875 4.59375 5.90625 3 0.296875 3 
L 0.296875 0 
L 21.296875 0 
L 21.296875 3 
C 16.59375 3 14.59375 3.59375 14.59375 6.40625 
C 14.59375 8.203125 15.09375 9.703125 15.703125 11.296875 
L 20.203125 21.90625 
L 45.796875 21.90625 
L 49.703125 12.90625 
C 51 9.90625 51.40625 8.09375 51.40625 6.703125 
C 51.40625 3.203125 47.5 3 44.5 3 
L 44.5 0 
z
M 44.296875 25.90625 
L 21.703125 25.90625 
L 33 53.90625 
L 33.296875 53.90625 
z
" id="STIXTwoMath-410"/>
     </defs>
     <g transform="translate(21.080625 167.625)rotate(-90)scale(0.1 -0.1)">
      <use xlink:href="#STIXGeneral-Italic-49"/>
      <use transform="translate(33.299988 0)" xlink:href="#STIXTwoMath-20"/>
      <use transform="translate(56.799973 0)" xlink:href="#STIXTwoMath-28"/>
      <use transform="translate(92.399963 0)" xlink:href="#STIXTwoMath-410"/>
      <use transform="translate(164.199951 0)" xlink:href="#STIXTwoMath-29"/>
     </g>
    </g>
   </g>
   <g id="line2d_35">
    <path clip-path="url(#pa7ef13dc55)" d="M 56.54 22.065758 
L 97.909312 64.045394 
L 139.278624 92.031818 
L 180.647937 113.021636 
L 222.017249 134.011455 
L 263.386561 155.001273 
L 304.755873 168.994485 
L 346.125185 182.987697 
L 387.494497 189.984303 
L 428.86381 196.980909 
" style="fill:none;stroke:#1f77b4;stroke-linecap:square;stroke-width:1.5;"/>
   </g>
   <g id="patch_3">
    <path d="M 56.54 301.93 
L 56.54 13.32 
" style="fill:none;stroke:#000000;stroke-linecap:square;stroke-linejoin:miter;stroke-width:0.8;"/>
   </g>
   <g id="patch_4">
    <path d="M 447.48 301.93 
L 447.48 13.32 
" style="fill:none;stroke:#000000;stroke-linecap:square;stroke-linejoin:miter;stroke-width:0.8;"/>
   </g>
   <g id="patch_5">
    <path d="M 56.54 301.93 
L 447.48 301.93 
" style="fill:none;stroke:#000000;stroke-linecap:square;stroke-linejoin:miter;stroke-width:0.8;"/>
   </g>
   <g id="patch_6">
    <path d="M 56.54 13.32 
L 447.48 13.32 
" style="fill:none;stroke:#000000;stroke-linecap:square;stroke-linejoin:miter;stroke-width:0.8;"/>
   </g>
  </g>
 </g>
 <defs>
  <clipPath id="pa7ef13dc55">
   <rect height="288.61" width="390.94" x="56.54" y="13.32"/>
  </clipPath>
 </defs>
</svg>
