<?xml version="1.0" encoding="utf-8" standalone="no"?>
<!DOCTYPE svg PUBLIC "-//W3C//DTD SVG 1.1//EN"
  "http://www.w3.org/Graphics/SVG/1.1/DTD/svg11.dtd">
<!-- Created with matplotlib (http://matplotlib.org/) -->
<svg height="345pt" version="1.1" viewBox="0 0 460 345" width="460pt" xmlns="http://www.w3.org/2000/svg" xmlns:xlink="http://www.w3.org/1999/xlink">
 <defs>
  <style type="text/css">
*{stroke-linecap:butt;stroke-linejoin:round;}
  </style>
 </defs>
 <g id="figure_1">
  <g id="patch_1">
   <path d="M 0 345.6 
L 460.8 345.6 
L 460.8 0 
L 0 0 
z
" style="fill:#ffffff;"/>
  </g>
  <g id="axes_1">
   <g id="patch_2">
    <path d="M 29.415 70.34 
L 447.48 70.34 
L 447.48 13.32 
L 29.415 13.32 
z
" style="fill:#ffffff;"/>
   </g>
   <g id="matplotlib.axis_1">
    <g id="text_1">
     <!-- t -->
     <defs>
      <path d="M 29.296875 9 
C 26.796875 6.203125 25.5 4.90625 22.296875 4.90625 
C 18.40625 4.90625 17.5 7.296875 17.5 14.40625 
L 17.5 43.09375 
L 28.796875 43.09375 
L 28.796875 47.296875 
L 17.5 47.296875 
L 17.59375 61 
L 15 61 
C 11.40625 52.5 8.40625 48.296875 3.703125 45.40625 
L 3.703125 43.09375 
L 9.203125 43.09375 
L 9.203125 11.59375 
C 9.203125 2.59375 12.09375 -1 18.796875 -1 
C 25.203125 -1 27.296875 2 31.203125 7.40625 
z
" id="STIXTwoMath-74"/>
     </defs>
     <g transform="translate(236.8725 81.399375)scale(0.1 -0.1)">
      <use xlink:href="#STIXTwoMath-74"/>
     </g>
    </g>
   </g>
   <g id="matplotlib.axis_2">
    <g id="text_2">
     <!-- $R$ -->
     <defs>
      <path d="M 13.203125 65.296875 
L 38.40625 65.296875 
Q 48.09375 65.296875 53.4375 61.5 
Q 58.796875 57.703125 58.796875 51.203125 
Q 58.796875 43.40625 52.203125 38.40625 
Q 48.296875 35.40625 39.09375 33.296875 
L 48 9.796875 
Q 49.703125 5.203125 51.546875 3.390625 
Q 53.40625 1.59375 56.703125 1.59375 
L 56.703125 0 
L 42 0 
L 29.703125 32.40625 
L 23.09375 32.90625 
L 17.59375 12.59375 
Q 16.296875 8 16.296875 6.296875 
Q 16.296875 4 17.59375 3 
Q 18.90625 2 23 1.59375 
L 23 0 
L -1.296875 0 
L -1.296875 1.59375 
Q 2.703125 2.09375 4.34375 3.796875 
Q 6 5.5 7.203125 10.09375 
L 19.09375 53.203125 
Q 20.296875 57.796875 20.296875 59.5 
Q 20.296875 61.296875 18.90625 62.296875 
Q 17.703125 63.09375 13.203125 63.703125 
z
M 30.59375 59.296875 
L 24.296875 36.59375 
Q 27.40625 36.09375 29.40625 36.09375 
Q 38.296875 36.09375 43.296875 40.09375 
Q 48.296875 44.09375 48.296875 51.09375 
Q 48.296875 56.296875 45.1875 59.296875 
Q 42.09375 62.296875 36.296875 62.296875 
Q 31.40625 62.296875 30.59375 59.296875 
z
" id="STIXGeneral-Italic-52"/>
     </defs>
     <g transform="translate(23.215 44.93)rotate(-90)scale(0.1 -0.1)">
      <use transform="translate(0 0.703125)" xlink:href="#STIXGeneral-Italic-52"/>
     </g>
    </g>
   </g>
   <g id="line2d_1">
    <path clip-path="url(#p0961f4360d)" d="M 29.415 70.34 
L 30.269414 70.34 
L 30.269414 70.34 
L 30.269414 70.34 
L 31.123829 70.34 
L 31.123829 70.34 
L 31.123829 70.34 
L 31.978243 70.34 
L 31.978243 70.34 
L 31.978243 70.34 
L 32.832658 70.34 
L 32.832658 70.34 
L 32.832658 70.34 
L 33.687072 70.34 
L 33.687072 70.34 
L 33.687072 70.34 
L 34.541487 70.34 
L 34.541487 70.34 
L 34.541487 70.34 
L 35.395901 70.34 
L 35.395901 70.34 
L 35.395901 70.34 
L 36.250316 70.34 
L 36.250316 70.34 
L 36.250316 70.34 
L 37.10473 70.34 
L 37.10473 70.34 
L 37.10473 70.34 
L 37.959145 70.34 
L 37.959145 70.34 
L 37.959145 70.34 
L 38.813559 70.34 
L 38.813559 70.34 
L 38.813559 70.34 
L 39.667974 70.34 
L 39.667974 70.34 
L 39.667974 70.34 
L 40.522388 70.34 
L 40.522388 70.34 
L 40.522388 70.34 
L 41.376803 70.34 
L 41.376803 70.34 
L 41.376803 70.34 
L 42.231217 70.34 
L 42.231217 70.34 
L 42.231217 70.34 
L 43.085632 70.34 
L 43.085632 70.34 
L 43.085632 70.34 
L 43.940046 70.34 
L 43.940046 70.34 
L 43.940046 70.34 
L 44.79446 70.34 
L 44.79446 70.34 
L 44.79446 70.34 
L 45.648875 70.34 
L 45.648875 70.34 
L 45.648875 70.34 
L 46.503289 70.34 
L 46.503289 70.34 
L 46.503289 70.34 
L 47.357704 70.34 
L 47.357704 70.34 
L 47.357704 70.34 
L 48.212118 70.34 
L 48.212118 70.34 
L 48.212118 70.34 
L 49.066533 70.34 
L 49.066533 70.34 
L 49.066533 70.34 
L 49.920947 70.34 
L 49.920947 70.34 
L 49.920947 70.34 
L 50.775362 70.34 
L 50.775362 70.34 
L 50.775362 70.34 
L 51.629776 70.34 
L 51.629776 70.34 
L 51.629776 70.34 
L 52.484191 70.34 
L 52.484191 70.34 
L 52.484191 70.34 
L 53.338605 70.34 
L 53.338605 70.34 
L 53.338605 70.34 
L 54.19302 70.34 
L 54.19302 70.34 
L 54.19302 70.34 
L 55.047434 70.34 
L 55.047434 70.34 
L 55.047434 70.34 
L 55.901849 70.34 
L 55.901849 70.34 
L 55.901849 70.34 
L 56.756263 70.34 
L 56.756263 70.34 
L 56.756263 70.34 
L 57.610677 70.34 
L 57.610677 70.34 
L 57.610677 70.34 
L 58.465092 70.34 
L 58.465092 70.34 
L 58.465092 70.34 
L 59.319506 70.34 
L 59.319506 70.34 
L 59.319506 70.34 
L 60.173921 70.34 
L 60.173921 70.34 
L 60.173921 70.34 
L 61.028335 70.34 
L 61.028335 70.34 
L 61.028335 70.34 
L 61.88275 70.34 
L 61.88275 70.34 
L 61.88275 70.34 
L 62.737164 70.34 
L 62.737164 70.34 
L 62.737164 70.34 
L 63.591579 70.34 
L 63.591579 70.34 
L 63.591579 70.34 
L 64.445993 70.34 
L 64.445993 70.34 
L 64.445993 70.34 
L 65.300408 70.34 
L 65.300408 70.34 
L 65.300408 70.34 
L 66.154822 70.34 
L 66.154822 70.34 
L 66.154822 70.34 
L 67.009237 70.34 
L 67.009237 70.34 
L 67.009237 70.34 
L 67.863651 70.34 
L 67.863651 70.34 
L 67.863651 70.34 
L 68.718066 70.34 
L 68.718066 70.34 
L 68.718066 70.34 
L 69.57248 70.34 
L 69.57248 70.34 
L 69.57248 70.34 
L 70.426895 70.34 
L 70.426895 70.34 
L 70.426895 70.34 
L 71.281309 70.34 
L 71.281309 70.34 
L 71.281309 70.34 
L 72.135723 70.34 
L 72.135723 70.34 
L 72.135723 70.34 
L 72.990138 70.34 
L 72.990138 70.34 
L 72.990138 70.34 
L 73.844552 70.34 
L 73.844552 70.34 
L 73.844552 70.34 
L 74.698967 70.34 
L 74.698967 70.34 
L 74.698967 70.34 
L 75.553381 70.34 
L 75.553381 70.34 
L 75.553381 70.34 
L 76.407796 70.34 
L 76.407796 70.34 
L 76.407796 70.34 
L 77.26221 70.34 
L 77.26221 70.34 
L 77.26221 70.34 
L 78.116625 70.34 
L 78.116625 70.34 
L 78.116625 70.34 
L 78.971039 70.34 
L 78.971039 70.34 
L 78.971039 70.34 
L 79.825454 70.34 
L 79.825454 70.34 
L 79.825454 70.34 
L 80.679868 70.34 
L 80.679868 70.34 
L 80.679868 70.34 
L 81.534283 70.34 
L 81.534283 70.34 
L 81.534283 70.34 
L 82.388697 70.34 
L 82.388697 70.34 
L 82.388697 70.34 
L 83.243112 70.34 
L 83.243112 70.34 
L 83.243112 70.34 
L 84.097526 70.34 
L 84.097526 70.34 
L 84.097526 70.34 
L 84.951941 70.34 
L 84.951941 70.34 
L 84.951941 70.34 
L 85.806355 70.34 
L 85.806355 70.34 
L 85.806355 70.34 
L 86.660769 70.34 
L 86.660769 70.34 
L 86.660769 70.34 
L 87.515184 70.34 
L 87.515184 70.34 
L 87.515184 70.34 
L 88.369598 70.34 
L 88.369598 70.34 
L 88.369598 70.34 
L 89.224013 70.34 
L 89.224013 70.34 
L 89.224013 70.34 
L 90.078427 70.34 
L 90.078427 70.34 
L 90.078427 70.34 
L 90.932842 70.34 
L 90.932842 70.34 
L 90.932842 70.34 
L 91.787256 70.34 
L 91.787256 70.34 
L 91.787256 70.34 
L 92.641671 70.34 
L 92.641671 70.34 
L 92.641671 70.34 
L 93.496085 70.34 
L 93.496085 70.34 
L 93.496085 70.34 
L 94.3505 70.34 
L 94.3505 70.34 
L 94.3505 70.34 
L 95.204914 70.34 
L 95.204914 70.34 
L 95.204914 70.34 
L 96.059329 70.34 
L 96.059329 70.34 
L 96.059329 70.34 
L 96.913743 70.34 
L 96.913743 70.34 
L 96.913743 70.34 
L 97.768158 70.34 
L 97.768158 70.34 
L 97.768158 70.34 
L 98.622572 70.34 
L 98.622572 70.34 
L 98.622572 70.34 
L 99.476987 70.34 
L 99.476987 70.34 
L 99.476987 70.34 
L 100.331401 70.34 
L 100.331401 70.34 
L 100.331401 70.34 
L 101.185815 70.34 
L 101.185815 70.34 
L 101.185815 70.34 
L 102.04023 70.34 
L 102.04023 70.34 
L 102.04023 70.34 
L 102.894644 70.34 
L 102.894644 70.34 
L 102.894644 70.34 
L 103.749059 70.34 
L 103.749059 70.34 
L 103.749059 70.34 
L 104.603473 70.34 
L 104.603473 70.34 
L 104.603473 70.34 
L 105.457888 70.34 
L 105.457888 70.34 
L 105.457888 70.34 
L 106.312302 70.34 
L 106.312302 70.34 
L 106.312302 70.34 
L 107.166717 70.34 
L 107.166717 70.34 
L 107.166717 70.34 
L 108.021131 70.34 
L 108.021131 70.34 
L 108.021131 70.34 
L 108.875546 70.34 
L 108.875546 70.34 
L 108.875546 70.34 
L 109.72996 70.34 
L 109.72996 70.34 
L 109.72996 70.34 
L 110.584375 70.34 
L 110.584375 70.34 
L 110.584375 70.34 
L 111.438789 70.34 
L 111.438789 70.34 
L 111.438789 70.34 
L 112.293204 70.34 
L 112.293204 70.34 
L 112.293204 70.34 
L 113.147618 70.34 
L 113.147618 70.34 
L 113.147618 70.34 
L 114.002032 70.34 
L 114.002032 70.34 
L 114.002032 70.34 
L 114.856447 70.34 
L 114.856447 70.34 
L 114.856447 70.34 
L 115.710861 70.34 
L 115.710861 70.34 
L 115.710861 70.34 
L 116.565276 70.34 
L 116.565276 70.34 
L 116.565276 70.34 
L 117.41969 70.34 
L 117.41969 70.34 
L 117.41969 70.34 
L 118.274105 70.34 
L 118.274105 70.34 
L 118.274105 70.34 
L 119.128519 70.34 
L 119.128519 70.34 
L 119.128519 70.34 
L 119.982934 70.34 
L 119.982934 70.34 
L 119.982934 70.34 
L 120.837348 70.34 
L 120.837348 70.34 
L 120.837348 70.34 
L 121.691763 70.34 
L 121.691763 70.34 
L 121.691763 70.34 
L 122.546177 70.34 
L 122.546177 70.34 
L 122.546177 70.34 
L 123.400592 70.34 
L 123.400592 70.34 
L 123.400592 70.34 
L 124.255006 70.34 
L 124.255006 70.34 
L 124.255006 70.34 
L 125.109421 70.34 
L 125.109421 70.34 
L 125.109421 70.34 
L 125.963835 70.34 
L 125.963835 70.34 
L 125.963835 70.34 
L 126.81825 70.34 
L 126.81825 70.34 
L 126.81825 70.34 
L 127.672664 70.34 
L 127.672664 70.34 
L 127.672664 70.34 
L 128.527078 70.34 
L 128.527078 70.34 
L 128.527078 70.34 
L 129.381493 70.34 
L 129.381493 70.34 
L 129.381493 70.34 
L 130.235907 70.34 
L 130.235907 70.34 
L 130.235907 70.34 
L 131.090322 70.34 
L 131.090322 70.34 
L 131.090322 70.34 
L 131.944736 70.34 
L 131.944736 70.34 
L 131.944736 70.34 
L 132.799151 70.34 
L 132.799151 70.34 
L 132.799151 70.34 
L 133.653565 70.34 
L 133.653565 70.34 
L 133.653565 70.34 
L 134.50798 70.34 
L 134.50798 70.34 
L 134.50798 70.34 
L 135.362394 70.34 
L 135.362394 70.34 
L 135.362394 70.34 
L 136.216809 70.34 
L 136.216809 70.34 
L 136.216809 70.34 
L 137.071223 70.34 
L 137.071223 70.34 
L 137.071223 70.34 
L 137.925638 70.34 
L 137.925638 70.34 
L 137.925638 70.34 
L 138.780052 70.34 
L 138.780052 70.34 
L 138.780052 70.34 
L 139.634467 70.34 
L 139.634467 70.34 
L 139.634467 70.34 
L 140.488881 70.34 
L 140.488881 70.34 
L 140.488881 70.34 
L 141.343296 70.34 
L 141.343296 70.34 
L 141.343296 70.34 
L 142.19771 70.34 
L 142.19771 70.34 
L 142.19771 70.34 
L 143.052124 70.34 
L 143.052124 70.34 
L 143.052124 70.34 
L 143.906539 70.34 
L 143.906539 16.035238 
L 257.543663 16.035238 
L 257.543663 70.34 
L 427.572143 70.34 
L 427.572143 70.34 
" style="fill:none;stroke:#1f77b4;stroke-linecap:square;stroke-width:1.5;"/>
   </g>
   <g id="patch_3">
    <path d="M 29.415 70.34 
L 29.415 13.32 
" style="fill:none;stroke:#000000;stroke-linecap:square;stroke-linejoin:miter;stroke-width:0.8;"/>
   </g>
   <g id="patch_4">
    <path d="M 29.415 70.34 
L 447.48 70.34 
" style="fill:none;stroke:#000000;stroke-linecap:square;stroke-linejoin:miter;stroke-width:0.8;"/>
   </g>
  </g>
  <g id="axes_2">
   <g id="patch_5">
    <path d="M 29.415 154.04 
L 447.48 154.04 
L 447.48 97.02 
L 29.415 97.02 
z
" style="fill:#ffffff;"/>
   </g>
   <g id="matplotlib.axis_3">
    <g id="text_3">
     <!-- t -->
     <g transform="translate(236.8725 165.099375)scale(0.1 -0.1)">
      <use xlink:href="#STIXTwoMath-74"/>
     </g>
    </g>
   </g>
   <g id="matplotlib.axis_4">
    <g id="text_4">
     <!-- $S$ -->
     <defs>
      <path d="M 50.796875 66.703125 
L 46.796875 46.703125 
L 45 47 
Q 45 55.296875 42.5 59.296875 
Q 40 63.296875 33.09375 63.296875 
Q 27.90625 63.296875 24.90625 60.640625 
Q 21.90625 58 21.90625 53.296875 
Q 21.90625 49.5 23.5 46.953125 
Q 25.09375 44.40625 31.796875 37.703125 
Q 38.5 30.90625 40.796875 26.796875 
Q 43.09375 22.703125 43.09375 17.703125 
Q 43.09375 9.203125 37.34375 3.703125 
Q 31.59375 -1.796875 22.90625 -1.796875 
Q 19.09375 -1.796875 12.5 0.5 
Q 9.296875 1.703125 7.796875 1.703125 
Q 4.5 1.703125 3.5 -1.5 
L 1.703125 -1.5 
L 5.09375 20.90625 
L 7.09375 20.703125 
Q 6.90625 19.796875 6.90625 18.40625 
Q 6.90625 11.09375 10.953125 6.390625 
Q 15 1.703125 21.296875 1.703125 
Q 27.09375 1.703125 30.75 5.25 
Q 34.40625 8.796875 34.40625 14.5 
Q 34.40625 17.796875 33.09375 20.4375 
Q 31.796875 23.09375 28.40625 26.796875 
L 24.5 31 
Q 24.203125 31.296875 22.796875 32.84375 
Q 21.40625 34.40625 20.59375 35.203125 
Q 16.09375 40 14.59375 43.046875 
Q 13.09375 46.09375 13.09375 50.203125 
Q 13.09375 57.796875 18.25 62.1875 
Q 23.40625 66.59375 30.90625 66.59375 
Q 36.09375 66.59375 39.40625 65.203125 
Q 42.296875 64.09375 44 64.09375 
Q 45.703125 64.09375 46.59375 64.59375 
Q 47.5 65.09375 48.5 66.703125 
z
" id="STIXGeneral-Italic-53"/>
     </defs>
     <g transform="translate(23.215 128.03)rotate(-90)scale(0.1 -0.1)">
      <use transform="translate(0 0.296875)" xlink:href="#STIXGeneral-Italic-53"/>
     </g>
    </g>
   </g>
   <g id="line2d_2">
    <path clip-path="url(#p526a60155c)" d="M 29.415 154.04 
L 30.269414 154.04 
L 30.269414 154.04 
L 30.269414 154.04 
L 31.123829 154.04 
L 31.123829 154.04 
L 31.123829 154.04 
L 31.978243 154.04 
L 31.978243 154.04 
L 31.978243 154.04 
L 32.832658 154.04 
L 32.832658 154.04 
L 32.832658 154.04 
L 33.687072 154.04 
L 33.687072 154.04 
L 33.687072 154.04 
L 34.541487 154.04 
L 34.541487 154.04 
L 34.541487 154.04 
L 35.395901 154.04 
L 35.395901 154.04 
L 35.395901 154.04 
L 36.250316 154.04 
L 36.250316 154.04 
L 36.250316 154.04 
L 37.10473 154.04 
L 37.10473 154.04 
L 37.10473 154.04 
L 37.959145 154.04 
L 37.959145 154.04 
L 37.959145 154.04 
L 38.813559 154.04 
L 38.813559 154.04 
L 38.813559 154.04 
L 39.667974 154.04 
L 39.667974 154.04 
L 39.667974 154.04 
L 40.522388 154.04 
L 40.522388 154.04 
L 40.522388 154.04 
L 41.376803 154.04 
L 41.376803 154.04 
L 41.376803 154.04 
L 42.231217 154.04 
L 42.231217 154.04 
L 42.231217 154.04 
L 43.085632 154.04 
L 43.085632 154.04 
L 43.085632 154.04 
L 43.940046 154.04 
L 43.940046 154.04 
L 43.940046 154.04 
L 44.79446 154.04 
L 44.79446 154.04 
L 44.79446 154.04 
L 45.648875 154.04 
L 45.648875 154.04 
L 45.648875 154.04 
L 46.503289 154.04 
L 46.503289 154.04 
L 46.503289 154.04 
L 47.357704 154.04 
L 47.357704 154.04 
L 47.357704 154.04 
L 48.212118 154.04 
L 48.212118 154.04 
L 48.212118 154.04 
L 49.066533 154.04 
L 49.066533 154.04 
L 49.066533 154.04 
L 49.920947 154.04 
L 49.920947 154.04 
L 49.920947 154.04 
L 50.775362 154.04 
L 50.775362 154.04 
L 50.775362 154.04 
L 51.629776 154.04 
L 51.629776 154.04 
L 51.629776 154.04 
L 52.484191 154.04 
L 52.484191 154.04 
L 52.484191 154.04 
L 53.338605 154.04 
L 53.338605 154.04 
L 53.338605 154.04 
L 54.19302 154.04 
L 54.19302 154.04 
L 54.19302 154.04 
L 55.047434 154.04 
L 55.047434 154.04 
L 55.047434 154.04 
L 55.901849 154.04 
L 55.901849 154.04 
L 55.901849 154.04 
L 56.756263 154.04 
L 56.756263 154.04 
L 56.756263 154.04 
L 57.610677 154.04 
L 57.610677 154.04 
L 57.610677 154.04 
L 58.465092 154.04 
L 58.465092 154.04 
L 58.465092 154.04 
L 59.319506 154.04 
L 59.319506 154.04 
L 59.319506 154.04 
L 60.173921 154.04 
L 60.173921 154.04 
L 60.173921 154.04 
L 61.028335 154.04 
L 61.028335 154.04 
L 61.028335 154.04 
L 61.88275 154.04 
L 61.88275 154.04 
L 61.88275 154.04 
L 62.737164 154.04 
L 62.737164 154.04 
L 62.737164 154.04 
L 63.591579 154.04 
L 63.591579 154.04 
L 63.591579 154.04 
L 64.445993 154.04 
L 64.445993 154.04 
L 64.445993 154.04 
L 65.300408 154.04 
L 65.300408 154.04 
L 65.300408 154.04 
L 66.154822 154.04 
L 66.154822 154.04 
L 66.154822 154.04 
L 67.009237 154.04 
L 67.009237 154.04 
L 67.009237 154.04 
L 67.863651 154.04 
L 67.863651 154.04 
L 67.863651 154.04 
L 68.718066 154.04 
L 68.718066 154.04 
L 68.718066 154.04 
L 69.57248 154.04 
L 69.57248 154.04 
L 69.57248 154.04 
L 70.426895 154.04 
L 70.426895 154.04 
L 70.426895 154.04 
L 71.281309 154.04 
L 71.281309 154.04 
L 71.281309 154.04 
L 72.135723 154.04 
L 72.135723 154.04 
L 72.135723 154.04 
L 72.990138 154.04 
L 72.990138 154.04 
L 72.990138 154.04 
L 73.844552 154.04 
L 73.844552 154.04 
L 73.844552 154.04 
L 74.698967 154.04 
L 74.698967 154.04 
L 74.698967 154.04 
L 75.553381 154.04 
L 75.553381 154.04 
L 75.553381 154.04 
L 76.407796 154.04 
L 76.407796 154.04 
L 76.407796 154.04 
L 77.26221 154.04 
L 77.26221 154.04 
L 77.26221 154.04 
L 78.116625 154.04 
L 78.116625 154.04 
L 78.116625 154.04 
L 78.971039 154.04 
L 78.971039 154.04 
L 78.971039 154.04 
L 79.825454 154.04 
L 79.825454 154.04 
L 79.825454 154.04 
L 80.679868 154.04 
L 80.679868 154.04 
L 80.679868 154.04 
L 81.534283 154.04 
L 81.534283 154.04 
L 81.534283 154.04 
L 82.388697 154.04 
L 82.388697 154.04 
L 82.388697 154.04 
L 83.243112 154.04 
L 83.243112 154.04 
L 83.243112 154.04 
L 84.097526 154.04 
L 84.097526 154.04 
L 84.097526 154.04 
L 84.951941 154.04 
L 84.951941 154.04 
L 84.951941 154.04 
L 85.806355 154.04 
L 85.806355 154.04 
L 85.806355 154.04 
L 86.660769 154.04 
L 86.660769 99.735238 
L 143.906539 99.735238 
L 143.906539 154.04 
L 257.543663 154.04 
L 257.543663 99.735238 
L 371.180788 99.735238 
L 371.180788 154.04 
L 427.572143 154.04 
L 427.572143 154.04 
" style="fill:none;stroke:#1f77b4;stroke-linecap:square;stroke-width:1.5;"/>
   </g>
   <g id="patch_6">
    <path d="M 29.415 154.04 
L 29.415 97.02 
" style="fill:none;stroke:#000000;stroke-linecap:square;stroke-linejoin:miter;stroke-width:0.8;"/>
   </g>
   <g id="patch_7">
    <path d="M 29.415 154.04 
L 447.48 154.04 
" style="fill:none;stroke:#000000;stroke-linecap:square;stroke-linejoin:miter;stroke-width:0.8;"/>
   </g>
  </g>
  <g id="axes_3">
   <g id="patch_8">
    <path d="M 29.415 237.74 
L 447.48 237.74 
L 447.48 180.72 
L 29.415 180.72 
z
" style="fill:#ffffff;"/>
   </g>
   <g id="matplotlib.axis_5">
    <g id="text_5">
     <!-- t -->
     <g transform="translate(236.8725 248.799375)scale(0.1 -0.1)">
      <use xlink:href="#STIXTwoMath-74"/>
     </g>
    </g>
   </g>
   <g id="matplotlib.axis_6">
    <g id="text_6">
     <!-- $Q$ -->
     <defs>
      <path d="M 6.90625 -16.90625 
L 5.90625 -15.296875 
Q 11.703125 -11.203125 14.25 -9.203125 
Q 16.796875 -7.203125 23.59375 -1.203125 
Q 15.09375 0.5 10.546875 6.640625 
Q 6 12.796875 6 22.5 
Q 6 31.796875 10.59375 41 
Q 15.203125 50.203125 23.296875 57.203125 
Q 34.40625 66.59375 47.40625 66.59375 
Q 57.5 66.59375 63.703125 59.890625 
Q 69.90625 53.203125 69.90625 42.90625 
Q 69.90625 31.203125 62.796875 19.953125 
Q 55.703125 8.703125 44.296875 2.703125 
Q 37.5 -1 27.90625 -1.59375 
L 22.5 -7.296875 
L 25 -7.296875 
Q 28.5 -7.296875 37.296875 -9.296875 
Q 45.90625 -11.40625 48.40625 -11.40625 
Q 53.796875 -11.40625 57.390625 -9.75 
Q 61 -8.09375 65.203125 -3.703125 
L 66.796875 -4.796875 
Q 64.40625 -8.203125 61.59375 -10.703125 
Q 53.296875 -18.203125 42.5 -18.203125 
Q 35.90625 -18.203125 27.703125 -15.59375 
Q 22.203125 -13.796875 18.40625 -13.796875 
Q 12.5 -13.796875 6.90625 -16.90625 
z
M 59.40625 48 
Q 59.40625 55.09375 55.953125 59.1875 
Q 52.5 63.296875 46.5 63.296875 
Q 35.5 63.296875 27.09375 50.796875 
Q 22.59375 44.09375 19.546875 34.84375 
Q 16.5 25.59375 16.5 18.296875 
Q 16.5 10.796875 19.890625 6.25 
Q 23.296875 1.703125 28.90625 1.703125 
Q 40.296875 1.703125 48.703125 14.09375 
Q 53.296875 21.09375 56.34375 30.6875 
Q 59.40625 40.296875 59.40625 48 
z
" id="STIXGeneral-Italic-51"/>
     </defs>
     <g transform="translate(23.215 212.88)rotate(-90)scale(0.1 -0.1)">
      <use transform="translate(0 0.40625)" xlink:href="#STIXGeneral-Italic-51"/>
     </g>
    </g>
   </g>
   <g id="line2d_3">
    <path clip-path="url(#p78dc60d01b)" d="M 29.415 235.148182 
L 30.269414 235.148182 
L 30.269414 235.148182 
L 30.269414 235.148182 
L 31.123829 235.148182 
L 31.123829 235.148182 
L 31.123829 235.148182 
L 31.978243 235.148182 
L 31.978243 235.148182 
L 31.978243 235.148182 
L 32.832658 235.148182 
L 32.832658 235.148182 
L 32.832658 235.148182 
L 33.687072 235.148182 
L 33.687072 235.148182 
L 33.687072 235.148182 
L 34.541487 235.148182 
L 34.541487 235.148182 
L 34.541487 235.148182 
L 35.395901 235.148182 
L 35.395901 235.148182 
L 35.395901 235.148182 
L 36.250316 235.148182 
L 36.250316 235.148182 
L 36.250316 235.148182 
L 37.10473 235.148182 
L 37.10473 235.148182 
L 37.10473 235.148182 
L 37.959145 235.148182 
L 37.959145 235.148182 
L 37.959145 235.148182 
L 38.813559 235.148182 
L 38.813559 235.148182 
L 38.813559 235.148182 
L 39.667974 235.148182 
L 39.667974 235.148182 
L 39.667974 235.148182 
L 40.522388 235.148182 
L 40.522388 235.148182 
L 40.522388 235.148182 
L 41.376803 235.148182 
L 41.376803 235.148182 
L 41.376803 235.148182 
L 42.231217 235.148182 
L 42.231217 235.148182 
L 42.231217 235.148182 
L 43.085632 235.148182 
L 43.085632 235.148182 
L 43.085632 235.148182 
L 43.940046 235.148182 
L 43.940046 235.148182 
L 43.940046 235.148182 
L 44.79446 235.148182 
L 44.79446 235.148182 
L 44.79446 235.148182 
L 45.648875 235.148182 
L 45.648875 235.148182 
L 45.648875 235.148182 
L 46.503289 235.148182 
L 46.503289 235.148182 
L 46.503289 235.148182 
L 47.357704 235.148182 
L 47.357704 235.148182 
L 47.357704 235.148182 
L 48.212118 235.148182 
L 48.212118 235.148182 
L 48.212118 235.148182 
L 49.066533 235.148182 
L 49.066533 235.148182 
L 49.066533 235.148182 
L 49.920947 235.148182 
L 49.920947 235.148182 
L 49.920947 235.148182 
L 50.775362 235.148182 
L 50.775362 235.148182 
L 50.775362 235.148182 
L 51.629776 235.148182 
L 51.629776 235.148182 
L 51.629776 235.148182 
L 52.484191 235.148182 
L 52.484191 235.148182 
L 52.484191 235.148182 
L 53.338605 235.148182 
L 53.338605 235.148182 
L 53.338605 235.148182 
L 54.19302 235.148182 
L 54.19302 235.148182 
L 54.19302 235.148182 
L 55.047434 235.148182 
L 55.047434 235.148182 
L 55.047434 235.148182 
L 55.901849 235.148182 
L 55.901849 235.148182 
L 55.901849 235.148182 
L 56.756263 235.148182 
L 56.756263 235.148182 
L 56.756263 235.148182 
L 57.610677 235.148182 
L 57.610677 235.148182 
L 57.610677 235.148182 
L 58.465092 235.148182 
L 58.465092 235.148182 
L 58.465092 235.148182 
L 59.319506 235.148182 
L 59.319506 235.148182 
L 59.319506 235.148182 
L 60.173921 235.148182 
L 60.173921 235.148182 
L 60.173921 235.148182 
L 61.028335 235.148182 
L 61.028335 235.148182 
L 61.028335 235.148182 
L 61.88275 235.148182 
L 61.88275 235.148182 
L 61.88275 235.148182 
L 62.737164 235.148182 
L 62.737164 235.148182 
L 62.737164 235.148182 
L 63.591579 235.148182 
L 63.591579 235.148182 
L 63.591579 235.148182 
L 64.445993 235.148182 
L 64.445993 235.148182 
L 64.445993 235.148182 
L 65.300408 235.148182 
L 65.300408 235.148182 
L 65.300408 235.148182 
L 66.154822 235.148182 
L 66.154822 235.148182 
L 66.154822 235.148182 
L 67.009237 235.148182 
L 67.009237 235.148182 
L 67.009237 235.148182 
L 67.863651 235.148182 
L 67.863651 235.148182 
L 67.863651 235.148182 
L 68.718066 235.148182 
L 68.718066 235.148182 
L 68.718066 235.148182 
L 69.57248 235.148182 
L 69.57248 235.148182 
L 69.57248 235.148182 
L 70.426895 235.148182 
L 70.426895 235.148182 
L 70.426895 235.148182 
L 71.281309 235.148182 
L 71.281309 235.148182 
L 71.281309 235.148182 
L 72.135723 235.148182 
L 72.135723 235.148182 
L 72.135723 235.148182 
L 72.990138 235.148182 
L 72.990138 235.148182 
L 72.990138 235.148182 
L 73.844552 235.148182 
L 73.844552 235.148182 
L 73.844552 235.148182 
L 74.698967 235.148182 
L 74.698967 235.148182 
L 74.698967 235.148182 
L 75.553381 235.148182 
L 75.553381 235.148182 
L 75.553381 235.148182 
L 76.407796 235.148182 
L 76.407796 235.148182 
L 76.407796 235.148182 
L 77.26221 235.148182 
L 77.26221 235.148182 
L 77.26221 235.148182 
L 78.116625 235.148182 
L 78.116625 235.148182 
L 78.116625 235.148182 
L 78.971039 235.148182 
L 78.971039 235.148182 
L 78.971039 235.148182 
L 79.825454 235.148182 
L 79.825454 235.148182 
L 79.825454 235.148182 
L 80.679868 235.148182 
L 80.679868 235.148182 
L 80.679868 235.148182 
L 81.534283 235.148182 
L 81.534283 235.148182 
L 81.534283 235.148182 
L 82.388697 235.148182 
L 82.388697 235.148182 
L 82.388697 235.148182 
L 83.243112 235.148182 
L 83.243112 235.148182 
L 83.243112 235.148182 
L 84.097526 235.148182 
L 84.097526 235.148182 
L 84.097526 235.148182 
L 84.951941 235.148182 
L 84.951941 235.148182 
L 84.951941 235.148182 
L 85.806355 235.148182 
L 85.806355 235.148182 
L 85.806355 235.148182 
L 86.660769 235.148182 
L 86.660769 183.311818 
L 143.906539 183.311818 
L 143.906539 235.148182 
L 257.543663 235.148182 
L 257.543663 183.311818 
L 427.572143 183.311818 
L 427.572143 183.311818 
" style="fill:none;stroke:#1f77b4;stroke-linecap:square;stroke-width:1.5;"/>
   </g>
   <g id="patch_9">
    <path d="M 29.415 237.74 
L 29.415 180.72 
" style="fill:none;stroke:#000000;stroke-linecap:square;stroke-linejoin:miter;stroke-width:0.8;"/>
   </g>
   <g id="patch_10">
    <path d="M 29.415 237.74 
L 447.48 237.74 
" style="fill:none;stroke:#000000;stroke-linecap:square;stroke-linejoin:miter;stroke-width:0.8;"/>
   </g>
  </g>
  <g id="axes_4">
   <g id="patch_11">
    <path d="M 29.415 321.44 
L 447.48 321.44 
L 447.48 264.42 
L 29.415 264.42 
z
" style="fill:#ffffff;"/>
   </g>
   <g id="matplotlib.axis_7">
    <g id="text_7">
     <!-- t -->
     <g transform="translate(236.8725 332.499375)scale(0.1 -0.1)">
      <use xlink:href="#STIXTwoMath-74"/>
     </g>
    </g>
   </g>
   <g id="matplotlib.axis_8">
    <g id="text_8">
     <!-- $\overline{Q}$ -->
     <g transform="translate(23.215 296.58)rotate(-90)scale(0.1 -0.1)">
      <use transform="translate(0 1.15625)" xlink:href="#STIXGeneral-Italic-51"/>
      <path d="M 0 79.5 
L 0 85.75 
L 72.199982 85.75 
L 72.199982 79.5 
L 0 79.5 
z
"/>
     </g>
    </g>
   </g>
   <g id="line2d_4">
    <path clip-path="url(#pc164dc01fa)" d="M 29.415 318.848182 
L 30.269414 318.848182 
L 30.269414 267.011818 
L 86.660769 267.011818 
L 86.660769 318.848182 
L 143.906539 318.848182 
L 143.906539 267.011818 
L 257.543663 267.011818 
L 257.543663 318.848182 
L 427.572143 318.848182 
L 427.572143 318.848182 
" style="fill:none;stroke:#1f77b4;stroke-linecap:square;stroke-width:1.5;"/>
   </g>
   <g id="patch_12">
    <path d="M 29.415 321.44 
L 29.415 264.42 
" style="fill:none;stroke:#000000;stroke-linecap:square;stroke-linejoin:miter;stroke-width:0.8;"/>
   </g>
   <g id="patch_13">
    <path d="M 29.415 321.44 
L 447.48 321.44 
" style="fill:none;stroke:#000000;stroke-linecap:square;stroke-linejoin:miter;stroke-width:0.8;"/>
   </g>
  </g>
 </g>
 <defs>
  <clipPath id="p0961f4360d">
   <rect height="57.02" width="418.065" x="29.415" y="13.32"/>
  </clipPath>
  <clipPath id="p526a60155c">
   <rect height="57.02" width="418.065" x="29.415" y="97.02"/>
  </clipPath>
  <clipPath id="p78dc60d01b">
   <rect height="57.02" width="418.065" x="29.415" y="180.72"/>
  </clipPath>
  <clipPath id="pc164dc01fa">
   <rect height="57.02" width="418.065" x="29.415" y="264.42"/>
  </clipPath>
 </defs>
</svg>
