<?xml version="1.0" encoding="utf-8" standalone="no"?>
<!DOCTYPE svg PUBLIC "-//W3C//DTD SVG 1.1//EN"
  "http://www.w3.org/Graphics/SVG/1.1/DTD/svg11.dtd">
<!-- Created with matplotlib (http://matplotlib.org/) -->
<svg height="345pt" version="1.1" viewBox="0 0 460 345" width="460pt" xmlns="http://www.w3.org/2000/svg" xmlns:xlink="http://www.w3.org/1999/xlink">
 <defs>
  <style type="text/css">
*{stroke-linecap:butt;stroke-linejoin:round;}
  </style>
 </defs>
 <g id="figure_1">
  <g id="patch_1">
   <path d="M 0 345.6 
L 460.8 345.6 
L 460.8 0 
L 0 0 
z
" style="fill:#ffffff;"/>
  </g>
  <g id="axes_1">
   <g id="patch_2">
    <path d="M 29.415 70.34 
L 447.48 70.34 
L 447.48 13.32 
L 29.415 13.32 
z
" style="fill:#ffffff;"/>
   </g>
   <g id="matplotlib.axis_1">
    <g id="text_1">
     <!-- t -->
     <defs>
      <path d="M 29.296875 9 
C 26.796875 6.203125 25.5 4.90625 22.296875 4.90625 
C 18.40625 4.90625 17.5 7.296875 17.5 14.40625 
L 17.5 43.09375 
L 28.796875 43.09375 
L 28.796875 47.296875 
L 17.5 47.296875 
L 17.59375 61 
L 15 61 
C 11.40625 52.5 8.40625 48.296875 3.703125 45.40625 
L 3.703125 43.09375 
L 9.203125 43.09375 
L 9.203125 11.59375 
C 9.203125 2.59375 12.09375 -1 18.796875 -1 
C 25.203125 -1 27.296875 2 31.203125 7.40625 
z
" id="STIXTwoMath-74"/>
     </defs>
     <g transform="translate(236.8725 81.399375)scale(0.1 -0.1)">
      <use xlink:href="#STIXTwoMath-74"/>
     </g>
    </g>
   </g>
   <g id="matplotlib.axis_2">
    <g id="text_2">
     <!-- $D$ -->
     <defs>
      <path d="M 13.09375 65.296875 
L 40.796875 65.296875 
Q 54.203125 65.296875 62.09375 58.296875 
Q 70 51.296875 70 38.40625 
Q 70 20.703125 54 8.296875 
Q 43.40625 0 24.90625 0 
L -0.796875 0 
L -0.796875 1.59375 
Q 3.5 2.40625 4.84375 3.59375 
Q 6.203125 4.796875 7.40625 9.203125 
L 19.59375 53.703125 
Q 20.703125 57.59375 20.703125 59.59375 
Q 20.703125 61.703125 19.09375 62.640625 
Q 17.5 63.59375 13.09375 63.703125 
z
M 31 58.40625 
L 19.203125 16.203125 
Q 17 8.203125 17 6.703125 
Q 17 3 23.796875 3 
Q 38.59375 3 47.90625 12 
Q 53.09375 17 56 24.953125 
Q 58.90625 32.90625 58.90625 40.796875 
Q 58.90625 52.90625 51.09375 58.796875 
Q 46.40625 62.296875 38 62.296875 
Q 34.796875 62.296875 33.25 61.546875 
Q 31.703125 60.796875 31 58.40625 
z
" id="STIXGeneral-Italic-44"/>
     </defs>
     <g transform="translate(23.215 45.48)rotate(-90)scale(0.1 -0.1)">
      <use transform="translate(0 0.703125)" xlink:href="#STIXGeneral-Italic-44"/>
     </g>
    </g>
   </g>
   <g id="line2d_1">
    <path clip-path="url(#pdc8c46f30c)" d="M 29.415 16.035238 
L 30.269414 16.035238 
L 30.269414 16.035238 
L 30.269414 16.035238 
L 31.123829 16.035238 
L 31.123829 16.035238 
L 31.123829 16.035238 
L 31.978243 16.035238 
L 31.978243 16.035238 
L 31.978243 16.035238 
L 32.832658 16.035238 
L 32.832658 16.035238 
L 32.832658 16.035238 
L 33.687072 16.035238 
L 33.687072 16.035238 
L 33.687072 16.035238 
L 34.541487 16.035238 
L 34.541487 16.035238 
L 34.541487 16.035238 
L 35.395901 16.035238 
L 35.395901 16.035238 
L 35.395901 16.035238 
L 36.250316 16.035238 
L 36.250316 16.035238 
L 36.250316 16.035238 
L 37.10473 16.035238 
L 37.10473 16.035238 
L 37.10473 16.035238 
L 37.959145 16.035238 
L 37.959145 16.035238 
L 37.959145 16.035238 
L 38.813559 16.035238 
L 38.813559 16.035238 
L 38.813559 16.035238 
L 39.667974 16.035238 
L 39.667974 16.035238 
L 39.667974 16.035238 
L 40.522388 16.035238 
L 40.522388 16.035238 
L 40.522388 16.035238 
L 41.376803 16.035238 
L 41.376803 16.035238 
L 41.376803 16.035238 
L 42.231217 16.035238 
L 42.231217 16.035238 
L 42.231217 16.035238 
L 43.085632 16.035238 
L 43.085632 16.035238 
L 43.085632 16.035238 
L 43.940046 16.035238 
L 43.940046 16.035238 
L 43.940046 16.035238 
L 44.79446 16.035238 
L 44.79446 16.035238 
L 44.79446 16.035238 
L 45.648875 16.035238 
L 45.648875 16.035238 
L 45.648875 16.035238 
L 46.503289 16.035238 
L 46.503289 16.035238 
L 46.503289 16.035238 
L 47.357704 16.035238 
L 47.357704 16.035238 
L 47.357704 16.035238 
L 48.212118 16.035238 
L 48.212118 16.035238 
L 48.212118 16.035238 
L 49.066533 16.035238 
L 49.066533 16.035238 
L 49.066533 16.035238 
L 49.920947 16.035238 
L 49.920947 16.035238 
L 49.920947 16.035238 
L 50.775362 16.035238 
L 50.775362 16.035238 
L 50.775362 16.035238 
L 51.629776 16.035238 
L 51.629776 16.035238 
L 51.629776 16.035238 
L 52.484191 16.035238 
L 52.484191 16.035238 
L 52.484191 16.035238 
L 53.338605 16.035238 
L 53.338605 16.035238 
L 53.338605 16.035238 
L 54.19302 16.035238 
L 54.19302 16.035238 
L 54.19302 16.035238 
L 55.047434 16.035238 
L 55.047434 16.035238 
L 55.047434 16.035238 
L 55.901849 16.035238 
L 55.901849 16.035238 
L 55.901849 16.035238 
L 56.756263 16.035238 
L 56.756263 16.035238 
L 56.756263 16.035238 
L 57.610677 16.035238 
L 57.610677 16.035238 
L 57.610677 16.035238 
L 58.465092 16.035238 
L 58.465092 16.035238 
L 58.465092 16.035238 
L 59.319506 16.035238 
L 59.319506 16.035238 
L 59.319506 16.035238 
L 60.173921 16.035238 
L 60.173921 16.035238 
L 60.173921 16.035238 
L 61.028335 16.035238 
L 61.028335 16.035238 
L 61.028335 16.035238 
L 61.88275 16.035238 
L 61.88275 16.035238 
L 61.88275 16.035238 
L 62.737164 16.035238 
L 62.737164 16.035238 
L 62.737164 16.035238 
L 63.591579 16.035238 
L 63.591579 16.035238 
L 63.591579 16.035238 
L 64.445993 16.035238 
L 64.445993 16.035238 
L 64.445993 16.035238 
L 65.300408 16.035238 
L 65.300408 16.035238 
L 65.300408 16.035238 
L 66.154822 16.035238 
L 66.154822 16.035238 
L 66.154822 16.035238 
L 67.009237 16.035238 
L 67.009237 16.035238 
L 67.009237 16.035238 
L 67.863651 16.035238 
L 67.863651 16.035238 
L 67.863651 16.035238 
L 68.718066 16.035238 
L 68.718066 16.035238 
L 68.718066 16.035238 
L 69.57248 16.035238 
L 69.57248 16.035238 
L 69.57248 16.035238 
L 70.426895 16.035238 
L 70.426895 16.035238 
L 70.426895 16.035238 
L 71.281309 16.035238 
L 71.281309 16.035238 
L 71.281309 16.035238 
L 72.135723 16.035238 
L 72.135723 16.035238 
L 72.135723 16.035238 
L 72.990138 16.035238 
L 72.990138 16.035238 
L 72.990138 16.035238 
L 73.844552 16.035238 
L 73.844552 16.035238 
L 73.844552 16.035238 
L 74.698967 16.035238 
L 74.698967 16.035238 
L 74.698967 16.035238 
L 75.553381 16.035238 
L 75.553381 16.035238 
L 75.553381 16.035238 
L 76.407796 16.035238 
L 76.407796 16.035238 
L 76.407796 16.035238 
L 77.26221 16.035238 
L 77.26221 16.035238 
L 77.26221 16.035238 
L 78.116625 16.035238 
L 78.116625 16.035238 
L 78.116625 16.035238 
L 78.971039 16.035238 
L 78.971039 16.035238 
L 78.971039 16.035238 
L 79.825454 16.035238 
L 79.825454 16.035238 
L 79.825454 16.035238 
L 80.679868 16.035238 
L 80.679868 16.035238 
L 80.679868 16.035238 
L 81.534283 16.035238 
L 81.534283 16.035238 
L 81.534283 16.035238 
L 82.388697 16.035238 
L 82.388697 16.035238 
L 82.388697 16.035238 
L 83.243112 16.035238 
L 83.243112 16.035238 
L 83.243112 16.035238 
L 84.097526 16.035238 
L 84.097526 16.035238 
L 84.097526 16.035238 
L 84.951941 16.035238 
L 84.951941 16.035238 
L 84.951941 16.035238 
L 85.806355 16.035238 
L 85.806355 16.035238 
L 85.806355 16.035238 
L 86.660769 16.035238 
L 86.660769 16.035238 
L 86.660769 16.035238 
L 87.515184 16.035238 
L 87.515184 16.035238 
L 87.515184 16.035238 
L 88.369598 16.035238 
L 88.369598 16.035238 
L 88.369598 16.035238 
L 89.224013 16.035238 
L 89.224013 16.035238 
L 89.224013 16.035238 
L 90.078427 16.035238 
L 90.078427 16.035238 
L 90.078427 16.035238 
L 90.932842 16.035238 
L 90.932842 16.035238 
L 90.932842 16.035238 
L 91.787256 16.035238 
L 91.787256 16.035238 
L 91.787256 16.035238 
L 92.641671 16.035238 
L 92.641671 16.035238 
L 92.641671 16.035238 
L 93.496085 16.035238 
L 93.496085 16.035238 
L 93.496085 16.035238 
L 94.3505 16.035238 
L 94.3505 16.035238 
L 94.3505 16.035238 
L 95.204914 16.035238 
L 95.204914 16.035238 
L 95.204914 16.035238 
L 96.059329 16.035238 
L 96.059329 16.035238 
L 96.059329 16.035238 
L 96.913743 16.035238 
L 96.913743 16.035238 
L 96.913743 16.035238 
L 97.768158 16.035238 
L 97.768158 16.035238 
L 97.768158 16.035238 
L 98.622572 16.035238 
L 98.622572 16.035238 
L 98.622572 16.035238 
L 99.476987 16.035238 
L 99.476987 16.035238 
L 99.476987 16.035238 
L 100.331401 16.035238 
L 100.331401 16.035238 
L 100.331401 16.035238 
L 101.185815 16.035238 
L 101.185815 16.035238 
L 101.185815 16.035238 
L 102.04023 16.035238 
L 102.04023 16.035238 
L 102.04023 16.035238 
L 102.894644 16.035238 
L 102.894644 16.035238 
L 102.894644 16.035238 
L 103.749059 16.035238 
L 103.749059 16.035238 
L 103.749059 16.035238 
L 104.603473 16.035238 
L 104.603473 16.035238 
L 104.603473 16.035238 
L 105.457888 16.035238 
L 105.457888 16.035238 
L 105.457888 16.035238 
L 106.312302 16.035238 
L 106.312302 16.035238 
L 106.312302 16.035238 
L 107.166717 16.035238 
L 107.166717 16.035238 
L 107.166717 16.035238 
L 108.021131 16.035238 
L 108.021131 16.035238 
L 108.021131 16.035238 
L 108.875546 16.035238 
L 108.875546 16.035238 
L 108.875546 16.035238 
L 109.72996 16.035238 
L 109.72996 16.035238 
L 109.72996 16.035238 
L 110.584375 16.035238 
L 110.584375 16.035238 
L 110.584375 16.035238 
L 111.438789 16.035238 
L 111.438789 16.035238 
L 111.438789 16.035238 
L 112.293204 16.035238 
L 112.293204 16.035238 
L 112.293204 16.035238 
L 113.147618 16.035238 
L 113.147618 16.035238 
L 113.147618 16.035238 
L 114.002032 16.035238 
L 114.002032 16.035238 
L 114.002032 16.035238 
L 114.856447 16.035238 
L 114.856447 16.035238 
L 114.856447 16.035238 
L 115.710861 16.035238 
L 115.710861 16.035238 
L 115.710861 16.035238 
L 116.565276 16.035238 
L 116.565276 16.035238 
L 116.565276 16.035238 
L 117.41969 16.035238 
L 117.41969 16.035238 
L 117.41969 16.035238 
L 118.274105 16.035238 
L 118.274105 16.035238 
L 118.274105 16.035238 
L 119.128519 16.035238 
L 119.128519 16.035238 
L 119.128519 16.035238 
L 119.982934 16.035238 
L 119.982934 16.035238 
L 119.982934 16.035238 
L 120.837348 16.035238 
L 120.837348 16.035238 
L 120.837348 16.035238 
L 121.691763 16.035238 
L 121.691763 16.035238 
L 121.691763 16.035238 
L 122.546177 16.035238 
L 122.546177 16.035238 
L 122.546177 16.035238 
L 123.400592 16.035238 
L 123.400592 16.035238 
L 123.400592 16.035238 
L 124.255006 16.035238 
L 124.255006 16.035238 
L 124.255006 16.035238 
L 125.109421 16.035238 
L 125.109421 16.035238 
L 125.109421 16.035238 
L 125.963835 16.035238 
L 125.963835 16.035238 
L 125.963835 16.035238 
L 126.81825 16.035238 
L 126.81825 16.035238 
L 126.81825 16.035238 
L 127.672664 16.035238 
L 127.672664 16.035238 
L 127.672664 16.035238 
L 128.527078 16.035238 
L 128.527078 16.035238 
L 128.527078 16.035238 
L 129.381493 16.035238 
L 129.381493 16.035238 
L 129.381493 16.035238 
L 130.235907 16.035238 
L 130.235907 16.035238 
L 130.235907 16.035238 
L 131.090322 16.035238 
L 131.090322 16.035238 
L 131.090322 16.035238 
L 131.944736 16.035238 
L 131.944736 16.035238 
L 131.944736 16.035238 
L 132.799151 16.035238 
L 132.799151 16.035238 
L 132.799151 16.035238 
L 133.653565 16.035238 
L 133.653565 16.035238 
L 133.653565 16.035238 
L 134.50798 16.035238 
L 134.50798 16.035238 
L 134.50798 16.035238 
L 135.362394 16.035238 
L 135.362394 16.035238 
L 135.362394 16.035238 
L 136.216809 16.035238 
L 136.216809 16.035238 
L 136.216809 16.035238 
L 137.071223 16.035238 
L 137.071223 16.035238 
L 137.071223 16.035238 
L 137.925638 16.035238 
L 137.925638 16.035238 
L 137.925638 16.035238 
L 138.780052 16.035238 
L 138.780052 16.035238 
L 138.780052 16.035238 
L 139.634467 16.035238 
L 139.634467 16.035238 
L 139.634467 16.035238 
L 140.488881 16.035238 
L 140.488881 16.035238 
L 140.488881 16.035238 
L 141.343296 16.035238 
L 141.343296 16.035238 
L 141.343296 16.035238 
L 142.19771 16.035238 
L 142.19771 16.035238 
L 142.19771 16.035238 
L 143.052124 16.035238 
L 143.052124 16.035238 
L 143.052124 16.035238 
L 143.906539 16.035238 
L 143.906539 70.34 
L 257.543663 70.34 
L 257.543663 16.035238 
L 371.180788 16.035238 
L 371.180788 70.34 
L 427.572143 70.34 
L 427.572143 70.34 
" style="fill:none;stroke:#1f77b4;stroke-linecap:square;stroke-width:1.5;"/>
   </g>
   <g id="patch_3">
    <path d="M 29.415 70.34 
L 29.415 13.32 
" style="fill:none;stroke:#000000;stroke-linecap:square;stroke-linejoin:miter;stroke-width:0.8;"/>
   </g>
   <g id="patch_4">
    <path d="M 29.415 70.34 
L 447.48 70.34 
" style="fill:none;stroke:#000000;stroke-linecap:square;stroke-linejoin:miter;stroke-width:0.8;"/>
   </g>
  </g>
  <g id="axes_2">
   <g id="patch_5">
    <path d="M 29.415 154.04 
L 447.48 154.04 
L 447.48 97.02 
L 29.415 97.02 
z
" style="fill:#ffffff;"/>
   </g>
   <g id="matplotlib.axis_3">
    <g id="text_3">
     <!-- t -->
     <g transform="translate(236.8725 165.099375)scale(0.1 -0.1)">
      <use xlink:href="#STIXTwoMath-74"/>
     </g>
    </g>
   </g>
   <g id="matplotlib.axis_4">
    <g id="text_4">
     <!-- $C$ -->
     <defs>
      <path d="M 68.90625 66.40625 
L 65.203125 46.40625 
L 63.40625 46.703125 
Q 61.59375 63 48.5 63 
Q 37.59375 63 28.59375 53.296875 
Q 23.296875 47.703125 20.546875 39.703125 
Q 17.796875 31.703125 17.796875 23.203125 
Q 17.796875 2.703125 35.296875 2.703125 
Q 41.5 2.703125 46.640625 5.296875 
Q 51.796875 7.90625 58.203125 14.59375 
L 60 13.09375 
Q 53.296875 5.203125 46.84375 1.703125 
Q 40.40625 -1.796875 32.703125 -1.796875 
Q 21 -1.796875 13.796875 5.140625 
Q 6.59375 12.09375 6.59375 24.296875 
Q 6.59375 34.59375 11.6875 43.9375 
Q 16.796875 53.296875 25.296875 59.296875 
Q 35.5 66.59375 47.203125 66.59375 
Q 54.09375 66.59375 58.90625 64.90625 
Q 60.90625 64.203125 63 64.203125 
Q 65.703125 64.203125 66.796875 66.40625 
z
" id="STIXGeneral-Italic-43"/>
     </defs>
     <g transform="translate(23.215 128.88)rotate(-90)scale(0.1 -0.1)">
      <use transform="translate(0 0.40625)" xlink:href="#STIXGeneral-Italic-43"/>
     </g>
    </g>
   </g>
   <g id="line2d_2">
    <path clip-path="url(#p75f3783dbd)" d="M 29.415 99.735238 
L 30.269414 99.735238 
L 30.269414 99.735238 
L 30.269414 99.735238 
L 31.123829 99.735238 
L 31.123829 99.735238 
L 31.123829 99.735238 
L 31.978243 99.735238 
L 31.978243 99.735238 
L 31.978243 99.735238 
L 32.832658 99.735238 
L 32.832658 99.735238 
L 32.832658 99.735238 
L 33.687072 99.735238 
L 33.687072 99.735238 
L 33.687072 99.735238 
L 34.541487 99.735238 
L 34.541487 99.735238 
L 34.541487 99.735238 
L 35.395901 99.735238 
L 35.395901 99.735238 
L 35.395901 99.735238 
L 36.250316 99.735238 
L 36.250316 99.735238 
L 36.250316 99.735238 
L 37.10473 99.735238 
L 37.10473 99.735238 
L 37.10473 99.735238 
L 37.959145 99.735238 
L 37.959145 99.735238 
L 37.959145 99.735238 
L 38.813559 99.735238 
L 38.813559 99.735238 
L 38.813559 99.735238 
L 39.667974 99.735238 
L 39.667974 99.735238 
L 39.667974 99.735238 
L 40.522388 99.735238 
L 40.522388 99.735238 
L 40.522388 99.735238 
L 41.376803 99.735238 
L 41.376803 99.735238 
L 41.376803 99.735238 
L 42.231217 99.735238 
L 42.231217 99.735238 
L 42.231217 99.735238 
L 43.085632 99.735238 
L 43.085632 99.735238 
L 43.085632 99.735238 
L 43.940046 99.735238 
L 43.940046 99.735238 
L 43.940046 99.735238 
L 44.79446 99.735238 
L 44.79446 99.735238 
L 44.79446 99.735238 
L 45.648875 99.735238 
L 45.648875 99.735238 
L 45.648875 99.735238 
L 46.503289 99.735238 
L 46.503289 99.735238 
L 46.503289 99.735238 
L 47.357704 99.735238 
L 47.357704 99.735238 
L 47.357704 99.735238 
L 48.212118 99.735238 
L 48.212118 99.735238 
L 48.212118 99.735238 
L 49.066533 99.735238 
L 49.066533 99.735238 
L 49.066533 99.735238 
L 49.920947 99.735238 
L 49.920947 99.735238 
L 49.920947 99.735238 
L 50.775362 99.735238 
L 50.775362 99.735238 
L 50.775362 99.735238 
L 51.629776 99.735238 
L 51.629776 99.735238 
L 51.629776 99.735238 
L 52.484191 99.735238 
L 52.484191 99.735238 
L 52.484191 99.735238 
L 53.338605 99.735238 
L 53.338605 99.735238 
L 53.338605 99.735238 
L 54.19302 99.735238 
L 54.19302 99.735238 
L 54.19302 99.735238 
L 55.047434 99.735238 
L 55.047434 99.735238 
L 55.047434 99.735238 
L 55.901849 99.735238 
L 55.901849 99.735238 
L 55.901849 99.735238 
L 56.756263 99.735238 
L 56.756263 99.735238 
L 56.756263 99.735238 
L 57.610677 99.735238 
L 57.610677 99.735238 
L 57.610677 99.735238 
L 58.465092 99.735238 
L 58.465092 154.04 
L 86.660769 154.04 
L 86.660769 99.735238 
L 114.856447 99.735238 
L 114.856447 154.04 
L 143.906539 154.04 
L 143.906539 99.735238 
L 172.102216 99.735238 
L 172.102216 154.04 
L 200.297894 154.04 
L 200.297894 99.735238 
L 229.347986 99.735238 
L 229.347986 154.04 
L 257.543663 154.04 
L 257.543663 99.735238 
L 285.739341 99.735238 
L 285.739341 154.04 
L 314.789433 154.04 
L 314.789433 99.735238 
L 342.98511 99.735238 
L 342.98511 154.04 
L 371.180788 154.04 
L 371.180788 99.735238 
L 400.23088 99.735238 
L 400.23088 154.04 
L 427.572143 154.04 
L 427.572143 154.04 
" style="fill:none;stroke:#1f77b4;stroke-linecap:square;stroke-width:1.5;"/>
   </g>
   <g id="patch_6">
    <path d="M 29.415 154.04 
L 29.415 97.02 
" style="fill:none;stroke:#000000;stroke-linecap:square;stroke-linejoin:miter;stroke-width:0.8;"/>
   </g>
   <g id="patch_7">
    <path d="M 29.415 154.04 
L 447.48 154.04 
" style="fill:none;stroke:#000000;stroke-linecap:square;stroke-linejoin:miter;stroke-width:0.8;"/>
   </g>
  </g>
  <g id="axes_3">
   <g id="patch_8">
    <path d="M 29.415 237.74 
L 447.48 237.74 
L 447.48 180.72 
L 29.415 180.72 
z
" style="fill:#ffffff;"/>
   </g>
   <g id="matplotlib.axis_5">
    <g id="text_5">
     <!-- t -->
     <g transform="translate(236.8725 248.799375)scale(0.1 -0.1)">
      <use xlink:href="#STIXTwoMath-74"/>
     </g>
    </g>
   </g>
   <g id="matplotlib.axis_6">
    <g id="text_6">
     <!-- $Q$ -->
     <defs>
      <path d="M 6.90625 -16.90625 
L 5.90625 -15.296875 
Q 11.703125 -11.203125 14.25 -9.203125 
Q 16.796875 -7.203125 23.59375 -1.203125 
Q 15.09375 0.5 10.546875 6.640625 
Q 6 12.796875 6 22.5 
Q 6 31.796875 10.59375 41 
Q 15.203125 50.203125 23.296875 57.203125 
Q 34.40625 66.59375 47.40625 66.59375 
Q 57.5 66.59375 63.703125 59.890625 
Q 69.90625 53.203125 69.90625 42.90625 
Q 69.90625 31.203125 62.796875 19.953125 
Q 55.703125 8.703125 44.296875 2.703125 
Q 37.5 -1 27.90625 -1.59375 
L 22.5 -7.296875 
L 25 -7.296875 
Q 28.5 -7.296875 37.296875 -9.296875 
Q 45.90625 -11.40625 48.40625 -11.40625 
Q 53.796875 -11.40625 57.390625 -9.75 
Q 61 -8.09375 65.203125 -3.703125 
L 66.796875 -4.796875 
Q 64.40625 -8.203125 61.59375 -10.703125 
Q 53.296875 -18.203125 42.5 -18.203125 
Q 35.90625 -18.203125 27.703125 -15.59375 
Q 22.203125 -13.796875 18.40625 -13.796875 
Q 12.5 -13.796875 6.90625 -16.90625 
z
M 59.40625 48 
Q 59.40625 55.09375 55.953125 59.1875 
Q 52.5 63.296875 46.5 63.296875 
Q 35.5 63.296875 27.09375 50.796875 
Q 22.59375 44.09375 19.546875 34.84375 
Q 16.5 25.59375 16.5 18.296875 
Q 16.5 10.796875 19.890625 6.25 
Q 23.296875 1.703125 28.90625 1.703125 
Q 40.296875 1.703125 48.703125 14.09375 
Q 53.296875 21.09375 56.34375 30.6875 
Q 59.40625 40.296875 59.40625 48 
z
" id="STIXGeneral-Italic-51"/>
     </defs>
     <g transform="translate(23.215 212.88)rotate(-90)scale(0.1 -0.1)">
      <use transform="translate(0 0.40625)" xlink:href="#STIXGeneral-Italic-51"/>
     </g>
    </g>
   </g>
   <g id="line2d_3">
    <path clip-path="url(#p7b541078f1)" d="M 29.415 235.148182 
L 30.269414 235.148182 
L 30.269414 183.311818 
L 143.906539 183.311818 
L 143.906539 235.148182 
L 257.543663 235.148182 
L 257.543663 183.311818 
L 372.035202 183.311818 
L 372.035202 235.148182 
L 427.572143 235.148182 
L 427.572143 235.148182 
" style="fill:none;stroke:#1f77b4;stroke-linecap:square;stroke-width:1.5;"/>
   </g>
   <g id="patch_9">
    <path d="M 29.415 237.74 
L 29.415 180.72 
" style="fill:none;stroke:#000000;stroke-linecap:square;stroke-linejoin:miter;stroke-width:0.8;"/>
   </g>
   <g id="patch_10">
    <path d="M 29.415 237.74 
L 447.48 237.74 
" style="fill:none;stroke:#000000;stroke-linecap:square;stroke-linejoin:miter;stroke-width:0.8;"/>
   </g>
  </g>
  <g id="axes_4">
   <g id="patch_11">
    <path d="M 29.415 321.44 
L 447.48 321.44 
L 447.48 264.42 
L 29.415 264.42 
z
" style="fill:#ffffff;"/>
   </g>
   <g id="matplotlib.axis_7">
    <g id="text_7">
     <!-- t -->
     <g transform="translate(236.8725 332.499375)scale(0.1 -0.1)">
      <use xlink:href="#STIXTwoMath-74"/>
     </g>
    </g>
   </g>
   <g id="matplotlib.axis_8">
    <g id="text_8">
     <!-- $\overline{Q}$ -->
     <g transform="translate(23.215 296.58)rotate(-90)scale(0.1 -0.1)">
      <use transform="translate(0 1.15625)" xlink:href="#STIXGeneral-Italic-51"/>
      <path d="M 0 79.5 
L 0 85.75 
L 72.199982 85.75 
L 72.199982 79.5 
L 0 79.5 
z
"/>
     </g>
    </g>
   </g>
   <g id="line2d_4">
    <path clip-path="url(#p1eb3d6d255)" d="M 29.415 318.848182 
L 30.269414 318.848182 
L 30.269414 318.848182 
L 30.269414 318.848182 
L 31.123829 318.848182 
L 31.123829 318.848182 
L 31.123829 318.848182 
L 31.978243 318.848182 
L 31.978243 318.848182 
L 31.978243 318.848182 
L 32.832658 318.848182 
L 32.832658 318.848182 
L 32.832658 318.848182 
L 33.687072 318.848182 
L 33.687072 318.848182 
L 33.687072 318.848182 
L 34.541487 318.848182 
L 34.541487 318.848182 
L 34.541487 318.848182 
L 35.395901 318.848182 
L 35.395901 318.848182 
L 35.395901 318.848182 
L 36.250316 318.848182 
L 36.250316 318.848182 
L 36.250316 318.848182 
L 37.10473 318.848182 
L 37.10473 318.848182 
L 37.10473 318.848182 
L 37.959145 318.848182 
L 37.959145 318.848182 
L 37.959145 318.848182 
L 38.813559 318.848182 
L 38.813559 318.848182 
L 38.813559 318.848182 
L 39.667974 318.848182 
L 39.667974 318.848182 
L 39.667974 318.848182 
L 40.522388 318.848182 
L 40.522388 318.848182 
L 40.522388 318.848182 
L 41.376803 318.848182 
L 41.376803 318.848182 
L 41.376803 318.848182 
L 42.231217 318.848182 
L 42.231217 318.848182 
L 42.231217 318.848182 
L 43.085632 318.848182 
L 43.085632 318.848182 
L 43.085632 318.848182 
L 43.940046 318.848182 
L 43.940046 318.848182 
L 43.940046 318.848182 
L 44.79446 318.848182 
L 44.79446 318.848182 
L 44.79446 318.848182 
L 45.648875 318.848182 
L 45.648875 318.848182 
L 45.648875 318.848182 
L 46.503289 318.848182 
L 46.503289 318.848182 
L 46.503289 318.848182 
L 47.357704 318.848182 
L 47.357704 318.848182 
L 47.357704 318.848182 
L 48.212118 318.848182 
L 48.212118 318.848182 
L 48.212118 318.848182 
L 49.066533 318.848182 
L 49.066533 318.848182 
L 49.066533 318.848182 
L 49.920947 318.848182 
L 49.920947 318.848182 
L 49.920947 318.848182 
L 50.775362 318.848182 
L 50.775362 318.848182 
L 50.775362 318.848182 
L 51.629776 318.848182 
L 51.629776 318.848182 
L 51.629776 318.848182 
L 52.484191 318.848182 
L 52.484191 318.848182 
L 52.484191 318.848182 
L 53.338605 318.848182 
L 53.338605 318.848182 
L 53.338605 318.848182 
L 54.19302 318.848182 
L 54.19302 318.848182 
L 54.19302 318.848182 
L 55.047434 318.848182 
L 55.047434 318.848182 
L 55.047434 318.848182 
L 55.901849 318.848182 
L 55.901849 318.848182 
L 55.901849 318.848182 
L 56.756263 318.848182 
L 56.756263 318.848182 
L 56.756263 318.848182 
L 57.610677 318.848182 
L 57.610677 318.848182 
L 57.610677 318.848182 
L 58.465092 318.848182 
L 58.465092 318.848182 
L 58.465092 318.848182 
L 59.319506 318.848182 
L 59.319506 318.848182 
L 59.319506 318.848182 
L 60.173921 318.848182 
L 60.173921 318.848182 
L 60.173921 318.848182 
L 61.028335 318.848182 
L 61.028335 318.848182 
L 61.028335 318.848182 
L 61.88275 318.848182 
L 61.88275 318.848182 
L 61.88275 318.848182 
L 62.737164 318.848182 
L 62.737164 318.848182 
L 62.737164 318.848182 
L 63.591579 318.848182 
L 63.591579 318.848182 
L 63.591579 318.848182 
L 64.445993 318.848182 
L 64.445993 318.848182 
L 64.445993 318.848182 
L 65.300408 318.848182 
L 65.300408 318.848182 
L 65.300408 318.848182 
L 66.154822 318.848182 
L 66.154822 318.848182 
L 66.154822 318.848182 
L 67.009237 318.848182 
L 67.009237 318.848182 
L 67.009237 318.848182 
L 67.863651 318.848182 
L 67.863651 318.848182 
L 67.863651 318.848182 
L 68.718066 318.848182 
L 68.718066 318.848182 
L 68.718066 318.848182 
L 69.57248 318.848182 
L 69.57248 318.848182 
L 69.57248 318.848182 
L 70.426895 318.848182 
L 70.426895 318.848182 
L 70.426895 318.848182 
L 71.281309 318.848182 
L 71.281309 318.848182 
L 71.281309 318.848182 
L 72.135723 318.848182 
L 72.135723 318.848182 
L 72.135723 318.848182 
L 72.990138 318.848182 
L 72.990138 318.848182 
L 72.990138 318.848182 
L 73.844552 318.848182 
L 73.844552 318.848182 
L 73.844552 318.848182 
L 74.698967 318.848182 
L 74.698967 318.848182 
L 74.698967 318.848182 
L 75.553381 318.848182 
L 75.553381 318.848182 
L 75.553381 318.848182 
L 76.407796 318.848182 
L 76.407796 318.848182 
L 76.407796 318.848182 
L 77.26221 318.848182 
L 77.26221 318.848182 
L 77.26221 318.848182 
L 78.116625 318.848182 
L 78.116625 318.848182 
L 78.116625 318.848182 
L 78.971039 318.848182 
L 78.971039 318.848182 
L 78.971039 318.848182 
L 79.825454 318.848182 
L 79.825454 318.848182 
L 79.825454 318.848182 
L 80.679868 318.848182 
L 80.679868 318.848182 
L 80.679868 318.848182 
L 81.534283 318.848182 
L 81.534283 318.848182 
L 81.534283 318.848182 
L 82.388697 318.848182 
L 82.388697 318.848182 
L 82.388697 318.848182 
L 83.243112 318.848182 
L 83.243112 318.848182 
L 83.243112 318.848182 
L 84.097526 318.848182 
L 84.097526 318.848182 
L 84.097526 318.848182 
L 84.951941 318.848182 
L 84.951941 318.848182 
L 84.951941 318.848182 
L 85.806355 318.848182 
L 85.806355 318.848182 
L 85.806355 318.848182 
L 86.660769 318.848182 
L 86.660769 318.848182 
L 86.660769 318.848182 
L 87.515184 318.848182 
L 87.515184 318.848182 
L 87.515184 318.848182 
L 88.369598 318.848182 
L 88.369598 318.848182 
L 88.369598 318.848182 
L 89.224013 318.848182 
L 89.224013 318.848182 
L 89.224013 318.848182 
L 90.078427 318.848182 
L 90.078427 318.848182 
L 90.078427 318.848182 
L 90.932842 318.848182 
L 90.932842 318.848182 
L 90.932842 318.848182 
L 91.787256 318.848182 
L 91.787256 318.848182 
L 91.787256 318.848182 
L 92.641671 318.848182 
L 92.641671 318.848182 
L 92.641671 318.848182 
L 93.496085 318.848182 
L 93.496085 318.848182 
L 93.496085 318.848182 
L 94.3505 318.848182 
L 94.3505 318.848182 
L 94.3505 318.848182 
L 95.204914 318.848182 
L 95.204914 318.848182 
L 95.204914 318.848182 
L 96.059329 318.848182 
L 96.059329 318.848182 
L 96.059329 318.848182 
L 96.913743 318.848182 
L 96.913743 318.848182 
L 96.913743 318.848182 
L 97.768158 318.848182 
L 97.768158 318.848182 
L 97.768158 318.848182 
L 98.622572 318.848182 
L 98.622572 318.848182 
L 98.622572 318.848182 
L 99.476987 318.848182 
L 99.476987 318.848182 
L 99.476987 318.848182 
L 100.331401 318.848182 
L 100.331401 318.848182 
L 100.331401 318.848182 
L 101.185815 318.848182 
L 101.185815 318.848182 
L 101.185815 318.848182 
L 102.04023 318.848182 
L 102.04023 318.848182 
L 102.04023 318.848182 
L 102.894644 318.848182 
L 102.894644 318.848182 
L 102.894644 318.848182 
L 103.749059 318.848182 
L 103.749059 318.848182 
L 103.749059 318.848182 
L 104.603473 318.848182 
L 104.603473 318.848182 
L 104.603473 318.848182 
L 105.457888 318.848182 
L 105.457888 318.848182 
L 105.457888 318.848182 
L 106.312302 318.848182 
L 106.312302 318.848182 
L 106.312302 318.848182 
L 107.166717 318.848182 
L 107.166717 318.848182 
L 107.166717 318.848182 
L 108.021131 318.848182 
L 108.021131 318.848182 
L 108.021131 318.848182 
L 108.875546 318.848182 
L 108.875546 318.848182 
L 108.875546 318.848182 
L 109.72996 318.848182 
L 109.72996 318.848182 
L 109.72996 318.848182 
L 110.584375 318.848182 
L 110.584375 318.848182 
L 110.584375 318.848182 
L 111.438789 318.848182 
L 111.438789 318.848182 
L 111.438789 318.848182 
L 112.293204 318.848182 
L 112.293204 318.848182 
L 112.293204 318.848182 
L 113.147618 318.848182 
L 113.147618 318.848182 
L 113.147618 318.848182 
L 114.002032 318.848182 
L 114.002032 318.848182 
L 114.002032 318.848182 
L 114.856447 318.848182 
L 114.856447 318.848182 
L 114.856447 318.848182 
L 115.710861 318.848182 
L 115.710861 318.848182 
L 115.710861 318.848182 
L 116.565276 318.848182 
L 116.565276 318.848182 
L 116.565276 318.848182 
L 117.41969 318.848182 
L 117.41969 318.848182 
L 117.41969 318.848182 
L 118.274105 318.848182 
L 118.274105 318.848182 
L 118.274105 318.848182 
L 119.128519 318.848182 
L 119.128519 318.848182 
L 119.128519 318.848182 
L 119.982934 318.848182 
L 119.982934 318.848182 
L 119.982934 318.848182 
L 120.837348 318.848182 
L 120.837348 318.848182 
L 120.837348 318.848182 
L 121.691763 318.848182 
L 121.691763 318.848182 
L 121.691763 318.848182 
L 122.546177 318.848182 
L 122.546177 318.848182 
L 122.546177 318.848182 
L 123.400592 318.848182 
L 123.400592 318.848182 
L 123.400592 318.848182 
L 124.255006 318.848182 
L 124.255006 318.848182 
L 124.255006 318.848182 
L 125.109421 318.848182 
L 125.109421 318.848182 
L 125.109421 318.848182 
L 125.963835 318.848182 
L 125.963835 318.848182 
L 125.963835 318.848182 
L 126.81825 318.848182 
L 126.81825 318.848182 
L 126.81825 318.848182 
L 127.672664 318.848182 
L 127.672664 318.848182 
L 127.672664 318.848182 
L 128.527078 318.848182 
L 128.527078 318.848182 
L 128.527078 318.848182 
L 129.381493 318.848182 
L 129.381493 318.848182 
L 129.381493 318.848182 
L 130.235907 318.848182 
L 130.235907 318.848182 
L 130.235907 318.848182 
L 131.090322 318.848182 
L 131.090322 318.848182 
L 131.090322 318.848182 
L 131.944736 318.848182 
L 131.944736 318.848182 
L 131.944736 318.848182 
L 132.799151 318.848182 
L 132.799151 318.848182 
L 132.799151 318.848182 
L 133.653565 318.848182 
L 133.653565 318.848182 
L 133.653565 318.848182 
L 134.50798 318.848182 
L 134.50798 318.848182 
L 134.50798 318.848182 
L 135.362394 318.848182 
L 135.362394 318.848182 
L 135.362394 318.848182 
L 136.216809 318.848182 
L 136.216809 318.848182 
L 136.216809 318.848182 
L 137.071223 318.848182 
L 137.071223 318.848182 
L 137.071223 318.848182 
L 137.925638 318.848182 
L 137.925638 318.848182 
L 137.925638 318.848182 
L 138.780052 318.848182 
L 138.780052 318.848182 
L 138.780052 318.848182 
L 139.634467 318.848182 
L 139.634467 318.848182 
L 139.634467 318.848182 
L 140.488881 318.848182 
L 140.488881 318.848182 
L 140.488881 318.848182 
L 141.343296 318.848182 
L 141.343296 318.848182 
L 141.343296 318.848182 
L 142.19771 318.848182 
L 142.19771 318.848182 
L 142.19771 318.848182 
L 143.052124 318.848182 
L 143.052124 318.848182 
L 143.052124 318.848182 
L 143.906539 318.848182 
L 143.906539 267.011818 
L 257.543663 267.011818 
L 257.543663 318.848182 
L 372.035202 318.848182 
L 372.035202 267.011818 
L 427.572143 267.011818 
L 427.572143 267.011818 
" style="fill:none;stroke:#1f77b4;stroke-linecap:square;stroke-width:1.5;"/>
   </g>
   <g id="patch_12">
    <path d="M 29.415 321.44 
L 29.415 264.42 
" style="fill:none;stroke:#000000;stroke-linecap:square;stroke-linejoin:miter;stroke-width:0.8;"/>
   </g>
   <g id="patch_13">
    <path d="M 29.415 321.44 
L 447.48 321.44 
" style="fill:none;stroke:#000000;stroke-linecap:square;stroke-linejoin:miter;stroke-width:0.8;"/>
   </g>
  </g>
 </g>
 <defs>
  <clipPath id="pdc8c46f30c">
   <rect height="57.02" width="418.065" x="29.415" y="13.32"/>
  </clipPath>
  <clipPath id="p75f3783dbd">
   <rect height="57.02" width="418.065" x="29.415" y="97.02"/>
  </clipPath>
  <clipPath id="p7b541078f1">
   <rect height="57.02" width="418.065" x="29.415" y="180.72"/>
  </clipPath>
  <clipPath id="p1eb3d6d255">
   <rect height="57.02" width="418.065" x="29.415" y="264.42"/>
  </clipPath>
 </defs>
</svg>
