<?xml version="1.0" encoding="utf-8" standalone="no"?>
<!DOCTYPE svg PUBLIC "-//W3C//DTD SVG 1.1//EN"
  "http://www.w3.org/Graphics/SVG/1.1/DTD/svg11.dtd">
<!-- Created with matplotlib (http://matplotlib.org/) -->
<svg height="252pt" version="1.1" viewBox="0 0 432 252" width="432pt" xmlns="http://www.w3.org/2000/svg" xmlns:xlink="http://www.w3.org/1999/xlink">
 <defs>
  <style type="text/css">
*{stroke-linecap:butt;stroke-linejoin:round;}
  </style>
 </defs>
 <g id="figure_1">
  <g id="patch_1">
   <path d="M 0 252 
L 432 252 
L 432 0 
L 0 0 
z
" style="fill:#ffffff;"/>
  </g>
  <g id="axes_1">
   <g id="patch_2">
    <path d="M 51.608 90.71125 
L 418.68 90.71125 
L 418.68 13.32 
L 51.608 13.32 
z
" style="fill:#ffffff;"/>
   </g>
   <g id="matplotlib.axis_1">
    <g id="xtick_1">
     <g id="line2d_1">
      <path clip-path="url(#pcdb057ef34)" d="M 82.197333 90.71125 
L 82.197333 13.32 
" style="fill:none;stroke:#b0b0b0;stroke-linecap:square;stroke-width:0.8;"/>
     </g>
     <g id="line2d_2">
      <defs>
       <path d="M 0 0 
L 0 3.5 
" id="m964b086167" style="stroke:#000000;stroke-width:0.8;"/>
      </defs>
      <g>
       <use style="stroke:#000000;stroke-width:0.8;" x="82.197333" xlink:href="#m964b086167" y="90.71125"/>
      </g>
     </g>
     <g id="text_1">
      <!-- 1.0 -->
      <defs>
       <path d="M 42.59375 0 
L 42.59375 2.796875 
C 33.40625 2.796875 29.703125 4.59375 29.703125 9.5 
L 29.703125 63.90625 
L 26.796875 63.90625 
L 7.40625 58.40625 
L 7.40625 55.09375 
C 10.5 56.09375 15.59375 56.703125 17.59375 56.703125 
C 20.09375 56.703125 20.90625 55.296875 20.90625 51.796875 
L 20.90625 9.5 
C 20.90625 4.5 17.40625 2.796875 8 2.796875 
L 8 0 
z
" id="STIXTwoMath-31"/>
       <path d="M 18.203125 4.90625 
C 18.203125 8.203125 16.09375 11.09375 12.296875 11.09375 
C 8.59375 11.09375 6.40625 8.296875 6.40625 5 
C 6.40625 1.59375 8.296875 -0.796875 12.203125 -0.796875 
C 16.09375 -0.796875 18.203125 1.796875 18.203125 4.90625 
z
" id="STIXTwoMath-2e"/>
       <path d="M 46.796875 31.703125 
C 46.796875 52.296875 37.796875 64.203125 24.90625 64.203125 
C 10.40625 64.203125 2.703125 51 2.703125 32 
C 2.703125 14.296875 8.59375 -1.09375 24.703125 -1.09375 
C 40.40625 -1.09375 46.796875 14.59375 46.796875 31.703125 
z
M 37.09375 31.09375 
C 37.09375 11.90625 32.59375 2.5 24.703125 2.5 
C 16.703125 2.5 12.296875 12.09375 12.296875 31.5 
C 12.296875 51.296875 16.703125 60.796875 24.59375 60.796875 
C 32.796875 60.796875 37.09375 51.40625 37.09375 31.09375 
z
" id="STIXTwoMath-30"/>
      </defs>
      <g transform="translate(76.017646 104.770625)scale(0.1 -0.1)">
       <use xlink:href="#STIXTwoMath-31"/>
       <use x="49.499985" xlink:href="#STIXTwoMath-2e"/>
       <use x="74.099976" xlink:href="#STIXTwoMath-30"/>
      </g>
     </g>
    </g>
    <g id="xtick_2">
     <g id="line2d_3">
      <path clip-path="url(#pcdb057ef34)" d="M 143.376 90.71125 
L 143.376 13.32 
" style="fill:none;stroke:#b0b0b0;stroke-linecap:square;stroke-width:0.8;"/>
     </g>
     <g id="line2d_4">
      <g>
       <use style="stroke:#000000;stroke-width:0.8;" x="143.376" xlink:href="#m964b086167" y="90.71125"/>
      </g>
     </g>
     <g id="text_2">
      <!-- 1.1 -->
      <g transform="translate(137.196313 104.770625)scale(0.1 -0.1)">
       <use xlink:href="#STIXTwoMath-31"/>
       <use x="49.499985" xlink:href="#STIXTwoMath-2e"/>
       <use x="74.099976" xlink:href="#STIXTwoMath-31"/>
      </g>
     </g>
    </g>
    <g id="xtick_3">
     <g id="line2d_5">
      <path clip-path="url(#pcdb057ef34)" d="M 204.554667 90.71125 
L 204.554667 13.32 
" style="fill:none;stroke:#b0b0b0;stroke-linecap:square;stroke-width:0.8;"/>
     </g>
     <g id="line2d_6">
      <g>
       <use style="stroke:#000000;stroke-width:0.8;" x="204.554667" xlink:href="#m964b086167" y="90.71125"/>
      </g>
     </g>
     <g id="text_3">
      <!-- 1.2 -->
      <defs>
       <path d="M 46.40625 16 
L 43.5 16 
C 41.203125 10 39.90625 7.90625 34.59375 7.90625 
L 20.703125 7.90625 
L 13.703125 7.59375 
L 13.703125 8.09375 
L 26.90625 20.59375 
C 37.5 31.296875 43.203125 38.203125 43.203125 47.09375 
C 43.203125 57.59375 35.296875 64.40625 24 64.40625 
C 14.296875 64.40625 7.5 58.796875 4.40625 49.09375 
L 6.796875 48.09375 
C 10.5 55.59375 14.90625 57.90625 21.40625 57.90625 
C 29.09375 57.90625 33.90625 53.09375 33.90625 45.59375 
C 33.90625 35.09375 28.90625 28.796875 19 18.59375 
L 3.796875 3.40625 
L 3.796875 0 
L 43.203125 0 
z
" id="STIXTwoMath-32"/>
      </defs>
      <g transform="translate(198.374979 104.770625)scale(0.1 -0.1)">
       <use xlink:href="#STIXTwoMath-31"/>
       <use x="49.499985" xlink:href="#STIXTwoMath-2e"/>
       <use x="74.099976" xlink:href="#STIXTwoMath-32"/>
      </g>
     </g>
    </g>
    <g id="xtick_4">
     <g id="line2d_7">
      <path clip-path="url(#pcdb057ef34)" d="M 265.733333 90.71125 
L 265.733333 13.32 
" style="fill:none;stroke:#b0b0b0;stroke-linecap:square;stroke-width:0.8;"/>
     </g>
     <g id="line2d_8">
      <g>
       <use style="stroke:#000000;stroke-width:0.8;" x="265.733333" xlink:href="#m964b086167" y="90.71125"/>
      </g>
     </g>
     <g id="text_4">
      <!-- 1.3 -->
      <defs>
       <path d="M 8.59375 49.796875 
C 12 55.09375 15.703125 57.90625 21.703125 57.90625 
C 27.90625 57.90625 31.90625 54.5 31.90625 48.59375 
C 31.90625 40.5 24.796875 35 18 35 
L 16.09375 35 
L 16.09375 31.203125 
L 18.09375 31.203125 
C 27.703125 31.203125 36.203125 25.296875 36.203125 16.40625 
C 36.203125 6.59375 30.09375 3.703125 23.796875 3.703125 
C 21.40625 3.703125 20 4.09375 15.703125 6.296875 
C 12.203125 8.09375 11.40625 8.59375 9.796875 8.59375 
C 7.203125 8.59375 5.90625 6.296875 5.90625 4.203125 
C 5.90625 1.59375 8.09375 -1.296875 17.09375 -1.296875 
C 31.703125 -1.296875 44.40625 5.703125 44.40625 19.40625 
C 44.40625 28.296875 37.703125 33.59375 29.703125 36.09375 
L 29.703125 36.40625 
C 36 40.40625 40.5 44.09375 40.5 51 
C 40.5 58.59375 34.59375 64.40625 24.40625 64.40625 
C 16.203125 64.40625 10 59.796875 6.296875 51.09375 
z
" id="STIXTwoMath-33"/>
      </defs>
      <g transform="translate(259.553646 104.770625)scale(0.1 -0.1)">
       <use xlink:href="#STIXTwoMath-31"/>
       <use x="49.499985" xlink:href="#STIXTwoMath-2e"/>
       <use x="74.099976" xlink:href="#STIXTwoMath-33"/>
      </g>
     </g>
    </g>
    <g id="xtick_5">
     <g id="line2d_9">
      <path clip-path="url(#pcdb057ef34)" d="M 326.912 90.71125 
L 326.912 13.32 
" style="fill:none;stroke:#b0b0b0;stroke-linecap:square;stroke-width:0.8;"/>
     </g>
     <g id="line2d_10">
      <g>
       <use style="stroke:#000000;stroke-width:0.8;" x="326.912" xlink:href="#m964b086167" y="90.71125"/>
      </g>
     </g>
     <g id="text_5">
      <!-- 1.4 -->
      <defs>
       <path d="M 48.09375 15.796875 
L 48.09375 22.703125 
L 37.90625 22.703125 
L 37.90625 64.5 
L 31.796875 64.5 
L 1.296875 22.09375 
L 1.296875 15.796875 
L 29 15.796875 
L 29 0 
L 37.90625 0 
L 37.90625 15.796875 
z
M 29 22.703125 
L 6.796875 22.703125 
L 6.796875 23.09375 
L 28.59375 53.59375 
L 29 53.59375 
z
" id="STIXTwoMath-34"/>
      </defs>
      <g transform="translate(320.732313 104.770625)scale(0.1 -0.1)">
       <use xlink:href="#STIXTwoMath-31"/>
       <use x="49.499985" xlink:href="#STIXTwoMath-2e"/>
       <use x="74.099976" xlink:href="#STIXTwoMath-34"/>
      </g>
     </g>
    </g>
    <g id="xtick_6">
     <g id="line2d_11">
      <path clip-path="url(#pcdb057ef34)" d="M 388.090667 90.71125 
L 388.090667 13.32 
" style="fill:none;stroke:#b0b0b0;stroke-linecap:square;stroke-width:0.8;"/>
     </g>
     <g id="line2d_12">
      <g>
       <use style="stroke:#000000;stroke-width:0.8;" x="388.090667" xlink:href="#m964b086167" y="90.71125"/>
      </g>
     </g>
     <g id="text_6">
      <!-- 1.5 -->
      <defs>
       <path d="M 41.703125 54.90625 
L 43.296875 63 
L 15.90625 63 
L 9.703125 36.90625 
L 10.90625 35.40625 
C 12.296875 35.40625 12.796875 35.40625 15.40625 35.203125 
C 29.203125 34.5 37 30.40625 37 17.90625 
C 37 7.5 30.703125 3.703125 23.59375 3.703125 
C 17.203125 3.703125 13.90625 8.59375 9.90625 8.59375 
C 7.40625 8.59375 5.90625 6.59375 5.90625 4.296875 
C 5.90625 0.59375 9.703125 -1.296875 17.40625 -1.296875 
C 33.296875 -1.296875 44.296875 6.5 44.296875 21.90625 
C 44.296875 37.59375 32 42.296875 20.203125 43.203125 
L 15.5 43.5 
L 18.203125 54.90625 
z
" id="STIXTwoMath-35"/>
      </defs>
      <g transform="translate(381.910979 104.770625)scale(0.1 -0.1)">
       <use xlink:href="#STIXTwoMath-31"/>
       <use x="49.499985" xlink:href="#STIXTwoMath-2e"/>
       <use x="74.099976" xlink:href="#STIXTwoMath-35"/>
      </g>
     </g>
    </g>
    <g id="text_7">
     <!-- t (с) -->
     <defs>
      <path d="M 29.296875 9 
C 26.796875 6.203125 25.5 4.90625 22.296875 4.90625 
C 18.40625 4.90625 17.5 7.296875 17.5 14.40625 
L 17.5 43.09375 
L 28.796875 43.09375 
L 28.796875 47.296875 
L 17.5 47.296875 
L 17.59375 61 
L 15 61 
C 11.40625 52.5 8.40625 48.296875 3.703125 45.40625 
L 3.703125 43.09375 
L 9.203125 43.09375 
L 9.203125 11.59375 
C 9.203125 2.59375 12.09375 -1 18.796875 -1 
C 25.203125 -1 27.296875 2 31.203125 7.40625 
z
" id="STIXTwoMath-74"/>
      <path id="STIXTwoMath-20"/>
      <path d="M 4.296875 27.40625 
C 4.296875 5.40625 14.796875 -10.296875 30.90625 -18.59375 
L 32.5 -15.796875 
C 17.90625 -6.203125 12.5 7.296875 12.5 27.40625 
C 12.5 47.296875 17.90625 60.703125 32.5 70.40625 
L 30.90625 73 
C 14.796875 64.796875 4.296875 49.203125 4.296875 27.40625 
z
" id="STIXTwoMath-28"/>
      <path d="M 40.796875 14.796875 
C 36.296875 9 32.90625 6.5 26.40625 6.5 
C 16.09375 6.5 11.203125 15.09375 11.203125 27.296875 
C 11.203125 38.796875 16.09375 44.796875 24.203125 44.796875 
C 32.796875 44.796875 29.5 33.40625 36.90625 33.40625 
C 39.703125 33.40625 41.09375 35 41.09375 37.90625 
C 41.09375 43.703125 35.296875 48.5 25.90625 48.5 
C 11.5 48.5 3.296875 38.296875 3.296875 22.59375 
C 3.296875 8.703125 10.796875 -1 23.296875 -1 
C 34 -1 38.90625 5.296875 42.703125 13.40625 
z
" id="STIXTwoMath-441"/>
      <path d="M 31.296875 27.40625 
C 31.296875 49.203125 20.796875 64.796875 4.703125 73 
L 3.09375 70.40625 
C 17.703125 60.703125 23.09375 47.296875 23.09375 27.40625 
C 23.09375 7.296875 17.703125 -6.203125 3.09375 -15.796875 
L 4.703125 -18.59375 
C 20.796875 -10.296875 31.296875 5.40625 31.296875 27.40625 
z
" id="STIXTwoMath-29"/>
     </defs>
     <g transform="translate(226.604938 118.03)scale(0.1 -0.1)">
      <use xlink:href="#STIXTwoMath-74"/>
      <use x="31.499985" xlink:href="#STIXTwoMath-20"/>
      <use x="54.999969" xlink:href="#STIXTwoMath-28"/>
      <use x="90.59996" xlink:href="#STIXTwoMath-441"/>
      <use x="135.199951" xlink:href="#STIXTwoMath-29"/>
     </g>
    </g>
    <g id="text_8">
     <!-- 1e−6 -->
     <defs>
      <path d="M 41.5 14.296875 
C 38.296875 10.09375 35.203125 6.5 27.09375 6.5 
C 19.09375 6.5 11.5 12.796875 11.5 26.59375 
L 43.09375 26.59375 
C 42.59375 40.59375 35.40625 48.5 24.5 48.5 
C 12.796875 48.5 3.40625 40.5 3.40625 23.796875 
C 3.40625 7.703125 12.703125 -1 24.703125 -1 
C 35 -1 39.796875 5.296875 43.40625 12.90625 
z
M 11.40625 30.296875 
C 12.203125 39.59375 16.203125 44.5 23 44.5 
C 30.09375 44.5 33.40625 37.703125 33.703125 30.296875 
z
" id="STIXTwoMath-65"/>
      <path d="M 65.796875 22.5 
L 65.796875 29.296875 
L 6.203125 29.296875 
L 6.203125 22.5 
z
" id="STIXTwoMath-2212"/>
      <path d="M 41.5 64.59375 
C 20 63.703125 4.5 49.796875 4.5 25.703125 
C 4.5 11 11 -1.203125 25.90625 -1.203125 
C 38.5 -1.203125 45.703125 6.703125 45.703125 20.296875 
C 45.703125 33.40625 38.59375 41.296875 27.703125 41.296875 
C 22.5 41.296875 18.796875 39.09375 14.703125 35.09375 
L 14 35.203125 
C 16.5 49.796875 27.703125 59.59375 41.703125 61.703125 
z
M 37 19.5 
C 37 6.796875 33 2.296875 26.296875 2.296875 
C 17.59375 2.296875 13.5 11.203125 13.5 23.59375 
C 13.5 32.296875 18.90625 35.5 24.703125 35.5 
C 33 35.5 37 28.5 37 19.5 
z
" id="STIXTwoMath-36"/>
     </defs>
     <g transform="translate(396.939375 117.03)scale(0.1 -0.1)">
      <use xlink:href="#STIXTwoMath-31"/>
      <use x="49.499985" xlink:href="#STIXTwoMath-65"/>
      <use x="95.899979" xlink:href="#STIXTwoMath-2212"/>
      <use x="167.899963" xlink:href="#STIXTwoMath-36"/>
     </g>
    </g>
   </g>
   <g id="matplotlib.axis_2">
    <g id="ytick_1">
     <g id="line2d_13">
      <path clip-path="url(#pcdb057ef34)" d="M 51.608 78.465129 
L 418.68 78.465129 
" style="fill:none;stroke:#b0b0b0;stroke-linecap:square;stroke-width:0.8;"/>
     </g>
     <g id="line2d_14">
      <defs>
       <path d="M 0 0 
L -3.5 0 
" id="m24bbeac699" style="stroke:#000000;stroke-width:0.8;"/>
      </defs>
      <g>
       <use style="stroke:#000000;stroke-width:0.8;" x="51.608" xlink:href="#m24bbeac699" y="78.465129"/>
      </g>
     </g>
     <g id="text_9">
      <!-- −10 -->
      <g transform="translate(27.508 81.994817)scale(0.1 -0.1)">
       <use xlink:href="#STIXTwoMath-2212"/>
       <use x="71.999985" xlink:href="#STIXTwoMath-31"/>
       <use x="121.499969" xlink:href="#STIXTwoMath-30"/>
      </g>
     </g>
    </g>
    <g id="ytick_2">
     <g id="line2d_15">
      <path clip-path="url(#pcdb057ef34)" d="M 51.608 52.015625 
L 418.68 52.015625 
" style="fill:none;stroke:#b0b0b0;stroke-linecap:square;stroke-width:0.8;"/>
     </g>
     <g id="line2d_16">
      <g>
       <use style="stroke:#000000;stroke-width:0.8;" x="51.608" xlink:href="#m24bbeac699" y="52.015625"/>
      </g>
     </g>
     <g id="text_10">
      <!-- 0 -->
      <g transform="translate(39.658 55.545312)scale(0.1 -0.1)">
       <use xlink:href="#STIXTwoMath-30"/>
      </g>
     </g>
    </g>
    <g id="ytick_3">
     <g id="line2d_17">
      <path clip-path="url(#pcdb057ef34)" d="M 51.608 25.566121 
L 418.68 25.566121 
" style="fill:none;stroke:#b0b0b0;stroke-linecap:square;stroke-width:0.8;"/>
     </g>
     <g id="line2d_18">
      <g>
       <use style="stroke:#000000;stroke-width:0.8;" x="51.608" xlink:href="#m24bbeac699" y="25.566121"/>
      </g>
     </g>
     <g id="text_11">
      <!-- 10 -->
      <g transform="translate(34.708 29.095808)scale(0.1 -0.1)">
       <use xlink:href="#STIXTwoMath-31"/>
       <use x="49.499985" xlink:href="#STIXTwoMath-30"/>
      </g>
     </g>
    </g>
    <g id="text_12">
     <!-- $U_{Е}\ (В)$ -->
     <defs>
      <path d="M 15.484375 72.90625 
L 25.390625 72.90625 
L 16.796875 28.609375 
Q 16.265625 25.640625 16.046875 23.703125 
Q 15.828125 21.78125 15.828125 20.3125 
Q 15.828125 13.578125 19.578125 10.078125 
Q 23.34375 6.59375 30.609375 6.59375 
Q 40.046875 6.59375 45.28125 11.765625 
Q 50.53125 16.9375 52.78125 28.609375 
L 61.375 72.90625 
L 71.296875 72.90625 
L 62.5 27.390625 
Q 59.625 12.640625 51.5625 5.609375 
Q 43.5 -1.421875 29.5 -1.421875 
Q 18.5625 -1.421875 12.1875 4.078125 
Q 5.8125 9.578125 5.8125 19 
Q 5.8125 20.703125 6.046875 22.828125 
Q 6.296875 24.953125 6.78125 27.390625 
z
" id="DejaVuSans-Oblique-55"/>
      <path d="M 16.890625 72.90625 
L 62.984375 72.90625 
L 61.375 64.59375 
L 25.09375 64.59375 
L 20.90625 43.015625 
L 55.71875 43.015625 
L 54.109375 34.71875 
L 19.28125 34.71875 
L 14.203125 8.296875 
L 51.3125 8.296875 
L 49.703125 0 
L 2.6875 0 
z
" id="DejaVuSans-Oblique-415"/>
      <path d="M 31 75.875 
Q 24.46875 64.65625 21.28125 53.65625 
Q 18.109375 42.671875 18.109375 31.390625 
Q 18.109375 20.125 21.3125 9.0625 
Q 24.515625 -2 31 -13.1875 
L 23.1875 -13.1875 
Q 15.875 -1.703125 12.234375 9.375 
Q 8.59375 20.453125 8.59375 31.390625 
Q 8.59375 42.28125 12.203125 53.3125 
Q 15.828125 64.359375 23.1875 75.875 
z
" id="DejaVuSans-28"/>
      <path d="M 16.890625 72.90625 
L 42.09375 72.90625 
Q 52.34375 72.90625 57.421875 69.09375 
Q 62.5 65.28125 62.5 57.625 
Q 62.5 50.59375 58.125 45.484375 
Q 53.765625 40.375 46.6875 39.3125 
Q 52.734375 37.9375 55.765625 34.078125 
Q 58.796875 30.21875 58.796875 23.78125 
Q 58.796875 12.796875 50.65625 6.390625 
Q 42.53125 0 28.421875 0 
L 2.6875 0 
z
M 19.28125 34.8125 
L 14.109375 8.109375 
L 29.984375 8.109375 
Q 38.921875 8.109375 43.75 12.203125 
Q 48.578125 16.3125 48.578125 23.78125 
Q 48.578125 29.546875 45.375 32.171875 
Q 42.1875 34.8125 35.109375 34.8125 
z
M 25.09375 64.796875 
L 20.796875 42.828125 
L 35.5 42.828125 
Q 43.359375 42.828125 47.78125 46.234375 
Q 52.203125 49.65625 52.203125 55.71875 
Q 52.203125 60.453125 49.21875 62.625 
Q 46.234375 64.796875 39.703125 64.796875 
z
" id="DejaVuSans-Oblique-412"/>
      <path d="M 8.015625 75.875 
L 15.828125 75.875 
Q 23.140625 64.359375 26.78125 53.3125 
Q 30.421875 42.28125 30.421875 31.390625 
Q 30.421875 20.453125 26.78125 9.375 
Q 23.140625 -1.703125 15.828125 -13.1875 
L 8.015625 -13.1875 
Q 14.5 -2 17.703125 9.0625 
Q 20.90625 20.125 20.90625 31.390625 
Q 20.90625 42.671875 17.703125 53.65625 
Q 14.5 64.65625 8.015625 75.875 
z
" id="DejaVuSans-29"/>
     </defs>
     <g transform="translate(21.308 67.015625)rotate(-90)scale(0.1 -0.1)">
      <use transform="translate(0 0.125)" xlink:href="#DejaVuSans-Oblique-55"/>
      <use transform="translate(73.193359 -16.28125)scale(0.7)" xlink:href="#DejaVuSans-Oblique-415"/>
      <use transform="translate(152.626628 0.125)" xlink:href="#DejaVuSans-28"/>
      <use transform="translate(191.6403 0.125)" xlink:href="#DejaVuSans-Oblique-412"/>
      <use transform="translate(260.243816 0.125)" xlink:href="#DejaVuSans-29"/>
     </g>
    </g>
   </g>
   <g id="line2d_19">
    <path clip-path="url(#pcdb057ef34)" d="M 34.549829 16.837784 
L 82.197333 16.837784 
L 82.197395 23.873352 
L 82.197517 37.944489 
L 82.197762 66.086761 
L 82.197945 87.193466 
L 82.197994 87.193466 
L 82.198092 87.193466 
L 82.198288 87.193466 
L 82.198679 87.193466 
L 82.199462 87.193466 
L 82.201029 87.193466 
L 82.204161 87.193466 
L 82.210426 87.193466 
L 82.222955 87.193466 
L 82.248014 87.193466 
L 82.298131 87.193466 
L 82.385057 87.193466 
L 82.472196 87.193466 
L 82.586856 87.193466 
L 82.816175 87.193466 
L 83.161901 87.193466 
L 83.55848 87.193466 
L 84.014153 87.193466 
L 84.662262 87.193466 
L 85.95848 87.193466 
L 88.550916 87.193466 
L 90.971757 87.193466 
L 94.122796 87.193466 
L 97.561954 87.193466 
L 102.944025 87.193466 
L 109.379753 87.193466 
L 120.099841 87.193466 
L 135.137403 87.193466 
L 165.212527 87.193466 
L 225.362774 87.193466 
L 345.66327 87.193466 
L 388.091278 87.193466 
L 388.09134 80.157898 
L 388.091462 66.086761 
L 388.091707 37.944489 
L 388.09189 16.837784 
L 388.091939 16.837784 
L 388.092037 16.837784 
L 388.092233 16.837784 
L 388.092624 16.837784 
L 388.093407 16.837784 
L 388.094974 16.837784 
L 388.098106 16.837784 
L 388.104371 16.837784 
L 388.1169 16.837784 
L 388.141959 16.837784 
L 388.192076 16.837784 
L 388.292312 16.837784 
L 388.412233 16.837784 
L 388.652076 16.837784 
L 388.822926 16.837784 
L 389.06573 16.837784 
L 389.317406 16.837784 
L 389.820757 16.837784 
L 390.827461 16.837784 
L 392.840867 16.837784 
L 396.775909 16.837784 
L 400.428234 16.837784 
L 406.08543 16.837784 
L 413.835591 16.837784 
L 429.335913 16.837784 
" style="fill:none;stroke:#1f77b4;stroke-linecap:square;stroke-width:1.5;"/>
   </g>
   <g id="patch_3">
    <path d="M 51.608 90.71125 
L 51.608 13.32 
" style="fill:none;stroke:#000000;stroke-linecap:square;stroke-linejoin:miter;stroke-width:0.8;"/>
   </g>
   <g id="patch_4">
    <path d="M 418.68 90.71125 
L 418.68 13.32 
" style="fill:none;stroke:#000000;stroke-linecap:square;stroke-linejoin:miter;stroke-width:0.8;"/>
   </g>
   <g id="patch_5">
    <path d="M 51.608 90.71125 
L 418.68 90.71125 
" style="fill:none;stroke:#000000;stroke-linecap:square;stroke-linejoin:miter;stroke-width:0.8;"/>
   </g>
   <g id="patch_6">
    <path d="M 51.608 13.32 
L 418.68 13.32 
" style="fill:none;stroke:#000000;stroke-linecap:square;stroke-linejoin:miter;stroke-width:0.8;"/>
   </g>
  </g>
  <g id="axes_2">
   <g id="patch_7">
    <path d="M 51.608 211.31125 
L 418.68 211.31125 
L 418.68 133.92 
L 51.608 133.92 
z
" style="fill:#ffffff;"/>
   </g>
   <g id="matplotlib.axis_3">
    <g id="xtick_7">
     <g id="line2d_20">
      <path clip-path="url(#p91af38db5f)" d="M 82.197333 211.31125 
L 82.197333 133.92 
" style="fill:none;stroke:#b0b0b0;stroke-linecap:square;stroke-width:0.8;"/>
     </g>
     <g id="line2d_21">
      <g>
       <use style="stroke:#000000;stroke-width:0.8;" x="82.197333" xlink:href="#m964b086167" y="211.31125"/>
      </g>
     </g>
     <g id="text_13">
      <!-- 1.0 -->
      <g transform="translate(76.017646 225.370625)scale(0.1 -0.1)">
       <use xlink:href="#STIXTwoMath-31"/>
       <use x="49.499985" xlink:href="#STIXTwoMath-2e"/>
       <use x="74.099976" xlink:href="#STIXTwoMath-30"/>
      </g>
     </g>
    </g>
    <g id="xtick_8">
     <g id="line2d_22">
      <path clip-path="url(#p91af38db5f)" d="M 143.376 211.31125 
L 143.376 133.92 
" style="fill:none;stroke:#b0b0b0;stroke-linecap:square;stroke-width:0.8;"/>
     </g>
     <g id="line2d_23">
      <g>
       <use style="stroke:#000000;stroke-width:0.8;" x="143.376" xlink:href="#m964b086167" y="211.31125"/>
      </g>
     </g>
     <g id="text_14">
      <!-- 1.1 -->
      <g transform="translate(137.196313 225.370625)scale(0.1 -0.1)">
       <use xlink:href="#STIXTwoMath-31"/>
       <use x="49.499985" xlink:href="#STIXTwoMath-2e"/>
       <use x="74.099976" xlink:href="#STIXTwoMath-31"/>
      </g>
     </g>
    </g>
    <g id="xtick_9">
     <g id="line2d_24">
      <path clip-path="url(#p91af38db5f)" d="M 204.554667 211.31125 
L 204.554667 133.92 
" style="fill:none;stroke:#b0b0b0;stroke-linecap:square;stroke-width:0.8;"/>
     </g>
     <g id="line2d_25">
      <g>
       <use style="stroke:#000000;stroke-width:0.8;" x="204.554667" xlink:href="#m964b086167" y="211.31125"/>
      </g>
     </g>
     <g id="text_15">
      <!-- 1.2 -->
      <g transform="translate(198.374979 225.370625)scale(0.1 -0.1)">
       <use xlink:href="#STIXTwoMath-31"/>
       <use x="49.499985" xlink:href="#STIXTwoMath-2e"/>
       <use x="74.099976" xlink:href="#STIXTwoMath-32"/>
      </g>
     </g>
    </g>
    <g id="xtick_10">
     <g id="line2d_26">
      <path clip-path="url(#p91af38db5f)" d="M 265.733333 211.31125 
L 265.733333 133.92 
" style="fill:none;stroke:#b0b0b0;stroke-linecap:square;stroke-width:0.8;"/>
     </g>
     <g id="line2d_27">
      <g>
       <use style="stroke:#000000;stroke-width:0.8;" x="265.733333" xlink:href="#m964b086167" y="211.31125"/>
      </g>
     </g>
     <g id="text_16">
      <!-- 1.3 -->
      <g transform="translate(259.553646 225.370625)scale(0.1 -0.1)">
       <use xlink:href="#STIXTwoMath-31"/>
       <use x="49.499985" xlink:href="#STIXTwoMath-2e"/>
       <use x="74.099976" xlink:href="#STIXTwoMath-33"/>
      </g>
     </g>
    </g>
    <g id="xtick_11">
     <g id="line2d_28">
      <path clip-path="url(#p91af38db5f)" d="M 326.912 211.31125 
L 326.912 133.92 
" style="fill:none;stroke:#b0b0b0;stroke-linecap:square;stroke-width:0.8;"/>
     </g>
     <g id="line2d_29">
      <g>
       <use style="stroke:#000000;stroke-width:0.8;" x="326.912" xlink:href="#m964b086167" y="211.31125"/>
      </g>
     </g>
     <g id="text_17">
      <!-- 1.4 -->
      <g transform="translate(320.732313 225.370625)scale(0.1 -0.1)">
       <use xlink:href="#STIXTwoMath-31"/>
       <use x="49.499985" xlink:href="#STIXTwoMath-2e"/>
       <use x="74.099976" xlink:href="#STIXTwoMath-34"/>
      </g>
     </g>
    </g>
    <g id="xtick_12">
     <g id="line2d_30">
      <path clip-path="url(#p91af38db5f)" d="M 388.090667 211.31125 
L 388.090667 133.92 
" style="fill:none;stroke:#b0b0b0;stroke-linecap:square;stroke-width:0.8;"/>
     </g>
     <g id="line2d_31">
      <g>
       <use style="stroke:#000000;stroke-width:0.8;" x="388.090667" xlink:href="#m964b086167" y="211.31125"/>
      </g>
     </g>
     <g id="text_18">
      <!-- 1.5 -->
      <g transform="translate(381.910979 225.370625)scale(0.1 -0.1)">
       <use xlink:href="#STIXTwoMath-31"/>
       <use x="49.499985" xlink:href="#STIXTwoMath-2e"/>
       <use x="74.099976" xlink:href="#STIXTwoMath-35"/>
      </g>
     </g>
    </g>
    <g id="text_19">
     <!-- t (с) -->
     <g transform="translate(226.604938 238.63)scale(0.1 -0.1)">
      <use xlink:href="#STIXTwoMath-74"/>
      <use x="31.499985" xlink:href="#STIXTwoMath-20"/>
      <use x="54.999969" xlink:href="#STIXTwoMath-28"/>
      <use x="90.59996" xlink:href="#STIXTwoMath-441"/>
      <use x="135.199951" xlink:href="#STIXTwoMath-29"/>
     </g>
    </g>
    <g id="text_20">
     <!-- 1e−6 -->
     <g transform="translate(396.939375 237.63)scale(0.1 -0.1)">
      <use xlink:href="#STIXTwoMath-31"/>
      <use x="49.499985" xlink:href="#STIXTwoMath-65"/>
      <use x="95.899979" xlink:href="#STIXTwoMath-2212"/>
      <use x="167.899963" xlink:href="#STIXTwoMath-36"/>
     </g>
    </g>
   </g>
   <g id="matplotlib.axis_4">
    <g id="ytick_4">
     <g id="line2d_32">
      <path clip-path="url(#p91af38db5f)" d="M 51.608 176.781525 
L 418.68 176.781525 
" style="fill:none;stroke:#b0b0b0;stroke-linecap:square;stroke-width:0.8;"/>
     </g>
     <g id="line2d_33">
      <g>
       <use style="stroke:#000000;stroke-width:0.8;" x="51.608" xlink:href="#m24bbeac699" y="176.781525"/>
      </g>
     </g>
     <g id="text_21">
      <!-- 5 -->
      <g transform="translate(39.658 180.311213)scale(0.1 -0.1)">
       <use xlink:href="#STIXTwoMath-35"/>
      </g>
     </g>
    </g>
    <g id="ytick_5">
     <g id="line2d_34">
      <path clip-path="url(#p91af38db5f)" d="M 51.608 137.446424 
L 418.68 137.446424 
" style="fill:none;stroke:#b0b0b0;stroke-linecap:square;stroke-width:0.8;"/>
     </g>
     <g id="line2d_35">
      <g>
       <use style="stroke:#000000;stroke-width:0.8;" x="51.608" xlink:href="#m24bbeac699" y="137.446424"/>
      </g>
     </g>
     <g id="text_22">
      <!-- 10 -->
      <g transform="translate(34.708 140.976111)scale(0.1 -0.1)">
       <use xlink:href="#STIXTwoMath-31"/>
       <use x="49.499985" xlink:href="#STIXTwoMath-30"/>
      </g>
     </g>
    </g>
    <g id="text_23">
     <!-- $U_{К}\ (В)$ -->
     <defs>
      <path d="M 16.890625 72.90625 
L 26.765625 72.90625 
L 19.78125 36.859375 
L 62.015625 72.90625 
L 74.65625 72.90625 
L 40.875 44.09375 
L 61.96875 0 
L 51.21875 0 
L 33.203125 37.546875 
L 17.234375 23.921875 
L 12.59375 0 
L 2.734375 0 
z
" id="DejaVuSans-Oblique-41a"/>
     </defs>
     <g transform="translate(28.508 187.865625)rotate(-90)scale(0.1 -0.1)">
      <use transform="translate(0 0.125)" xlink:href="#DejaVuSans-Oblique-55"/>
      <use transform="translate(73.193359 -16.28125)scale(0.7)" xlink:href="#DejaVuSans-Oblique-41a"/>
      <use transform="translate(158.095378 0.125)" xlink:href="#DejaVuSans-28"/>
      <use transform="translate(197.10905 0.125)" xlink:href="#DejaVuSans-Oblique-412"/>
      <use transform="translate(265.712566 0.125)" xlink:href="#DejaVuSans-29"/>
     </g>
    </g>
   </g>
   <g id="line2d_36">
    <path clip-path="url(#p91af38db5f)" d="M 34.549829 137.447615 
L 82.197333 137.44543 
L 82.197395 137.445442 
L 82.197517 137.445464 
L 82.197762 137.445504 
L 82.197945 137.44553 
L 82.197994 137.445537 
L 82.198092 137.44555 
L 82.198288 137.445573 
L 82.198679 137.445613 
L 82.199462 137.445671 
L 82.201029 137.445734 
L 82.204161 137.445772 
L 82.210426 137.445777 
L 82.222955 137.44578 
L 82.248014 137.445789 
L 82.298131 137.445803 
L 82.385057 137.44583 
L 82.472196 137.446863 
L 82.586856 137.915594 
L 82.816175 141.231524 
L 83.161901 149.045233 
L 83.55848 158.007505 
L 84.014153 166.455394 
L 84.662262 175.578753 
L 85.95848 187.438349 
L 88.550916 198.909106 
L 90.971757 203.235951 
L 94.122796 205.782322 
L 97.561954 206.936357 
L 102.944025 207.585437 
L 109.379753 207.757971 
L 120.099841 207.793466 
L 135.137403 207.790261 
L 165.212527 207.790206 
L 225.362774 207.790431 
L 345.66327 207.790139 
L 388.091278 207.790489 
L 388.09134 207.790487 
L 388.091462 207.790484 
L 388.091707 207.790476 
L 388.09189 207.790468 
L 388.091939 207.790465 
L 388.092037 207.79046 
L 388.092233 207.790447 
L 388.092624 207.79041 
L 388.093407 207.79029 
L 388.094974 207.789834 
L 388.098106 207.787898 
L 388.104371 207.779402 
L 388.1169 207.743261 
L 388.141959 207.598055 
L 388.192076 207.052662 
L 388.292312 205.522314 
L 388.412233 203.543743 
L 388.652076 199.500034 
L 388.822926 196.586046 
L 389.06573 192.459918 
L 389.317406 188.258274 
L 389.820757 180.284928 
L 390.827461 166.7483 
L 392.840867 149.488908 
L 396.775909 138.181222 
L 400.428234 137.508708 
L 406.08543 137.437785 
L 413.835591 137.44918 
L 429.335913 137.444779 
" style="fill:none;stroke:#1f77b4;stroke-linecap:square;stroke-width:1.5;"/>
   </g>
   <g id="patch_8">
    <path d="M 51.608 211.31125 
L 51.608 133.92 
" style="fill:none;stroke:#000000;stroke-linecap:square;stroke-linejoin:miter;stroke-width:0.8;"/>
   </g>
   <g id="patch_9">
    <path d="M 418.68 211.31125 
L 418.68 133.92 
" style="fill:none;stroke:#000000;stroke-linecap:square;stroke-linejoin:miter;stroke-width:0.8;"/>
   </g>
   <g id="patch_10">
    <path d="M 51.608 211.31125 
L 418.68 211.31125 
" style="fill:none;stroke:#000000;stroke-linecap:square;stroke-linejoin:miter;stroke-width:0.8;"/>
   </g>
   <g id="patch_11">
    <path d="M 51.608 133.92 
L 418.68 133.92 
" style="fill:none;stroke:#000000;stroke-linecap:square;stroke-linejoin:miter;stroke-width:0.8;"/>
   </g>
  </g>
 </g>
 <defs>
  <clipPath id="pcdb057ef34">
   <rect height="77.39125" width="367.072" x="51.608" y="13.32"/>
  </clipPath>
  <clipPath id="p91af38db5f">
   <rect height="77.39125" width="367.072" x="51.608" y="133.92"/>
  </clipPath>
 </defs>
</svg>
