<?xml version="1.0" encoding="UTF-8" standalone="no"?>
<!-- Created with matplotlib (http://matplotlib.org/) -->

<svg
   xmlns:dc="http://purl.org/dc/elements/1.1/"
   xmlns:cc="http://creativecommons.org/ns#"
   xmlns:rdf="http://www.w3.org/1999/02/22-rdf-syntax-ns#"
   xmlns:svg="http://www.w3.org/2000/svg"
   xmlns="http://www.w3.org/2000/svg"
   xmlns:xlink="http://www.w3.org/1999/xlink"
   xmlns:sodipodi="http://sodipodi.sourceforge.net/DTD/sodipodi-0.dtd"
   xmlns:inkscape="http://www.inkscape.org/namespaces/inkscape"
   height="319.43524pt"
   version="1.1"
   viewBox="0 0 435.224 319.43524"
   width="435.224pt"
   id="svg271"
   sodipodi:docname="01-01-not-transfer-params-edited.svg"
   inkscape:version="0.92.2 (5c3e80d, 2017-08-06)">
  <metadata
     id="metadata275">
    <rdf:RDF>
      <cc:Work
         rdf:about="">
        <dc:format>image/svg+xml</dc:format>
        <dc:type
           rdf:resource="http://purl.org/dc/dcmitype/StillImage" />
        <dc:title></dc:title>
      </cc:Work>
    </rdf:RDF>
  </metadata>
  <sodipodi:namedview
     pagecolor="#ffffff"
     bordercolor="#666666"
     borderopacity="1"
     objecttolerance="10"
     gridtolerance="10"
     guidetolerance="10"
     inkscape:pageopacity="0"
     inkscape:pageshadow="2"
     inkscape:window-width="1920"
     inkscape:window-height="1027"
     id="namedview273"
     showgrid="false"
     fit-margin-top="0"
     fit-margin-left="0"
     fit-margin-right="0"
     fit-margin-bottom="0"
     inkscape:zoom="1.8663195"
     inkscape:cx="290.32533"
     inkscape:cy="212.74033"
     inkscape:window-x="-8"
     inkscape:window-y="-8"
     inkscape:window-maximized="1"
     inkscape:current-layer="patch_1" />
  <defs
     id="defs4"
     style="stroke-linecap:butt;stroke-linejoin:round">
    <style
       type="text/css"
       id="style2">
*{stroke-linecap:butt;stroke-linejoin:round;}
  </style>
  </defs>
  <g
     id="figure_1"
     style="stroke-linecap:butt;stroke-linejoin:round"
     transform="translate(-12.656,-12.92)">
    <g
       id="patch_1"
       style="stroke-linecap:butt;stroke-linejoin:round" />
    <g
       id="axes_1"
       style="stroke-linecap:butt;stroke-linejoin:round">
      <g
         id="patch_2"
         style="stroke-linecap:butt;stroke-linejoin:round">
        <path
           d="M 42.356,303.784 H 447.48 V 13.32 H 42.356 Z"
           style="fill:#ffffff;stroke-linecap:butt;stroke-linejoin:round"
           id="path9"
           inkscape:connector-curvature="0" />
      </g>
      <g
         id="matplotlib.axis_1"
         style="stroke-linecap:butt;stroke-linejoin:round">
        <g
           id="xtick_1"
           style="stroke-linecap:butt;stroke-linejoin:round">
          <g
             id="line2d_1"
             style="stroke-linecap:butt;stroke-linejoin:round">
            <path
               clip-path="url(#p8552f3a8e4)"
               d="M 42.356,303.784 V 13.32"
               style="fill:none;stroke:#b0b0b0;stroke-width:0.80000001;stroke-linecap:square;stroke-linejoin:round"
               id="path12"
               inkscape:connector-curvature="0" />
          </g>
          <g
             id="line2d_2"
             style="stroke-linecap:butt;stroke-linejoin:round">
            <defs
               id="defs16">
              <path
                 d="M 0,0 V 3.5"
                 id="m4cebbcded9"
                 style="stroke:#000000;stroke-width:0.80000001;stroke-linecap:butt;stroke-linejoin:round"
                 inkscape:connector-curvature="0" />
            </defs>
            <g
               id="g20"
               style="stroke-linecap:butt;stroke-linejoin:round">
              <use
                 style="stroke:#000000;stroke-width:0.80000001;stroke-linecap:butt;stroke-linejoin:round"
                 x="42.355999"
                 xlink:href="#m4cebbcded9"
                 y="303.784"
                 id="use18"
                 width="100%"
                 height="100%" />
            </g>
          </g>
          <g
             id="text_1"
             style="stroke-linecap:butt;stroke-linejoin:round">
            <!-- 0 -->
            <defs
               id="defs24">
              <path
                 d="m 46.796875,31.703125 c 0,20.59375 -9,32.5 -21.890625,32.5 C 10.40625,64.203125 2.703125,51 2.703125,32 c 0,-17.703125 5.890625,-33.09375 22,-33.09375 15.703125,0 22.09375,15.6875 22.09375,32.796875 z M 37.09375,31.09375 c 0,-19.1875 -4.5,-28.59375 -12.390625,-28.59375 -8,0 -12.40625,9.59375 -12.40625,29 0,19.796875 4.40625,29.296875 12.296875,29.296875 8.203125,0 12.5,-9.390625 12.5,-29.703125 z"
                 id="STIXTwoMath-30"
                 inkscape:connector-curvature="0"
                 style="stroke-linecap:butt;stroke-linejoin:round" />
            </defs>
            <g
               transform="matrix(0.1,0,0,-0.1,39.881,317.84337)"
               id="g28"
               style="stroke-linecap:butt;stroke-linejoin:round">
              <use
                 xlink:href="#STIXTwoMath-30"
                 id="use26"
                 style="stroke-linecap:butt;stroke-linejoin:round"
                 x="0"
                 y="0"
                 width="100%"
                 height="100%" />
            </g>
          </g>
        </g>
        <g
           id="xtick_2"
           style="stroke-linecap:butt;stroke-linejoin:round">
          <g
             id="line2d_3"
             style="stroke-linecap:butt;stroke-linejoin:round">
            <path
               clip-path="url(#p8552f3a8e4)"
               d="M 109.36405,303.784 V 13.32"
               style="fill:none;stroke:#b0b0b0;stroke-width:0.80000001;stroke-linecap:square;stroke-linejoin:round"
               id="path32"
               inkscape:connector-curvature="0" />
          </g>
          <g
             id="line2d_4"
             style="stroke-linecap:butt;stroke-linejoin:round">
            <g
               id="g37"
               style="stroke-linecap:butt;stroke-linejoin:round">
              <use
                 style="stroke:#000000;stroke-width:0.80000001;stroke-linecap:butt;stroke-linejoin:round"
                 x="109.36405"
                 xlink:href="#m4cebbcded9"
                 y="303.784"
                 id="use35"
                 width="100%"
                 height="100%" />
            </g>
          </g>
          <g
             id="text_2"
             style="stroke-linecap:butt;stroke-linejoin:round">
            <!-- 1 -->
            <defs
               id="defs41">
              <path
                 d="m 42.59375,0 v 2.796875 c -9.1875,0 -12.890625,1.796875 -12.890625,6.703125 v 54.40625 h -2.90625 l -19.390625,-5.5 v -3.3125 c 3.09375,1 8.1875,1.609375 10.1875,1.609375 2.5,0 3.3125,-1.40625 3.3125,-4.90625 V 9.5 c 0,-5 -3.5,-6.703125 -12.90625,-6.703125 V 0 Z"
                 id="STIXTwoMath-31"
                 inkscape:connector-curvature="0"
                 style="stroke-linecap:butt;stroke-linejoin:round" />
            </defs>
            <g
               transform="matrix(0.1,0,0,-0.1,106.88906,317.84337)"
               id="g45"
               style="stroke-linecap:butt;stroke-linejoin:round">
              <use
                 xlink:href="#STIXTwoMath-31"
                 id="use43"
                 style="stroke-linecap:butt;stroke-linejoin:round"
                 x="0"
                 y="0"
                 width="100%"
                 height="100%" />
            </g>
          </g>
        </g>
        <g
           id="xtick_3"
           style="stroke-linecap:butt;stroke-linejoin:round">
          <g
             id="line2d_5"
             style="stroke-linecap:butt;stroke-linejoin:round">
            <path
               clip-path="url(#p8552f3a8e4)"
               d="M 176.37211,303.784 V 13.32"
               style="fill:none;stroke:#b0b0b0;stroke-width:0.80000001;stroke-linecap:square;stroke-linejoin:round"
               id="path49"
               inkscape:connector-curvature="0" />
          </g>
          <g
             id="line2d_6"
             style="stroke-linecap:butt;stroke-linejoin:round">
            <g
               id="g54"
               style="stroke-linecap:butt;stroke-linejoin:round">
              <use
                 style="stroke:#000000;stroke-width:0.80000001;stroke-linecap:butt;stroke-linejoin:round"
                 x="176.37212"
                 xlink:href="#m4cebbcded9"
                 y="303.784"
                 id="use52"
                 width="100%"
                 height="100%" />
            </g>
          </g>
          <g
             id="text_3"
             style="stroke-linecap:butt;stroke-linejoin:round">
            <!-- 2 -->
            <defs
               id="defs58">
              <path
                 d="M 46.40625,16 H 43.5 C 41.203125,10 39.90625,7.90625 34.59375,7.90625 H 20.703125 l -7,-0.3125 v 0.5 l 13.203125,12.5 c 10.59375,10.703125 16.296875,17.609375 16.296875,26.5 0,10.5 -7.90625,17.3125 -19.203125,17.3125 -9.703125,0 -16.5,-5.609375 -19.59375,-15.3125 l 2.390625,-1 c 3.703125,7.5 8.109375,9.8125 14.609375,9.8125 7.6875,0 12.5,-4.8125 12.5,-12.3125 0,-10.5 -5,-16.796875 -14.90625,-27 L 3.796875,3.40625 V 0 h 39.40625 z"
                 id="STIXTwoMath-32"
                 inkscape:connector-curvature="0"
                 style="stroke-linecap:butt;stroke-linejoin:round" />
            </defs>
            <g
               transform="matrix(0.1,0,0,-0.1,173.89711,317.84337)"
               id="g62"
               style="stroke-linecap:butt;stroke-linejoin:round">
              <use
                 xlink:href="#STIXTwoMath-32"
                 id="use60"
                 style="stroke-linecap:butt;stroke-linejoin:round"
                 x="0"
                 y="0"
                 width="100%"
                 height="100%" />
            </g>
          </g>
        </g>
        <g
           id="xtick_4"
           style="stroke-linecap:butt;stroke-linejoin:round">
          <g
             id="line2d_7"
             style="stroke-linecap:butt;stroke-linejoin:round">
            <path
               clip-path="url(#p8552f3a8e4)"
               d="M 243.38016,303.784 V 13.32"
               style="fill:none;stroke:#b0b0b0;stroke-width:0.80000001;stroke-linecap:square;stroke-linejoin:round"
               id="path66"
               inkscape:connector-curvature="0" />
          </g>
          <g
             id="line2d_8"
             style="stroke-linecap:butt;stroke-linejoin:round">
            <g
               id="g71"
               style="stroke-linecap:butt;stroke-linejoin:round">
              <use
                 style="stroke:#000000;stroke-width:0.80000001;stroke-linecap:butt;stroke-linejoin:round"
                 x="243.38016"
                 xlink:href="#m4cebbcded9"
                 y="303.784"
                 id="use69"
                 width="100%"
                 height="100%" />
            </g>
          </g>
          <g
             id="text_4"
             style="stroke-linecap:butt;stroke-linejoin:round">
            <!-- 3 -->
            <defs
               id="defs75">
              <path
                 d="M 8.59375,49.796875 C 12,55.09375 15.703125,57.90625 21.703125,57.90625 27.90625,57.90625 31.90625,54.5 31.90625,48.59375 31.90625,40.5 24.796875,35 18,35 h -1.90625 v -3.796875 h 2 c 9.609375,0 18.109375,-5.90625 18.109375,-14.796875 0,-9.8125 -6.109375,-12.703125 -12.40625,-12.703125 -2.390625,0 -3.796875,0.390625 -8.09375,2.59375 -3.5,1.796875 -4.296875,2.296875 -5.90625,2.296875 -2.59375,0 -3.890625,-2.296875 -3.890625,-4.390625 0,-2.609375 2.1875,-5.5 11.1875,-5.5 14.609375,0 27.3125,7 27.3125,20.703125 0,8.890625 -6.703125,14.1875 -14.703125,16.6875 v 0.3125 C 36,40.40625 40.5,44.09375 40.5,51 40.5,58.59375 34.59375,64.40625 24.40625,64.40625 16.203125,64.40625 10,59.796875 6.296875,51.09375 Z"
                 id="STIXTwoMath-33"
                 inkscape:connector-curvature="0"
                 style="stroke-linecap:butt;stroke-linejoin:round" />
            </defs>
            <g
               transform="matrix(0.1,0,0,-0.1,240.90516,317.84337)"
               id="g79"
               style="stroke-linecap:butt;stroke-linejoin:round">
              <use
                 xlink:href="#STIXTwoMath-33"
                 id="use77"
                 style="stroke-linecap:butt;stroke-linejoin:round"
                 x="0"
                 y="0"
                 width="100%"
                 height="100%" />
            </g>
          </g>
        </g>
        <g
           id="xtick_5"
           style="stroke-linecap:butt;stroke-linejoin:round">
          <g
             id="line2d_9"
             style="stroke-linecap:butt;stroke-linejoin:round">
            <path
               clip-path="url(#p8552f3a8e4)"
               d="M 310.38822,303.784 V 13.32"
               style="fill:none;stroke:#b0b0b0;stroke-width:0.80000001;stroke-linecap:square;stroke-linejoin:round"
               id="path83"
               inkscape:connector-curvature="0" />
          </g>
          <g
             id="line2d_10"
             style="stroke-linecap:butt;stroke-linejoin:round">
            <g
               id="g88"
               style="stroke-linecap:butt;stroke-linejoin:round">
              <use
                 style="stroke:#000000;stroke-width:0.80000001;stroke-linecap:butt;stroke-linejoin:round"
                 x="310.38821"
                 xlink:href="#m4cebbcded9"
                 y="303.784"
                 id="use86"
                 width="100%"
                 height="100%" />
            </g>
          </g>
          <g
             id="text_5"
             style="stroke-linecap:butt;stroke-linejoin:round">
            <!-- 4 -->
            <defs
               id="defs92">
              <path
                 d="m 48.09375,15.796875 v 6.90625 H 37.90625 V 64.5 h -6.109375 l -30.5,-42.40625 V 15.796875 H 29 V 0 h 8.90625 V 15.796875 Z M 29,22.703125 H 6.796875 v 0.390625 l 21.796875,30.5 H 29 Z"
                 id="STIXTwoMath-34"
                 inkscape:connector-curvature="0"
                 style="stroke-linecap:butt;stroke-linejoin:round" />
            </defs>
            <g
               transform="matrix(0.1,0,0,-0.1,307.91322,317.84337)"
               id="g96"
               style="stroke-linecap:butt;stroke-linejoin:round">
              <use
                 xlink:href="#STIXTwoMath-34"
                 id="use94"
                 style="stroke-linecap:butt;stroke-linejoin:round"
                 x="0"
                 y="0"
                 width="100%"
                 height="100%" />
            </g>
          </g>
        </g>
        <g
           id="xtick_6"
           style="stroke-linecap:butt;stroke-linejoin:round">
          <g
             id="line2d_11"
             style="stroke-linecap:butt;stroke-linejoin:round">
            <path
               clip-path="url(#p8552f3a8e4)"
               d="M 377.39627,303.784 V 13.32"
               style="fill:none;stroke:#b0b0b0;stroke-width:0.80000001;stroke-linecap:square;stroke-linejoin:round"
               id="path100"
               inkscape:connector-curvature="0" />
          </g>
          <g
             id="line2d_12"
             style="stroke-linecap:butt;stroke-linejoin:round">
            <g
               id="g105"
               style="stroke-linecap:butt;stroke-linejoin:round">
              <use
                 style="stroke:#000000;stroke-width:0.80000001;stroke-linecap:butt;stroke-linejoin:round"
                 x="377.39627"
                 xlink:href="#m4cebbcded9"
                 y="303.784"
                 id="use103"
                 width="100%"
                 height="100%" />
            </g>
          </g>
          <g
             id="text_6"
             style="stroke-linecap:butt;stroke-linejoin:round">
            <!-- 5 -->
            <defs
               id="defs109">
              <path
                 d="M 41.703125,54.90625 43.296875,63 H 15.90625 l -6.203125,-26.09375 1.203125,-1.5 c 1.390625,0 1.890625,0 4.5,-0.203125 C 29.203125,34.5 37,30.40625 37,17.90625 37,7.5 30.703125,3.703125 23.59375,3.703125 c -6.390625,0 -9.6875,4.890625 -13.6875,4.890625 -2.5,0 -4,-2 -4,-4.296875 0,-3.703125 3.796875,-5.59375 11.5,-5.59375 15.890625,0 26.890625,7.796875 26.890625,23.203125 0,15.6875 -12.296875,20.390625 -24.09375,21.296875 L 15.5,43.5 18.203125,54.90625 Z"
                 id="STIXTwoMath-35"
                 inkscape:connector-curvature="0"
                 style="stroke-linecap:butt;stroke-linejoin:round" />
            </defs>
            <g
               transform="matrix(0.1,0,0,-0.1,374.92127,317.84337)"
               id="g113"
               style="stroke-linecap:butt;stroke-linejoin:round">
              <use
                 xlink:href="#STIXTwoMath-35"
                 id="use111"
                 style="stroke-linecap:butt;stroke-linejoin:round"
                 x="0"
                 y="0"
                 width="100%"
                 height="100%" />
            </g>
          </g>
        </g>
        <g
           id="xtick_7"
           style="stroke-linecap:butt;stroke-linejoin:round">
          <g
             id="line2d_13"
             style="stroke-linecap:butt;stroke-linejoin:round">
            <path
               clip-path="url(#p8552f3a8e4)"
               d="M 444.40433,303.784 V 13.32"
               style="fill:none;stroke:#b0b0b0;stroke-width:0.80000001;stroke-linecap:square;stroke-linejoin:round"
               id="path117"
               inkscape:connector-curvature="0" />
          </g>
          <g
             id="line2d_14"
             style="stroke-linecap:butt;stroke-linejoin:round">
            <g
               id="g122"
               style="stroke-linecap:butt;stroke-linejoin:round">
              <use
                 style="stroke:#000000;stroke-width:0.80000001;stroke-linecap:butt;stroke-linejoin:round"
                 x="444.40433"
                 xlink:href="#m4cebbcded9"
                 y="303.784"
                 id="use120"
                 width="100%"
                 height="100%" />
            </g>
          </g>
          <g
             id="text_7"
             style="stroke-linecap:butt;stroke-linejoin:round">
            <!-- 6 -->
            <defs
               id="defs126">
              <path
                 d="M 41.5,64.59375 C 20,63.703125 4.5,49.796875 4.5,25.703125 4.5,11 11,-1.203125 25.90625,-1.203125 c 12.59375,0 19.796875,7.90625 19.796875,21.5 0,13.109375 -7.109375,21 -18,21 -5.203125,0 -8.90625,-2.203125 -13,-6.203125 L 14,35.203125 c 2.5,14.59375 13.703125,24.390625 27.703125,26.5 z M 37,19.5 C 37,6.796875 33,2.296875 26.296875,2.296875 17.59375,2.296875 13.5,11.203125 13.5,23.59375 13.5,32.296875 18.90625,35.5 24.703125,35.5 33,35.5 37,28.5 37,19.5 Z"
                 id="STIXTwoMath-36"
                 inkscape:connector-curvature="0"
                 style="stroke-linecap:butt;stroke-linejoin:round" />
            </defs>
            <g
               transform="matrix(0.1,0,0,-0.1,441.92933,317.84337)"
               id="g130"
               style="stroke-linecap:butt;stroke-linejoin:round">
              <use
                 xlink:href="#STIXTwoMath-36"
                 id="use128"
                 style="stroke-linecap:butt;stroke-linejoin:round"
                 x="0"
                 y="0"
                 width="100%"
                 height="100%" />
            </g>
          </g>
        </g>
        <g
           id="text_8"
           style="stroke-linecap:butt;stroke-linejoin:round">
          <!-- $U_1$ -->
          <defs
             id="defs136">
            <path
               d="m 76.5,65.296875 v -1.59375 q -2.09375,-0.5 -3.15625,-0.953125 -1.046875,-0.453125 -2.046875,-1.109375 -1,-0.640625 -1.75,-2.4375 -0.75,-1.796875 -1.453125,-3.90625 -0.6875,-2.09375 -2,-6.5 l -8.296875,-28.5 Q 54.40625,8.703125 48.09375,3.40625 q -6,-5.203125 -15.796875,-5.203125 -9.796875,0 -15.953125,4.59375 -6.140625,4.609375 -6.140625,11.796875 0,5.5 4.390625,21.609375 l 5.203125,18.890625 q 0.90625,3.203125 0.90625,4.5 0,2 -1.75,3 -1.75,1 -6.25,1.109375 v 1.59375 H 39.90625 v -1.59375 Q 34.796875,63.203125 32.84375,61.5 30.90625,59.796875 29.5,54.59375 L 23.203125,32 q -4,-14.09375 -4,-17.90625 0,-5.296875 3.9375,-8.546875 3.953125,-3.25 9.859375,-3.25 8.40625,0 13.5,5.390625 5.09375,5.40625 8.5,17.8125 l 6.40625,23.296875 q 2.296875,8.5 2.296875,10.296875 0,2.203125 -1.5,3.203125 -1.5,1 -5.5,1.40625 v 1.59375 z"
               id="STIXGeneral-Italic-55"
               inkscape:connector-curvature="0"
               style="stroke-linecap:butt;stroke-linejoin:round" />
            <path
               d="M 39.40625,0 H 11.796875 v 1.5 q 5.5,0.296875 7.5,2.046875 2,1.75 2,5.953125 v 44.90625 q 0,4.890625 -3,4.890625 -1.390625,0 -4.5,-1.203125 l -2.703125,-1 V 58.5 L 29,67.59375 29.90625,67.296875 V 7.59375 q 0,-3.296875 2,-4.703125 2,-1.390625 7.5,-1.390625 z"
               id="STIXGeneral-Regular-31"
               inkscape:connector-curvature="0"
               style="stroke-linecap:butt;stroke-linejoin:round" />
          </defs>
          <g
             transform="matrix(0.1,0,0,-0.1,239.318,331.10275)"
             id="g142"
             style="stroke-linecap:butt;stroke-linejoin:round">
            <use
               transform="translate(0,0.703125)"
               xlink:href="#STIXGeneral-Italic-55"
               id="use138"
               style="stroke-linecap:butt;stroke-linejoin:round"
               x="0"
               y="0"
               width="100%"
               height="100%" />
            <use
               transform="matrix(0.7,0,0,0.7,72.199982,-12.525)"
               xlink:href="#STIXGeneral-Regular-31"
               id="use140"
               style="stroke-linecap:butt;stroke-linejoin:round"
               x="0"
               y="0"
               width="100%"
               height="100%" />
          </g>
        </g>
      </g>
      <g
         id="matplotlib.axis_2"
         style="stroke-linecap:butt;stroke-linejoin:round">
        <g
           id="ytick_1"
           style="stroke-linecap:butt;stroke-linejoin:round">
          <g
             id="line2d_15"
             style="stroke-linecap:butt;stroke-linejoin:round">
            <path
               clip-path="url(#p8552f3a8e4)"
               d="M 42.356,303.784 H 447.48"
               style="fill:none;stroke:#b0b0b0;stroke-width:0.80000001;stroke-linecap:square;stroke-linejoin:round"
               id="path146"
               inkscape:connector-curvature="0" />
          </g>
          <g
             id="line2d_16"
             style="stroke-linecap:butt;stroke-linejoin:round">
            <defs
               id="defs150">
              <path
                 d="M 0,0 H -3.5"
                 id="mb5511d68a2"
                 style="stroke:#000000;stroke-width:0.80000001;stroke-linecap:butt;stroke-linejoin:round"
                 inkscape:connector-curvature="0" />
            </defs>
            <g
               id="g154"
               style="stroke-linecap:butt;stroke-linejoin:round">
              <use
                 style="stroke:#000000;stroke-width:0.80000001;stroke-linecap:butt;stroke-linejoin:round"
                 x="42.355999"
                 xlink:href="#mb5511d68a2"
                 y="303.784"
                 id="use152"
                 width="100%"
                 height="100%" />
            </g>
          </g>
          <g
             id="text_9"
             style="stroke-linecap:butt;stroke-linejoin:round">
            <!-- 0 -->
            <g
               transform="matrix(0.1,0,0,-0.1,30.406,307.31369)"
               id="g159"
               style="stroke-linecap:butt;stroke-linejoin:round">
              <use
                 xlink:href="#STIXTwoMath-30"
                 id="use157"
                 style="stroke-linecap:butt;stroke-linejoin:round"
                 x="0"
                 y="0"
                 width="100%"
                 height="100%" />
            </g>
          </g>
        </g>
        <g
           id="ytick_2"
           style="stroke-linecap:butt;stroke-linejoin:round">
          <g
             id="line2d_17"
             style="stroke-linecap:butt;stroke-linejoin:round">
            <path
               clip-path="url(#p8552f3a8e4)"
               d="M 42.356,248.38471 H 447.48"
               style="fill:none;stroke:#b0b0b0;stroke-width:0.80000001;stroke-linecap:square;stroke-linejoin:round"
               id="path163"
               inkscape:connector-curvature="0" />
          </g>
          <g
             id="line2d_18"
             style="stroke-linecap:butt;stroke-linejoin:round">
            <g
               id="g168"
               style="stroke-linecap:butt;stroke-linejoin:round">
              <use
                 style="stroke:#000000;stroke-width:0.80000001;stroke-linecap:butt;stroke-linejoin:round"
                 x="42.355999"
                 xlink:href="#mb5511d68a2"
                 y="248.38472"
                 id="use166"
                 width="100%"
                 height="100%" />
            </g>
          </g>
          <g
             id="text_10"
             style="stroke-linecap:butt;stroke-linejoin:round">
            <!-- 2 -->
            <g
               transform="matrix(0.1,0,0,-0.1,30.406,251.9144)"
               id="g173"
               style="stroke-linecap:butt;stroke-linejoin:round">
              <use
                 xlink:href="#STIXTwoMath-32"
                 id="use171"
                 style="stroke-linecap:butt;stroke-linejoin:round"
                 x="0"
                 y="0"
                 width="100%"
                 height="100%" />
            </g>
          </g>
        </g>
        <g
           id="ytick_3"
           style="stroke-linecap:butt;stroke-linejoin:round">
          <g
             id="line2d_19"
             style="stroke-linecap:butt;stroke-linejoin:round">
            <path
               clip-path="url(#p8552f3a8e4)"
               d="M 42.356,192.98543 H 447.48"
               style="fill:none;stroke:#b0b0b0;stroke-width:0.80000001;stroke-linecap:square;stroke-linejoin:round"
               id="path177"
               inkscape:connector-curvature="0" />
          </g>
          <g
             id="line2d_20"
             style="stroke-linecap:butt;stroke-linejoin:round">
            <g
               id="g182"
               style="stroke-linecap:butt;stroke-linejoin:round">
              <use
                 style="stroke:#000000;stroke-width:0.80000001;stroke-linecap:butt;stroke-linejoin:round"
                 x="42.355999"
                 xlink:href="#mb5511d68a2"
                 y="192.98543"
                 id="use180"
                 width="100%"
                 height="100%" />
            </g>
          </g>
          <g
             id="text_11"
             style="stroke-linecap:butt;stroke-linejoin:round">
            <!-- 4 -->
            <g
               transform="matrix(0.1,0,0,-0.1,30.406,196.51511)"
               id="g187"
               style="stroke-linecap:butt;stroke-linejoin:round">
              <use
                 xlink:href="#STIXTwoMath-34"
                 id="use185"
                 style="stroke-linecap:butt;stroke-linejoin:round"
                 x="0"
                 y="0"
                 width="100%"
                 height="100%" />
            </g>
          </g>
        </g>
        <g
           id="ytick_4"
           style="stroke-linecap:butt;stroke-linejoin:round">
          <g
             id="line2d_21"
             style="stroke-linecap:butt;stroke-linejoin:round">
            <path
               clip-path="url(#p8552f3a8e4)"
               d="M 42.356,137.58614 H 447.48"
               style="fill:none;stroke:#b0b0b0;stroke-width:0.80000001;stroke-linecap:square;stroke-linejoin:round"
               id="path191"
               inkscape:connector-curvature="0" />
          </g>
          <g
             id="line2d_22"
             style="stroke-linecap:butt;stroke-linejoin:round">
            <g
               id="g196"
               style="stroke-linecap:butt;stroke-linejoin:round">
              <use
                 style="stroke:#000000;stroke-width:0.80000001;stroke-linecap:butt;stroke-linejoin:round"
                 x="42.355999"
                 xlink:href="#mb5511d68a2"
                 y="137.58614"
                 id="use194"
                 width="100%"
                 height="100%" />
            </g>
          </g>
          <g
             id="text_12"
             style="stroke-linecap:butt;stroke-linejoin:round">
            <!-- 6 -->
            <g
               transform="matrix(0.1,0,0,-0.1,30.406,141.11583)"
               id="g201"
               style="stroke-linecap:butt;stroke-linejoin:round">
              <use
                 xlink:href="#STIXTwoMath-36"
                 id="use199"
                 style="stroke-linecap:butt;stroke-linejoin:round"
                 x="0"
                 y="0"
                 width="100%"
                 height="100%" />
            </g>
          </g>
        </g>
        <g
           id="ytick_5"
           style="stroke-linecap:butt;stroke-linejoin:round">
          <g
             id="line2d_23"
             style="stroke-linecap:butt;stroke-linejoin:round">
            <path
               clip-path="url(#p8552f3a8e4)"
               d="M 42.356,82.186853 H 447.48"
               style="fill:none;stroke:#b0b0b0;stroke-width:0.80000001;stroke-linecap:square;stroke-linejoin:round"
               id="path205"
               inkscape:connector-curvature="0" />
          </g>
          <g
             id="line2d_24"
             style="stroke-linecap:butt;stroke-linejoin:round">
            <g
               id="g210"
               style="stroke-linecap:butt;stroke-linejoin:round">
              <use
                 style="stroke:#000000;stroke-width:0.80000001;stroke-linecap:butt;stroke-linejoin:round"
                 x="42.355999"
                 xlink:href="#mb5511d68a2"
                 y="82.186852"
                 id="use208"
                 width="100%"
                 height="100%" />
            </g>
          </g>
          <g
             id="text_13"
             style="stroke-linecap:butt;stroke-linejoin:round">
            <!-- 8 -->
            <defs
               id="defs214">
              <path
                 d="m 44.796875,15 c 0,8 -3.59375,12.796875 -15.296875,19.90625 v 0.296875 c 9.296875,5.09375 12.90625,8.390625 12.90625,15.703125 0,7.890625 -7.609375,13.796875 -17.5,13.796875 -11,0 -19,-5.703125 -19,-14.796875 0,-6.8125 2.1875,-10.90625 12.390625,-18 v -0.3125 C 9,25.40625 4.59375,22.203125 4.59375,14.203125 4.59375,4 13,-1.203125 24.59375,-1.203125 36.5,-1.203125 44.796875,4.5 44.796875,15 Z M 35,51.09375 c 0,-6.390625 -2,-10.296875 -8.59375,-14.296875 -8.90625,5.40625 -12.703125,9 -12.703125,14.90625 0,6.09375 4.203125,9.703125 11,9.703125 C 31.09375,61.40625 35,57.703125 35,51.09375 Z M 21.296875,30 C 33.40625,22.203125 36.40625,18.5 36.40625,12.09375 36.40625,5.296875 31.203125,1.90625 25,1.90625 17.40625,1.90625 12.40625,6 12.40625,15 c 0,6.90625 3.1875,10.40625 8.890625,15 z"
                 id="STIXTwoMath-38"
                 inkscape:connector-curvature="0"
                 style="stroke-linecap:butt;stroke-linejoin:round" />
            </defs>
            <g
               transform="matrix(0.1,0,0,-0.1,30.406,85.716541)"
               id="g218"
               style="stroke-linecap:butt;stroke-linejoin:round">
              <use
                 xlink:href="#STIXTwoMath-38"
                 id="use216"
                 style="stroke-linecap:butt;stroke-linejoin:round"
                 x="0"
                 y="0"
                 width="100%"
                 height="100%" />
            </g>
          </g>
        </g>
        <g
           id="ytick_6"
           style="stroke-linecap:butt;stroke-linejoin:round">
          <g
             id="line2d_25"
             style="stroke-linecap:butt;stroke-linejoin:round">
            <path
               clip-path="url(#p8552f3a8e4)"
               d="M 42.356,26.787567 H 447.48"
               style="fill:none;stroke:#b0b0b0;stroke-width:0.80000001;stroke-linecap:square;stroke-linejoin:round"
               id="path222"
               inkscape:connector-curvature="0" />
          </g>
          <g
             id="line2d_26"
             style="stroke-linecap:butt;stroke-linejoin:round">
            <g
               id="g227"
               style="stroke-linecap:butt;stroke-linejoin:round">
              <use
                 style="stroke:#000000;stroke-width:0.80000001;stroke-linecap:butt;stroke-linejoin:round"
                 x="42.355999"
                 xlink:href="#mb5511d68a2"
                 y="26.787567"
                 id="use225"
                 width="100%"
                 height="100%" />
            </g>
          </g>
          <g
             id="text_14"
             style="stroke-linecap:butt;stroke-linejoin:round">
            <!-- 10 -->
            <g
               transform="matrix(0.1,0,0,-0.1,25.456,30.317254)"
               id="g234"
               style="stroke-linecap:butt;stroke-linejoin:round">
              <use
                 xlink:href="#STIXTwoMath-31"
                 id="use230"
                 style="stroke-linecap:butt;stroke-linejoin:round"
                 x="0"
                 y="0"
                 width="100%"
                 height="100%" />
              <use
                 x="49.499985"
                 xlink:href="#STIXTwoMath-30"
                 id="use232"
                 style="stroke-linecap:butt;stroke-linejoin:round"
                 y="0"
                 width="100%"
                 height="100%" />
            </g>
          </g>
        </g>
        <g
           id="text_15"
           style="stroke-linecap:butt;stroke-linejoin:round">
          <!-- $U_2$ -->
          <defs
             id="defs239">
            <path
               d="M 47.40625,13.703125 42,0 H 2.90625 V 1.203125 L 20.703125,20.09375 q 7,7.3125 10,13.40625 3,6.09375 3,12.59375 0,6.703125 -3.703125,10.40625 -3.703125,3.703125 -10.203125,3.703125 -5.390625,0 -8.546875,-2.8125 Q 8.09375,54.59375 5.09375,47.203125 L 3,47.703125 Q 4.703125,57 9.84375,62.296875 15,67.59375 23.796875,67.59375 q 8.296875,0 13.390625,-5 5.109375,-5 5.109375,-12.59375 0,-11.296875 -12.796875,-24.796875 L 13,7.59375 h 23.40625 q 3.296875,0 5.234375,1.296875 1.953125,1.3125 4.359375,5.40625 z"
               id="STIXGeneral-Regular-32"
               inkscape:connector-curvature="0"
               style="stroke-linecap:butt;stroke-linejoin:round" />
          </defs>
          <g
             transform="matrix(0,-0.1,-0.1,0,19.256,164.152)"
             id="g245"
             style="stroke-linecap:butt;stroke-linejoin:round">
            <use
               transform="translate(0,0.703125)"
               xlink:href="#STIXGeneral-Italic-55"
               id="use241"
               style="stroke-linecap:butt;stroke-linejoin:round"
               x="0"
               y="0"
               width="100%"
               height="100%" />
            <use
               transform="matrix(0.7,0,0,0.7,72.199982,-12.525)"
               xlink:href="#STIXGeneral-Regular-32"
               id="use243"
               style="stroke-linecap:butt;stroke-linejoin:round"
               x="0"
               y="0"
               width="100%"
               height="100%" />
          </g>
        </g>
      </g>
      <g
         id="line2d_27"
         style="stroke-linecap:butt;stroke-linejoin:round">
        <path
           clip-path="url(#p8552f3a8e4)"
           d="m 42.356,27.064563 h 40.003809 l 39.668771,0.276996 39.19971,130.022121 38.52963,142.65317 38.19459,0.91409 37.92656,0.38779 37.85955,0.2216 37.92656,0.1662 38.39562,0.16619 38.12758,0.0831"
           style="fill:none;stroke:#1f77b4;stroke-width:1.5;stroke-linecap:square;stroke-linejoin:round"
           id="path249"
           inkscape:connector-curvature="0" />
      </g>
      <g
         id="patch_3"
         style="stroke-linecap:butt;stroke-linejoin:round">
        <path
           d="M 42.356,303.784 V 13.32"
           style="fill:none;stroke:#000000;stroke-width:0.80000001;stroke-linecap:square;stroke-linejoin:miter"
           id="path252"
           inkscape:connector-curvature="0" />
      </g>
      <g
         id="patch_4"
         style="stroke-linecap:butt;stroke-linejoin:round">
        <path
           d="M 447.48,303.784 V 13.32"
           style="fill:none;stroke:#000000;stroke-width:0.80000001;stroke-linecap:square;stroke-linejoin:miter"
           id="path255"
           inkscape:connector-curvature="0" />
      </g>
      <g
         id="patch_5"
         style="stroke-linecap:butt;stroke-linejoin:round">
        <path
           d="M 42.356,303.784 H 447.48"
           style="fill:none;stroke:#000000;stroke-width:0.80000001;stroke-linecap:square;stroke-linejoin:miter"
           id="path258"
           inkscape:connector-curvature="0" />
      </g>
      <g
         id="patch_6"
         style="stroke-linecap:butt;stroke-linejoin:round">
        <path
           d="M 42.356,13.32 H 447.48"
           style="fill:none;stroke:#000000;stroke-width:0.80000001;stroke-linecap:square;stroke-linejoin:miter"
           id="path261"
           inkscape:connector-curvature="0" />
      </g>
    </g>
  </g>
  <defs
     id="defs269">
    <clipPath
       id="p8552f3a8e4"
       style="stroke-linecap:butt;stroke-linejoin:round">
      <rect
         height="290.46399"
         width="405.12399"
         x="42.355999"
         y="13.32"
         id="rect266"
         style="stroke-linecap:butt;stroke-linejoin:round" />
    </clipPath>
  </defs>
</svg>
