<?xml version="1.0" encoding="utf-8" standalone="no"?>
<!DOCTYPE svg PUBLIC "-//W3C//DTD SVG 1.1//EN"
  "http://www.w3.org/Graphics/SVG/1.1/DTD/svg11.dtd">
<!-- Created with matplotlib (http://matplotlib.org/) -->
<svg height="345pt" version="1.1" viewBox="0 0 460 345" width="460pt" xmlns="http://www.w3.org/2000/svg" xmlns:xlink="http://www.w3.org/1999/xlink">
 <defs>
  <style type="text/css">
*{stroke-linecap:butt;stroke-linejoin:round;}
  </style>
 </defs>
 <g id="figure_1">
  <g id="patch_1">
   <path d="M 0 345.6 
L 460.8 345.6 
L 460.8 0 
L 0 0 
z
" style="fill:#ffffff;"/>
  </g>
  <g id="axes_1">
   <g id="patch_2">
    <path d="M 39.26 81.71125 
L 438.885 81.71125 
L 438.885 13.32 
L 39.26 13.32 
z
" style="fill:#ffffff;"/>
   </g>
   <g id="matplotlib.axis_1">
    <g id="xtick_1">
     <g id="line2d_1">
      <path clip-path="url(#p7f15d2d502)" d="M 39.26 81.71125 
L 39.26 13.32 
" style="fill:none;stroke:#b0b0b0;stroke-linecap:square;stroke-width:0.8;"/>
     </g>
     <g id="line2d_2">
      <defs>
       <path d="M 0 0 
L 0 3.5 
" id="m944fe5b186" style="stroke:#000000;stroke-width:0.8;"/>
      </defs>
      <g>
       <use style="stroke:#000000;stroke-width:0.8;" x="39.26" xlink:href="#m944fe5b186" y="81.71125"/>
      </g>
     </g>
     <g id="text_1">
      <!-- 0.020 -->
      <defs>
       <path d="M 46.796875 31.703125 
C 46.796875 52.296875 37.796875 64.203125 24.90625 64.203125 
C 10.40625 64.203125 2.703125 51 2.703125 32 
C 2.703125 14.296875 8.59375 -1.09375 24.703125 -1.09375 
C 40.40625 -1.09375 46.796875 14.59375 46.796875 31.703125 
z
M 37.09375 31.09375 
C 37.09375 11.90625 32.59375 2.5 24.703125 2.5 
C 16.703125 2.5 12.296875 12.09375 12.296875 31.5 
C 12.296875 51.296875 16.703125 60.796875 24.59375 60.796875 
C 32.796875 60.796875 37.09375 51.40625 37.09375 31.09375 
z
" id="STIXTwoMath-30"/>
       <path d="M 18.203125 4.90625 
C 18.203125 8.203125 16.09375 11.09375 12.296875 11.09375 
C 8.59375 11.09375 6.40625 8.296875 6.40625 5 
C 6.40625 1.59375 8.296875 -0.796875 12.203125 -0.796875 
C 16.09375 -0.796875 18.203125 1.796875 18.203125 4.90625 
z
" id="STIXTwoMath-2e"/>
       <path d="M 46.40625 16 
L 43.5 16 
C 41.203125 10 39.90625 7.90625 34.59375 7.90625 
L 20.703125 7.90625 
L 13.703125 7.59375 
L 13.703125 8.09375 
L 26.90625 20.59375 
C 37.5 31.296875 43.203125 38.203125 43.203125 47.09375 
C 43.203125 57.59375 35.296875 64.40625 24 64.40625 
C 14.296875 64.40625 7.5 58.796875 4.40625 49.09375 
L 6.796875 48.09375 
C 10.5 55.59375 14.90625 57.90625 21.40625 57.90625 
C 29.09375 57.90625 33.90625 53.09375 33.90625 45.59375 
C 33.90625 35.09375 28.90625 28.796875 19 18.59375 
L 3.796875 3.40625 
L 3.796875 0 
L 43.203125 0 
z
" id="STIXTwoMath-32"/>
      </defs>
      <g transform="translate(28.130312 95.770625)scale(0.1 -0.1)">
       <use xlink:href="#STIXTwoMath-30"/>
       <use x="49.499985" xlink:href="#STIXTwoMath-2e"/>
       <use x="74.099976" xlink:href="#STIXTwoMath-30"/>
       <use x="123.59996" xlink:href="#STIXTwoMath-32"/>
       <use x="173.099945" xlink:href="#STIXTwoMath-30"/>
      </g>
     </g>
    </g>
    <g id="xtick_2">
     <g id="line2d_3">
      <path clip-path="url(#p7f15d2d502)" d="M 119.185 81.71125 
L 119.185 13.32 
" style="fill:none;stroke:#b0b0b0;stroke-linecap:square;stroke-width:0.8;"/>
     </g>
     <g id="line2d_4">
      <g>
       <use style="stroke:#000000;stroke-width:0.8;" x="119.185" xlink:href="#m944fe5b186" y="81.71125"/>
      </g>
     </g>
     <g id="text_2">
      <!-- 0.022 -->
      <g transform="translate(108.055312 95.770625)scale(0.1 -0.1)">
       <use xlink:href="#STIXTwoMath-30"/>
       <use x="49.499985" xlink:href="#STIXTwoMath-2e"/>
       <use x="74.099976" xlink:href="#STIXTwoMath-30"/>
       <use x="123.59996" xlink:href="#STIXTwoMath-32"/>
       <use x="173.099945" xlink:href="#STIXTwoMath-32"/>
      </g>
     </g>
    </g>
    <g id="xtick_3">
     <g id="line2d_5">
      <path clip-path="url(#p7f15d2d502)" d="M 199.11 81.71125 
L 199.11 13.32 
" style="fill:none;stroke:#b0b0b0;stroke-linecap:square;stroke-width:0.8;"/>
     </g>
     <g id="line2d_6">
      <g>
       <use style="stroke:#000000;stroke-width:0.8;" x="199.11" xlink:href="#m944fe5b186" y="81.71125"/>
      </g>
     </g>
     <g id="text_3">
      <!-- 0.024 -->
      <defs>
       <path d="M 48.09375 15.796875 
L 48.09375 22.703125 
L 37.90625 22.703125 
L 37.90625 64.5 
L 31.796875 64.5 
L 1.296875 22.09375 
L 1.296875 15.796875 
L 29 15.796875 
L 29 0 
L 37.90625 0 
L 37.90625 15.796875 
z
M 29 22.703125 
L 6.796875 22.703125 
L 6.796875 23.09375 
L 28.59375 53.59375 
L 29 53.59375 
z
" id="STIXTwoMath-34"/>
      </defs>
      <g transform="translate(187.980313 95.770625)scale(0.1 -0.1)">
       <use xlink:href="#STIXTwoMath-30"/>
       <use x="49.499985" xlink:href="#STIXTwoMath-2e"/>
       <use x="74.099976" xlink:href="#STIXTwoMath-30"/>
       <use x="123.59996" xlink:href="#STIXTwoMath-32"/>
       <use x="173.099945" xlink:href="#STIXTwoMath-34"/>
      </g>
     </g>
    </g>
    <g id="xtick_4">
     <g id="line2d_7">
      <path clip-path="url(#p7f15d2d502)" d="M 279.035 81.71125 
L 279.035 13.32 
" style="fill:none;stroke:#b0b0b0;stroke-linecap:square;stroke-width:0.8;"/>
     </g>
     <g id="line2d_8">
      <g>
       <use style="stroke:#000000;stroke-width:0.8;" x="279.035" xlink:href="#m944fe5b186" y="81.71125"/>
      </g>
     </g>
     <g id="text_4">
      <!-- 0.026 -->
      <defs>
       <path d="M 41.5 64.59375 
C 20 63.703125 4.5 49.796875 4.5 25.703125 
C 4.5 11 11 -1.203125 25.90625 -1.203125 
C 38.5 -1.203125 45.703125 6.703125 45.703125 20.296875 
C 45.703125 33.40625 38.59375 41.296875 27.703125 41.296875 
C 22.5 41.296875 18.796875 39.09375 14.703125 35.09375 
L 14 35.203125 
C 16.5 49.796875 27.703125 59.59375 41.703125 61.703125 
z
M 37 19.5 
C 37 6.796875 33 2.296875 26.296875 2.296875 
C 17.59375 2.296875 13.5 11.203125 13.5 23.59375 
C 13.5 32.296875 18.90625 35.5 24.703125 35.5 
C 33 35.5 37 28.5 37 19.5 
z
" id="STIXTwoMath-36"/>
      </defs>
      <g transform="translate(267.905313 95.770625)scale(0.1 -0.1)">
       <use xlink:href="#STIXTwoMath-30"/>
       <use x="49.499985" xlink:href="#STIXTwoMath-2e"/>
       <use x="74.099976" xlink:href="#STIXTwoMath-30"/>
       <use x="123.59996" xlink:href="#STIXTwoMath-32"/>
       <use x="173.099945" xlink:href="#STIXTwoMath-36"/>
      </g>
     </g>
    </g>
    <g id="xtick_5">
     <g id="line2d_9">
      <path clip-path="url(#p7f15d2d502)" d="M 358.96 81.71125 
L 358.96 13.32 
" style="fill:none;stroke:#b0b0b0;stroke-linecap:square;stroke-width:0.8;"/>
     </g>
     <g id="line2d_10">
      <g>
       <use style="stroke:#000000;stroke-width:0.8;" x="358.96" xlink:href="#m944fe5b186" y="81.71125"/>
      </g>
     </g>
     <g id="text_5">
      <!-- 0.028 -->
      <defs>
       <path d="M 44.796875 15 
C 44.796875 23 41.203125 27.796875 29.5 34.90625 
L 29.5 35.203125 
C 38.796875 40.296875 42.40625 43.59375 42.40625 50.90625 
C 42.40625 58.796875 34.796875 64.703125 24.90625 64.703125 
C 13.90625 64.703125 5.90625 59 5.90625 49.90625 
C 5.90625 43.09375 8.09375 39 18.296875 31.90625 
L 18.296875 31.59375 
C 9 25.40625 4.59375 22.203125 4.59375 14.203125 
C 4.59375 4 13 -1.203125 24.59375 -1.203125 
C 36.5 -1.203125 44.796875 4.5 44.796875 15 
z
M 35 51.09375 
C 35 44.703125 33 40.796875 26.40625 36.796875 
C 17.5 42.203125 13.703125 45.796875 13.703125 51.703125 
C 13.703125 57.796875 17.90625 61.40625 24.703125 61.40625 
C 31.09375 61.40625 35 57.703125 35 51.09375 
z
M 21.296875 30 
C 33.40625 22.203125 36.40625 18.5 36.40625 12.09375 
C 36.40625 5.296875 31.203125 1.90625 25 1.90625 
C 17.40625 1.90625 12.40625 6 12.40625 15 
C 12.40625 21.90625 15.59375 25.40625 21.296875 30 
z
" id="STIXTwoMath-38"/>
      </defs>
      <g transform="translate(347.830313 95.770625)scale(0.1 -0.1)">
       <use xlink:href="#STIXTwoMath-30"/>
       <use x="49.499985" xlink:href="#STIXTwoMath-2e"/>
       <use x="74.099976" xlink:href="#STIXTwoMath-30"/>
       <use x="123.59996" xlink:href="#STIXTwoMath-32"/>
       <use x="173.099945" xlink:href="#STIXTwoMath-38"/>
      </g>
     </g>
    </g>
    <g id="xtick_6">
     <g id="line2d_11">
      <path clip-path="url(#p7f15d2d502)" d="M 438.885 81.71125 
L 438.885 13.32 
" style="fill:none;stroke:#b0b0b0;stroke-linecap:square;stroke-width:0.8;"/>
     </g>
     <g id="line2d_12">
      <g>
       <use style="stroke:#000000;stroke-width:0.8;" x="438.885" xlink:href="#m944fe5b186" y="81.71125"/>
      </g>
     </g>
     <g id="text_6">
      <!-- 0.030 -->
      <defs>
       <path d="M 8.59375 49.796875 
C 12 55.09375 15.703125 57.90625 21.703125 57.90625 
C 27.90625 57.90625 31.90625 54.5 31.90625 48.59375 
C 31.90625 40.5 24.796875 35 18 35 
L 16.09375 35 
L 16.09375 31.203125 
L 18.09375 31.203125 
C 27.703125 31.203125 36.203125 25.296875 36.203125 16.40625 
C 36.203125 6.59375 30.09375 3.703125 23.796875 3.703125 
C 21.40625 3.703125 20 4.09375 15.703125 6.296875 
C 12.203125 8.09375 11.40625 8.59375 9.796875 8.59375 
C 7.203125 8.59375 5.90625 6.296875 5.90625 4.203125 
C 5.90625 1.59375 8.09375 -1.296875 17.09375 -1.296875 
C 31.703125 -1.296875 44.40625 5.703125 44.40625 19.40625 
C 44.40625 28.296875 37.703125 33.59375 29.703125 36.09375 
L 29.703125 36.40625 
C 36 40.40625 40.5 44.09375 40.5 51 
C 40.5 58.59375 34.59375 64.40625 24.40625 64.40625 
C 16.203125 64.40625 10 59.796875 6.296875 51.09375 
z
" id="STIXTwoMath-33"/>
      </defs>
      <g transform="translate(427.755313 95.770625)scale(0.1 -0.1)">
       <use xlink:href="#STIXTwoMath-30"/>
       <use x="49.499985" xlink:href="#STIXTwoMath-2e"/>
       <use x="74.099976" xlink:href="#STIXTwoMath-30"/>
       <use x="123.59996" xlink:href="#STIXTwoMath-33"/>
       <use x="173.099945" xlink:href="#STIXTwoMath-30"/>
      </g>
     </g>
    </g>
    <g id="text_7">
     <!-- t, (с) -->
     <defs>
      <path d="M 29.296875 9 
C 26.796875 6.203125 25.5 4.90625 22.296875 4.90625 
C 18.40625 4.90625 17.5 7.296875 17.5 14.40625 
L 17.5 43.09375 
L 28.796875 43.09375 
L 28.796875 47.296875 
L 17.5 47.296875 
L 17.59375 61 
L 15 61 
C 11.40625 52.5 8.40625 48.296875 3.703125 45.40625 
L 3.703125 43.09375 
L 9.203125 43.09375 
L 9.203125 11.59375 
C 9.203125 2.59375 12.09375 -1 18.796875 -1 
C 25.203125 -1 27.296875 2 31.203125 7.40625 
z
" id="STIXTwoMath-74"/>
      <path d="M 7.40625 -14.203125 
C 11.40625 -12.40625 19.796875 -9 19.796875 2.296875 
C 19.796875 7.796875 17.09375 11.09375 12.09375 11.09375 
C 8.09375 11.09375 5.90625 8.40625 5.90625 5.203125 
C 5.90625 2.296875 7.5 -0.203125 11.40625 -0.203125 
C 12.5 -0.203125 13.40625 0 14.5 0.40625 
C 14.5 -7.703125 9.90625 -10.09375 6.203125 -11.703125 
z
" id="STIXTwoMath-2c"/>
      <path id="STIXTwoMath-20"/>
      <path d="M 4.296875 27.40625 
C 4.296875 5.40625 14.796875 -10.296875 30.90625 -18.59375 
L 32.5 -15.796875 
C 17.90625 -6.203125 12.5 7.296875 12.5 27.40625 
C 12.5 47.296875 17.90625 60.703125 32.5 70.40625 
L 30.90625 73 
C 14.796875 64.796875 4.296875 49.203125 4.296875 27.40625 
z
" id="STIXTwoMath-28"/>
      <path d="M 40.796875 14.796875 
C 36.296875 9 32.90625 6.5 26.40625 6.5 
C 16.09375 6.5 11.203125 15.09375 11.203125 27.296875 
C 11.203125 38.796875 16.09375 44.796875 24.203125 44.796875 
C 32.796875 44.796875 29.5 33.40625 36.90625 33.40625 
C 39.703125 33.40625 41.09375 35 41.09375 37.90625 
C 41.09375 43.703125 35.296875 48.5 25.90625 48.5 
C 11.5 48.5 3.296875 38.296875 3.296875 22.59375 
C 3.296875 8.703125 10.796875 -1 23.296875 -1 
C 34 -1 38.90625 5.296875 42.703125 13.40625 
z
" id="STIXTwoMath-441"/>
      <path d="M 31.296875 27.40625 
C 31.296875 49.203125 20.796875 64.796875 4.703125 73 
L 3.09375 70.40625 
C 17.703125 60.703125 23.09375 47.296875 23.09375 27.40625 
C 23.09375 7.296875 17.703125 -6.203125 3.09375 -15.796875 
L 4.703125 -18.59375 
C 20.796875 -10.296875 31.296875 5.40625 31.296875 27.40625 
z
" id="STIXTwoMath-29"/>
     </defs>
     <g transform="translate(229.27875 109.03)scale(0.1 -0.1)">
      <use xlink:href="#STIXTwoMath-74"/>
      <use x="31.499985" xlink:href="#STIXTwoMath-2c"/>
      <use x="56.599976" xlink:href="#STIXTwoMath-20"/>
      <use x="80.09996" xlink:href="#STIXTwoMath-28"/>
      <use x="115.699951" xlink:href="#STIXTwoMath-441"/>
      <use x="160.299942" xlink:href="#STIXTwoMath-29"/>
     </g>
    </g>
   </g>
   <g id="matplotlib.axis_2">
    <g id="ytick_1">
     <g id="line2d_13">
      <path clip-path="url(#p7f15d2d502)" d="M 39.26 78.602557 
L 438.885 78.602557 
" style="fill:none;stroke:#b0b0b0;stroke-linecap:square;stroke-width:0.8;"/>
     </g>
     <g id="line2d_14">
      <defs>
       <path d="M 0 0 
L -3.5 0 
" id="md20e8d2482" style="stroke:#000000;stroke-width:0.8;"/>
      </defs>
      <g>
       <use style="stroke:#000000;stroke-width:0.8;" x="39.26" xlink:href="#md20e8d2482" y="78.602557"/>
      </g>
     </g>
     <g id="text_8">
      <!-- 0 -->
      <g transform="translate(27.31 82.132244)scale(0.1 -0.1)">
       <use xlink:href="#STIXTwoMath-30"/>
      </g>
     </g>
    </g>
    <g id="ytick_2">
     <g id="line2d_15">
      <path clip-path="url(#p7f15d2d502)" d="M 39.26 53.733011 
L 438.885 53.733011 
" style="fill:none;stroke:#b0b0b0;stroke-linecap:square;stroke-width:0.8;"/>
     </g>
     <g id="line2d_16">
      <g>
       <use style="stroke:#000000;stroke-width:0.8;" x="39.26" xlink:href="#md20e8d2482" y="53.733011"/>
      </g>
     </g>
     <g id="text_9">
      <!-- 2 -->
      <g transform="translate(27.31 57.262699)scale(0.1 -0.1)">
       <use xlink:href="#STIXTwoMath-32"/>
      </g>
     </g>
    </g>
    <g id="ytick_3">
     <g id="line2d_17">
      <path clip-path="url(#p7f15d2d502)" d="M 39.26 28.863466 
L 438.885 28.863466 
" style="fill:none;stroke:#b0b0b0;stroke-linecap:square;stroke-width:0.8;"/>
     </g>
     <g id="line2d_18">
      <g>
       <use style="stroke:#000000;stroke-width:0.8;" x="39.26" xlink:href="#md20e8d2482" y="28.863466"/>
      </g>
     </g>
     <g id="text_10">
      <!-- 4 -->
      <g transform="translate(27.31 32.393153)scale(0.1 -0.1)">
       <use xlink:href="#STIXTwoMath-34"/>
      </g>
     </g>
    </g>
    <g id="text_11">
     <!-- $U_{1ВХ}$, (В) -->
     <defs>
      <path d="M 76.5 65.296875 
L 76.5 63.703125 
Q 74.40625 63.203125 73.34375 62.75 
Q 72.296875 62.296875 71.296875 61.640625 
Q 70.296875 61 69.546875 59.203125 
Q 68.796875 57.40625 68.09375 55.296875 
Q 67.40625 53.203125 66.09375 48.796875 
L 57.796875 20.296875 
Q 54.40625 8.703125 48.09375 3.40625 
Q 42.09375 -1.796875 32.296875 -1.796875 
Q 22.5 -1.796875 16.34375 2.796875 
Q 10.203125 7.40625 10.203125 14.59375 
Q 10.203125 20.09375 14.59375 36.203125 
L 19.796875 55.09375 
Q 20.703125 58.296875 20.703125 59.59375 
Q 20.703125 61.59375 18.953125 62.59375 
Q 17.203125 63.59375 12.703125 63.703125 
L 12.703125 65.296875 
L 39.90625 65.296875 
L 39.90625 63.703125 
Q 34.796875 63.203125 32.84375 61.5 
Q 30.90625 59.796875 29.5 54.59375 
L 23.203125 32 
Q 19.203125 17.90625 19.203125 14.09375 
Q 19.203125 8.796875 23.140625 5.546875 
Q 27.09375 2.296875 33 2.296875 
Q 41.40625 2.296875 46.5 7.6875 
Q 51.59375 13.09375 55 25.5 
L 61.40625 48.796875 
Q 63.703125 57.296875 63.703125 59.09375 
Q 63.703125 61.296875 62.203125 62.296875 
Q 60.703125 63.296875 56.703125 63.703125 
L 56.703125 65.296875 
z
" id="STIXGeneral-Italic-55"/>
      <path d="M 39.40625 0 
L 11.796875 0 
L 11.796875 1.5 
Q 17.296875 1.796875 19.296875 3.546875 
Q 21.296875 5.296875 21.296875 9.5 
L 21.296875 54.40625 
Q 21.296875 59.296875 18.296875 59.296875 
Q 16.90625 59.296875 13.796875 58.09375 
L 11.09375 57.09375 
L 11.09375 58.5 
L 29 67.59375 
L 29.90625 67.296875 
L 29.90625 7.59375 
Q 29.90625 4.296875 31.90625 2.890625 
Q 33.90625 1.5 39.40625 1.5 
z
" id="STIXGeneral-Regular-31"/>
      <path d="M 11.296875 65.296875 
L 36.296875 65.296875 
Q 46.5 65.296875 51.796875 61.84375 
Q 57.09375 58.40625 57.09375 52.296875 
Q 57.09375 44.90625 52.140625 40.65625 
Q 47.203125 36.40625 39.59375 35.09375 
L 39.59375 35 
Q 52.40625 31.09375 52.40625 20 
Q 52.40625 10.203125 44.953125 5.09375 
Q 37.5 0 24.90625 0 
L -2.296875 0 
L -2.296875 1.59375 
Q 2 2.203125 3.59375 3.640625 
Q 5.203125 5.09375 6.40625 9.59375 
L 17.90625 53.203125 
Q 19 57.09375 19 59.59375 
Q 19 61.796875 17.5 62.546875 
Q 16 63.296875 11.296875 63.703125 
z
M 23.203125 36.5 
L 26.90625 36.5 
Q 47 36.5 47 51.5 
Q 47 57 44.25 59.34375 
Q 41.5 61.703125 35.296875 61.703125 
Q 33 61.703125 32.09375 61.546875 
Q 31.203125 61.40625 30.390625 60.65625 
Q 29.59375 59.90625 29.09375 58.09375 
z
M 22.203125 32.90625 
L 19 21.203125 
Q 15.796875 9.59375 15.796875 7.796875 
Q 15.796875 3.59375 22.5 3.59375 
Q 31.40625 3.59375 36.5 7.75 
Q 41.59375 11.90625 41.59375 20 
Q 41.59375 24.5 39.640625 27.703125 
Q 37.703125 30.90625 34.703125 31.90625 
Q 31.796875 32.90625 22.203125 32.90625 
z
" id="STIXGeneral-Italic-412"/>
      <path d="M 61.703125 65.296875 
L 61.703125 63.703125 
Q 58.40625 62.59375 55.65625 60.546875 
Q 52.90625 58.5 49.203125 54.203125 
L 32.296875 34.796875 
L 42.40625 9.296875 
Q 44.203125 4.796875 46 3.5 
Q 47.796875 2.203125 52.90625 1.59375 
L 52.90625 0 
L 25.796875 0 
L 25.796875 1.59375 
Q 30.09375 1.703125 31.796875 2.546875 
Q 33.5 3.40625 33.5 5.296875 
Q 33.5 6.90625 32.09375 10.40625 
L 25.40625 26.90625 
L 10.296875 9.703125 
Q 8 7.09375 8 4.90625 
Q 8 1.59375 14.59375 1.59375 
L 14.59375 0 
L -6.703125 0 
L -6.703125 1.59375 
Q -2.703125 2.296875 0.890625 5.640625 
Q 4.5 9 15.296875 21.59375 
L 23.59375 31.296875 
L 13.296875 56.796875 
Q 11.796875 60.5 9.9375 61.890625 
Q 8.09375 63.296875 3.796875 63.703125 
L 3.796875 65.296875 
L 30.09375 65.296875 
L 30.09375 63.703125 
Q 26 63.203125 24.5 62.34375 
Q 23 61.5 23 59.59375 
Q 23 57.90625 24.59375 54 
L 30.5 39.296875 
L 45 56 
Q 47.09375 58.40625 47.09375 60.296875 
Q 47.09375 63.40625 41 63.703125 
L 41 65.296875 
z
" id="STIXGeneral-Italic-425"/>
      <path d="M 40.90625 35 
C 49.203125 37.203125 55.09375 41.203125 55.09375 50.09375 
C 55.09375 60 48.40625 65.703125 30.59375 65.703125 
L 3.59375 65.703125 
L 3.59375 62.703125 
C 11.703125 62.703125 13.296875 61.59375 13.296875 53.59375 
L 13.296875 12.703125 
C 13.296875 4.40625 11.703125 3 3.59375 3 
L 3.59375 0 
L 34.40625 0 
C 49.296875 0 58.296875 6.296875 58.296875 17.703125 
C 58.296875 28.59375 49.40625 33.203125 40.90625 34.59375 
z
M 22.5 36.203125 
L 22.5 61.5 
C 24.5 61.703125 26.59375 61.796875 28.5 61.796875 
C 40.703125 61.796875 45.203125 57.09375 45.203125 49.296875 
C 45.203125 40.203125 41.40625 36.203125 29.296875 36.203125 
z
M 22.5 32 
L 29.5 32 
C 38.796875 32 47.796875 28.90625 47.796875 17.5 
C 47.796875 4.796875 38.296875 3.703125 29.703125 3.703125 
C 27.296875 3.703125 24.90625 3.796875 22.5 4 
z
" id="STIXTwoMath-412"/>
     </defs>
     <g transform="translate(21.11 66.315625)rotate(-90)scale(0.1 -0.1)">
      <use xlink:href="#STIXGeneral-Italic-55"/>
      <use transform="translate(72.199982 -13.228125)scale(0.7)" xlink:href="#STIXGeneral-Regular-31"/>
      <use transform="translate(107.199971 -13.228125)scale(0.7)" xlink:href="#STIXGeneral-Italic-412"/>
      <use transform="translate(148.989969 -13.228125)scale(0.7)" xlink:href="#STIXGeneral-Italic-425"/>
      <use transform="translate(193.649333 0)" xlink:href="#STIXTwoMath-2c"/>
      <use transform="translate(218.749324 0)" xlink:href="#STIXTwoMath-20"/>
      <use transform="translate(242.249309 0)" xlink:href="#STIXTwoMath-28"/>
      <use transform="translate(277.8493 0)" xlink:href="#STIXTwoMath-412"/>
      <use transform="translate(339.649287 0)" xlink:href="#STIXTwoMath-29"/>
     </g>
    </g>
   </g>
   <g id="line2d_19">
    <path clip-path="url(#p7f15d2d502)" d="M 33.543223 78.602557 
L 59.890291 78.602557 
L 107.08222 78.602557 
L 107.182126 78.602557 
L 107.381939 78.602557 
L 107.624304 78.602557 
L 107.781863 78.602557 
L 107.931371 78.602557 
L 108.081282 78.602557 
L 108.102213 78.602557 
L 108.144074 78.602557 
L 108.227796 78.602557 
L 108.39524 78.602557 
L 108.730127 78.602557 
L 109.399903 78.602557 
L 110.739453 78.602557 
L 113.418555 78.602557 
L 118.776758 78.602557 
L 129.493164 78.602557 
L 150.925975 78.602557 
L 193.791598 78.602557 
L 205.989407 78.602557 
L 206.089314 78.602557 
L 206.289126 78.602557 
L 206.56606 78.602557 
L 206.831936 78.602557 
L 206.931139 78.602557 
L 206.98847 78.602557 
L 206.989364 78.574737 
L 206.991152 78.519097 
L 206.993583 78.44345 
L 206.994956 78.40075 
L 206.996785 78.343823 
L 206.998532 78.289479 
L 207.000561 78.226333 
L 207.003599 78.131809 
L 207.006486 78.041964 
L 207.012261 77.862274 
L 207.018104 77.680473 
L 207.029789 77.31687 
L 207.049637 76.699283 
L 207.087924 75.507933 
L 207.161852 73.207598 
L 207.309707 68.606928 
L 207.43385 64.744072 
L 207.581823 60.139713 
L 207.719064 55.869332 
L 207.894864 50.3991 
L 208.07142 44.90538 
L 208.260751 39.014145 
L 208.470711 32.480993 
L 208.890632 19.41469 
L 208.986595 16.428693 
L 209.037973 16.428693 
L 209.14073 16.428693 
L 209.346244 16.428693 
L 209.757272 16.428693 
L 210.579328 16.428693 
L 212.223439 16.428693 
L 215.511662 16.428693 
L 222.088107 16.428693 
L 235.240998 16.428693 
L 261.546779 16.428693 
L 306.89472 16.428693 
L 306.994626 16.428693 
L 307.194439 16.428693 
L 307.594064 16.428693 
L 307.893782 16.428693 
L 307.918463 16.428693 
L 307.967825 16.428693 
L 308.066549 16.428693 
L 308.263996 16.428693 
L 308.65889 16.428693 
L 309.448679 16.428693 
L 311.028256 16.428693 
L 314.187411 16.428693 
L 320.50572 16.428693 
L 333.142339 16.428693 
L 358.415576 16.428693 
L 404.372451 16.428693 
L 404.472357 19.537386 
L 404.67217 25.754773 
L 404.780133 29.114172 
L 404.885035 32.378324 
L 405.09484 38.906629 
L 405.371513 47.515625 
L 405.413474 48.821286 
L 405.497396 51.432608 
L 405.65347 56.289024 
L 405.965618 66.001855 
L 406.140389 71.440021 
L 406.277769 75.71476 
L 406.370576 78.602557 
L 406.370816 78.602557 
L 406.371295 78.602557 
L 406.372254 78.602557 
L 406.373282 78.602557 
L 406.375038 78.602557 
L 406.376784 78.602557 
L 406.378391 78.602557 
L 406.380109 78.602557 
L 406.381751 78.602557 
L 406.383948 78.602557 
L 406.386475 78.602557 
L 406.390363 78.602557 
L 406.394993 78.602557 
L 406.403625 78.602557 
L 406.41649 78.602557 
L 406.44222 78.602557 
L 406.493679 78.602557 
L 406.596597 78.602557 
L 406.802434 78.602557 
L 407.214107 78.602557 
L 408.037452 78.602557 
L 409.684144 78.602557 
L 412.977528 78.602557 
L 419.564295 78.602557 
L 432.737829 78.602557 
L 459.084897 78.602557 
" style="fill:none;stroke:#1f77b4;stroke-linecap:square;stroke-width:1.5;"/>
   </g>
   <g id="patch_3">
    <path d="M 39.26 81.71125 
L 39.26 13.32 
" style="fill:none;stroke:#000000;stroke-linecap:square;stroke-linejoin:miter;stroke-width:0.8;"/>
   </g>
   <g id="patch_4">
    <path d="M 438.885 81.71125 
L 438.885 13.32 
" style="fill:none;stroke:#000000;stroke-linecap:square;stroke-linejoin:miter;stroke-width:0.8;"/>
   </g>
   <g id="patch_5">
    <path d="M 39.26 81.71125 
L 438.885 81.71125 
" style="fill:none;stroke:#000000;stroke-linecap:square;stroke-linejoin:miter;stroke-width:0.8;"/>
   </g>
   <g id="patch_6">
    <path d="M 39.26 13.32 
L 438.885 13.32 
" style="fill:none;stroke:#000000;stroke-linecap:square;stroke-linejoin:miter;stroke-width:0.8;"/>
   </g>
  </g>
  <g id="axes_2">
   <g id="patch_7">
    <path d="M 39.26 193.31125 
L 438.885 193.31125 
L 438.885 124.92 
L 39.26 124.92 
z
" style="fill:#ffffff;"/>
   </g>
   <g id="matplotlib.axis_3">
    <g id="xtick_7">
     <g id="line2d_20">
      <path clip-path="url(#p2364bbd126)" d="M 39.26 193.31125 
L 39.26 124.92 
" style="fill:none;stroke:#b0b0b0;stroke-linecap:square;stroke-width:0.8;"/>
     </g>
     <g id="line2d_21">
      <g>
       <use style="stroke:#000000;stroke-width:0.8;" x="39.26" xlink:href="#m944fe5b186" y="193.31125"/>
      </g>
     </g>
     <g id="text_12">
      <!-- 0.020 -->
      <g transform="translate(28.130312 207.370625)scale(0.1 -0.1)">
       <use xlink:href="#STIXTwoMath-30"/>
       <use x="49.499985" xlink:href="#STIXTwoMath-2e"/>
       <use x="74.099976" xlink:href="#STIXTwoMath-30"/>
       <use x="123.59996" xlink:href="#STIXTwoMath-32"/>
       <use x="173.099945" xlink:href="#STIXTwoMath-30"/>
      </g>
     </g>
    </g>
    <g id="xtick_8">
     <g id="line2d_22">
      <path clip-path="url(#p2364bbd126)" d="M 119.185 193.31125 
L 119.185 124.92 
" style="fill:none;stroke:#b0b0b0;stroke-linecap:square;stroke-width:0.8;"/>
     </g>
     <g id="line2d_23">
      <g>
       <use style="stroke:#000000;stroke-width:0.8;" x="119.185" xlink:href="#m944fe5b186" y="193.31125"/>
      </g>
     </g>
     <g id="text_13">
      <!-- 0.022 -->
      <g transform="translate(108.055312 207.370625)scale(0.1 -0.1)">
       <use xlink:href="#STIXTwoMath-30"/>
       <use x="49.499985" xlink:href="#STIXTwoMath-2e"/>
       <use x="74.099976" xlink:href="#STIXTwoMath-30"/>
       <use x="123.59996" xlink:href="#STIXTwoMath-32"/>
       <use x="173.099945" xlink:href="#STIXTwoMath-32"/>
      </g>
     </g>
    </g>
    <g id="xtick_9">
     <g id="line2d_24">
      <path clip-path="url(#p2364bbd126)" d="M 199.11 193.31125 
L 199.11 124.92 
" style="fill:none;stroke:#b0b0b0;stroke-linecap:square;stroke-width:0.8;"/>
     </g>
     <g id="line2d_25">
      <g>
       <use style="stroke:#000000;stroke-width:0.8;" x="199.11" xlink:href="#m944fe5b186" y="193.31125"/>
      </g>
     </g>
     <g id="text_14">
      <!-- 0.024 -->
      <g transform="translate(187.980313 207.370625)scale(0.1 -0.1)">
       <use xlink:href="#STIXTwoMath-30"/>
       <use x="49.499985" xlink:href="#STIXTwoMath-2e"/>
       <use x="74.099976" xlink:href="#STIXTwoMath-30"/>
       <use x="123.59996" xlink:href="#STIXTwoMath-32"/>
       <use x="173.099945" xlink:href="#STIXTwoMath-34"/>
      </g>
     </g>
    </g>
    <g id="xtick_10">
     <g id="line2d_26">
      <path clip-path="url(#p2364bbd126)" d="M 279.035 193.31125 
L 279.035 124.92 
" style="fill:none;stroke:#b0b0b0;stroke-linecap:square;stroke-width:0.8;"/>
     </g>
     <g id="line2d_27">
      <g>
       <use style="stroke:#000000;stroke-width:0.8;" x="279.035" xlink:href="#m944fe5b186" y="193.31125"/>
      </g>
     </g>
     <g id="text_15">
      <!-- 0.026 -->
      <g transform="translate(267.905313 207.370625)scale(0.1 -0.1)">
       <use xlink:href="#STIXTwoMath-30"/>
       <use x="49.499985" xlink:href="#STIXTwoMath-2e"/>
       <use x="74.099976" xlink:href="#STIXTwoMath-30"/>
       <use x="123.59996" xlink:href="#STIXTwoMath-32"/>
       <use x="173.099945" xlink:href="#STIXTwoMath-36"/>
      </g>
     </g>
    </g>
    <g id="xtick_11">
     <g id="line2d_28">
      <path clip-path="url(#p2364bbd126)" d="M 358.96 193.31125 
L 358.96 124.92 
" style="fill:none;stroke:#b0b0b0;stroke-linecap:square;stroke-width:0.8;"/>
     </g>
     <g id="line2d_29">
      <g>
       <use style="stroke:#000000;stroke-width:0.8;" x="358.96" xlink:href="#m944fe5b186" y="193.31125"/>
      </g>
     </g>
     <g id="text_16">
      <!-- 0.028 -->
      <g transform="translate(347.830313 207.370625)scale(0.1 -0.1)">
       <use xlink:href="#STIXTwoMath-30"/>
       <use x="49.499985" xlink:href="#STIXTwoMath-2e"/>
       <use x="74.099976" xlink:href="#STIXTwoMath-30"/>
       <use x="123.59996" xlink:href="#STIXTwoMath-32"/>
       <use x="173.099945" xlink:href="#STIXTwoMath-38"/>
      </g>
     </g>
    </g>
    <g id="xtick_12">
     <g id="line2d_30">
      <path clip-path="url(#p2364bbd126)" d="M 438.885 193.31125 
L 438.885 124.92 
" style="fill:none;stroke:#b0b0b0;stroke-linecap:square;stroke-width:0.8;"/>
     </g>
     <g id="line2d_31">
      <g>
       <use style="stroke:#000000;stroke-width:0.8;" x="438.885" xlink:href="#m944fe5b186" y="193.31125"/>
      </g>
     </g>
     <g id="text_17">
      <!-- 0.030 -->
      <g transform="translate(427.755313 207.370625)scale(0.1 -0.1)">
       <use xlink:href="#STIXTwoMath-30"/>
       <use x="49.499985" xlink:href="#STIXTwoMath-2e"/>
       <use x="74.099976" xlink:href="#STIXTwoMath-30"/>
       <use x="123.59996" xlink:href="#STIXTwoMath-33"/>
       <use x="173.099945" xlink:href="#STIXTwoMath-30"/>
      </g>
     </g>
    </g>
    <g id="text_18">
     <!-- t, (с) -->
     <g transform="translate(229.27875 220.63)scale(0.1 -0.1)">
      <use xlink:href="#STIXTwoMath-74"/>
      <use x="31.499985" xlink:href="#STIXTwoMath-2c"/>
      <use x="56.599976" xlink:href="#STIXTwoMath-20"/>
      <use x="80.09996" xlink:href="#STIXTwoMath-28"/>
      <use x="115.699951" xlink:href="#STIXTwoMath-441"/>
      <use x="160.299942" xlink:href="#STIXTwoMath-29"/>
     </g>
    </g>
   </g>
   <g id="matplotlib.axis_4">
    <g id="ytick_4">
     <g id="line2d_32">
      <path clip-path="url(#p2364bbd126)" d="M 39.26 190.202557 
L 438.885 190.202557 
" style="fill:none;stroke:#b0b0b0;stroke-linecap:square;stroke-width:0.8;"/>
     </g>
     <g id="line2d_33">
      <g>
       <use style="stroke:#000000;stroke-width:0.8;" x="39.26" xlink:href="#md20e8d2482" y="190.202557"/>
      </g>
     </g>
     <g id="text_19">
      <!-- 0 -->
      <g transform="translate(27.31 193.732244)scale(0.1 -0.1)">
       <use xlink:href="#STIXTwoMath-30"/>
      </g>
     </g>
    </g>
    <g id="ytick_5">
     <g id="line2d_34">
      <path clip-path="url(#p2364bbd126)" d="M 39.26 165.333011 
L 438.885 165.333011 
" style="fill:none;stroke:#b0b0b0;stroke-linecap:square;stroke-width:0.8;"/>
     </g>
     <g id="line2d_35">
      <g>
       <use style="stroke:#000000;stroke-width:0.8;" x="39.26" xlink:href="#md20e8d2482" y="165.333011"/>
      </g>
     </g>
     <g id="text_20">
      <!-- 2 -->
      <g transform="translate(27.31 168.862699)scale(0.1 -0.1)">
       <use xlink:href="#STIXTwoMath-32"/>
      </g>
     </g>
    </g>
    <g id="ytick_6">
     <g id="line2d_36">
      <path clip-path="url(#p2364bbd126)" d="M 39.26 140.463466 
L 438.885 140.463466 
" style="fill:none;stroke:#b0b0b0;stroke-linecap:square;stroke-width:0.8;"/>
     </g>
     <g id="line2d_37">
      <g>
       <use style="stroke:#000000;stroke-width:0.8;" x="39.26" xlink:href="#md20e8d2482" y="140.463466"/>
      </g>
     </g>
     <g id="text_21">
      <!-- 4 -->
      <g transform="translate(27.31 143.993153)scale(0.1 -0.1)">
       <use xlink:href="#STIXTwoMath-34"/>
      </g>
     </g>
    </g>
    <g id="text_22">
     <!-- $U_{2ВХ}$, (В) -->
     <defs>
      <path d="M 47.40625 13.703125 
L 42 0 
L 2.90625 0 
L 2.90625 1.203125 
L 20.703125 20.09375 
Q 27.703125 27.40625 30.703125 33.5 
Q 33.703125 39.59375 33.703125 46.09375 
Q 33.703125 52.796875 30 56.5 
Q 26.296875 60.203125 19.796875 60.203125 
Q 14.40625 60.203125 11.25 57.390625 
Q 8.09375 54.59375 5.09375 47.203125 
L 3 47.703125 
Q 4.703125 57 9.84375 62.296875 
Q 15 67.59375 23.796875 67.59375 
Q 32.09375 67.59375 37.1875 62.59375 
Q 42.296875 57.59375 42.296875 50 
Q 42.296875 38.703125 29.5 25.203125 
L 13 7.59375 
L 36.40625 7.59375 
Q 39.703125 7.59375 41.640625 8.890625 
Q 43.59375 10.203125 46 14.296875 
z
" id="STIXGeneral-Regular-32"/>
     </defs>
     <g transform="translate(21.11 177.915625)rotate(-90)scale(0.1 -0.1)">
      <use xlink:href="#STIXGeneral-Italic-55"/>
      <use transform="translate(72.199982 -13.228125)scale(0.7)" xlink:href="#STIXGeneral-Regular-32"/>
      <use transform="translate(107.199971 -13.228125)scale(0.7)" xlink:href="#STIXGeneral-Italic-412"/>
      <use transform="translate(148.989969 -13.228125)scale(0.7)" xlink:href="#STIXGeneral-Italic-425"/>
      <use transform="translate(193.649333 0)" xlink:href="#STIXTwoMath-2c"/>
      <use transform="translate(218.749324 0)" xlink:href="#STIXTwoMath-20"/>
      <use transform="translate(242.249309 0)" xlink:href="#STIXTwoMath-28"/>
      <use transform="translate(277.8493 0)" xlink:href="#STIXTwoMath-412"/>
      <use transform="translate(339.649287 0)" xlink:href="#STIXTwoMath-29"/>
     </g>
    </g>
   </g>
   <g id="line2d_38">
    <path clip-path="url(#p2364bbd126)" d="M 33.543223 190.202557 
L 59.890291 190.202557 
L 107.08222 190.202557 
L 107.182126 183.98517 
L 107.381939 171.550398 
L 107.624304 156.467493 
L 107.781863 146.662228 
L 107.931371 137.357993 
L 108.081282 128.028693 
L 108.102213 128.028693 
L 108.144074 128.028693 
L 108.227796 128.028693 
L 108.39524 128.028693 
L 108.730127 128.028693 
L 109.399903 128.028693 
L 110.739453 128.028693 
L 113.418555 128.028693 
L 118.776758 128.028693 
L 129.493164 128.028693 
L 150.925975 128.028693 
L 193.791598 128.028693 
L 205.989407 128.028693 
L 206.089314 134.24608 
L 206.289126 146.680852 
L 206.56606 163.915044 
L 206.831936 180.461126 
L 206.931139 186.634738 
L 206.98847 190.202557 
L 206.989364 190.202557 
L 206.991152 190.202557 
L 206.993583 190.202557 
L 206.994956 190.202557 
L 206.996785 190.202557 
L 206.998532 190.202557 
L 207.000561 190.202557 
L 207.003599 190.202557 
L 207.006486 190.202557 
L 207.012261 190.202557 
L 207.018104 190.202557 
L 207.029789 190.202557 
L 207.049637 190.202557 
L 207.087924 190.202557 
L 207.161852 190.202557 
L 207.309707 190.202557 
L 207.43385 190.202557 
L 207.581823 190.202557 
L 207.719064 190.202557 
L 207.894864 190.202557 
L 208.07142 190.202557 
L 208.260751 190.202557 
L 208.470711 190.202557 
L 208.890632 190.202557 
L 208.986595 190.202557 
L 209.037973 190.202557 
L 209.14073 190.202557 
L 209.346244 190.202557 
L 209.757272 190.202557 
L 210.579328 190.202557 
L 212.223439 190.202557 
L 215.511662 190.202557 
L 222.088107 190.202557 
L 235.240998 190.202557 
L 261.546779 190.202557 
L 306.89472 190.202557 
L 306.994626 183.98517 
L 307.194439 171.550398 
L 307.594064 146.680852 
L 307.893782 128.028693 
L 307.918463 128.028693 
L 307.967825 128.028693 
L 308.066549 128.028693 
L 308.263996 128.028693 
L 308.65889 128.028693 
L 309.448679 128.028693 
L 311.028256 128.028693 
L 314.187411 128.028693 
L 320.50572 128.028693 
L 333.142339 128.028693 
L 358.415576 128.028693 
L 404.372451 128.028693 
L 404.472357 128.028693 
L 404.67217 128.028693 
L 404.780133 128.028693 
L 404.885035 128.028693 
L 405.09484 128.028693 
L 405.371513 128.028693 
L 405.413474 130.640015 
L 405.497396 135.862659 
L 405.65347 145.57549 
L 405.965618 165.001153 
L 406.140389 175.877486 
L 406.277769 184.426963 
L 406.370576 190.202557 
L 406.370816 190.202557 
L 406.371295 190.202557 
L 406.372254 190.202557 
L 406.373282 190.202557 
L 406.375038 190.202557 
L 406.376784 190.202557 
L 406.378391 190.202557 
L 406.380109 190.202557 
L 406.381751 190.202557 
L 406.383948 190.202557 
L 406.386475 190.202557 
L 406.390363 190.202557 
L 406.394993 190.202557 
L 406.403625 190.202557 
L 406.41649 190.202557 
L 406.44222 190.202557 
L 406.493679 190.202557 
L 406.596597 190.202557 
L 406.802434 190.202557 
L 407.214107 190.202557 
L 408.037452 190.202557 
L 409.684144 190.202557 
L 412.977528 190.202557 
L 419.564295 190.202557 
L 432.737829 190.202557 
L 459.084897 190.202557 
" style="fill:none;stroke:#1f77b4;stroke-linecap:square;stroke-width:1.5;"/>
   </g>
   <g id="patch_8">
    <path d="M 39.26 193.31125 
L 39.26 124.92 
" style="fill:none;stroke:#000000;stroke-linecap:square;stroke-linejoin:miter;stroke-width:0.8;"/>
   </g>
   <g id="patch_9">
    <path d="M 438.885 193.31125 
L 438.885 124.92 
" style="fill:none;stroke:#000000;stroke-linecap:square;stroke-linejoin:miter;stroke-width:0.8;"/>
   </g>
   <g id="patch_10">
    <path d="M 39.26 193.31125 
L 438.885 193.31125 
" style="fill:none;stroke:#000000;stroke-linecap:square;stroke-linejoin:miter;stroke-width:0.8;"/>
   </g>
   <g id="patch_11">
    <path d="M 39.26 124.92 
L 438.885 124.92 
" style="fill:none;stroke:#000000;stroke-linecap:square;stroke-linejoin:miter;stroke-width:0.8;"/>
   </g>
  </g>
  <g id="axes_3">
   <g id="patch_12">
    <path d="M 39.26 304.91125 
L 438.885 304.91125 
L 438.885 236.52 
L 39.26 236.52 
z
" style="fill:#ffffff;"/>
   </g>
   <g id="matplotlib.axis_5">
    <g id="xtick_13">
     <g id="line2d_39">
      <path clip-path="url(#p9402b1f057)" d="M 39.26 304.91125 
L 39.26 236.52 
" style="fill:none;stroke:#b0b0b0;stroke-linecap:square;stroke-width:0.8;"/>
     </g>
     <g id="line2d_40">
      <g>
       <use style="stroke:#000000;stroke-width:0.8;" x="39.26" xlink:href="#m944fe5b186" y="304.91125"/>
      </g>
     </g>
     <g id="text_23">
      <!-- 0.020 -->
      <g transform="translate(28.130312 318.970625)scale(0.1 -0.1)">
       <use xlink:href="#STIXTwoMath-30"/>
       <use x="49.499985" xlink:href="#STIXTwoMath-2e"/>
       <use x="74.099976" xlink:href="#STIXTwoMath-30"/>
       <use x="123.59996" xlink:href="#STIXTwoMath-32"/>
       <use x="173.099945" xlink:href="#STIXTwoMath-30"/>
      </g>
     </g>
    </g>
    <g id="xtick_14">
     <g id="line2d_41">
      <path clip-path="url(#p9402b1f057)" d="M 119.185 304.91125 
L 119.185 236.52 
" style="fill:none;stroke:#b0b0b0;stroke-linecap:square;stroke-width:0.8;"/>
     </g>
     <g id="line2d_42">
      <g>
       <use style="stroke:#000000;stroke-width:0.8;" x="119.185" xlink:href="#m944fe5b186" y="304.91125"/>
      </g>
     </g>
     <g id="text_24">
      <!-- 0.022 -->
      <g transform="translate(108.055312 318.970625)scale(0.1 -0.1)">
       <use xlink:href="#STIXTwoMath-30"/>
       <use x="49.499985" xlink:href="#STIXTwoMath-2e"/>
       <use x="74.099976" xlink:href="#STIXTwoMath-30"/>
       <use x="123.59996" xlink:href="#STIXTwoMath-32"/>
       <use x="173.099945" xlink:href="#STIXTwoMath-32"/>
      </g>
     </g>
    </g>
    <g id="xtick_15">
     <g id="line2d_43">
      <path clip-path="url(#p9402b1f057)" d="M 199.11 304.91125 
L 199.11 236.52 
" style="fill:none;stroke:#b0b0b0;stroke-linecap:square;stroke-width:0.8;"/>
     </g>
     <g id="line2d_44">
      <g>
       <use style="stroke:#000000;stroke-width:0.8;" x="199.11" xlink:href="#m944fe5b186" y="304.91125"/>
      </g>
     </g>
     <g id="text_25">
      <!-- 0.024 -->
      <g transform="translate(187.980313 318.970625)scale(0.1 -0.1)">
       <use xlink:href="#STIXTwoMath-30"/>
       <use x="49.499985" xlink:href="#STIXTwoMath-2e"/>
       <use x="74.099976" xlink:href="#STIXTwoMath-30"/>
       <use x="123.59996" xlink:href="#STIXTwoMath-32"/>
       <use x="173.099945" xlink:href="#STIXTwoMath-34"/>
      </g>
     </g>
    </g>
    <g id="xtick_16">
     <g id="line2d_45">
      <path clip-path="url(#p9402b1f057)" d="M 279.035 304.91125 
L 279.035 236.52 
" style="fill:none;stroke:#b0b0b0;stroke-linecap:square;stroke-width:0.8;"/>
     </g>
     <g id="line2d_46">
      <g>
       <use style="stroke:#000000;stroke-width:0.8;" x="279.035" xlink:href="#m944fe5b186" y="304.91125"/>
      </g>
     </g>
     <g id="text_26">
      <!-- 0.026 -->
      <g transform="translate(267.905313 318.970625)scale(0.1 -0.1)">
       <use xlink:href="#STIXTwoMath-30"/>
       <use x="49.499985" xlink:href="#STIXTwoMath-2e"/>
       <use x="74.099976" xlink:href="#STIXTwoMath-30"/>
       <use x="123.59996" xlink:href="#STIXTwoMath-32"/>
       <use x="173.099945" xlink:href="#STIXTwoMath-36"/>
      </g>
     </g>
    </g>
    <g id="xtick_17">
     <g id="line2d_47">
      <path clip-path="url(#p9402b1f057)" d="M 358.96 304.91125 
L 358.96 236.52 
" style="fill:none;stroke:#b0b0b0;stroke-linecap:square;stroke-width:0.8;"/>
     </g>
     <g id="line2d_48">
      <g>
       <use style="stroke:#000000;stroke-width:0.8;" x="358.96" xlink:href="#m944fe5b186" y="304.91125"/>
      </g>
     </g>
     <g id="text_27">
      <!-- 0.028 -->
      <g transform="translate(347.830313 318.970625)scale(0.1 -0.1)">
       <use xlink:href="#STIXTwoMath-30"/>
       <use x="49.499985" xlink:href="#STIXTwoMath-2e"/>
       <use x="74.099976" xlink:href="#STIXTwoMath-30"/>
       <use x="123.59996" xlink:href="#STIXTwoMath-32"/>
       <use x="173.099945" xlink:href="#STIXTwoMath-38"/>
      </g>
     </g>
    </g>
    <g id="xtick_18">
     <g id="line2d_49">
      <path clip-path="url(#p9402b1f057)" d="M 438.885 304.91125 
L 438.885 236.52 
" style="fill:none;stroke:#b0b0b0;stroke-linecap:square;stroke-width:0.8;"/>
     </g>
     <g id="line2d_50">
      <g>
       <use style="stroke:#000000;stroke-width:0.8;" x="438.885" xlink:href="#m944fe5b186" y="304.91125"/>
      </g>
     </g>
     <g id="text_28">
      <!-- 0.030 -->
      <g transform="translate(427.755313 318.970625)scale(0.1 -0.1)">
       <use xlink:href="#STIXTwoMath-30"/>
       <use x="49.499985" xlink:href="#STIXTwoMath-2e"/>
       <use x="74.099976" xlink:href="#STIXTwoMath-30"/>
       <use x="123.59996" xlink:href="#STIXTwoMath-33"/>
       <use x="173.099945" xlink:href="#STIXTwoMath-30"/>
      </g>
     </g>
    </g>
    <g id="text_29">
     <!-- t, (с) -->
     <g transform="translate(229.27875 332.23)scale(0.1 -0.1)">
      <use xlink:href="#STIXTwoMath-74"/>
      <use x="31.499985" xlink:href="#STIXTwoMath-2c"/>
      <use x="56.599976" xlink:href="#STIXTwoMath-20"/>
      <use x="80.09996" xlink:href="#STIXTwoMath-28"/>
      <use x="115.699951" xlink:href="#STIXTwoMath-441"/>
      <use x="160.299942" xlink:href="#STIXTwoMath-29"/>
     </g>
    </g>
   </g>
   <g id="matplotlib.axis_6">
    <g id="ytick_7">
     <g id="line2d_51">
      <path clip-path="url(#p9402b1f057)" d="M 39.26 301.59927 
L 438.885 301.59927 
" style="fill:none;stroke:#b0b0b0;stroke-linecap:square;stroke-width:0.8;"/>
     </g>
     <g id="line2d_52">
      <g>
       <use style="stroke:#000000;stroke-width:0.8;" x="39.26" xlink:href="#md20e8d2482" y="301.59927"/>
      </g>
     </g>
     <g id="text_30">
      <!-- 0 -->
      <g transform="translate(27.31 305.128957)scale(0.1 -0.1)">
       <use xlink:href="#STIXTwoMath-30"/>
      </g>
     </g>
    </g>
    <g id="ytick_8">
     <g id="line2d_53">
      <path clip-path="url(#p9402b1f057)" d="M 39.26 256.192037 
L 438.885 256.192037 
" style="fill:none;stroke:#b0b0b0;stroke-linecap:square;stroke-width:0.8;"/>
     </g>
     <g id="line2d_54">
      <g>
       <use style="stroke:#000000;stroke-width:0.8;" x="39.26" xlink:href="#md20e8d2482" y="256.192037"/>
      </g>
     </g>
     <g id="text_31">
      <!-- 2 -->
      <g transform="translate(27.31 259.721724)scale(0.1 -0.1)">
       <use xlink:href="#STIXTwoMath-32"/>
      </g>
     </g>
    </g>
    <g id="text_32">
     <!-- $U_{ВИХ}$, (В) -->
     <defs>
      <path d="M 74.90625 65.296875 
L 74.90625 63.703125 
Q 70.59375 63 69.140625 61.75 
Q 67.703125 60.5 66.5 56.296875 
L 54.40625 11 
Q 53.40625 7.59375 53.40625 6.59375 
Q 53.40625 3.703125 54.703125 2.890625 
Q 56 2.09375 61.09375 1.59375 
L 61.09375 0 
L 34.203125 0 
L 34.203125 1.59375 
Q 39.40625 1.90625 41.296875 3.59375 
Q 43.203125 5.296875 44.296875 9.296875 
L 55.203125 49.796875 
L 15.296875 9.5 
Q 14.703125 7.59375 14.703125 6.203125 
Q 14.703125 3.90625 16.34375 2.84375 
Q 18 1.796875 21.703125 1.59375 
L 21.703125 0 
L -2.5 0 
L -2.5 1.59375 
Q 2.203125 2.296875 3.5 3.890625 
Q 4.796875 5.5 6.59375 12.09375 
L 17.59375 53.296875 
Q 18.796875 57.90625 18.796875 59.59375 
Q 18.796875 61.796875 17.390625 62.5 
Q 16 63.203125 11.09375 63.703125 
L 11.09375 65.296875 
L 37.796875 65.296875 
L 37.796875 63.703125 
Q 33.5 63.40625 31.140625 61.546875 
Q 28.796875 59.703125 27.40625 54.296875 
L 17.296875 16.203125 
L 56.90625 56.296875 
Q 57.5 58.703125 57.5 60 
Q 57.5 61.796875 56 62.59375 
Q 54.5 63.40625 50.90625 63.703125 
L 50.90625 65.296875 
z
" id="STIXGeneral-Italic-418"/>
     </defs>
     <g transform="translate(21.11 290.215625)rotate(-90)scale(0.1 -0.1)">
      <use xlink:href="#STIXGeneral-Italic-55"/>
      <use transform="translate(72.199982 -13.228125)scale(0.7)" xlink:href="#STIXGeneral-Italic-412"/>
      <use transform="translate(113.98998 -13.228125)scale(0.7)" xlink:href="#STIXGeneral-Italic-418"/>
      <use transform="translate(163.549971 -13.228125)scale(0.7)" xlink:href="#STIXGeneral-Italic-425"/>
      <use transform="translate(208.209335 0)" xlink:href="#STIXTwoMath-2c"/>
      <use transform="translate(233.309326 0)" xlink:href="#STIXTwoMath-20"/>
      <use transform="translate(256.809311 0)" xlink:href="#STIXTwoMath-28"/>
      <use transform="translate(292.409302 0)" xlink:href="#STIXTwoMath-412"/>
      <use transform="translate(354.20929 0)" xlink:href="#STIXTwoMath-29"/>
     </g>
    </g>
   </g>
   <g id="line2d_55">
    <path clip-path="url(#p9402b1f057)" d="M 33.543223 301.599293 
L 59.890291 301.599246 
L 107.08222 301.599293 
L 107.182126 301.599164 
L 107.381939 301.572909 
L 107.624304 290.126945 
L 107.781863 273.318777 
L 107.931371 256.99573 
L 108.081282 240.462805 
L 108.102213 240.463819 
L 108.144074 240.463872 
L 108.227796 240.463819 
L 108.39524 240.46386 
L 108.730127 240.463819 
L 109.399903 240.46386 
L 110.739453 240.463819 
L 113.418555 240.46386 
L 118.776758 240.463819 
L 129.493164 240.46386 
L 150.925975 240.463819 
L 193.791598 240.46386 
L 205.989407 240.463819 
L 206.089314 251.49244 
L 206.289126 273.363844 
L 206.56606 301.141208 
L 206.831936 301.715772 
L 206.931139 301.49313 
L 206.98847 301.689557 
L 206.989364 301.657128 
L 206.991152 301.624398 
L 206.993583 301.609798 
L 206.994956 301.603857 
L 206.996785 301.602327 
L 206.998532 301.600094 
L 207.000561 301.600078 
L 207.003599 301.599154 
L 207.006486 301.599495 
L 207.012261 301.599085 
L 207.018104 301.599423 
L 207.029789 301.599112 
L 207.049637 301.59941 
L 207.087924 301.599116 
L 207.161852 301.5994 
L 207.309707 301.599112 
L 207.43385 301.599342 
L 207.581823 301.567555 
L 207.719064 301.508741 
L 207.894864 298.879542 
L 208.07142 290.181887 
L 208.260751 280.167936 
L 208.470711 268.8356 
L 208.890632 245.768025 
L 208.986595 240.464166 
L 209.037973 240.46384 
L 209.14073 240.46384 
L 209.346244 240.463839 
L 209.757272 240.46384 
L 210.579328 240.463839 
L 212.223439 240.46384 
L 215.511662 240.463839 
L 222.088107 240.46384 
L 235.240998 240.463839 
L 261.546779 240.46384 
L 306.89472 240.463839 
L 306.994626 240.463765 
L 307.194439 240.463754 
L 307.594064 240.463721 
L 307.893782 239.629181 
L 307.918463 239.628947 
L 307.967825 239.628694 
L 308.066549 239.628693 
L 308.263996 239.628694 
L 308.65889 239.628693 
L 309.448679 239.628694 
L 311.028256 239.628693 
L 314.187411 239.628694 
L 320.50572 239.628693 
L 333.142339 239.628694 
L 358.415576 239.628693 
L 404.372451 239.628694 
L 404.472357 240.499805 
L 404.67217 240.481576 
L 404.780133 240.464209 
L 404.885035 240.46383 
L 405.09484 240.464143 
L 405.371513 240.463644 
L 405.413474 245.101326 
L 405.497396 254.351767 
L 405.65347 271.429831 
L 405.965618 301.593089 
L 406.140389 301.751252 
L 406.277769 301.457555 
L 406.370576 301.727002 
L 406.370816 301.708964 
L 406.371295 301.684663 
L 406.372254 301.658933 
L 406.373282 301.638038 
L 406.375038 301.618483 
L 406.376784 301.608324 
L 406.378391 301.604172 
L 406.380109 301.601539 
L 406.381751 301.60053 
L 406.383948 301.599697 
L 406.386475 301.599463 
L 406.390363 301.599259 
L 406.394993 301.599298 
L 406.403625 301.599244 
L 406.41649 301.599294 
L 406.44222 301.599245 
L 406.493679 301.599293 
L 406.596597 301.599246 
L 406.802434 301.599293 
L 407.214107 301.599246 
L 408.037452 301.599293 
L 409.684144 301.599246 
L 412.977528 301.599293 
L 419.564295 301.599246 
L 432.737829 301.599293 
L 459.084897 301.599246 
" style="fill:none;stroke:#1f77b4;stroke-linecap:square;stroke-width:1.5;"/>
   </g>
   <g id="patch_13">
    <path d="M 39.26 304.91125 
L 39.26 236.52 
" style="fill:none;stroke:#000000;stroke-linecap:square;stroke-linejoin:miter;stroke-width:0.8;"/>
   </g>
   <g id="patch_14">
    <path d="M 438.885 304.91125 
L 438.885 236.52 
" style="fill:none;stroke:#000000;stroke-linecap:square;stroke-linejoin:miter;stroke-width:0.8;"/>
   </g>
   <g id="patch_15">
    <path d="M 39.26 304.91125 
L 438.885 304.91125 
" style="fill:none;stroke:#000000;stroke-linecap:square;stroke-linejoin:miter;stroke-width:0.8;"/>
   </g>
   <g id="patch_16">
    <path d="M 39.26 236.52 
L 438.885 236.52 
" style="fill:none;stroke:#000000;stroke-linecap:square;stroke-linejoin:miter;stroke-width:0.8;"/>
   </g>
  </g>
 </g>
 <defs>
  <clipPath id="p7f15d2d502">
   <rect height="68.39125" width="399.625" x="39.26" y="13.32"/>
  </clipPath>
  <clipPath id="p2364bbd126">
   <rect height="68.39125" width="399.625" x="39.26" y="124.92"/>
  </clipPath>
  <clipPath id="p9402b1f057">
   <rect height="68.39125" width="399.625" x="39.26" y="236.52"/>
  </clipPath>
 </defs>
</svg>
