<?xml version="1.0" encoding="utf-8" standalone="no"?>
<!DOCTYPE svg PUBLIC "-//W3C//DTD SVG 1.1//EN"
  "http://www.w3.org/Graphics/SVG/1.1/DTD/svg11.dtd">
<!-- Created with matplotlib (http://matplotlib.org/) -->
<svg height="345pt" version="1.1" viewBox="0 0 460 345" width="460pt" xmlns="http://www.w3.org/2000/svg" xmlns:xlink="http://www.w3.org/1999/xlink">
 <defs>
  <style type="text/css">
*{stroke-linecap:butt;stroke-linejoin:round;}
  </style>
 </defs>
 <g id="figure_1">
  <g id="patch_1">
   <path d="M 0 345.6 
L 460.8 345.6 
L 460.8 0 
L 0 0 
z
" style="fill:#ffffff;"/>
  </g>
  <g id="axes_1">
   <g id="patch_2">
    <path d="M 51.59 137.593068 
L 443.835 137.593068 
L 443.835 13.483636 
L 51.59 13.483636 
z
" style="fill:#ffffff;"/>
   </g>
   <g id="matplotlib.axis_1">
    <g id="xtick_1">
     <g id="line2d_1">
      <path clip-path="url(#pc08b3a9ad3)" d="M 87.248636 137.593068 
L 87.248636 13.483636 
" style="fill:none;stroke:#b0b0b0;stroke-linecap:square;stroke-width:0.8;"/>
     </g>
     <g id="line2d_2">
      <defs>
       <path d="M 0 0 
L 0 3.5 
" id="m49426ddf77" style="stroke:#000000;stroke-width:0.8;"/>
      </defs>
      <g>
       <use style="stroke:#000000;stroke-width:0.8;" x="87.248636" xlink:href="#m49426ddf77" y="137.593068"/>
      </g>
     </g>
     <g id="text_1">
      <!-- 0.7 -->
      <defs>
       <path d="M 46.796875 31.703125 
C 46.796875 52.296875 37.796875 64.203125 24.90625 64.203125 
C 10.40625 64.203125 2.703125 51 2.703125 32 
C 2.703125 14.296875 8.59375 -1.09375 24.703125 -1.09375 
C 40.40625 -1.09375 46.796875 14.59375 46.796875 31.703125 
z
M 37.09375 31.09375 
C 37.09375 11.90625 32.59375 2.5 24.703125 2.5 
C 16.703125 2.5 12.296875 12.09375 12.296875 31.5 
C 12.296875 51.296875 16.703125 60.796875 24.59375 60.796875 
C 32.796875 60.796875 37.09375 51.40625 37.09375 31.09375 
z
" id="STIXTwoMath-30"/>
       <path d="M 18.203125 4.90625 
C 18.203125 8.203125 16.09375 11.09375 12.296875 11.09375 
C 8.59375 11.09375 6.40625 8.296875 6.40625 5 
C 6.40625 1.59375 8.296875 -0.796875 12.203125 -0.796875 
C 16.09375 -0.796875 18.203125 1.796875 18.203125 4.90625 
z
" id="STIXTwoMath-2e"/>
       <path d="M 46.40625 59.90625 
L 46.40625 63 
L 8.203125 63 
L 4.203125 47.703125 
L 7.296875 47.40625 
C 10 53.90625 10.796875 54.90625 16.40625 54.90625 
L 38.703125 54.90625 
L 15.09375 -0.796875 
L 23 -0.796875 
z
" id="STIXTwoMath-37"/>
      </defs>
      <g transform="translate(81.068949 151.652443)scale(0.1 -0.1)">
       <use xlink:href="#STIXTwoMath-30"/>
       <use x="49.499985" xlink:href="#STIXTwoMath-2e"/>
       <use x="74.099976" xlink:href="#STIXTwoMath-37"/>
      </g>
     </g>
    </g>
    <g id="xtick_2">
     <g id="line2d_3">
      <path clip-path="url(#pc08b3a9ad3)" d="M 158.565909 137.593068 
L 158.565909 13.483636 
" style="fill:none;stroke:#b0b0b0;stroke-linecap:square;stroke-width:0.8;"/>
     </g>
     <g id="line2d_4">
      <g>
       <use style="stroke:#000000;stroke-width:0.8;" x="158.565909" xlink:href="#m49426ddf77" y="137.593068"/>
      </g>
     </g>
     <g id="text_2">
      <!-- 0.8 -->
      <defs>
       <path d="M 44.796875 15 
C 44.796875 23 41.203125 27.796875 29.5 34.90625 
L 29.5 35.203125 
C 38.796875 40.296875 42.40625 43.59375 42.40625 50.90625 
C 42.40625 58.796875 34.796875 64.703125 24.90625 64.703125 
C 13.90625 64.703125 5.90625 59 5.90625 49.90625 
C 5.90625 43.09375 8.09375 39 18.296875 31.90625 
L 18.296875 31.59375 
C 9 25.40625 4.59375 22.203125 4.59375 14.203125 
C 4.59375 4 13 -1.203125 24.59375 -1.203125 
C 36.5 -1.203125 44.796875 4.5 44.796875 15 
z
M 35 51.09375 
C 35 44.703125 33 40.796875 26.40625 36.796875 
C 17.5 42.203125 13.703125 45.796875 13.703125 51.703125 
C 13.703125 57.796875 17.90625 61.40625 24.703125 61.40625 
C 31.09375 61.40625 35 57.703125 35 51.09375 
z
M 21.296875 30 
C 33.40625 22.203125 36.40625 18.5 36.40625 12.09375 
C 36.40625 5.296875 31.203125 1.90625 25 1.90625 
C 17.40625 1.90625 12.40625 6 12.40625 15 
C 12.40625 21.90625 15.59375 25.40625 21.296875 30 
z
" id="STIXTwoMath-38"/>
      </defs>
      <g transform="translate(152.386222 151.652443)scale(0.1 -0.1)">
       <use xlink:href="#STIXTwoMath-30"/>
       <use x="49.499985" xlink:href="#STIXTwoMath-2e"/>
       <use x="74.099976" xlink:href="#STIXTwoMath-38"/>
      </g>
     </g>
    </g>
    <g id="xtick_3">
     <g id="line2d_5">
      <path clip-path="url(#pc08b3a9ad3)" d="M 229.883182 137.593068 
L 229.883182 13.483636 
" style="fill:none;stroke:#b0b0b0;stroke-linecap:square;stroke-width:0.8;"/>
     </g>
     <g id="line2d_6">
      <g>
       <use style="stroke:#000000;stroke-width:0.8;" x="229.883182" xlink:href="#m49426ddf77" y="137.593068"/>
      </g>
     </g>
     <g id="text_3">
      <!-- 0.9 -->
      <defs>
       <path d="M 8.5 -1.296875 
C 30.59375 -1.09375 45 11.59375 45 37.40625 
C 45 52.203125 38.90625 64.59375 24 64.59375 
C 11.40625 64.59375 3.90625 56.703125 3.90625 43.203125 
C 3.90625 30 11 22.203125 21.90625 22.203125 
C 26.90625 22.203125 30.5 24.296875 35 28.40625 
L 35.59375 28.296875 
C 33.40625 12.09375 22.09375 3.203125 8.296875 1.59375 
z
M 12.59375 43.796875 
C 12.59375 56.59375 17.09375 61.203125 23.59375 61.203125 
C 32.40625 61.203125 36 52.296875 36 39.796875 
C 36 31.203125 30.703125 28.09375 24.90625 28.09375 
C 16.59375 28.09375 12.59375 34.5 12.59375 43.796875 
z
" id="STIXTwoMath-39"/>
      </defs>
      <g transform="translate(223.703494 151.652443)scale(0.1 -0.1)">
       <use xlink:href="#STIXTwoMath-30"/>
       <use x="49.499985" xlink:href="#STIXTwoMath-2e"/>
       <use x="74.099976" xlink:href="#STIXTwoMath-39"/>
      </g>
     </g>
    </g>
    <g id="xtick_4">
     <g id="line2d_7">
      <path clip-path="url(#pc08b3a9ad3)" d="M 301.200455 137.593068 
L 301.200455 13.483636 
" style="fill:none;stroke:#b0b0b0;stroke-linecap:square;stroke-width:0.8;"/>
     </g>
     <g id="line2d_8">
      <g>
       <use style="stroke:#000000;stroke-width:0.8;" x="301.200455" xlink:href="#m49426ddf77" y="137.593068"/>
      </g>
     </g>
     <g id="text_4">
      <!-- 1.0 -->
      <defs>
       <path d="M 42.59375 0 
L 42.59375 2.796875 
C 33.40625 2.796875 29.703125 4.59375 29.703125 9.5 
L 29.703125 63.90625 
L 26.796875 63.90625 
L 7.40625 58.40625 
L 7.40625 55.09375 
C 10.5 56.09375 15.59375 56.703125 17.59375 56.703125 
C 20.09375 56.703125 20.90625 55.296875 20.90625 51.796875 
L 20.90625 9.5 
C 20.90625 4.5 17.40625 2.796875 8 2.796875 
L 8 0 
z
" id="STIXTwoMath-31"/>
      </defs>
      <g transform="translate(295.020767 151.652443)scale(0.1 -0.1)">
       <use xlink:href="#STIXTwoMath-31"/>
       <use x="49.499985" xlink:href="#STIXTwoMath-2e"/>
       <use x="74.099976" xlink:href="#STIXTwoMath-30"/>
      </g>
     </g>
    </g>
    <g id="xtick_5">
     <g id="line2d_9">
      <path clip-path="url(#pc08b3a9ad3)" d="M 372.517727 137.593068 
L 372.517727 13.483636 
" style="fill:none;stroke:#b0b0b0;stroke-linecap:square;stroke-width:0.8;"/>
     </g>
     <g id="line2d_10">
      <g>
       <use style="stroke:#000000;stroke-width:0.8;" x="372.517727" xlink:href="#m49426ddf77" y="137.593068"/>
      </g>
     </g>
     <g id="text_5">
      <!-- 1.1 -->
      <g transform="translate(366.33804 151.652443)scale(0.1 -0.1)">
       <use xlink:href="#STIXTwoMath-31"/>
       <use x="49.499985" xlink:href="#STIXTwoMath-2e"/>
       <use x="74.099976" xlink:href="#STIXTwoMath-31"/>
      </g>
     </g>
    </g>
    <g id="xtick_6">
     <g id="line2d_11">
      <path clip-path="url(#pc08b3a9ad3)" d="M 443.835 137.593068 
L 443.835 13.483636 
" style="fill:none;stroke:#b0b0b0;stroke-linecap:square;stroke-width:0.8;"/>
     </g>
     <g id="line2d_12">
      <g>
       <use style="stroke:#000000;stroke-width:0.8;" x="443.835" xlink:href="#m49426ddf77" y="137.593068"/>
      </g>
     </g>
     <g id="text_6">
      <!-- 1.2 -->
      <defs>
       <path d="M 46.40625 16 
L 43.5 16 
C 41.203125 10 39.90625 7.90625 34.59375 7.90625 
L 20.703125 7.90625 
L 13.703125 7.59375 
L 13.703125 8.09375 
L 26.90625 20.59375 
C 37.5 31.296875 43.203125 38.203125 43.203125 47.09375 
C 43.203125 57.59375 35.296875 64.40625 24 64.40625 
C 14.296875 64.40625 7.5 58.796875 4.40625 49.09375 
L 6.796875 48.09375 
C 10.5 55.59375 14.90625 57.90625 21.40625 57.90625 
C 29.09375 57.90625 33.90625 53.09375 33.90625 45.59375 
C 33.90625 35.09375 28.90625 28.796875 19 18.59375 
L 3.796875 3.40625 
L 3.796875 0 
L 43.203125 0 
z
" id="STIXTwoMath-32"/>
      </defs>
      <g transform="translate(437.655313 151.652443)scale(0.1 -0.1)">
       <use xlink:href="#STIXTwoMath-31"/>
       <use x="49.499985" xlink:href="#STIXTwoMath-2e"/>
       <use x="74.099976" xlink:href="#STIXTwoMath-32"/>
      </g>
     </g>
    </g>
    <g id="text_7">
     <!-- t, (с) -->
     <defs>
      <path d="M 29.296875 9 
C 26.796875 6.203125 25.5 4.90625 22.296875 4.90625 
C 18.40625 4.90625 17.5 7.296875 17.5 14.40625 
L 17.5 43.09375 
L 28.796875 43.09375 
L 28.796875 47.296875 
L 17.5 47.296875 
L 17.59375 61 
L 15 61 
C 11.40625 52.5 8.40625 48.296875 3.703125 45.40625 
L 3.703125 43.09375 
L 9.203125 43.09375 
L 9.203125 11.59375 
C 9.203125 2.59375 12.09375 -1 18.796875 -1 
C 25.203125 -1 27.296875 2 31.203125 7.40625 
z
" id="STIXTwoMath-74"/>
      <path d="M 7.40625 -14.203125 
C 11.40625 -12.40625 19.796875 -9 19.796875 2.296875 
C 19.796875 7.796875 17.09375 11.09375 12.09375 11.09375 
C 8.09375 11.09375 5.90625 8.40625 5.90625 5.203125 
C 5.90625 2.296875 7.5 -0.203125 11.40625 -0.203125 
C 12.5 -0.203125 13.40625 0 14.5 0.40625 
C 14.5 -7.703125 9.90625 -10.09375 6.203125 -11.703125 
z
" id="STIXTwoMath-2c"/>
      <path id="STIXTwoMath-20"/>
      <path d="M 4.296875 27.40625 
C 4.296875 5.40625 14.796875 -10.296875 30.90625 -18.59375 
L 32.5 -15.796875 
C 17.90625 -6.203125 12.5 7.296875 12.5 27.40625 
C 12.5 47.296875 17.90625 60.703125 32.5 70.40625 
L 30.90625 73 
C 14.796875 64.796875 4.296875 49.203125 4.296875 27.40625 
z
" id="STIXTwoMath-28"/>
      <path d="M 40.796875 14.796875 
C 36.296875 9 32.90625 6.5 26.40625 6.5 
C 16.09375 6.5 11.203125 15.09375 11.203125 27.296875 
C 11.203125 38.796875 16.09375 44.796875 24.203125 44.796875 
C 32.796875 44.796875 29.5 33.40625 36.90625 33.40625 
C 39.703125 33.40625 41.09375 35 41.09375 37.90625 
C 41.09375 43.703125 35.296875 48.5 25.90625 48.5 
C 11.5 48.5 3.296875 38.296875 3.296875 22.59375 
C 3.296875 8.703125 10.796875 -1 23.296875 -1 
C 34 -1 38.90625 5.296875 42.703125 13.40625 
z
" id="STIXTwoMath-441"/>
      <path d="M 31.296875 27.40625 
C 31.296875 49.203125 20.796875 64.796875 4.703125 73 
L 3.09375 70.40625 
C 17.703125 60.703125 23.09375 47.296875 23.09375 27.40625 
C 23.09375 7.296875 17.703125 -6.203125 3.09375 -15.796875 
L 4.703125 -18.59375 
C 20.796875 -10.296875 31.296875 5.40625 31.296875 27.40625 
z
" id="STIXTwoMath-29"/>
     </defs>
     <g transform="translate(237.91875 164.911818)scale(0.1 -0.1)">
      <use xlink:href="#STIXTwoMath-74"/>
      <use x="31.499985" xlink:href="#STIXTwoMath-2c"/>
      <use x="56.599976" xlink:href="#STIXTwoMath-20"/>
      <use x="80.09996" xlink:href="#STIXTwoMath-28"/>
      <use x="115.699951" xlink:href="#STIXTwoMath-441"/>
      <use x="160.299942" xlink:href="#STIXTwoMath-29"/>
     </g>
    </g>
    <g id="text_8">
     <!-- 1e−5 -->
     <defs>
      <path d="M 41.5 14.296875 
C 38.296875 10.09375 35.203125 6.5 27.09375 6.5 
C 19.09375 6.5 11.5 12.796875 11.5 26.59375 
L 43.09375 26.59375 
C 42.59375 40.59375 35.40625 48.5 24.5 48.5 
C 12.796875 48.5 3.40625 40.5 3.40625 23.796875 
C 3.40625 7.703125 12.703125 -1 24.703125 -1 
C 35 -1 39.796875 5.296875 43.40625 12.90625 
z
M 11.40625 30.296875 
C 12.203125 39.59375 16.203125 44.5 23 44.5 
C 30.09375 44.5 33.40625 37.703125 33.703125 30.296875 
z
" id="STIXTwoMath-65"/>
      <path d="M 65.796875 22.5 
L 65.796875 29.296875 
L 6.203125 29.296875 
L 6.203125 22.5 
z
" id="STIXTwoMath-2212"/>
      <path d="M 41.703125 54.90625 
L 43.296875 63 
L 15.90625 63 
L 9.703125 36.90625 
L 10.90625 35.40625 
C 12.296875 35.40625 12.796875 35.40625 15.40625 35.203125 
C 29.203125 34.5 37 30.40625 37 17.90625 
C 37 7.5 30.703125 3.703125 23.59375 3.703125 
C 17.203125 3.703125 13.90625 8.59375 9.90625 8.59375 
C 7.40625 8.59375 5.90625 6.59375 5.90625 4.296875 
C 5.90625 0.59375 9.703125 -1.296875 17.40625 -1.296875 
C 33.296875 -1.296875 44.296875 6.5 44.296875 21.90625 
C 44.296875 37.59375 32 42.296875 20.203125 43.203125 
L 15.5 43.5 
L 18.203125 54.90625 
z
" id="STIXTwoMath-35"/>
     </defs>
     <g transform="translate(422.094375 163.911818)scale(0.1 -0.1)">
      <use xlink:href="#STIXTwoMath-31"/>
      <use x="49.499985" xlink:href="#STIXTwoMath-65"/>
      <use x="95.899979" xlink:href="#STIXTwoMath-2212"/>
      <use x="167.899963" xlink:href="#STIXTwoMath-35"/>
     </g>
    </g>
   </g>
   <g id="matplotlib.axis_2">
    <g id="ytick_1">
     <g id="line2d_13">
      <path clip-path="url(#pc08b3a9ad3)" d="M 51.59 131.95173 
L 443.835 131.95173 
" style="fill:none;stroke:#b0b0b0;stroke-linecap:square;stroke-width:0.8;"/>
     </g>
     <g id="line2d_14">
      <defs>
       <path d="M 0 0 
L -3.5 0 
" id="m70425abcf7" style="stroke:#000000;stroke-width:0.8;"/>
      </defs>
      <g>
       <use style="stroke:#000000;stroke-width:0.8;" x="51.59" xlink:href="#m70425abcf7" y="131.95173"/>
      </g>
     </g>
     <g id="text_9">
      <!-- 0.0 -->
      <g transform="translate(32.230625 135.481418)scale(0.1 -0.1)">
       <use xlink:href="#STIXTwoMath-30"/>
       <use x="49.499985" xlink:href="#STIXTwoMath-2e"/>
       <use x="74.099976" xlink:href="#STIXTwoMath-30"/>
      </g>
     </g>
    </g>
    <g id="ytick_2">
     <g id="line2d_15">
      <path clip-path="url(#pc08b3a9ad3)" d="M 51.59 108.446156 
L 443.835 108.446156 
" style="fill:none;stroke:#b0b0b0;stroke-linecap:square;stroke-width:0.8;"/>
     </g>
     <g id="line2d_16">
      <g>
       <use style="stroke:#000000;stroke-width:0.8;" x="51.59" xlink:href="#m70425abcf7" y="108.446156"/>
      </g>
     </g>
     <g id="text_10">
      <!-- 2.5 -->
      <g transform="translate(32.230625 111.975844)scale(0.1 -0.1)">
       <use xlink:href="#STIXTwoMath-32"/>
       <use x="49.499985" xlink:href="#STIXTwoMath-2e"/>
       <use x="74.099976" xlink:href="#STIXTwoMath-35"/>
      </g>
     </g>
    </g>
    <g id="ytick_3">
     <g id="line2d_17">
      <path clip-path="url(#pc08b3a9ad3)" d="M 51.59 84.940582 
L 443.835 84.940582 
" style="fill:none;stroke:#b0b0b0;stroke-linecap:square;stroke-width:0.8;"/>
     </g>
     <g id="line2d_18">
      <g>
       <use style="stroke:#000000;stroke-width:0.8;" x="51.59" xlink:href="#m70425abcf7" y="84.940582"/>
      </g>
     </g>
     <g id="text_11">
      <!-- 5.0 -->
      <g transform="translate(32.230625 88.470269)scale(0.1 -0.1)">
       <use xlink:href="#STIXTwoMath-35"/>
       <use x="49.499985" xlink:href="#STIXTwoMath-2e"/>
       <use x="74.099976" xlink:href="#STIXTwoMath-30"/>
      </g>
     </g>
    </g>
    <g id="ytick_4">
     <g id="line2d_19">
      <path clip-path="url(#pc08b3a9ad3)" d="M 51.59 61.435008 
L 443.835 61.435008 
" style="fill:none;stroke:#b0b0b0;stroke-linecap:square;stroke-width:0.8;"/>
     </g>
     <g id="line2d_20">
      <g>
       <use style="stroke:#000000;stroke-width:0.8;" x="51.59" xlink:href="#m70425abcf7" y="61.435008"/>
      </g>
     </g>
     <g id="text_12">
      <!-- 7.5 -->
      <g transform="translate(32.230625 64.964695)scale(0.1 -0.1)">
       <use xlink:href="#STIXTwoMath-37"/>
       <use x="49.499985" xlink:href="#STIXTwoMath-2e"/>
       <use x="74.099976" xlink:href="#STIXTwoMath-35"/>
      </g>
     </g>
    </g>
    <g id="ytick_5">
     <g id="line2d_21">
      <path clip-path="url(#pc08b3a9ad3)" d="M 51.59 37.929434 
L 443.835 37.929434 
" style="fill:none;stroke:#b0b0b0;stroke-linecap:square;stroke-width:0.8;"/>
     </g>
     <g id="line2d_22">
      <g>
       <use style="stroke:#000000;stroke-width:0.8;" x="51.59" xlink:href="#m70425abcf7" y="37.929434"/>
      </g>
     </g>
     <g id="text_13">
      <!-- 10.0 -->
      <g transform="translate(27.280625 41.459121)scale(0.1 -0.1)">
       <use xlink:href="#STIXTwoMath-31"/>
       <use x="49.499985" xlink:href="#STIXTwoMath-30"/>
       <use x="98.999969" xlink:href="#STIXTwoMath-2e"/>
       <use x="123.59996" xlink:href="#STIXTwoMath-30"/>
      </g>
     </g>
    </g>
    <g id="ytick_6">
     <g id="line2d_23">
      <path clip-path="url(#pc08b3a9ad3)" d="M 51.59 14.423859 
L 443.835 14.423859 
" style="fill:none;stroke:#b0b0b0;stroke-linecap:square;stroke-width:0.8;"/>
     </g>
     <g id="line2d_24">
      <g>
       <use style="stroke:#000000;stroke-width:0.8;" x="51.59" xlink:href="#m70425abcf7" y="14.423859"/>
      </g>
     </g>
     <g id="text_14">
      <!-- 12.5 -->
      <g transform="translate(27.280625 17.953547)scale(0.1 -0.1)">
       <use xlink:href="#STIXTwoMath-31"/>
       <use x="49.499985" xlink:href="#STIXTwoMath-32"/>
       <use x="98.999969" xlink:href="#STIXTwoMath-2e"/>
       <use x="123.59996" xlink:href="#STIXTwoMath-35"/>
      </g>
     </g>
    </g>
    <g id="text_15">
     <!-- $U_{ВХ}$, (В) -->
     <defs>
      <path d="M 76.5 65.296875 
L 76.5 63.703125 
Q 74.40625 63.203125 73.34375 62.75 
Q 72.296875 62.296875 71.296875 61.640625 
Q 70.296875 61 69.546875 59.203125 
Q 68.796875 57.40625 68.09375 55.296875 
Q 67.40625 53.203125 66.09375 48.796875 
L 57.796875 20.296875 
Q 54.40625 8.703125 48.09375 3.40625 
Q 42.09375 -1.796875 32.296875 -1.796875 
Q 22.5 -1.796875 16.34375 2.796875 
Q 10.203125 7.40625 10.203125 14.59375 
Q 10.203125 20.09375 14.59375 36.203125 
L 19.796875 55.09375 
Q 20.703125 58.296875 20.703125 59.59375 
Q 20.703125 61.59375 18.953125 62.59375 
Q 17.203125 63.59375 12.703125 63.703125 
L 12.703125 65.296875 
L 39.90625 65.296875 
L 39.90625 63.703125 
Q 34.796875 63.203125 32.84375 61.5 
Q 30.90625 59.796875 29.5 54.59375 
L 23.203125 32 
Q 19.203125 17.90625 19.203125 14.09375 
Q 19.203125 8.796875 23.140625 5.546875 
Q 27.09375 2.296875 33 2.296875 
Q 41.40625 2.296875 46.5 7.6875 
Q 51.59375 13.09375 55 25.5 
L 61.40625 48.796875 
Q 63.703125 57.296875 63.703125 59.09375 
Q 63.703125 61.296875 62.203125 62.296875 
Q 60.703125 63.296875 56.703125 63.703125 
L 56.703125 65.296875 
z
" id="STIXGeneral-Italic-55"/>
      <path d="M 11.296875 65.296875 
L 36.296875 65.296875 
Q 46.5 65.296875 51.796875 61.84375 
Q 57.09375 58.40625 57.09375 52.296875 
Q 57.09375 44.90625 52.140625 40.65625 
Q 47.203125 36.40625 39.59375 35.09375 
L 39.59375 35 
Q 52.40625 31.09375 52.40625 20 
Q 52.40625 10.203125 44.953125 5.09375 
Q 37.5 0 24.90625 0 
L -2.296875 0 
L -2.296875 1.59375 
Q 2 2.203125 3.59375 3.640625 
Q 5.203125 5.09375 6.40625 9.59375 
L 17.90625 53.203125 
Q 19 57.09375 19 59.59375 
Q 19 61.796875 17.5 62.546875 
Q 16 63.296875 11.296875 63.703125 
z
M 23.203125 36.5 
L 26.90625 36.5 
Q 47 36.5 47 51.5 
Q 47 57 44.25 59.34375 
Q 41.5 61.703125 35.296875 61.703125 
Q 33 61.703125 32.09375 61.546875 
Q 31.203125 61.40625 30.390625 60.65625 
Q 29.59375 59.90625 29.09375 58.09375 
z
M 22.203125 32.90625 
L 19 21.203125 
Q 15.796875 9.59375 15.796875 7.796875 
Q 15.796875 3.59375 22.5 3.59375 
Q 31.40625 3.59375 36.5 7.75 
Q 41.59375 11.90625 41.59375 20 
Q 41.59375 24.5 39.640625 27.703125 
Q 37.703125 30.90625 34.703125 31.90625 
Q 31.796875 32.90625 22.203125 32.90625 
z
" id="STIXGeneral-Italic-412"/>
      <path d="M 61.703125 65.296875 
L 61.703125 63.703125 
Q 58.40625 62.59375 55.65625 60.546875 
Q 52.90625 58.5 49.203125 54.203125 
L 32.296875 34.796875 
L 42.40625 9.296875 
Q 44.203125 4.796875 46 3.5 
Q 47.796875 2.203125 52.90625 1.59375 
L 52.90625 0 
L 25.796875 0 
L 25.796875 1.59375 
Q 30.09375 1.703125 31.796875 2.546875 
Q 33.5 3.40625 33.5 5.296875 
Q 33.5 6.90625 32.09375 10.40625 
L 25.40625 26.90625 
L 10.296875 9.703125 
Q 8 7.09375 8 4.90625 
Q 8 1.59375 14.59375 1.59375 
L 14.59375 0 
L -6.703125 0 
L -6.703125 1.59375 
Q -2.703125 2.296875 0.890625 5.640625 
Q 4.5 9 15.296875 21.59375 
L 23.59375 31.296875 
L 13.296875 56.796875 
Q 11.796875 60.5 9.9375 61.890625 
Q 8.09375 63.296875 3.796875 63.703125 
L 3.796875 65.296875 
L 30.09375 65.296875 
L 30.09375 63.703125 
Q 26 63.203125 24.5 62.34375 
Q 23 61.5 23 59.59375 
Q 23 57.90625 24.59375 54 
L 30.5 39.296875 
L 45 56 
Q 47.09375 58.40625 47.09375 60.296875 
Q 47.09375 63.40625 41 63.703125 
L 41 65.296875 
z
" id="STIXGeneral-Italic-425"/>
      <path d="M 40.90625 35 
C 49.203125 37.203125 55.09375 41.203125 55.09375 50.09375 
C 55.09375 60 48.40625 65.703125 30.59375 65.703125 
L 3.59375 65.703125 
L 3.59375 62.703125 
C 11.703125 62.703125 13.296875 61.59375 13.296875 53.59375 
L 13.296875 12.703125 
C 13.296875 4.40625 11.703125 3 3.59375 3 
L 3.59375 0 
L 34.40625 0 
C 49.296875 0 58.296875 6.296875 58.296875 17.703125 
C 58.296875 28.59375 49.40625 33.203125 40.90625 34.59375 
z
M 22.5 36.203125 
L 22.5 61.5 
C 24.5 61.703125 26.59375 61.796875 28.5 61.796875 
C 40.703125 61.796875 45.203125 57.09375 45.203125 49.296875 
C 45.203125 40.203125 41.40625 36.203125 29.296875 36.203125 
z
M 22.5 32 
L 29.5 32 
C 38.796875 32 47.796875 28.90625 47.796875 17.5 
C 47.796875 4.796875 38.296875 3.703125 29.703125 3.703125 
C 27.296875 3.703125 24.90625 3.796875 22.5 4 
z
" id="STIXTwoMath-412"/>
     </defs>
     <g transform="translate(21.080625 92.588352)rotate(-90)scale(0.1 -0.1)">
      <use xlink:href="#STIXGeneral-Italic-55"/>
      <use transform="translate(72.199982 -13.228125)scale(0.7)" xlink:href="#STIXGeneral-Italic-412"/>
      <use transform="translate(113.98998 -13.228125)scale(0.7)" xlink:href="#STIXGeneral-Italic-425"/>
      <use transform="translate(158.649344 0)" xlink:href="#STIXTwoMath-2c"/>
      <use transform="translate(183.749335 0)" xlink:href="#STIXTwoMath-20"/>
      <use transform="translate(207.249319 0)" xlink:href="#STIXTwoMath-28"/>
      <use transform="translate(242.84931 0)" xlink:href="#STIXTwoMath-412"/>
      <use transform="translate(304.649298 0)" xlink:href="#STIXTwoMath-29"/>
     </g>
    </g>
   </g>
   <g id="line2d_25">
    <path clip-path="url(#pc08b3a9ad3)" d="M 47.333029 131.95173 
L 68.728211 131.95173 
L 68.906504 120.669055 
L 69.263091 98.103704 
L 69.976264 52.973001 
L 70.511143 19.124974 
L 70.653778 19.124974 
L 70.939047 19.124974 
L 71.509585 19.124974 
L 72.650661 19.124974 
L 74.932814 19.124974 
L 77.549816 19.124974 
L 80.299007 19.124974 
L 85.797391 19.124974 
L 96.794157 19.124974 
L 111.944098 19.124974 
L 130.211981 19.124974 
L 135.749846 19.124974 
L 175.989564 19.124974 
L 225.42054 19.124974 
L 225.598833 30.40765 
L 225.955419 52.973001 
L 226.668592 98.103704 
L 227.203472 131.95173 
L 227.346106 131.95173 
L 227.631375 131.95173 
L 228.201914 131.95173 
L 229.34299 131.95173 
L 231.625143 131.95173 
L 234.905737 131.95173 
L 244.034348 131.95173 
L 251.453682 131.95173 
L 258.884212 131.95173 
L 267.459131 131.95173 
L 272.838803 131.95173 
L 277.867191 131.95173 
L 283.6348 131.95173 
L 294.952412 131.95173 
L 307.947841 131.95173 
L 330.796883 131.95173 
L 369.77551 131.95173 
L 400.68781 131.95173 
L 400.866103 120.669055 
L 401.22269 98.103704 
L 401.935862 52.973001 
L 402.470742 19.124974 
L 402.613376 19.124974 
L 402.898645 19.124974 
L 403.469184 19.124974 
L 404.61026 19.124974 
L 406.892413 19.124974 
L 409.509415 19.124974 
L 412.258606 19.124974 
L 417.756989 19.124974 
L 428.753756 19.124974 
L 439.163698 19.124974 
L 457.43158 19.124974 
" style="fill:none;stroke:#1f77b4;stroke-linecap:square;stroke-width:1.5;"/>
   </g>
   <g id="patch_3">
    <path d="M 51.59 137.593068 
L 51.59 13.483636 
" style="fill:none;stroke:#000000;stroke-linecap:square;stroke-linejoin:miter;stroke-width:0.8;"/>
   </g>
   <g id="patch_4">
    <path d="M 443.835 137.593068 
L 443.835 13.483636 
" style="fill:none;stroke:#000000;stroke-linecap:square;stroke-linejoin:miter;stroke-width:0.8;"/>
   </g>
   <g id="patch_5">
    <path d="M 51.59 137.593068 
L 443.835 137.593068 
" style="fill:none;stroke:#000000;stroke-linecap:square;stroke-linejoin:miter;stroke-width:0.8;"/>
   </g>
   <g id="patch_6">
    <path d="M 51.59 13.483636 
L 443.835 13.483636 
" style="fill:none;stroke:#000000;stroke-linecap:square;stroke-linejoin:miter;stroke-width:0.8;"/>
   </g>
  </g>
  <g id="axes_2">
   <g id="patch_7">
    <path d="M 51.59 304.91125 
L 443.835 304.91125 
L 443.835 180.801818 
L 51.59 180.801818 
z
" style="fill:#ffffff;"/>
   </g>
   <g id="matplotlib.axis_3">
    <g id="xtick_7">
     <g id="line2d_26">
      <path clip-path="url(#pc56839551e)" d="M 87.248636 304.91125 
L 87.248636 180.801818 
" style="fill:none;stroke:#b0b0b0;stroke-linecap:square;stroke-width:0.8;"/>
     </g>
     <g id="line2d_27">
      <g>
       <use style="stroke:#000000;stroke-width:0.8;" x="87.248636" xlink:href="#m49426ddf77" y="304.91125"/>
      </g>
     </g>
     <g id="text_16">
      <!-- 0.7 -->
      <g transform="translate(81.068949 318.970625)scale(0.1 -0.1)">
       <use xlink:href="#STIXTwoMath-30"/>
       <use x="49.499985" xlink:href="#STIXTwoMath-2e"/>
       <use x="74.099976" xlink:href="#STIXTwoMath-37"/>
      </g>
     </g>
    </g>
    <g id="xtick_8">
     <g id="line2d_28">
      <path clip-path="url(#pc56839551e)" d="M 158.565909 304.91125 
L 158.565909 180.801818 
" style="fill:none;stroke:#b0b0b0;stroke-linecap:square;stroke-width:0.8;"/>
     </g>
     <g id="line2d_29">
      <g>
       <use style="stroke:#000000;stroke-width:0.8;" x="158.565909" xlink:href="#m49426ddf77" y="304.91125"/>
      </g>
     </g>
     <g id="text_17">
      <!-- 0.8 -->
      <g transform="translate(152.386222 318.970625)scale(0.1 -0.1)">
       <use xlink:href="#STIXTwoMath-30"/>
       <use x="49.499985" xlink:href="#STIXTwoMath-2e"/>
       <use x="74.099976" xlink:href="#STIXTwoMath-38"/>
      </g>
     </g>
    </g>
    <g id="xtick_9">
     <g id="line2d_30">
      <path clip-path="url(#pc56839551e)" d="M 229.883182 304.91125 
L 229.883182 180.801818 
" style="fill:none;stroke:#b0b0b0;stroke-linecap:square;stroke-width:0.8;"/>
     </g>
     <g id="line2d_31">
      <g>
       <use style="stroke:#000000;stroke-width:0.8;" x="229.883182" xlink:href="#m49426ddf77" y="304.91125"/>
      </g>
     </g>
     <g id="text_18">
      <!-- 0.9 -->
      <g transform="translate(223.703494 318.970625)scale(0.1 -0.1)">
       <use xlink:href="#STIXTwoMath-30"/>
       <use x="49.499985" xlink:href="#STIXTwoMath-2e"/>
       <use x="74.099976" xlink:href="#STIXTwoMath-39"/>
      </g>
     </g>
    </g>
    <g id="xtick_10">
     <g id="line2d_32">
      <path clip-path="url(#pc56839551e)" d="M 301.200455 304.91125 
L 301.200455 180.801818 
" style="fill:none;stroke:#b0b0b0;stroke-linecap:square;stroke-width:0.8;"/>
     </g>
     <g id="line2d_33">
      <g>
       <use style="stroke:#000000;stroke-width:0.8;" x="301.200455" xlink:href="#m49426ddf77" y="304.91125"/>
      </g>
     </g>
     <g id="text_19">
      <!-- 1.0 -->
      <g transform="translate(295.020767 318.970625)scale(0.1 -0.1)">
       <use xlink:href="#STIXTwoMath-31"/>
       <use x="49.499985" xlink:href="#STIXTwoMath-2e"/>
       <use x="74.099976" xlink:href="#STIXTwoMath-30"/>
      </g>
     </g>
    </g>
    <g id="xtick_11">
     <g id="line2d_34">
      <path clip-path="url(#pc56839551e)" d="M 372.517727 304.91125 
L 372.517727 180.801818 
" style="fill:none;stroke:#b0b0b0;stroke-linecap:square;stroke-width:0.8;"/>
     </g>
     <g id="line2d_35">
      <g>
       <use style="stroke:#000000;stroke-width:0.8;" x="372.517727" xlink:href="#m49426ddf77" y="304.91125"/>
      </g>
     </g>
     <g id="text_20">
      <!-- 1.1 -->
      <g transform="translate(366.33804 318.970625)scale(0.1 -0.1)">
       <use xlink:href="#STIXTwoMath-31"/>
       <use x="49.499985" xlink:href="#STIXTwoMath-2e"/>
       <use x="74.099976" xlink:href="#STIXTwoMath-31"/>
      </g>
     </g>
    </g>
    <g id="xtick_12">
     <g id="line2d_36">
      <path clip-path="url(#pc56839551e)" d="M 443.835 304.91125 
L 443.835 180.801818 
" style="fill:none;stroke:#b0b0b0;stroke-linecap:square;stroke-width:0.8;"/>
     </g>
     <g id="line2d_37">
      <g>
       <use style="stroke:#000000;stroke-width:0.8;" x="443.835" xlink:href="#m49426ddf77" y="304.91125"/>
      </g>
     </g>
     <g id="text_21">
      <!-- 1.2 -->
      <g transform="translate(437.655313 318.970625)scale(0.1 -0.1)">
       <use xlink:href="#STIXTwoMath-31"/>
       <use x="49.499985" xlink:href="#STIXTwoMath-2e"/>
       <use x="74.099976" xlink:href="#STIXTwoMath-32"/>
      </g>
     </g>
    </g>
    <g id="text_22">
     <!-- t, (с) -->
     <g transform="translate(237.91875 332.23)scale(0.1 -0.1)">
      <use xlink:href="#STIXTwoMath-74"/>
      <use x="31.499985" xlink:href="#STIXTwoMath-2c"/>
      <use x="56.599976" xlink:href="#STIXTwoMath-20"/>
      <use x="80.09996" xlink:href="#STIXTwoMath-28"/>
      <use x="115.699951" xlink:href="#STIXTwoMath-441"/>
      <use x="160.299942" xlink:href="#STIXTwoMath-29"/>
     </g>
    </g>
    <g id="text_23">
     <!-- 1e−5 -->
     <g transform="translate(422.094375 331.23)scale(0.1 -0.1)">
      <use xlink:href="#STIXTwoMath-31"/>
      <use x="49.499985" xlink:href="#STIXTwoMath-65"/>
      <use x="95.899979" xlink:href="#STIXTwoMath-2212"/>
      <use x="167.899963" xlink:href="#STIXTwoMath-35"/>
     </g>
    </g>
   </g>
   <g id="matplotlib.axis_4">
    <g id="ytick_7">
     <g id="line2d_38">
      <path clip-path="url(#pc56839551e)" d="M 51.59 299.773461 
L 443.835 299.773461 
" style="fill:none;stroke:#b0b0b0;stroke-linecap:square;stroke-width:0.8;"/>
     </g>
     <g id="line2d_39">
      <g>
       <use style="stroke:#000000;stroke-width:0.8;" x="51.59" xlink:href="#m70425abcf7" y="299.773461"/>
      </g>
     </g>
     <g id="text_24">
      <!-- 0 -->
      <g transform="translate(39.64 303.303148)scale(0.1 -0.1)">
       <use xlink:href="#STIXTwoMath-30"/>
      </g>
     </g>
    </g>
    <g id="ytick_8">
     <g id="line2d_40">
      <path clip-path="url(#pc56839551e)" d="M 51.59 277.386196 
L 443.835 277.386196 
" style="fill:none;stroke:#b0b0b0;stroke-linecap:square;stroke-width:0.8;"/>
     </g>
     <g id="line2d_41">
      <g>
       <use style="stroke:#000000;stroke-width:0.8;" x="51.59" xlink:href="#m70425abcf7" y="277.386196"/>
      </g>
     </g>
     <g id="text_25">
      <!-- 2 -->
      <g transform="translate(39.64 280.915884)scale(0.1 -0.1)">
       <use xlink:href="#STIXTwoMath-32"/>
      </g>
     </g>
    </g>
    <g id="ytick_9">
     <g id="line2d_42">
      <path clip-path="url(#pc56839551e)" d="M 51.59 254.998932 
L 443.835 254.998932 
" style="fill:none;stroke:#b0b0b0;stroke-linecap:square;stroke-width:0.8;"/>
     </g>
     <g id="line2d_43">
      <g>
       <use style="stroke:#000000;stroke-width:0.8;" x="51.59" xlink:href="#m70425abcf7" y="254.998932"/>
      </g>
     </g>
     <g id="text_26">
      <!-- 4 -->
      <defs>
       <path d="M 48.09375 15.796875 
L 48.09375 22.703125 
L 37.90625 22.703125 
L 37.90625 64.5 
L 31.796875 64.5 
L 1.296875 22.09375 
L 1.296875 15.796875 
L 29 15.796875 
L 29 0 
L 37.90625 0 
L 37.90625 15.796875 
z
M 29 22.703125 
L 6.796875 22.703125 
L 6.796875 23.09375 
L 28.59375 53.59375 
L 29 53.59375 
z
" id="STIXTwoMath-34"/>
      </defs>
      <g transform="translate(39.64 258.528619)scale(0.1 -0.1)">
       <use xlink:href="#STIXTwoMath-34"/>
      </g>
     </g>
    </g>
    <g id="ytick_10">
     <g id="line2d_44">
      <path clip-path="url(#pc56839551e)" d="M 51.59 232.611667 
L 443.835 232.611667 
" style="fill:none;stroke:#b0b0b0;stroke-linecap:square;stroke-width:0.8;"/>
     </g>
     <g id="line2d_45">
      <g>
       <use style="stroke:#000000;stroke-width:0.8;" x="51.59" xlink:href="#m70425abcf7" y="232.611667"/>
      </g>
     </g>
     <g id="text_27">
      <!-- 6 -->
      <defs>
       <path d="M 41.5 64.59375 
C 20 63.703125 4.5 49.796875 4.5 25.703125 
C 4.5 11 11 -1.203125 25.90625 -1.203125 
C 38.5 -1.203125 45.703125 6.703125 45.703125 20.296875 
C 45.703125 33.40625 38.59375 41.296875 27.703125 41.296875 
C 22.5 41.296875 18.796875 39.09375 14.703125 35.09375 
L 14 35.203125 
C 16.5 49.796875 27.703125 59.59375 41.703125 61.703125 
z
M 37 19.5 
C 37 6.796875 33 2.296875 26.296875 2.296875 
C 17.59375 2.296875 13.5 11.203125 13.5 23.59375 
C 13.5 32.296875 18.90625 35.5 24.703125 35.5 
C 33 35.5 37 28.5 37 19.5 
z
" id="STIXTwoMath-36"/>
      </defs>
      <g transform="translate(39.64 236.141355)scale(0.1 -0.1)">
       <use xlink:href="#STIXTwoMath-36"/>
      </g>
     </g>
    </g>
    <g id="ytick_11">
     <g id="line2d_46">
      <path clip-path="url(#pc56839551e)" d="M 51.59 210.224403 
L 443.835 210.224403 
" style="fill:none;stroke:#b0b0b0;stroke-linecap:square;stroke-width:0.8;"/>
     </g>
     <g id="line2d_47">
      <g>
       <use style="stroke:#000000;stroke-width:0.8;" x="51.59" xlink:href="#m70425abcf7" y="210.224403"/>
      </g>
     </g>
     <g id="text_28">
      <!-- 8 -->
      <g transform="translate(39.64 213.75409)scale(0.1 -0.1)">
       <use xlink:href="#STIXTwoMath-38"/>
      </g>
     </g>
    </g>
    <g id="ytick_12">
     <g id="line2d_48">
      <path clip-path="url(#pc56839551e)" d="M 51.59 187.837138 
L 443.835 187.837138 
" style="fill:none;stroke:#b0b0b0;stroke-linecap:square;stroke-width:0.8;"/>
     </g>
     <g id="line2d_49">
      <g>
       <use style="stroke:#000000;stroke-width:0.8;" x="51.59" xlink:href="#m70425abcf7" y="187.837138"/>
      </g>
     </g>
     <g id="text_29">
      <!-- 10 -->
      <g transform="translate(34.69 191.366826)scale(0.1 -0.1)">
       <use xlink:href="#STIXTwoMath-31"/>
       <use x="49.499985" xlink:href="#STIXTwoMath-30"/>
      </g>
     </g>
    </g>
    <g id="text_30">
     <!-- $U_{ВИХ}$, (В) -->
     <defs>
      <path d="M 74.90625 65.296875 
L 74.90625 63.703125 
Q 70.59375 63 69.140625 61.75 
Q 67.703125 60.5 66.5 56.296875 
L 54.40625 11 
Q 53.40625 7.59375 53.40625 6.59375 
Q 53.40625 3.703125 54.703125 2.890625 
Q 56 2.09375 61.09375 1.59375 
L 61.09375 0 
L 34.203125 0 
L 34.203125 1.59375 
Q 39.40625 1.90625 41.296875 3.59375 
Q 43.203125 5.296875 44.296875 9.296875 
L 55.203125 49.796875 
L 15.296875 9.5 
Q 14.703125 7.59375 14.703125 6.203125 
Q 14.703125 3.90625 16.34375 2.84375 
Q 18 1.796875 21.703125 1.59375 
L 21.703125 0 
L -2.5 0 
L -2.5 1.59375 
Q 2.203125 2.296875 3.5 3.890625 
Q 4.796875 5.5 6.59375 12.09375 
L 17.59375 53.296875 
Q 18.796875 57.90625 18.796875 59.59375 
Q 18.796875 61.796875 17.390625 62.5 
Q 16 63.203125 11.09375 63.703125 
L 11.09375 65.296875 
L 37.796875 65.296875 
L 37.796875 63.703125 
Q 33.5 63.40625 31.140625 61.546875 
Q 28.796875 59.703125 27.40625 54.296875 
L 17.296875 16.203125 
L 56.90625 56.296875 
Q 57.5 58.703125 57.5 60 
Q 57.5 61.796875 56 62.59375 
Q 54.5 63.40625 50.90625 63.703125 
L 50.90625 65.296875 
z
" id="STIXGeneral-Italic-418"/>
     </defs>
     <g transform="translate(28.49 262.356534)rotate(-90)scale(0.1 -0.1)">
      <use xlink:href="#STIXGeneral-Italic-55"/>
      <use transform="translate(72.199982 -13.228125)scale(0.7)" xlink:href="#STIXGeneral-Italic-412"/>
      <use transform="translate(113.98998 -13.228125)scale(0.7)" xlink:href="#STIXGeneral-Italic-418"/>
      <use transform="translate(163.549971 -13.228125)scale(0.7)" xlink:href="#STIXGeneral-Italic-425"/>
      <use transform="translate(208.209335 0)" xlink:href="#STIXTwoMath-2c"/>
      <use transform="translate(233.309326 0)" xlink:href="#STIXTwoMath-20"/>
      <use transform="translate(256.809311 0)" xlink:href="#STIXTwoMath-28"/>
      <use transform="translate(292.409302 0)" xlink:href="#STIXTwoMath-412"/>
      <use transform="translate(354.20929 0)" xlink:href="#STIXTwoMath-29"/>
     </g>
    </g>
   </g>
   <g id="line2d_50">
    <path clip-path="url(#pc56839551e)" d="M 47.333029 188.294304 
L 68.728211 187.386147 
L 68.906504 187.43207 
L 69.263091 187.051885 
L 69.976264 190.074393 
L 70.511143 213.989781 
L 70.653778 222.3115 
L 70.939047 237.669536 
L 71.509585 264.704905 
L 72.650661 297.928885 
L 74.932814 298.807664 
L 77.549816 298.984673 
L 80.299007 299.070048 
L 85.797391 299.15842 
L 96.794157 299.220533 
L 111.944098 299.2466 
L 130.211981 299.250898 
L 135.749846 299.25373 
L 175.989564 299.251968 
L 225.42054 299.253561 
L 225.598833 299.255603 
L 225.955419 299.260934 
L 226.668592 299.26828 
L 227.203472 299.269785 
L 227.346106 299.267172 
L 227.631375 299.261169 
L 228.201914 299.248612 
L 229.34299 299.222758 
L 231.625143 299.166407 
L 234.905737 299.031013 
L 244.034348 298.464612 
L 251.453682 261.758747 
L 258.884212 198.056755 
L 267.459131 187.170944 
L 272.838803 188.427461 
L 277.867191 187.294885 
L 283.6348 188.341275 
L 294.952412 187.351387 
L 307.947841 188.307428 
L 330.796883 187.375422 
L 369.77551 188.294311 
L 400.68781 187.386141 
L 400.866103 187.432068 
L 401.22269 187.051885 
L 401.935862 190.074393 
L 402.470742 213.989782 
L 402.613376 222.3115 
L 402.898645 237.669536 
L 403.469184 264.704905 
L 404.61026 297.928885 
L 406.892413 298.807664 
L 409.509415 298.984673 
L 412.258606 299.070048 
L 417.756989 299.15842 
L 428.753756 299.220533 
L 439.163698 299.2466 
L 457.43158 299.250898 
" style="fill:none;stroke:#1f77b4;stroke-linecap:square;stroke-width:1.5;"/>
   </g>
   <g id="patch_8">
    <path d="M 51.59 304.91125 
L 51.59 180.801818 
" style="fill:none;stroke:#000000;stroke-linecap:square;stroke-linejoin:miter;stroke-width:0.8;"/>
   </g>
   <g id="patch_9">
    <path d="M 443.835 304.91125 
L 443.835 180.801818 
" style="fill:none;stroke:#000000;stroke-linecap:square;stroke-linejoin:miter;stroke-width:0.8;"/>
   </g>
   <g id="patch_10">
    <path d="M 51.59 304.91125 
L 443.835 304.91125 
" style="fill:none;stroke:#000000;stroke-linecap:square;stroke-linejoin:miter;stroke-width:0.8;"/>
   </g>
   <g id="patch_11">
    <path d="M 51.59 180.801818 
L 443.835 180.801818 
" style="fill:none;stroke:#000000;stroke-linecap:square;stroke-linejoin:miter;stroke-width:0.8;"/>
   </g>
  </g>
 </g>
 <defs>
  <clipPath id="pc08b3a9ad3">
   <rect height="124.109432" width="392.245" x="51.59" y="13.483636"/>
  </clipPath>
  <clipPath id="pc56839551e">
   <rect height="124.109432" width="392.245" x="51.59" y="180.801818"/>
  </clipPath>
 </defs>
</svg>
