<?xml version="1.0" encoding="utf-8" standalone="no"?>
<!DOCTYPE svg PUBLIC "-//W3C//DTD SVG 1.1//EN"
  "http://www.w3.org/Graphics/SVG/1.1/DTD/svg11.dtd">
<!-- Created with matplotlib (http://matplotlib.org/) -->
<svg height="345pt" version="1.1" viewBox="0 0 460 345" width="460pt" xmlns="http://www.w3.org/2000/svg" xmlns:xlink="http://www.w3.org/1999/xlink">
 <defs>
  <style type="text/css">
*{stroke-linecap:butt;stroke-linejoin:round;}
  </style>
 </defs>
 <g id="figure_1">
  <g id="patch_1">
   <path d="M 0 345.6 
L 460.8 345.6 
L 460.8 0 
L 0 0 
z
" style="fill:#ffffff;"/>
  </g>
  <g id="axes_1">
   <g id="patch_2">
    <path d="M 39.26 81.71125 
L 438.885 81.71125 
L 438.885 13.32 
L 39.26 13.32 
z
" style="fill:#ffffff;"/>
   </g>
   <g id="matplotlib.axis_1">
    <g id="xtick_1">
     <g id="line2d_1">
      <path clip-path="url(#pb29fa197ff)" d="M 58.289762 81.71125 
L 58.289762 13.32 
" style="fill:none;stroke:#b0b0b0;stroke-linecap:square;stroke-width:0.8;"/>
     </g>
     <g id="line2d_2">
      <defs>
       <path d="M 0 0 
L 0 3.5 
" id="m9ace77a663" style="stroke:#000000;stroke-width:0.8;"/>
      </defs>
      <g>
       <use style="stroke:#000000;stroke-width:0.8;" x="58.289762" xlink:href="#m9ace77a663" y="81.71125"/>
      </g>
     </g>
     <g id="text_1">
      <!-- 0.020 -->
      <defs>
       <path d="M 46.796875 31.703125 
C 46.796875 52.296875 37.796875 64.203125 24.90625 64.203125 
C 10.40625 64.203125 2.703125 51 2.703125 32 
C 2.703125 14.296875 8.59375 -1.09375 24.703125 -1.09375 
C 40.40625 -1.09375 46.796875 14.59375 46.796875 31.703125 
z
M 37.09375 31.09375 
C 37.09375 11.90625 32.59375 2.5 24.703125 2.5 
C 16.703125 2.5 12.296875 12.09375 12.296875 31.5 
C 12.296875 51.296875 16.703125 60.796875 24.59375 60.796875 
C 32.796875 60.796875 37.09375 51.40625 37.09375 31.09375 
z
" id="STIXTwoMath-30"/>
       <path d="M 18.203125 4.90625 
C 18.203125 8.203125 16.09375 11.09375 12.296875 11.09375 
C 8.59375 11.09375 6.40625 8.296875 6.40625 5 
C 6.40625 1.59375 8.296875 -0.796875 12.203125 -0.796875 
C 16.09375 -0.796875 18.203125 1.796875 18.203125 4.90625 
z
" id="STIXTwoMath-2e"/>
       <path d="M 46.40625 16 
L 43.5 16 
C 41.203125 10 39.90625 7.90625 34.59375 7.90625 
L 20.703125 7.90625 
L 13.703125 7.59375 
L 13.703125 8.09375 
L 26.90625 20.59375 
C 37.5 31.296875 43.203125 38.203125 43.203125 47.09375 
C 43.203125 57.59375 35.296875 64.40625 24 64.40625 
C 14.296875 64.40625 7.5 58.796875 4.40625 49.09375 
L 6.796875 48.09375 
C 10.5 55.59375 14.90625 57.90625 21.40625 57.90625 
C 29.09375 57.90625 33.90625 53.09375 33.90625 45.59375 
C 33.90625 35.09375 28.90625 28.796875 19 18.59375 
L 3.796875 3.40625 
L 3.796875 0 
L 43.203125 0 
z
" id="STIXTwoMath-32"/>
      </defs>
      <g transform="translate(47.160074 95.770625)scale(0.1 -0.1)">
       <use xlink:href="#STIXTwoMath-30"/>
       <use x="49.499985" xlink:href="#STIXTwoMath-2e"/>
       <use x="74.099976" xlink:href="#STIXTwoMath-30"/>
       <use x="123.59996" xlink:href="#STIXTwoMath-32"/>
       <use x="173.099945" xlink:href="#STIXTwoMath-30"/>
      </g>
     </g>
    </g>
    <g id="xtick_2">
     <g id="line2d_3">
      <path clip-path="url(#pb29fa197ff)" d="M 134.40881 81.71125 
L 134.40881 13.32 
" style="fill:none;stroke:#b0b0b0;stroke-linecap:square;stroke-width:0.8;"/>
     </g>
     <g id="line2d_4">
      <g>
       <use style="stroke:#000000;stroke-width:0.8;" x="134.40881" xlink:href="#m9ace77a663" y="81.71125"/>
      </g>
     </g>
     <g id="text_2">
      <!-- 0.022 -->
      <g transform="translate(123.279122 95.770625)scale(0.1 -0.1)">
       <use xlink:href="#STIXTwoMath-30"/>
       <use x="49.499985" xlink:href="#STIXTwoMath-2e"/>
       <use x="74.099976" xlink:href="#STIXTwoMath-30"/>
       <use x="123.59996" xlink:href="#STIXTwoMath-32"/>
       <use x="173.099945" xlink:href="#STIXTwoMath-32"/>
      </g>
     </g>
    </g>
    <g id="xtick_3">
     <g id="line2d_5">
      <path clip-path="url(#pb29fa197ff)" d="M 210.527857 81.71125 
L 210.527857 13.32 
" style="fill:none;stroke:#b0b0b0;stroke-linecap:square;stroke-width:0.8;"/>
     </g>
     <g id="line2d_6">
      <g>
       <use style="stroke:#000000;stroke-width:0.8;" x="210.527857" xlink:href="#m9ace77a663" y="81.71125"/>
      </g>
     </g>
     <g id="text_3">
      <!-- 0.024 -->
      <defs>
       <path d="M 48.09375 15.796875 
L 48.09375 22.703125 
L 37.90625 22.703125 
L 37.90625 64.5 
L 31.796875 64.5 
L 1.296875 22.09375 
L 1.296875 15.796875 
L 29 15.796875 
L 29 0 
L 37.90625 0 
L 37.90625 15.796875 
z
M 29 22.703125 
L 6.796875 22.703125 
L 6.796875 23.09375 
L 28.59375 53.59375 
L 29 53.59375 
z
" id="STIXTwoMath-34"/>
      </defs>
      <g transform="translate(199.39817 95.770625)scale(0.1 -0.1)">
       <use xlink:href="#STIXTwoMath-30"/>
       <use x="49.499985" xlink:href="#STIXTwoMath-2e"/>
       <use x="74.099976" xlink:href="#STIXTwoMath-30"/>
       <use x="123.59996" xlink:href="#STIXTwoMath-32"/>
       <use x="173.099945" xlink:href="#STIXTwoMath-34"/>
      </g>
     </g>
    </g>
    <g id="xtick_4">
     <g id="line2d_7">
      <path clip-path="url(#pb29fa197ff)" d="M 286.646905 81.71125 
L 286.646905 13.32 
" style="fill:none;stroke:#b0b0b0;stroke-linecap:square;stroke-width:0.8;"/>
     </g>
     <g id="line2d_8">
      <g>
       <use style="stroke:#000000;stroke-width:0.8;" x="286.646905" xlink:href="#m9ace77a663" y="81.71125"/>
      </g>
     </g>
     <g id="text_4">
      <!-- 0.026 -->
      <defs>
       <path d="M 41.5 64.59375 
C 20 63.703125 4.5 49.796875 4.5 25.703125 
C 4.5 11 11 -1.203125 25.90625 -1.203125 
C 38.5 -1.203125 45.703125 6.703125 45.703125 20.296875 
C 45.703125 33.40625 38.59375 41.296875 27.703125 41.296875 
C 22.5 41.296875 18.796875 39.09375 14.703125 35.09375 
L 14 35.203125 
C 16.5 49.796875 27.703125 59.59375 41.703125 61.703125 
z
M 37 19.5 
C 37 6.796875 33 2.296875 26.296875 2.296875 
C 17.59375 2.296875 13.5 11.203125 13.5 23.59375 
C 13.5 32.296875 18.90625 35.5 24.703125 35.5 
C 33 35.5 37 28.5 37 19.5 
z
" id="STIXTwoMath-36"/>
      </defs>
      <g transform="translate(275.517217 95.770625)scale(0.1 -0.1)">
       <use xlink:href="#STIXTwoMath-30"/>
       <use x="49.499985" xlink:href="#STIXTwoMath-2e"/>
       <use x="74.099976" xlink:href="#STIXTwoMath-30"/>
       <use x="123.59996" xlink:href="#STIXTwoMath-32"/>
       <use x="173.099945" xlink:href="#STIXTwoMath-36"/>
      </g>
     </g>
    </g>
    <g id="xtick_5">
     <g id="line2d_9">
      <path clip-path="url(#pb29fa197ff)" d="M 362.765952 81.71125 
L 362.765952 13.32 
" style="fill:none;stroke:#b0b0b0;stroke-linecap:square;stroke-width:0.8;"/>
     </g>
     <g id="line2d_10">
      <g>
       <use style="stroke:#000000;stroke-width:0.8;" x="362.765952" xlink:href="#m9ace77a663" y="81.71125"/>
      </g>
     </g>
     <g id="text_5">
      <!-- 0.028 -->
      <defs>
       <path d="M 44.796875 15 
C 44.796875 23 41.203125 27.796875 29.5 34.90625 
L 29.5 35.203125 
C 38.796875 40.296875 42.40625 43.59375 42.40625 50.90625 
C 42.40625 58.796875 34.796875 64.703125 24.90625 64.703125 
C 13.90625 64.703125 5.90625 59 5.90625 49.90625 
C 5.90625 43.09375 8.09375 39 18.296875 31.90625 
L 18.296875 31.59375 
C 9 25.40625 4.59375 22.203125 4.59375 14.203125 
C 4.59375 4 13 -1.203125 24.59375 -1.203125 
C 36.5 -1.203125 44.796875 4.5 44.796875 15 
z
M 35 51.09375 
C 35 44.703125 33 40.796875 26.40625 36.796875 
C 17.5 42.203125 13.703125 45.796875 13.703125 51.703125 
C 13.703125 57.796875 17.90625 61.40625 24.703125 61.40625 
C 31.09375 61.40625 35 57.703125 35 51.09375 
z
M 21.296875 30 
C 33.40625 22.203125 36.40625 18.5 36.40625 12.09375 
C 36.40625 5.296875 31.203125 1.90625 25 1.90625 
C 17.40625 1.90625 12.40625 6 12.40625 15 
C 12.40625 21.90625 15.59375 25.40625 21.296875 30 
z
" id="STIXTwoMath-38"/>
      </defs>
      <g transform="translate(351.636265 95.770625)scale(0.1 -0.1)">
       <use xlink:href="#STIXTwoMath-30"/>
       <use x="49.499985" xlink:href="#STIXTwoMath-2e"/>
       <use x="74.099976" xlink:href="#STIXTwoMath-30"/>
       <use x="123.59996" xlink:href="#STIXTwoMath-32"/>
       <use x="173.099945" xlink:href="#STIXTwoMath-38"/>
      </g>
     </g>
    </g>
    <g id="xtick_6">
     <g id="line2d_11">
      <path clip-path="url(#pb29fa197ff)" d="M 438.885 81.71125 
L 438.885 13.32 
" style="fill:none;stroke:#b0b0b0;stroke-linecap:square;stroke-width:0.8;"/>
     </g>
     <g id="line2d_12">
      <g>
       <use style="stroke:#000000;stroke-width:0.8;" x="438.885" xlink:href="#m9ace77a663" y="81.71125"/>
      </g>
     </g>
     <g id="text_6">
      <!-- 0.030 -->
      <defs>
       <path d="M 8.59375 49.796875 
C 12 55.09375 15.703125 57.90625 21.703125 57.90625 
C 27.90625 57.90625 31.90625 54.5 31.90625 48.59375 
C 31.90625 40.5 24.796875 35 18 35 
L 16.09375 35 
L 16.09375 31.203125 
L 18.09375 31.203125 
C 27.703125 31.203125 36.203125 25.296875 36.203125 16.40625 
C 36.203125 6.59375 30.09375 3.703125 23.796875 3.703125 
C 21.40625 3.703125 20 4.09375 15.703125 6.296875 
C 12.203125 8.09375 11.40625 8.59375 9.796875 8.59375 
C 7.203125 8.59375 5.90625 6.296875 5.90625 4.203125 
C 5.90625 1.59375 8.09375 -1.296875 17.09375 -1.296875 
C 31.703125 -1.296875 44.40625 5.703125 44.40625 19.40625 
C 44.40625 28.296875 37.703125 33.59375 29.703125 36.09375 
L 29.703125 36.40625 
C 36 40.40625 40.5 44.09375 40.5 51 
C 40.5 58.59375 34.59375 64.40625 24.40625 64.40625 
C 16.203125 64.40625 10 59.796875 6.296875 51.09375 
z
" id="STIXTwoMath-33"/>
      </defs>
      <g transform="translate(427.755313 95.770625)scale(0.1 -0.1)">
       <use xlink:href="#STIXTwoMath-30"/>
       <use x="49.499985" xlink:href="#STIXTwoMath-2e"/>
       <use x="74.099976" xlink:href="#STIXTwoMath-30"/>
       <use x="123.59996" xlink:href="#STIXTwoMath-33"/>
       <use x="173.099945" xlink:href="#STIXTwoMath-30"/>
      </g>
     </g>
    </g>
    <g id="text_7">
     <!-- t, (с) -->
     <defs>
      <path d="M 29.296875 9 
C 26.796875 6.203125 25.5 4.90625 22.296875 4.90625 
C 18.40625 4.90625 17.5 7.296875 17.5 14.40625 
L 17.5 43.09375 
L 28.796875 43.09375 
L 28.796875 47.296875 
L 17.5 47.296875 
L 17.59375 61 
L 15 61 
C 11.40625 52.5 8.40625 48.296875 3.703125 45.40625 
L 3.703125 43.09375 
L 9.203125 43.09375 
L 9.203125 11.59375 
C 9.203125 2.59375 12.09375 -1 18.796875 -1 
C 25.203125 -1 27.296875 2 31.203125 7.40625 
z
" id="STIXTwoMath-74"/>
      <path d="M 7.40625 -14.203125 
C 11.40625 -12.40625 19.796875 -9 19.796875 2.296875 
C 19.796875 7.796875 17.09375 11.09375 12.09375 11.09375 
C 8.09375 11.09375 5.90625 8.40625 5.90625 5.203125 
C 5.90625 2.296875 7.5 -0.203125 11.40625 -0.203125 
C 12.5 -0.203125 13.40625 0 14.5 0.40625 
C 14.5 -7.703125 9.90625 -10.09375 6.203125 -11.703125 
z
" id="STIXTwoMath-2c"/>
      <path id="STIXTwoMath-20"/>
      <path d="M 4.296875 27.40625 
C 4.296875 5.40625 14.796875 -10.296875 30.90625 -18.59375 
L 32.5 -15.796875 
C 17.90625 -6.203125 12.5 7.296875 12.5 27.40625 
C 12.5 47.296875 17.90625 60.703125 32.5 70.40625 
L 30.90625 73 
C 14.796875 64.796875 4.296875 49.203125 4.296875 27.40625 
z
" id="STIXTwoMath-28"/>
      <path d="M 40.796875 14.796875 
C 36.296875 9 32.90625 6.5 26.40625 6.5 
C 16.09375 6.5 11.203125 15.09375 11.203125 27.296875 
C 11.203125 38.796875 16.09375 44.796875 24.203125 44.796875 
C 32.796875 44.796875 29.5 33.40625 36.90625 33.40625 
C 39.703125 33.40625 41.09375 35 41.09375 37.90625 
C 41.09375 43.703125 35.296875 48.5 25.90625 48.5 
C 11.5 48.5 3.296875 38.296875 3.296875 22.59375 
C 3.296875 8.703125 10.796875 -1 23.296875 -1 
C 34 -1 38.90625 5.296875 42.703125 13.40625 
z
" id="STIXTwoMath-441"/>
      <path d="M 31.296875 27.40625 
C 31.296875 49.203125 20.796875 64.796875 4.703125 73 
L 3.09375 70.40625 
C 17.703125 60.703125 23.09375 47.296875 23.09375 27.40625 
C 23.09375 7.296875 17.703125 -6.203125 3.09375 -15.796875 
L 4.703125 -18.59375 
C 20.796875 -10.296875 31.296875 5.40625 31.296875 27.40625 
z
" id="STIXTwoMath-29"/>
     </defs>
     <g transform="translate(229.27875 109.03)scale(0.1 -0.1)">
      <use xlink:href="#STIXTwoMath-74"/>
      <use x="31.499985" xlink:href="#STIXTwoMath-2c"/>
      <use x="56.599976" xlink:href="#STIXTwoMath-20"/>
      <use x="80.09996" xlink:href="#STIXTwoMath-28"/>
      <use x="115.699951" xlink:href="#STIXTwoMath-441"/>
      <use x="160.299942" xlink:href="#STIXTwoMath-29"/>
     </g>
    </g>
   </g>
   <g id="matplotlib.axis_2">
    <g id="ytick_1">
     <g id="line2d_13">
      <path clip-path="url(#pb29fa197ff)" d="M 39.26 78.602557 
L 438.885 78.602557 
" style="fill:none;stroke:#b0b0b0;stroke-linecap:square;stroke-width:0.8;"/>
     </g>
     <g id="line2d_14">
      <defs>
       <path d="M 0 0 
L -3.5 0 
" id="m4556239375" style="stroke:#000000;stroke-width:0.8;"/>
      </defs>
      <g>
       <use style="stroke:#000000;stroke-width:0.8;" x="39.26" xlink:href="#m4556239375" y="78.602557"/>
      </g>
     </g>
     <g id="text_8">
      <!-- 0 -->
      <g transform="translate(27.31 82.132244)scale(0.1 -0.1)">
       <use xlink:href="#STIXTwoMath-30"/>
      </g>
     </g>
    </g>
    <g id="ytick_2">
     <g id="line2d_15">
      <path clip-path="url(#pb29fa197ff)" d="M 39.26 53.733011 
L 438.885 53.733011 
" style="fill:none;stroke:#b0b0b0;stroke-linecap:square;stroke-width:0.8;"/>
     </g>
     <g id="line2d_16">
      <g>
       <use style="stroke:#000000;stroke-width:0.8;" x="39.26" xlink:href="#m4556239375" y="53.733011"/>
      </g>
     </g>
     <g id="text_9">
      <!-- 2 -->
      <g transform="translate(27.31 57.262699)scale(0.1 -0.1)">
       <use xlink:href="#STIXTwoMath-32"/>
      </g>
     </g>
    </g>
    <g id="ytick_3">
     <g id="line2d_17">
      <path clip-path="url(#pb29fa197ff)" d="M 39.26 28.863466 
L 438.885 28.863466 
" style="fill:none;stroke:#b0b0b0;stroke-linecap:square;stroke-width:0.8;"/>
     </g>
     <g id="line2d_18">
      <g>
       <use style="stroke:#000000;stroke-width:0.8;" x="39.26" xlink:href="#m4556239375" y="28.863466"/>
      </g>
     </g>
     <g id="text_10">
      <!-- 4 -->
      <g transform="translate(27.31 32.393153)scale(0.1 -0.1)">
       <use xlink:href="#STIXTwoMath-34"/>
      </g>
     </g>
    </g>
    <g id="text_11">
     <!-- $U_{1ВХ}$, (В) -->
     <defs>
      <path d="M 76.5 65.296875 
L 76.5 63.703125 
Q 74.40625 63.203125 73.34375 62.75 
Q 72.296875 62.296875 71.296875 61.640625 
Q 70.296875 61 69.546875 59.203125 
Q 68.796875 57.40625 68.09375 55.296875 
Q 67.40625 53.203125 66.09375 48.796875 
L 57.796875 20.296875 
Q 54.40625 8.703125 48.09375 3.40625 
Q 42.09375 -1.796875 32.296875 -1.796875 
Q 22.5 -1.796875 16.34375 2.796875 
Q 10.203125 7.40625 10.203125 14.59375 
Q 10.203125 20.09375 14.59375 36.203125 
L 19.796875 55.09375 
Q 20.703125 58.296875 20.703125 59.59375 
Q 20.703125 61.59375 18.953125 62.59375 
Q 17.203125 63.59375 12.703125 63.703125 
L 12.703125 65.296875 
L 39.90625 65.296875 
L 39.90625 63.703125 
Q 34.796875 63.203125 32.84375 61.5 
Q 30.90625 59.796875 29.5 54.59375 
L 23.203125 32 
Q 19.203125 17.90625 19.203125 14.09375 
Q 19.203125 8.796875 23.140625 5.546875 
Q 27.09375 2.296875 33 2.296875 
Q 41.40625 2.296875 46.5 7.6875 
Q 51.59375 13.09375 55 25.5 
L 61.40625 48.796875 
Q 63.703125 57.296875 63.703125 59.09375 
Q 63.703125 61.296875 62.203125 62.296875 
Q 60.703125 63.296875 56.703125 63.703125 
L 56.703125 65.296875 
z
" id="STIXGeneral-Italic-55"/>
      <path d="M 39.40625 0 
L 11.796875 0 
L 11.796875 1.5 
Q 17.296875 1.796875 19.296875 3.546875 
Q 21.296875 5.296875 21.296875 9.5 
L 21.296875 54.40625 
Q 21.296875 59.296875 18.296875 59.296875 
Q 16.90625 59.296875 13.796875 58.09375 
L 11.09375 57.09375 
L 11.09375 58.5 
L 29 67.59375 
L 29.90625 67.296875 
L 29.90625 7.59375 
Q 29.90625 4.296875 31.90625 2.890625 
Q 33.90625 1.5 39.40625 1.5 
z
" id="STIXGeneral-Regular-31"/>
      <path d="M 11.296875 65.296875 
L 36.296875 65.296875 
Q 46.5 65.296875 51.796875 61.84375 
Q 57.09375 58.40625 57.09375 52.296875 
Q 57.09375 44.90625 52.140625 40.65625 
Q 47.203125 36.40625 39.59375 35.09375 
L 39.59375 35 
Q 52.40625 31.09375 52.40625 20 
Q 52.40625 10.203125 44.953125 5.09375 
Q 37.5 0 24.90625 0 
L -2.296875 0 
L -2.296875 1.59375 
Q 2 2.203125 3.59375 3.640625 
Q 5.203125 5.09375 6.40625 9.59375 
L 17.90625 53.203125 
Q 19 57.09375 19 59.59375 
Q 19 61.796875 17.5 62.546875 
Q 16 63.296875 11.296875 63.703125 
z
M 23.203125 36.5 
L 26.90625 36.5 
Q 47 36.5 47 51.5 
Q 47 57 44.25 59.34375 
Q 41.5 61.703125 35.296875 61.703125 
Q 33 61.703125 32.09375 61.546875 
Q 31.203125 61.40625 30.390625 60.65625 
Q 29.59375 59.90625 29.09375 58.09375 
z
M 22.203125 32.90625 
L 19 21.203125 
Q 15.796875 9.59375 15.796875 7.796875 
Q 15.796875 3.59375 22.5 3.59375 
Q 31.40625 3.59375 36.5 7.75 
Q 41.59375 11.90625 41.59375 20 
Q 41.59375 24.5 39.640625 27.703125 
Q 37.703125 30.90625 34.703125 31.90625 
Q 31.796875 32.90625 22.203125 32.90625 
z
" id="STIXGeneral-Italic-412"/>
      <path d="M 61.703125 65.296875 
L 61.703125 63.703125 
Q 58.40625 62.59375 55.65625 60.546875 
Q 52.90625 58.5 49.203125 54.203125 
L 32.296875 34.796875 
L 42.40625 9.296875 
Q 44.203125 4.796875 46 3.5 
Q 47.796875 2.203125 52.90625 1.59375 
L 52.90625 0 
L 25.796875 0 
L 25.796875 1.59375 
Q 30.09375 1.703125 31.796875 2.546875 
Q 33.5 3.40625 33.5 5.296875 
Q 33.5 6.90625 32.09375 10.40625 
L 25.40625 26.90625 
L 10.296875 9.703125 
Q 8 7.09375 8 4.90625 
Q 8 1.59375 14.59375 1.59375 
L 14.59375 0 
L -6.703125 0 
L -6.703125 1.59375 
Q -2.703125 2.296875 0.890625 5.640625 
Q 4.5 9 15.296875 21.59375 
L 23.59375 31.296875 
L 13.296875 56.796875 
Q 11.796875 60.5 9.9375 61.890625 
Q 8.09375 63.296875 3.796875 63.703125 
L 3.796875 65.296875 
L 30.09375 65.296875 
L 30.09375 63.703125 
Q 26 63.203125 24.5 62.34375 
Q 23 61.5 23 59.59375 
Q 23 57.90625 24.59375 54 
L 30.5 39.296875 
L 45 56 
Q 47.09375 58.40625 47.09375 60.296875 
Q 47.09375 63.40625 41 63.703125 
L 41 65.296875 
z
" id="STIXGeneral-Italic-425"/>
      <path d="M 40.90625 35 
C 49.203125 37.203125 55.09375 41.203125 55.09375 50.09375 
C 55.09375 60 48.40625 65.703125 30.59375 65.703125 
L 3.59375 65.703125 
L 3.59375 62.703125 
C 11.703125 62.703125 13.296875 61.59375 13.296875 53.59375 
L 13.296875 12.703125 
C 13.296875 4.40625 11.703125 3 3.59375 3 
L 3.59375 0 
L 34.40625 0 
C 49.296875 0 58.296875 6.296875 58.296875 17.703125 
C 58.296875 28.59375 49.40625 33.203125 40.90625 34.59375 
z
M 22.5 36.203125 
L 22.5 61.5 
C 24.5 61.703125 26.59375 61.796875 28.5 61.796875 
C 40.703125 61.796875 45.203125 57.09375 45.203125 49.296875 
C 45.203125 40.203125 41.40625 36.203125 29.296875 36.203125 
z
M 22.5 32 
L 29.5 32 
C 38.796875 32 47.796875 28.90625 47.796875 17.5 
C 47.796875 4.796875 38.296875 3.703125 29.703125 3.703125 
C 27.296875 3.703125 24.90625 3.796875 22.5 4 
z
" id="STIXTwoMath-412"/>
     </defs>
     <g transform="translate(21.11 66.315625)rotate(-90)scale(0.1 -0.1)">
      <use xlink:href="#STIXGeneral-Italic-55"/>
      <use transform="translate(72.199982 -13.228125)scale(0.7)" xlink:href="#STIXGeneral-Regular-31"/>
      <use transform="translate(107.199971 -13.228125)scale(0.7)" xlink:href="#STIXGeneral-Italic-412"/>
      <use transform="translate(148.989969 -13.228125)scale(0.7)" xlink:href="#STIXGeneral-Italic-425"/>
      <use transform="translate(193.649333 0)" xlink:href="#STIXTwoMath-2c"/>
      <use transform="translate(218.749324 0)" xlink:href="#STIXTwoMath-20"/>
      <use transform="translate(242.249309 0)" xlink:href="#STIXTwoMath-28"/>
      <use transform="translate(277.8493 0)" xlink:href="#STIXTwoMath-412"/>
      <use transform="translate(339.649287 0)" xlink:href="#STIXTwoMath-29"/>
     </g>
    </g>
   </g>
   <g id="line2d_19">
    <path clip-path="url(#pb29fa197ff)" d="M 2.89812 16.428693 
L 46.214067 16.428693 
L 51.859968 16.428693 
L 51.955117 19.537386 
L 52.145415 25.754773 
L 52.252913 29.266931 
L 52.359937 32.763629 
L 52.518478 37.943474 
L 52.739385 45.1609 
L 52.811456 47.515625 
L 52.82116 47.832648 
L 52.840566 48.466695 
L 52.879379 49.734789 
L 52.93432 51.529824 
L 53.044203 55.119894 
L 53.263968 62.300034 
L 53.568657 72.254814 
L 53.762944 78.602557 
L 53.76886 78.602557 
L 53.780691 78.602557 
L 53.804352 78.602557 
L 53.851675 78.602557 
L 53.903077 78.602557 
L 54.005881 78.602557 
L 54.211489 78.602557 
L 54.622705 78.602557 
L 55.445137 78.602557 
L 57.090001 78.602557 
L 60.379728 78.602557 
L 66.959183 78.602557 
L 80.118092 78.602557 
L 106.43591 78.602557 
L 148.911754 78.602557 
L 149.006903 78.602557 
L 149.1972 78.602557 
L 149.298416 78.602557 
L 149.396503 78.602557 
L 149.558807 78.602557 
L 149.717614 78.602557 
L 149.863242 78.602557 
L 149.88587 78.602557 
L 149.931126 78.602557 
L 149.991427 78.602557 
L 150.055552 78.602557 
L 150.183802 78.602557 
L 150.440302 78.602557 
L 150.953303 78.602557 
L 151.979305 78.602557 
L 154.03131 78.602557 
L 158.135318 78.602557 
L 166.343334 78.602557 
L 182.759366 78.602557 
L 215.591431 78.602557 
L 243.109075 78.602557 
L 243.204224 78.602557 
L 243.394522 78.602557 
L 243.775117 78.602557 
L 244.060564 78.602557 
L 244.071981 78.229512 
L 244.094817 77.483422 
L 244.140489 75.991241 
L 244.205882 73.85473 
L 244.300565 70.761265 
L 244.48993 64.574334 
L 244.868661 52.200473 
L 245.223768 40.598459 
L 245.677838 25.763106 
L 245.96354 16.428693 
L 246.054354 16.428693 
L 246.235982 16.428693 
L 246.599239 16.428693 
L 247.325752 16.428693 
L 248.778777 16.428693 
L 251.684829 16.428693 
L 257.496933 16.428693 
L 269.12114 16.428693 
L 292.369555 16.428693 
L 338.866385 16.428693 
L 339.209373 16.428693 
L 339.264324 16.428693 
L 339.374226 16.428693 
L 339.59403 16.428693 
L 340.033638 16.428693 
L 340.160861 16.428693 
L 340.17096 16.428693 
L 340.191157 16.428693 
L 340.231551 16.428693 
L 340.286184 16.428693 
L 340.39545 16.428693 
L 340.613982 16.428693 
L 341.051046 16.428693 
L 341.925174 16.428693 
L 343.67343 16.428693 
L 347.169941 16.428693 
L 354.162964 16.428693 
L 368.14901 16.428693 
L 375.583359 16.428693 
L 411.917463 16.428693 
L 412.012612 19.537386 
L 412.202909 25.754773 
L 412.310436 29.267872 
L 412.417495 32.765693 
L 412.575841 37.939173 
L 412.797128 45.169025 
L 412.868951 47.515625 
L 412.878622 47.831616 
L 412.897966 48.463597 
L 412.936652 49.727561 
L 412.991506 51.519725 
L 413.101212 55.104054 
L 413.320626 62.272711 
L 413.625044 72.218622 
L 413.820439 78.602557 
L 413.82638 78.602557 
L 413.838263 78.602557 
L 413.862028 78.602557 
L 413.89845 78.602557 
L 413.9423 78.602557 
L 414.03 78.602557 
L 414.205401 78.602557 
L 414.556201 78.602557 
L 415.257802 78.602557 
L 416.661004 78.602557 
L 419.467408 78.602557 
L 425.080216 78.602557 
L 436.305833 78.602557 
L 458.757065 78.602557 
" style="fill:none;stroke:#1f77b4;stroke-linecap:square;stroke-width:1.5;"/>
   </g>
   <g id="patch_3">
    <path d="M 39.26 81.71125 
L 39.26 13.32 
" style="fill:none;stroke:#000000;stroke-linecap:square;stroke-linejoin:miter;stroke-width:0.8;"/>
   </g>
   <g id="patch_4">
    <path d="M 438.885 81.71125 
L 438.885 13.32 
" style="fill:none;stroke:#000000;stroke-linecap:square;stroke-linejoin:miter;stroke-width:0.8;"/>
   </g>
   <g id="patch_5">
    <path d="M 39.26 81.71125 
L 438.885 81.71125 
" style="fill:none;stroke:#000000;stroke-linecap:square;stroke-linejoin:miter;stroke-width:0.8;"/>
   </g>
   <g id="patch_6">
    <path d="M 39.26 13.32 
L 438.885 13.32 
" style="fill:none;stroke:#000000;stroke-linecap:square;stroke-linejoin:miter;stroke-width:0.8;"/>
   </g>
  </g>
  <g id="axes_2">
   <g id="patch_7">
    <path d="M 39.26 193.31125 
L 438.885 193.31125 
L 438.885 124.92 
L 39.26 124.92 
z
" style="fill:#ffffff;"/>
   </g>
   <g id="matplotlib.axis_3">
    <g id="xtick_7">
     <g id="line2d_20">
      <path clip-path="url(#pe3d935947d)" d="M 58.289762 193.31125 
L 58.289762 124.92 
" style="fill:none;stroke:#b0b0b0;stroke-linecap:square;stroke-width:0.8;"/>
     </g>
     <g id="line2d_21">
      <g>
       <use style="stroke:#000000;stroke-width:0.8;" x="58.289762" xlink:href="#m9ace77a663" y="193.31125"/>
      </g>
     </g>
     <g id="text_12">
      <!-- 0.020 -->
      <g transform="translate(47.160074 207.370625)scale(0.1 -0.1)">
       <use xlink:href="#STIXTwoMath-30"/>
       <use x="49.499985" xlink:href="#STIXTwoMath-2e"/>
       <use x="74.099976" xlink:href="#STIXTwoMath-30"/>
       <use x="123.59996" xlink:href="#STIXTwoMath-32"/>
       <use x="173.099945" xlink:href="#STIXTwoMath-30"/>
      </g>
     </g>
    </g>
    <g id="xtick_8">
     <g id="line2d_22">
      <path clip-path="url(#pe3d935947d)" d="M 134.40881 193.31125 
L 134.40881 124.92 
" style="fill:none;stroke:#b0b0b0;stroke-linecap:square;stroke-width:0.8;"/>
     </g>
     <g id="line2d_23">
      <g>
       <use style="stroke:#000000;stroke-width:0.8;" x="134.40881" xlink:href="#m9ace77a663" y="193.31125"/>
      </g>
     </g>
     <g id="text_13">
      <!-- 0.022 -->
      <g transform="translate(123.279122 207.370625)scale(0.1 -0.1)">
       <use xlink:href="#STIXTwoMath-30"/>
       <use x="49.499985" xlink:href="#STIXTwoMath-2e"/>
       <use x="74.099976" xlink:href="#STIXTwoMath-30"/>
       <use x="123.59996" xlink:href="#STIXTwoMath-32"/>
       <use x="173.099945" xlink:href="#STIXTwoMath-32"/>
      </g>
     </g>
    </g>
    <g id="xtick_9">
     <g id="line2d_24">
      <path clip-path="url(#pe3d935947d)" d="M 210.527857 193.31125 
L 210.527857 124.92 
" style="fill:none;stroke:#b0b0b0;stroke-linecap:square;stroke-width:0.8;"/>
     </g>
     <g id="line2d_25">
      <g>
       <use style="stroke:#000000;stroke-width:0.8;" x="210.527857" xlink:href="#m9ace77a663" y="193.31125"/>
      </g>
     </g>
     <g id="text_14">
      <!-- 0.024 -->
      <g transform="translate(199.39817 207.370625)scale(0.1 -0.1)">
       <use xlink:href="#STIXTwoMath-30"/>
       <use x="49.499985" xlink:href="#STIXTwoMath-2e"/>
       <use x="74.099976" xlink:href="#STIXTwoMath-30"/>
       <use x="123.59996" xlink:href="#STIXTwoMath-32"/>
       <use x="173.099945" xlink:href="#STIXTwoMath-34"/>
      </g>
     </g>
    </g>
    <g id="xtick_10">
     <g id="line2d_26">
      <path clip-path="url(#pe3d935947d)" d="M 286.646905 193.31125 
L 286.646905 124.92 
" style="fill:none;stroke:#b0b0b0;stroke-linecap:square;stroke-width:0.8;"/>
     </g>
     <g id="line2d_27">
      <g>
       <use style="stroke:#000000;stroke-width:0.8;" x="286.646905" xlink:href="#m9ace77a663" y="193.31125"/>
      </g>
     </g>
     <g id="text_15">
      <!-- 0.026 -->
      <g transform="translate(275.517217 207.370625)scale(0.1 -0.1)">
       <use xlink:href="#STIXTwoMath-30"/>
       <use x="49.499985" xlink:href="#STIXTwoMath-2e"/>
       <use x="74.099976" xlink:href="#STIXTwoMath-30"/>
       <use x="123.59996" xlink:href="#STIXTwoMath-32"/>
       <use x="173.099945" xlink:href="#STIXTwoMath-36"/>
      </g>
     </g>
    </g>
    <g id="xtick_11">
     <g id="line2d_28">
      <path clip-path="url(#pe3d935947d)" d="M 362.765952 193.31125 
L 362.765952 124.92 
" style="fill:none;stroke:#b0b0b0;stroke-linecap:square;stroke-width:0.8;"/>
     </g>
     <g id="line2d_29">
      <g>
       <use style="stroke:#000000;stroke-width:0.8;" x="362.765952" xlink:href="#m9ace77a663" y="193.31125"/>
      </g>
     </g>
     <g id="text_16">
      <!-- 0.028 -->
      <g transform="translate(351.636265 207.370625)scale(0.1 -0.1)">
       <use xlink:href="#STIXTwoMath-30"/>
       <use x="49.499985" xlink:href="#STIXTwoMath-2e"/>
       <use x="74.099976" xlink:href="#STIXTwoMath-30"/>
       <use x="123.59996" xlink:href="#STIXTwoMath-32"/>
       <use x="173.099945" xlink:href="#STIXTwoMath-38"/>
      </g>
     </g>
    </g>
    <g id="xtick_12">
     <g id="line2d_30">
      <path clip-path="url(#pe3d935947d)" d="M 438.885 193.31125 
L 438.885 124.92 
" style="fill:none;stroke:#b0b0b0;stroke-linecap:square;stroke-width:0.8;"/>
     </g>
     <g id="line2d_31">
      <g>
       <use style="stroke:#000000;stroke-width:0.8;" x="438.885" xlink:href="#m9ace77a663" y="193.31125"/>
      </g>
     </g>
     <g id="text_17">
      <!-- 0.030 -->
      <g transform="translate(427.755313 207.370625)scale(0.1 -0.1)">
       <use xlink:href="#STIXTwoMath-30"/>
       <use x="49.499985" xlink:href="#STIXTwoMath-2e"/>
       <use x="74.099976" xlink:href="#STIXTwoMath-30"/>
       <use x="123.59996" xlink:href="#STIXTwoMath-33"/>
       <use x="173.099945" xlink:href="#STIXTwoMath-30"/>
      </g>
     </g>
    </g>
    <g id="text_18">
     <!-- t, (с) -->
     <g transform="translate(229.27875 220.63)scale(0.1 -0.1)">
      <use xlink:href="#STIXTwoMath-74"/>
      <use x="31.499985" xlink:href="#STIXTwoMath-2c"/>
      <use x="56.599976" xlink:href="#STIXTwoMath-20"/>
      <use x="80.09996" xlink:href="#STIXTwoMath-28"/>
      <use x="115.699951" xlink:href="#STIXTwoMath-441"/>
      <use x="160.299942" xlink:href="#STIXTwoMath-29"/>
     </g>
    </g>
   </g>
   <g id="matplotlib.axis_4">
    <g id="ytick_4">
     <g id="line2d_32">
      <path clip-path="url(#pe3d935947d)" d="M 39.26 190.202557 
L 438.885 190.202557 
" style="fill:none;stroke:#b0b0b0;stroke-linecap:square;stroke-width:0.8;"/>
     </g>
     <g id="line2d_33">
      <g>
       <use style="stroke:#000000;stroke-width:0.8;" x="39.26" xlink:href="#m4556239375" y="190.202557"/>
      </g>
     </g>
     <g id="text_19">
      <!-- 0 -->
      <g transform="translate(27.31 193.732244)scale(0.1 -0.1)">
       <use xlink:href="#STIXTwoMath-30"/>
      </g>
     </g>
    </g>
    <g id="ytick_5">
     <g id="line2d_34">
      <path clip-path="url(#pe3d935947d)" d="M 39.26 165.333011 
L 438.885 165.333011 
" style="fill:none;stroke:#b0b0b0;stroke-linecap:square;stroke-width:0.8;"/>
     </g>
     <g id="line2d_35">
      <g>
       <use style="stroke:#000000;stroke-width:0.8;" x="39.26" xlink:href="#m4556239375" y="165.333011"/>
      </g>
     </g>
     <g id="text_20">
      <!-- 2 -->
      <g transform="translate(27.31 168.862699)scale(0.1 -0.1)">
       <use xlink:href="#STIXTwoMath-32"/>
      </g>
     </g>
    </g>
    <g id="ytick_6">
     <g id="line2d_36">
      <path clip-path="url(#pe3d935947d)" d="M 39.26 140.463466 
L 438.885 140.463466 
" style="fill:none;stroke:#b0b0b0;stroke-linecap:square;stroke-width:0.8;"/>
     </g>
     <g id="line2d_37">
      <g>
       <use style="stroke:#000000;stroke-width:0.8;" x="39.26" xlink:href="#m4556239375" y="140.463466"/>
      </g>
     </g>
     <g id="text_21">
      <!-- 4 -->
      <g transform="translate(27.31 143.993153)scale(0.1 -0.1)">
       <use xlink:href="#STIXTwoMath-34"/>
      </g>
     </g>
    </g>
    <g id="text_22">
     <!-- $U_{2ВХ}$, (В) -->
     <defs>
      <path d="M 47.40625 13.703125 
L 42 0 
L 2.90625 0 
L 2.90625 1.203125 
L 20.703125 20.09375 
Q 27.703125 27.40625 30.703125 33.5 
Q 33.703125 39.59375 33.703125 46.09375 
Q 33.703125 52.796875 30 56.5 
Q 26.296875 60.203125 19.796875 60.203125 
Q 14.40625 60.203125 11.25 57.390625 
Q 8.09375 54.59375 5.09375 47.203125 
L 3 47.703125 
Q 4.703125 57 9.84375 62.296875 
Q 15 67.59375 23.796875 67.59375 
Q 32.09375 67.59375 37.1875 62.59375 
Q 42.296875 57.59375 42.296875 50 
Q 42.296875 38.703125 29.5 25.203125 
L 13 7.59375 
L 36.40625 7.59375 
Q 39.703125 7.59375 41.640625 8.890625 
Q 43.59375 10.203125 46 14.296875 
z
" id="STIXGeneral-Regular-32"/>
     </defs>
     <g transform="translate(21.11 177.915625)rotate(-90)scale(0.1 -0.1)">
      <use xlink:href="#STIXGeneral-Italic-55"/>
      <use transform="translate(72.199982 -13.228125)scale(0.7)" xlink:href="#STIXGeneral-Regular-32"/>
      <use transform="translate(107.199971 -13.228125)scale(0.7)" xlink:href="#STIXGeneral-Italic-412"/>
      <use transform="translate(148.989969 -13.228125)scale(0.7)" xlink:href="#STIXGeneral-Italic-425"/>
      <use transform="translate(193.649333 0)" xlink:href="#STIXTwoMath-2c"/>
      <use transform="translate(218.749324 0)" xlink:href="#STIXTwoMath-20"/>
      <use transform="translate(242.249309 0)" xlink:href="#STIXTwoMath-28"/>
      <use transform="translate(277.8493 0)" xlink:href="#STIXTwoMath-412"/>
      <use transform="translate(339.649287 0)" xlink:href="#STIXTwoMath-29"/>
     </g>
    </g>
   </g>
   <g id="line2d_38">
    <path clip-path="url(#pe3d935947d)" d="M 2.89812 128.028693 
L 46.214067 128.028693 
L 51.859968 128.028693 
L 51.955117 128.028693 
L 52.145415 128.028693 
L 52.252913 128.028693 
L 52.359937 128.028693 
L 52.518478 128.028693 
L 52.739385 128.028693 
L 52.811456 128.028693 
L 52.82116 128.66274 
L 52.840566 129.930833 
L 52.879379 132.46702 
L 52.93432 136.05709 
L 53.044203 143.237231 
L 53.263968 157.597512 
L 53.568657 177.507072 
L 53.762944 190.202557 
L 53.76886 190.202557 
L 53.780691 190.202557 
L 53.804352 190.202557 
L 53.851675 190.202557 
L 53.903077 190.202557 
L 54.005881 190.202557 
L 54.211489 190.202557 
L 54.622705 190.202557 
L 55.445137 190.202557 
L 57.090001 190.202557 
L 60.379728 190.202557 
L 66.959183 190.202557 
L 80.118092 190.202557 
L 106.43591 190.202557 
L 148.911754 190.202557 
L 149.006903 183.98517 
L 149.1972 171.550398 
L 149.298416 164.93659 
L 149.396503 158.527199 
L 149.558807 147.921662 
L 149.717614 137.54459 
L 149.863242 128.028693 
L 149.88587 128.028693 
L 149.931126 128.028693 
L 149.991427 128.028693 
L 150.055552 128.028693 
L 150.183802 128.028693 
L 150.440302 128.028693 
L 150.953303 128.028693 
L 151.979305 128.028693 
L 154.03131 128.028693 
L 158.135318 128.028693 
L 166.343334 128.028693 
L 182.759366 128.028693 
L 215.591431 128.028693 
L 243.109075 128.028693 
L 243.204224 134.24608 
L 243.394522 146.680852 
L 243.775117 171.550398 
L 244.060564 190.202557 
L 244.071981 190.202557 
L 244.094817 190.202557 
L 244.140489 190.202557 
L 244.205882 190.202557 
L 244.300565 190.202557 
L 244.48993 190.202557 
L 244.868661 190.202557 
L 245.223768 190.202557 
L 245.677838 190.202557 
L 245.96354 190.202557 
L 246.054354 190.202557 
L 246.235982 190.202557 
L 246.599239 190.202557 
L 247.325752 190.202557 
L 248.778777 190.202557 
L 251.684829 190.202557 
L 257.496933 190.202557 
L 269.12114 190.202557 
L 292.369555 190.202557 
L 338.866385 190.202557 
L 339.209373 190.202557 
L 339.264324 186.611848 
L 339.374226 179.430431 
L 339.59403 165.067596 
L 340.033638 136.341926 
L 340.160861 128.028693 
L 340.17096 128.028693 
L 340.191157 128.028693 
L 340.231551 128.028693 
L 340.286184 128.028693 
L 340.39545 128.028693 
L 340.613982 128.028693 
L 341.051046 128.028693 
L 341.925174 128.028693 
L 343.67343 128.028693 
L 347.169941 128.028693 
L 354.162964 128.028693 
L 368.14901 128.028693 
L 375.583359 128.028693 
L 411.917463 128.028693 
L 412.012612 128.028693 
L 412.202909 128.028693 
L 412.310436 128.028693 
L 412.417495 128.028693 
L 412.575841 128.028693 
L 412.797128 128.028693 
L 412.868951 128.028693 
L 412.878622 128.660675 
L 412.897966 129.924638 
L 412.936652 132.452564 
L 412.991506 136.036893 
L 413.101212 143.205551 
L 413.320626 157.542866 
L 413.625044 177.434686 
L 413.820439 190.202557 
L 413.82638 190.202557 
L 413.838263 190.202557 
L 413.862028 190.202557 
L 413.89845 190.202557 
L 413.9423 190.202557 
L 414.03 190.202557 
L 414.205401 190.202557 
L 414.556201 190.202557 
L 415.257802 190.202557 
L 416.661004 190.202557 
L 419.467408 190.202557 
L 425.080216 190.202557 
L 436.305833 190.202557 
L 458.757065 190.202557 
" style="fill:none;stroke:#1f77b4;stroke-linecap:square;stroke-width:1.5;"/>
   </g>
   <g id="patch_8">
    <path d="M 39.26 193.31125 
L 39.26 124.92 
" style="fill:none;stroke:#000000;stroke-linecap:square;stroke-linejoin:miter;stroke-width:0.8;"/>
   </g>
   <g id="patch_9">
    <path d="M 438.885 193.31125 
L 438.885 124.92 
" style="fill:none;stroke:#000000;stroke-linecap:square;stroke-linejoin:miter;stroke-width:0.8;"/>
   </g>
   <g id="patch_10">
    <path d="M 39.26 193.31125 
L 438.885 193.31125 
" style="fill:none;stroke:#000000;stroke-linecap:square;stroke-linejoin:miter;stroke-width:0.8;"/>
   </g>
   <g id="patch_11">
    <path d="M 39.26 124.92 
L 438.885 124.92 
" style="fill:none;stroke:#000000;stroke-linecap:square;stroke-linejoin:miter;stroke-width:0.8;"/>
   </g>
  </g>
  <g id="axes_3">
   <g id="patch_12">
    <path d="M 39.26 304.91125 
L 438.885 304.91125 
L 438.885 236.52 
L 39.26 236.52 
z
" style="fill:#ffffff;"/>
   </g>
   <g id="matplotlib.axis_5">
    <g id="xtick_13">
     <g id="line2d_39">
      <path clip-path="url(#pb12492a3f5)" d="M 58.289762 304.91125 
L 58.289762 236.52 
" style="fill:none;stroke:#b0b0b0;stroke-linecap:square;stroke-width:0.8;"/>
     </g>
     <g id="line2d_40">
      <g>
       <use style="stroke:#000000;stroke-width:0.8;" x="58.289762" xlink:href="#m9ace77a663" y="304.91125"/>
      </g>
     </g>
     <g id="text_23">
      <!-- 0.020 -->
      <g transform="translate(47.160074 318.970625)scale(0.1 -0.1)">
       <use xlink:href="#STIXTwoMath-30"/>
       <use x="49.499985" xlink:href="#STIXTwoMath-2e"/>
       <use x="74.099976" xlink:href="#STIXTwoMath-30"/>
       <use x="123.59996" xlink:href="#STIXTwoMath-32"/>
       <use x="173.099945" xlink:href="#STIXTwoMath-30"/>
      </g>
     </g>
    </g>
    <g id="xtick_14">
     <g id="line2d_41">
      <path clip-path="url(#pb12492a3f5)" d="M 134.40881 304.91125 
L 134.40881 236.52 
" style="fill:none;stroke:#b0b0b0;stroke-linecap:square;stroke-width:0.8;"/>
     </g>
     <g id="line2d_42">
      <g>
       <use style="stroke:#000000;stroke-width:0.8;" x="134.40881" xlink:href="#m9ace77a663" y="304.91125"/>
      </g>
     </g>
     <g id="text_24">
      <!-- 0.022 -->
      <g transform="translate(123.279122 318.970625)scale(0.1 -0.1)">
       <use xlink:href="#STIXTwoMath-30"/>
       <use x="49.499985" xlink:href="#STIXTwoMath-2e"/>
       <use x="74.099976" xlink:href="#STIXTwoMath-30"/>
       <use x="123.59996" xlink:href="#STIXTwoMath-32"/>
       <use x="173.099945" xlink:href="#STIXTwoMath-32"/>
      </g>
     </g>
    </g>
    <g id="xtick_15">
     <g id="line2d_43">
      <path clip-path="url(#pb12492a3f5)" d="M 210.527857 304.91125 
L 210.527857 236.52 
" style="fill:none;stroke:#b0b0b0;stroke-linecap:square;stroke-width:0.8;"/>
     </g>
     <g id="line2d_44">
      <g>
       <use style="stroke:#000000;stroke-width:0.8;" x="210.527857" xlink:href="#m9ace77a663" y="304.91125"/>
      </g>
     </g>
     <g id="text_25">
      <!-- 0.024 -->
      <g transform="translate(199.39817 318.970625)scale(0.1 -0.1)">
       <use xlink:href="#STIXTwoMath-30"/>
       <use x="49.499985" xlink:href="#STIXTwoMath-2e"/>
       <use x="74.099976" xlink:href="#STIXTwoMath-30"/>
       <use x="123.59996" xlink:href="#STIXTwoMath-32"/>
       <use x="173.099945" xlink:href="#STIXTwoMath-34"/>
      </g>
     </g>
    </g>
    <g id="xtick_16">
     <g id="line2d_45">
      <path clip-path="url(#pb12492a3f5)" d="M 286.646905 304.91125 
L 286.646905 236.52 
" style="fill:none;stroke:#b0b0b0;stroke-linecap:square;stroke-width:0.8;"/>
     </g>
     <g id="line2d_46">
      <g>
       <use style="stroke:#000000;stroke-width:0.8;" x="286.646905" xlink:href="#m9ace77a663" y="304.91125"/>
      </g>
     </g>
     <g id="text_26">
      <!-- 0.026 -->
      <g transform="translate(275.517217 318.970625)scale(0.1 -0.1)">
       <use xlink:href="#STIXTwoMath-30"/>
       <use x="49.499985" xlink:href="#STIXTwoMath-2e"/>
       <use x="74.099976" xlink:href="#STIXTwoMath-30"/>
       <use x="123.59996" xlink:href="#STIXTwoMath-32"/>
       <use x="173.099945" xlink:href="#STIXTwoMath-36"/>
      </g>
     </g>
    </g>
    <g id="xtick_17">
     <g id="line2d_47">
      <path clip-path="url(#pb12492a3f5)" d="M 362.765952 304.91125 
L 362.765952 236.52 
" style="fill:none;stroke:#b0b0b0;stroke-linecap:square;stroke-width:0.8;"/>
     </g>
     <g id="line2d_48">
      <g>
       <use style="stroke:#000000;stroke-width:0.8;" x="362.765952" xlink:href="#m9ace77a663" y="304.91125"/>
      </g>
     </g>
     <g id="text_27">
      <!-- 0.028 -->
      <g transform="translate(351.636265 318.970625)scale(0.1 -0.1)">
       <use xlink:href="#STIXTwoMath-30"/>
       <use x="49.499985" xlink:href="#STIXTwoMath-2e"/>
       <use x="74.099976" xlink:href="#STIXTwoMath-30"/>
       <use x="123.59996" xlink:href="#STIXTwoMath-32"/>
       <use x="173.099945" xlink:href="#STIXTwoMath-38"/>
      </g>
     </g>
    </g>
    <g id="xtick_18">
     <g id="line2d_49">
      <path clip-path="url(#pb12492a3f5)" d="M 438.885 304.91125 
L 438.885 236.52 
" style="fill:none;stroke:#b0b0b0;stroke-linecap:square;stroke-width:0.8;"/>
     </g>
     <g id="line2d_50">
      <g>
       <use style="stroke:#000000;stroke-width:0.8;" x="438.885" xlink:href="#m9ace77a663" y="304.91125"/>
      </g>
     </g>
     <g id="text_28">
      <!-- 0.030 -->
      <g transform="translate(427.755313 318.970625)scale(0.1 -0.1)">
       <use xlink:href="#STIXTwoMath-30"/>
       <use x="49.499985" xlink:href="#STIXTwoMath-2e"/>
       <use x="74.099976" xlink:href="#STIXTwoMath-30"/>
       <use x="123.59996" xlink:href="#STIXTwoMath-33"/>
       <use x="173.099945" xlink:href="#STIXTwoMath-30"/>
      </g>
     </g>
    </g>
    <g id="text_29">
     <!-- t, (с) -->
     <g transform="translate(229.27875 332.23)scale(0.1 -0.1)">
      <use xlink:href="#STIXTwoMath-74"/>
      <use x="31.499985" xlink:href="#STIXTwoMath-2c"/>
      <use x="56.599976" xlink:href="#STIXTwoMath-20"/>
      <use x="80.09996" xlink:href="#STIXTwoMath-28"/>
      <use x="115.699951" xlink:href="#STIXTwoMath-441"/>
      <use x="160.299942" xlink:href="#STIXTwoMath-29"/>
     </g>
    </g>
   </g>
   <g id="matplotlib.axis_6">
    <g id="ytick_7">
     <g id="line2d_51">
      <path clip-path="url(#pb12492a3f5)" d="M 39.26 285.043727 
L 438.885 285.043727 
" style="fill:none;stroke:#b0b0b0;stroke-linecap:square;stroke-width:0.8;"/>
     </g>
     <g id="line2d_52">
      <g>
       <use style="stroke:#000000;stroke-width:0.8;" x="39.26" xlink:href="#m4556239375" y="285.043727"/>
      </g>
     </g>
     <g id="text_30">
      <!-- 2 -->
      <g transform="translate(27.31 288.573415)scale(0.1 -0.1)">
       <use xlink:href="#STIXTwoMath-32"/>
      </g>
     </g>
    </g>
    <g id="ytick_8">
     <g id="line2d_53">
      <path clip-path="url(#pb12492a3f5)" d="M 39.26 259.720624 
L 438.885 259.720624 
" style="fill:none;stroke:#b0b0b0;stroke-linecap:square;stroke-width:0.8;"/>
     </g>
     <g id="line2d_54">
      <g>
       <use style="stroke:#000000;stroke-width:0.8;" x="39.26" xlink:href="#m4556239375" y="259.720624"/>
      </g>
     </g>
     <g id="text_31">
      <!-- 4 -->
      <g transform="translate(27.31 263.250312)scale(0.1 -0.1)">
       <use xlink:href="#STIXTwoMath-34"/>
      </g>
     </g>
    </g>
    <g id="text_32">
     <!-- $U_{ВИХ}$, (В) -->
     <defs>
      <path d="M 74.90625 65.296875 
L 74.90625 63.703125 
Q 70.59375 63 69.140625 61.75 
Q 67.703125 60.5 66.5 56.296875 
L 54.40625 11 
Q 53.40625 7.59375 53.40625 6.59375 
Q 53.40625 3.703125 54.703125 2.890625 
Q 56 2.09375 61.09375 1.59375 
L 61.09375 0 
L 34.203125 0 
L 34.203125 1.59375 
Q 39.40625 1.90625 41.296875 3.59375 
Q 43.203125 5.296875 44.296875 9.296875 
L 55.203125 49.796875 
L 15.296875 9.5 
Q 14.703125 7.59375 14.703125 6.203125 
Q 14.703125 3.90625 16.34375 2.84375 
Q 18 1.796875 21.703125 1.59375 
L 21.703125 0 
L -2.5 0 
L -2.5 1.59375 
Q 2.203125 2.296875 3.5 3.890625 
Q 4.796875 5.5 6.59375 12.09375 
L 17.59375 53.296875 
Q 18.796875 57.90625 18.796875 59.59375 
Q 18.796875 61.796875 17.390625 62.5 
Q 16 63.203125 11.09375 63.703125 
L 11.09375 65.296875 
L 37.796875 65.296875 
L 37.796875 63.703125 
Q 33.5 63.40625 31.140625 61.546875 
Q 28.796875 59.703125 27.40625 54.296875 
L 17.296875 16.203125 
L 56.90625 56.296875 
Q 57.5 58.703125 57.5 60 
Q 57.5 61.796875 56 62.59375 
Q 54.5 63.40625 50.90625 63.703125 
L 50.90625 65.296875 
z
" id="STIXGeneral-Italic-418"/>
     </defs>
     <g transform="translate(21.11 290.215625)rotate(-90)scale(0.1 -0.1)">
      <use xlink:href="#STIXGeneral-Italic-55"/>
      <use transform="translate(72.199982 -13.228125)scale(0.7)" xlink:href="#STIXGeneral-Italic-412"/>
      <use transform="translate(113.98998 -13.228125)scale(0.7)" xlink:href="#STIXGeneral-Italic-418"/>
      <use transform="translate(163.549971 -13.228125)scale(0.7)" xlink:href="#STIXGeneral-Italic-425"/>
      <use transform="translate(208.209335 0)" xlink:href="#STIXTwoMath-2c"/>
      <use transform="translate(233.309326 0)" xlink:href="#STIXTwoMath-20"/>
      <use transform="translate(256.809311 0)" xlink:href="#STIXTwoMath-28"/>
      <use transform="translate(292.409302 0)" xlink:href="#STIXTwoMath-412"/>
      <use transform="translate(354.20929 0)" xlink:href="#STIXTwoMath-29"/>
     </g>
    </g>
   </g>
   <g id="line2d_55">
    <path clip-path="url(#pb12492a3f5)" d="M 2.898117 239.631827 
L 46.214065 239.633029 
L 51.859966 239.63184 
L 51.955115 240.290958 
L 52.145412 246.346751 
L 52.25291 249.830562 
L 52.359935 253.357093 
L 52.518476 258.516665 
L 52.739382 265.762693 
L 52.811454 268.099394 
L 52.821157 268.429829 
L 52.840564 269.064738 
L 52.879377 270.332767 
L 52.934318 272.128701 
L 53.0442 275.717713 
L 53.263965 282.889272 
L 53.568655 292.799842 
L 53.762942 301.795844 
L 53.768857 301.778825 
L 53.780688 301.759596 
L 53.80435 301.754356 
L 53.851673 301.755782 
L 53.903075 301.756442 
L 54.005879 301.756206 
L 54.211487 301.756391 
L 54.622703 301.756229 
L 55.445135 301.756381 
L 57.089998 301.756234 
L 60.379725 301.756379 
L 66.95918 301.756235 
L 80.118089 301.756379 
L 106.435907 301.756235 
L 148.911752 301.756379 
L 149.0069 298.996316 
L 149.197198 299.124052 
L 149.298413 298.998984 
L 149.396501 299.123435 
L 149.558804 298.997804 
L 149.717612 299.123217 
L 149.86324 299.000589 
L 149.885868 299.061815 
L 149.931124 299.062749 
L 149.991424 299.061835 
L 150.055549 299.062772 
L 150.183799 299.061842 
L 150.4403 299.062763 
L 150.953301 299.061845 
L 151.979303 299.062762 
L 154.031307 299.061846 
L 158.135315 299.062762 
L 166.343331 299.061846 
L 182.759364 299.062762 
L 215.591428 299.061846 
L 243.109073 299.062766 
L 243.204222 299.063857 
L 243.394519 299.064091 
L 243.775115 299.064774 
L 244.060561 301.783416 
L 244.071979 301.763853 
L 244.094815 301.748289 
L 244.140486 301.751994 
L 244.205879 301.750236 
L 244.300562 301.751314 
L 244.489928 301.750554 
L 244.868658 301.751246 
L 245.223765 301.750628 
L 245.677836 301.751203 
L 245.963537 301.750682 
L 246.054351 301.750919 
L 246.23598 301.750958 
L 246.599236 301.750924 
L 247.325749 301.750956 
L 248.778775 301.750925 
L 251.684827 301.750956 
L 257.496931 301.750926 
L 269.121138 301.750956 
L 292.369553 301.750926 
L 338.866382 301.750956 
L 339.209371 301.750927 
L 339.264322 298.225021 
L 339.374224 291.111572 
L 339.594028 276.780366 
L 340.033636 248.009583 
L 340.160859 239.636025 
L 340.170957 239.628693 
L 340.191154 239.633643 
L 340.231549 239.632162 
L 340.286182 239.632538 
L 340.395448 239.632355 
L 340.61398 239.632516 
L 341.051044 239.632364 
L 341.925171 239.632512 
L 343.673427 239.632366 
L 347.169939 239.632511 
L 354.162962 239.632367 
L 368.149008 239.632511 
L 375.583356 239.632367 
L 411.91746 239.632511 
L 412.012609 240.291011 
L 412.202907 246.346696 
L 412.310433 249.831535 
L 412.417492 253.359122 
L 412.575839 258.512418 
L 412.797125 265.770792 
L 412.868948 268.099436 
L 412.87862 268.428795 
L 412.897963 269.061639 
L 412.93665 270.325537 
L 412.991503 272.118601 
L 413.10121 275.70188 
L 413.320623 282.86201 
L 413.625041 292.763857 
L 413.820436 301.794705 
L 413.826378 301.770762 
L 413.83826 301.750546 
L 413.862026 301.754413 
L 413.898448 301.754778 
L 413.942298 301.756974 
L 414.029998 301.755819 
L 414.205398 301.756673 
L 414.556199 301.755959 
L 415.2578 301.75663 
L 416.661002 301.755984 
L 419.467406 301.756619 
L 425.080214 301.75599 
L 436.30583 301.756616 
L 458.757063 301.755992 
" style="fill:none;stroke:#1f77b4;stroke-linecap:square;stroke-width:1.5;"/>
   </g>
   <g id="patch_13">
    <path d="M 39.26 304.91125 
L 39.26 236.52 
" style="fill:none;stroke:#000000;stroke-linecap:square;stroke-linejoin:miter;stroke-width:0.8;"/>
   </g>
   <g id="patch_14">
    <path d="M 438.885 304.91125 
L 438.885 236.52 
" style="fill:none;stroke:#000000;stroke-linecap:square;stroke-linejoin:miter;stroke-width:0.8;"/>
   </g>
   <g id="patch_15">
    <path d="M 39.26 304.91125 
L 438.885 304.91125 
" style="fill:none;stroke:#000000;stroke-linecap:square;stroke-linejoin:miter;stroke-width:0.8;"/>
   </g>
   <g id="patch_16">
    <path d="M 39.26 236.52 
L 438.885 236.52 
" style="fill:none;stroke:#000000;stroke-linecap:square;stroke-linejoin:miter;stroke-width:0.8;"/>
   </g>
  </g>
 </g>
 <defs>
  <clipPath id="pb29fa197ff">
   <rect height="68.39125" width="399.625" x="39.26" y="13.32"/>
  </clipPath>
  <clipPath id="pe3d935947d">
   <rect height="68.39125" width="399.625" x="39.26" y="124.92"/>
  </clipPath>
  <clipPath id="pb12492a3f5">
   <rect height="68.39125" width="399.625" x="39.26" y="236.52"/>
  </clipPath>
 </defs>
</svg>
