<?xml version="1.0" encoding="utf-8" standalone="no"?>
<!DOCTYPE svg PUBLIC "-//W3C//DTD SVG 1.1//EN"
  "http://www.w3.org/Graphics/SVG/1.1/DTD/svg11.dtd">
<!-- Created with matplotlib (http://matplotlib.org/) -->
<svg height="345pt" version="1.1" viewBox="0 0 460 345" width="460pt" xmlns="http://www.w3.org/2000/svg" xmlns:xlink="http://www.w3.org/1999/xlink">
 <defs>
  <style type="text/css">
*{stroke-linecap:butt;stroke-linejoin:round;}
  </style>
 </defs>
 <g id="figure_1">
  <g id="patch_1">
   <path d="M 0 345.6 
L 460.8 345.6 
L 460.8 0 
L 0 0 
z
" style="fill:#ffffff;"/>
  </g>
  <g id="axes_1">
   <g id="patch_2">
    <path d="M 51.59 301.93 
L 447.48 301.93 
L 447.48 13.32 
L 51.59 13.32 
z
" style="fill:#ffffff;"/>
   </g>
   <g id="matplotlib.axis_1">
    <g id="xtick_1">
     <g id="line2d_1">
      <path clip-path="url(#pb6656484ca)" d="M 51.59 301.93 
L 51.59 13.32 
" style="fill:none;stroke:#b0b0b0;stroke-linecap:square;stroke-width:0.8;"/>
     </g>
     <g id="line2d_2">
      <defs>
       <path d="M 0 0 
L 0 3.5 
" id="mfc9d73ed5b" style="stroke:#000000;stroke-width:0.8;"/>
      </defs>
      <g>
       <use style="stroke:#000000;stroke-width:0.8;" x="51.59" xlink:href="#mfc9d73ed5b" y="301.93"/>
      </g>
     </g>
     <g id="text_1">
      <!-- 0 -->
      <defs>
       <path d="M 46.796875 31.703125 
C 46.796875 52.296875 37.796875 64.203125 24.90625 64.203125 
C 10.40625 64.203125 2.703125 51 2.703125 32 
C 2.703125 14.296875 8.59375 -1.09375 24.703125 -1.09375 
C 40.40625 -1.09375 46.796875 14.59375 46.796875 31.703125 
z
M 37.09375 31.09375 
C 37.09375 11.90625 32.59375 2.5 24.703125 2.5 
C 16.703125 2.5 12.296875 12.09375 12.296875 31.5 
C 12.296875 51.296875 16.703125 60.796875 24.59375 60.796875 
C 32.796875 60.796875 37.09375 51.40625 37.09375 31.09375 
z
" id="STIXTwoMath-30"/>
      </defs>
      <g transform="translate(49.115 315.989375)scale(0.1 -0.1)">
       <use xlink:href="#STIXTwoMath-30"/>
      </g>
     </g>
    </g>
    <g id="xtick_2">
     <g id="line2d_3">
      <path clip-path="url(#pb6656484ca)" d="M 103.956402 301.93 
L 103.956402 13.32 
" style="fill:none;stroke:#b0b0b0;stroke-linecap:square;stroke-width:0.8;"/>
     </g>
     <g id="line2d_4">
      <g>
       <use style="stroke:#000000;stroke-width:0.8;" x="103.956402" xlink:href="#mfc9d73ed5b" y="301.93"/>
      </g>
     </g>
     <g id="text_2">
      <!-- 50 -->
      <defs>
       <path d="M 41.703125 54.90625 
L 43.296875 63 
L 15.90625 63 
L 9.703125 36.90625 
L 10.90625 35.40625 
C 12.296875 35.40625 12.796875 35.40625 15.40625 35.203125 
C 29.203125 34.5 37 30.40625 37 17.90625 
C 37 7.5 30.703125 3.703125 23.59375 3.703125 
C 17.203125 3.703125 13.90625 8.59375 9.90625 8.59375 
C 7.40625 8.59375 5.90625 6.59375 5.90625 4.296875 
C 5.90625 0.59375 9.703125 -1.296875 17.40625 -1.296875 
C 33.296875 -1.296875 44.296875 6.5 44.296875 21.90625 
C 44.296875 37.59375 32 42.296875 20.203125 43.203125 
L 15.5 43.5 
L 18.203125 54.90625 
z
" id="STIXTwoMath-35"/>
      </defs>
      <g transform="translate(99.006402 315.989375)scale(0.1 -0.1)">
       <use xlink:href="#STIXTwoMath-35"/>
       <use x="49.499985" xlink:href="#STIXTwoMath-30"/>
      </g>
     </g>
    </g>
    <g id="xtick_3">
     <g id="line2d_5">
      <path clip-path="url(#pb6656484ca)" d="M 156.322804 301.93 
L 156.322804 13.32 
" style="fill:none;stroke:#b0b0b0;stroke-linecap:square;stroke-width:0.8;"/>
     </g>
     <g id="line2d_6">
      <g>
       <use style="stroke:#000000;stroke-width:0.8;" x="156.322804" xlink:href="#mfc9d73ed5b" y="301.93"/>
      </g>
     </g>
     <g id="text_3">
      <!-- 100 -->
      <defs>
       <path d="M 42.59375 0 
L 42.59375 2.796875 
C 33.40625 2.796875 29.703125 4.59375 29.703125 9.5 
L 29.703125 63.90625 
L 26.796875 63.90625 
L 7.40625 58.40625 
L 7.40625 55.09375 
C 10.5 56.09375 15.59375 56.703125 17.59375 56.703125 
C 20.09375 56.703125 20.90625 55.296875 20.90625 51.796875 
L 20.90625 9.5 
C 20.90625 4.5 17.40625 2.796875 8 2.796875 
L 8 0 
z
" id="STIXTwoMath-31"/>
      </defs>
      <g transform="translate(148.897804 315.989375)scale(0.1 -0.1)">
       <use xlink:href="#STIXTwoMath-31"/>
       <use x="49.499985" xlink:href="#STIXTwoMath-30"/>
       <use x="98.999969" xlink:href="#STIXTwoMath-30"/>
      </g>
     </g>
    </g>
    <g id="xtick_4">
     <g id="line2d_7">
      <path clip-path="url(#pb6656484ca)" d="M 208.689206 301.93 
L 208.689206 13.32 
" style="fill:none;stroke:#b0b0b0;stroke-linecap:square;stroke-width:0.8;"/>
     </g>
     <g id="line2d_8">
      <g>
       <use style="stroke:#000000;stroke-width:0.8;" x="208.689206" xlink:href="#mfc9d73ed5b" y="301.93"/>
      </g>
     </g>
     <g id="text_4">
      <!-- 150 -->
      <g transform="translate(201.264206 315.989375)scale(0.1 -0.1)">
       <use xlink:href="#STIXTwoMath-31"/>
       <use x="49.499985" xlink:href="#STIXTwoMath-35"/>
       <use x="98.999969" xlink:href="#STIXTwoMath-30"/>
      </g>
     </g>
    </g>
    <g id="xtick_5">
     <g id="line2d_9">
      <path clip-path="url(#pb6656484ca)" d="M 261.055608 301.93 
L 261.055608 13.32 
" style="fill:none;stroke:#b0b0b0;stroke-linecap:square;stroke-width:0.8;"/>
     </g>
     <g id="line2d_10">
      <g>
       <use style="stroke:#000000;stroke-width:0.8;" x="261.055608" xlink:href="#mfc9d73ed5b" y="301.93"/>
      </g>
     </g>
     <g id="text_5">
      <!-- 200 -->
      <defs>
       <path d="M 46.40625 16 
L 43.5 16 
C 41.203125 10 39.90625 7.90625 34.59375 7.90625 
L 20.703125 7.90625 
L 13.703125 7.59375 
L 13.703125 8.09375 
L 26.90625 20.59375 
C 37.5 31.296875 43.203125 38.203125 43.203125 47.09375 
C 43.203125 57.59375 35.296875 64.40625 24 64.40625 
C 14.296875 64.40625 7.5 58.796875 4.40625 49.09375 
L 6.796875 48.09375 
C 10.5 55.59375 14.90625 57.90625 21.40625 57.90625 
C 29.09375 57.90625 33.90625 53.09375 33.90625 45.59375 
C 33.90625 35.09375 28.90625 28.796875 19 18.59375 
L 3.796875 3.40625 
L 3.796875 0 
L 43.203125 0 
z
" id="STIXTwoMath-32"/>
      </defs>
      <g transform="translate(253.630608 315.989375)scale(0.1 -0.1)">
       <use xlink:href="#STIXTwoMath-32"/>
       <use x="49.499985" xlink:href="#STIXTwoMath-30"/>
       <use x="98.999969" xlink:href="#STIXTwoMath-30"/>
      </g>
     </g>
    </g>
    <g id="xtick_6">
     <g id="line2d_11">
      <path clip-path="url(#pb6656484ca)" d="M 313.422011 301.93 
L 313.422011 13.32 
" style="fill:none;stroke:#b0b0b0;stroke-linecap:square;stroke-width:0.8;"/>
     </g>
     <g id="line2d_12">
      <g>
       <use style="stroke:#000000;stroke-width:0.8;" x="313.422011" xlink:href="#mfc9d73ed5b" y="301.93"/>
      </g>
     </g>
     <g id="text_6">
      <!-- 250 -->
      <g transform="translate(305.997011 315.989375)scale(0.1 -0.1)">
       <use xlink:href="#STIXTwoMath-32"/>
       <use x="49.499985" xlink:href="#STIXTwoMath-35"/>
       <use x="98.999969" xlink:href="#STIXTwoMath-30"/>
      </g>
     </g>
    </g>
    <g id="xtick_7">
     <g id="line2d_13">
      <path clip-path="url(#pb6656484ca)" d="M 365.788413 301.93 
L 365.788413 13.32 
" style="fill:none;stroke:#b0b0b0;stroke-linecap:square;stroke-width:0.8;"/>
     </g>
     <g id="line2d_14">
      <g>
       <use style="stroke:#000000;stroke-width:0.8;" x="365.788413" xlink:href="#mfc9d73ed5b" y="301.93"/>
      </g>
     </g>
     <g id="text_7">
      <!-- 300 -->
      <defs>
       <path d="M 8.59375 49.796875 
C 12 55.09375 15.703125 57.90625 21.703125 57.90625 
C 27.90625 57.90625 31.90625 54.5 31.90625 48.59375 
C 31.90625 40.5 24.796875 35 18 35 
L 16.09375 35 
L 16.09375 31.203125 
L 18.09375 31.203125 
C 27.703125 31.203125 36.203125 25.296875 36.203125 16.40625 
C 36.203125 6.59375 30.09375 3.703125 23.796875 3.703125 
C 21.40625 3.703125 20 4.09375 15.703125 6.296875 
C 12.203125 8.09375 11.40625 8.59375 9.796875 8.59375 
C 7.203125 8.59375 5.90625 6.296875 5.90625 4.203125 
C 5.90625 1.59375 8.09375 -1.296875 17.09375 -1.296875 
C 31.703125 -1.296875 44.40625 5.703125 44.40625 19.40625 
C 44.40625 28.296875 37.703125 33.59375 29.703125 36.09375 
L 29.703125 36.40625 
C 36 40.40625 40.5 44.09375 40.5 51 
C 40.5 58.59375 34.59375 64.40625 24.40625 64.40625 
C 16.203125 64.40625 10 59.796875 6.296875 51.09375 
z
" id="STIXTwoMath-33"/>
      </defs>
      <g transform="translate(358.363413 315.989375)scale(0.1 -0.1)">
       <use xlink:href="#STIXTwoMath-33"/>
       <use x="49.499985" xlink:href="#STIXTwoMath-30"/>
       <use x="98.999969" xlink:href="#STIXTwoMath-30"/>
      </g>
     </g>
    </g>
    <g id="xtick_8">
     <g id="line2d_15">
      <path clip-path="url(#pb6656484ca)" d="M 418.154815 301.93 
L 418.154815 13.32 
" style="fill:none;stroke:#b0b0b0;stroke-linecap:square;stroke-width:0.8;"/>
     </g>
     <g id="line2d_16">
      <g>
       <use style="stroke:#000000;stroke-width:0.8;" x="418.154815" xlink:href="#mfc9d73ed5b" y="301.93"/>
      </g>
     </g>
     <g id="text_8">
      <!-- 350 -->
      <g transform="translate(410.729815 315.989375)scale(0.1 -0.1)">
       <use xlink:href="#STIXTwoMath-33"/>
       <use x="49.499985" xlink:href="#STIXTwoMath-35"/>
       <use x="98.999969" xlink:href="#STIXTwoMath-30"/>
      </g>
     </g>
    </g>
    <g id="text_9">
     <!-- $R_Н$ (Ом) -->
     <defs>
      <path d="M 13.203125 65.296875 
L 38.40625 65.296875 
Q 48.09375 65.296875 53.4375 61.5 
Q 58.796875 57.703125 58.796875 51.203125 
Q 58.796875 43.40625 52.203125 38.40625 
Q 48.296875 35.40625 39.09375 33.296875 
L 48 9.796875 
Q 49.703125 5.203125 51.546875 3.390625 
Q 53.40625 1.59375 56.703125 1.59375 
L 56.703125 0 
L 42 0 
L 29.703125 32.40625 
L 23.09375 32.90625 
L 17.59375 12.59375 
Q 16.296875 8 16.296875 6.296875 
Q 16.296875 4 17.59375 3 
Q 18.90625 2 23 1.59375 
L 23 0 
L -1.296875 0 
L -1.296875 1.59375 
Q 2.703125 2.09375 4.34375 3.796875 
Q 6 5.5 7.203125 10.09375 
L 19.09375 53.203125 
Q 20.296875 57.796875 20.296875 59.5 
Q 20.296875 61.296875 18.90625 62.296875 
Q 17.703125 63.09375 13.203125 63.703125 
z
M 30.59375 59.296875 
L 24.296875 36.59375 
Q 27.40625 36.09375 29.40625 36.09375 
Q 38.296875 36.09375 43.296875 40.09375 
Q 48.296875 44.09375 48.296875 51.09375 
Q 48.296875 56.296875 45.1875 59.296875 
Q 42.09375 62.296875 36.296875 62.296875 
Q 31.40625 62.296875 30.59375 59.296875 
z
" id="STIXGeneral-Italic-52"/>
      <path d="M 74.90625 65.296875 
L 74.90625 63.703125 
Q 70.5 62.90625 69.046875 61.703125 
Q 67.59375 60.5 66.5 56.296875 
L 53.703125 8.203125 
Q 53.40625 7 53.40625 5.796875 
Q 53.40625 3.703125 54.90625 2.890625 
Q 56.40625 2.09375 61.296875 1.59375 
L 61.296875 0 
L 34.09375 0 
L 34.09375 1.59375 
Q 39.203125 2 41.25 3.703125 
Q 43.296875 5.40625 44.296875 9.296875 
L 50.59375 32.59375 
L 21.90625 32.59375 
L 15.296875 8.203125 
Q 15 7.203125 15 6 
Q 15 3.796875 16.25 3 
Q 17.5 2.203125 22 1.59375 
L 22 0 
L -2.59375 0 
L -2.40625 1.59375 
Q 1.796875 2 3.34375 3.640625 
Q 4.90625 5.296875 6.203125 10.203125 
L 17.703125 53.203125 
Q 18.90625 57.796875 18.90625 59.59375 
Q 18.90625 61.796875 17.5 62.5 
Q 16.09375 63.203125 11.296875 63.703125 
L 11.296875 65.296875 
L 38.40625 65.296875 
L 38.40625 63.703125 
Q 33.90625 63.40625 31.546875 61.796875 
Q 29.203125 60.203125 28.203125 56.59375 
L 23 36.796875 
L 51.59375 36.796875 
L 56.09375 53.203125 
Q 57.5 58.40625 57.5 59.5 
Q 57.5 61.40625 55.890625 62.40625 
Q 54.296875 63.40625 50.296875 63.703125 
L 50.296875 65.296875 
z
" id="STIXGeneral-Italic-41d"/>
      <path id="STIXTwoMath-20"/>
      <path d="M 4.296875 27.40625 
C 4.296875 5.40625 14.796875 -10.296875 30.90625 -18.59375 
L 32.5 -15.796875 
C 17.90625 -6.203125 12.5 7.296875 12.5 27.40625 
C 12.5 47.296875 17.90625 60.703125 32.5 70.40625 
L 30.90625 73 
C 14.796875 64.796875 4.296875 49.203125 4.296875 27.40625 
z
" id="STIXTwoMath-28"/>
      <path d="M 68.703125 33.796875 
C 68.703125 53.59375 56.796875 66.90625 36.90625 66.90625 
C 17.09375 66.90625 5 53.203125 5 32.90625 
C 5 11.703125 17 -1.203125 36.90625 -1.203125 
C 56.59375 -1.203125 68.703125 12.90625 68.703125 33.796875 
z
M 58.203125 33.5 
C 58.203125 13.40625 51.203125 3 37 3 
C 22.59375 3 15.5 14.703125 15.5 33.5 
C 15.5 51.796875 23.703125 62.703125 36.59375 62.703125 
C 49.59375 62.703125 58.203125 51.5 58.203125 33.5 
z
" id="STIXTwoMath-41e"/>
      <path d="M 66.59375 0 
L 66.59375 2.796875 
C 60.5 2.796875 59.5 4.09375 59.5 9 
L 59.5 37.90625 
C 59.5 43.5 61 44.40625 66.59375 44.40625 
L 66.59375 47.296875 
L 50.09375 47.296875 
L 34.90625 13 
L 34.59375 13 
L 19.296875 47.296875 
L 2 47.296875 
L 2 44.40625 
C 8.203125 44.40625 9.203125 43.5 9.203125 38 
L 9.203125 10.796875 
C 9.203125 3.5 8.203125 2.796875 1.796875 2.796875 
L 1.796875 0 
L 20.796875 0 
L 20.796875 2.796875 
C 15 2.796875 13.703125 3.5 13.703125 10.796875 
L 13.703125 38.203125 
L 14.09375 38.203125 
L 31.703125 0 
L 33.703125 0 
L 50.796875 38.90625 
L 51.09375 38.90625 
L 51.09375 9 
C 51.09375 4 50.796875 2.796875 44.5 2.796875 
L 44.5 0 
z
" id="STIXTwoMath-43c"/>
      <path d="M 31.296875 27.40625 
C 31.296875 49.203125 20.796875 64.796875 4.703125 73 
L 3.09375 70.40625 
C 17.703125 60.703125 23.09375 47.296875 23.09375 27.40625 
C 23.09375 7.296875 17.703125 -6.203125 3.09375 -15.796875 
L 4.703125 -18.59375 
C 20.796875 -10.296875 31.296875 5.40625 31.296875 27.40625 
z
" id="STIXTwoMath-29"/>
     </defs>
     <g transform="translate(231.835 329.24875)scale(0.1 -0.1)">
      <use xlink:href="#STIXGeneral-Italic-52"/>
      <use transform="translate(61.099991 -13.228125)scale(0.7)" xlink:href="#STIXGeneral-Italic-41d"/>
      <use transform="translate(115.069357 0)" xlink:href="#STIXTwoMath-20"/>
      <use transform="translate(138.569342 0)" xlink:href="#STIXTwoMath-28"/>
      <use transform="translate(174.169333 0)" xlink:href="#STIXTwoMath-41e"/>
      <use transform="translate(247.869315 0)" xlink:href="#STIXTwoMath-43c"/>
      <use transform="translate(317.569296 0)" xlink:href="#STIXTwoMath-29"/>
     </g>
    </g>
   </g>
   <g id="matplotlib.axis_2">
    <g id="ytick_1">
     <g id="line2d_17">
      <path clip-path="url(#pb6656484ca)" d="M 51.59 301.93 
L 447.48 301.93 
" style="fill:none;stroke:#b0b0b0;stroke-linecap:square;stroke-width:0.8;"/>
     </g>
     <g id="line2d_18">
      <defs>
       <path d="M 0 0 
L -3.5 0 
" id="m3d03cd4f0b" style="stroke:#000000;stroke-width:0.8;"/>
      </defs>
      <g>
       <use style="stroke:#000000;stroke-width:0.8;" x="51.59" xlink:href="#m3d03cd4f0b" y="301.93"/>
      </g>
     </g>
     <g id="text_10">
      <!-- 0.00 -->
      <defs>
       <path d="M 18.203125 4.90625 
C 18.203125 8.203125 16.09375 11.09375 12.296875 11.09375 
C 8.59375 11.09375 6.40625 8.296875 6.40625 5 
C 6.40625 1.59375 8.296875 -0.796875 12.203125 -0.796875 
C 16.09375 -0.796875 18.203125 1.796875 18.203125 4.90625 
z
" id="STIXTwoMath-2e"/>
      </defs>
      <g transform="translate(27.280625 305.459687)scale(0.1 -0.1)">
       <use xlink:href="#STIXTwoMath-30"/>
       <use x="49.499985" xlink:href="#STIXTwoMath-2e"/>
       <use x="74.099976" xlink:href="#STIXTwoMath-30"/>
       <use x="123.59996" xlink:href="#STIXTwoMath-30"/>
      </g>
     </g>
    </g>
    <g id="ytick_2">
     <g id="line2d_19">
      <path clip-path="url(#pb6656484ca)" d="M 51.59 248.034575 
L 447.48 248.034575 
" style="fill:none;stroke:#b0b0b0;stroke-linecap:square;stroke-width:0.8;"/>
     </g>
     <g id="line2d_20">
      <g>
       <use style="stroke:#000000;stroke-width:0.8;" x="51.59" xlink:href="#m3d03cd4f0b" y="248.034575"/>
      </g>
     </g>
     <g id="text_11">
      <!-- 0.02 -->
      <g transform="translate(27.280625 251.564263)scale(0.1 -0.1)">
       <use xlink:href="#STIXTwoMath-30"/>
       <use x="49.499985" xlink:href="#STIXTwoMath-2e"/>
       <use x="74.099976" xlink:href="#STIXTwoMath-30"/>
       <use x="123.59996" xlink:href="#STIXTwoMath-32"/>
      </g>
     </g>
    </g>
    <g id="ytick_3">
     <g id="line2d_21">
      <path clip-path="url(#pb6656484ca)" d="M 51.59 194.13915 
L 447.48 194.13915 
" style="fill:none;stroke:#b0b0b0;stroke-linecap:square;stroke-width:0.8;"/>
     </g>
     <g id="line2d_22">
      <g>
       <use style="stroke:#000000;stroke-width:0.8;" x="51.59" xlink:href="#m3d03cd4f0b" y="194.13915"/>
      </g>
     </g>
     <g id="text_12">
      <!-- 0.04 -->
      <defs>
       <path d="M 48.09375 15.796875 
L 48.09375 22.703125 
L 37.90625 22.703125 
L 37.90625 64.5 
L 31.796875 64.5 
L 1.296875 22.09375 
L 1.296875 15.796875 
L 29 15.796875 
L 29 0 
L 37.90625 0 
L 37.90625 15.796875 
z
M 29 22.703125 
L 6.796875 22.703125 
L 6.796875 23.09375 
L 28.59375 53.59375 
L 29 53.59375 
z
" id="STIXTwoMath-34"/>
      </defs>
      <g transform="translate(27.280625 197.668838)scale(0.1 -0.1)">
       <use xlink:href="#STIXTwoMath-30"/>
       <use x="49.499985" xlink:href="#STIXTwoMath-2e"/>
       <use x="74.099976" xlink:href="#STIXTwoMath-30"/>
       <use x="123.59996" xlink:href="#STIXTwoMath-34"/>
      </g>
     </g>
    </g>
    <g id="ytick_4">
     <g id="line2d_23">
      <path clip-path="url(#pb6656484ca)" d="M 51.59 140.243725 
L 447.48 140.243725 
" style="fill:none;stroke:#b0b0b0;stroke-linecap:square;stroke-width:0.8;"/>
     </g>
     <g id="line2d_24">
      <g>
       <use style="stroke:#000000;stroke-width:0.8;" x="51.59" xlink:href="#m3d03cd4f0b" y="140.243725"/>
      </g>
     </g>
     <g id="text_13">
      <!-- 0.06 -->
      <defs>
       <path d="M 41.5 64.59375 
C 20 63.703125 4.5 49.796875 4.5 25.703125 
C 4.5 11 11 -1.203125 25.90625 -1.203125 
C 38.5 -1.203125 45.703125 6.703125 45.703125 20.296875 
C 45.703125 33.40625 38.59375 41.296875 27.703125 41.296875 
C 22.5 41.296875 18.796875 39.09375 14.703125 35.09375 
L 14 35.203125 
C 16.5 49.796875 27.703125 59.59375 41.703125 61.703125 
z
M 37 19.5 
C 37 6.796875 33 2.296875 26.296875 2.296875 
C 17.59375 2.296875 13.5 11.203125 13.5 23.59375 
C 13.5 32.296875 18.90625 35.5 24.703125 35.5 
C 33 35.5 37 28.5 37 19.5 
z
" id="STIXTwoMath-36"/>
      </defs>
      <g transform="translate(27.280625 143.773413)scale(0.1 -0.1)">
       <use xlink:href="#STIXTwoMath-30"/>
       <use x="49.499985" xlink:href="#STIXTwoMath-2e"/>
       <use x="74.099976" xlink:href="#STIXTwoMath-30"/>
       <use x="123.59996" xlink:href="#STIXTwoMath-36"/>
      </g>
     </g>
    </g>
    <g id="ytick_5">
     <g id="line2d_25">
      <path clip-path="url(#pb6656484ca)" d="M 51.59 86.348301 
L 447.48 86.348301 
" style="fill:none;stroke:#b0b0b0;stroke-linecap:square;stroke-width:0.8;"/>
     </g>
     <g id="line2d_26">
      <g>
       <use style="stroke:#000000;stroke-width:0.8;" x="51.59" xlink:href="#m3d03cd4f0b" y="86.348301"/>
      </g>
     </g>
     <g id="text_14">
      <!-- 0.08 -->
      <defs>
       <path d="M 44.796875 15 
C 44.796875 23 41.203125 27.796875 29.5 34.90625 
L 29.5 35.203125 
C 38.796875 40.296875 42.40625 43.59375 42.40625 50.90625 
C 42.40625 58.796875 34.796875 64.703125 24.90625 64.703125 
C 13.90625 64.703125 5.90625 59 5.90625 49.90625 
C 5.90625 43.09375 8.09375 39 18.296875 31.90625 
L 18.296875 31.59375 
C 9 25.40625 4.59375 22.203125 4.59375 14.203125 
C 4.59375 4 13 -1.203125 24.59375 -1.203125 
C 36.5 -1.203125 44.796875 4.5 44.796875 15 
z
M 35 51.09375 
C 35 44.703125 33 40.796875 26.40625 36.796875 
C 17.5 42.203125 13.703125 45.796875 13.703125 51.703125 
C 13.703125 57.796875 17.90625 61.40625 24.703125 61.40625 
C 31.09375 61.40625 35 57.703125 35 51.09375 
z
M 21.296875 30 
C 33.40625 22.203125 36.40625 18.5 36.40625 12.09375 
C 36.40625 5.296875 31.203125 1.90625 25 1.90625 
C 17.40625 1.90625 12.40625 6 12.40625 15 
C 12.40625 21.90625 15.59375 25.40625 21.296875 30 
z
" id="STIXTwoMath-38"/>
      </defs>
      <g transform="translate(27.280625 89.877988)scale(0.1 -0.1)">
       <use xlink:href="#STIXTwoMath-30"/>
       <use x="49.499985" xlink:href="#STIXTwoMath-2e"/>
       <use x="74.099976" xlink:href="#STIXTwoMath-30"/>
       <use x="123.59996" xlink:href="#STIXTwoMath-38"/>
      </g>
     </g>
    </g>
    <g id="ytick_6">
     <g id="line2d_27">
      <path clip-path="url(#pb6656484ca)" d="M 51.59 32.452876 
L 447.48 32.452876 
" style="fill:none;stroke:#b0b0b0;stroke-linecap:square;stroke-width:0.8;"/>
     </g>
     <g id="line2d_28">
      <g>
       <use style="stroke:#000000;stroke-width:0.8;" x="51.59" xlink:href="#m3d03cd4f0b" y="32.452876"/>
      </g>
     </g>
     <g id="text_15">
      <!-- 0.10 -->
      <g transform="translate(27.280625 35.982563)scale(0.1 -0.1)">
       <use xlink:href="#STIXTwoMath-30"/>
       <use x="49.499985" xlink:href="#STIXTwoMath-2e"/>
       <use x="74.099976" xlink:href="#STIXTwoMath-31"/>
       <use x="123.59996" xlink:href="#STIXTwoMath-30"/>
      </g>
     </g>
    </g>
    <g id="text_16">
     <!-- $P_{Н}$ (Вт) -->
     <defs>
      <path d="M 14.59375 65.296875 
L 38.703125 65.296875 
Q 60.5 65.296875 60.5 50.5 
Q 60.5 46.5 58.640625 42.640625 
Q 56.796875 38.796875 53.703125 36.203125 
Q 46.796875 30.5 33.203125 30.5 
Q 27.703125 30.5 24.203125 31.296875 
L 18.90625 12 
Q 17.5 6.59375 17.5 5.703125 
Q 17.5 3.90625 19 2.953125 
Q 20.5 2 24.40625 1.59375 
L 24.40625 0 
L 0 0 
L 0 1.59375 
Q 4.296875 2.203125 5.640625 3.546875 
Q 7 4.90625 8.40625 9.796875 
L 20 51.203125 
Q 21.703125 57.296875 21.703125 59.5 
Q 21.703125 61.5 20.296875 62.34375 
Q 18.90625 63.203125 14.59375 63.703125 
z
M 32 59.203125 
L 25.09375 34.703125 
Q 28 34.203125 30.296875 34.203125 
Q 39 34.203125 43.09375 36.59375 
Q 50.203125 40.59375 50.203125 50 
Q 50.203125 62.296875 37.203125 62.296875 
Q 32.796875 62.296875 32 59.203125 
z
" id="STIXGeneral-Italic-50"/>
      <path d="M 40.90625 35 
C 49.203125 37.203125 55.09375 41.203125 55.09375 50.09375 
C 55.09375 60 48.40625 65.703125 30.59375 65.703125 
L 3.59375 65.703125 
L 3.59375 62.703125 
C 11.703125 62.703125 13.296875 61.59375 13.296875 53.59375 
L 13.296875 12.703125 
C 13.296875 4.40625 11.703125 3 3.59375 3 
L 3.59375 0 
L 34.40625 0 
C 49.296875 0 58.296875 6.296875 58.296875 17.703125 
C 58.296875 28.59375 49.40625 33.203125 40.90625 34.59375 
z
M 22.5 36.203125 
L 22.5 61.5 
C 24.5 61.703125 26.59375 61.796875 28.5 61.796875 
C 40.703125 61.796875 45.203125 57.09375 45.203125 49.296875 
C 45.203125 40.203125 41.40625 36.203125 29.296875 36.203125 
z
M 22.5 32 
L 29.5 32 
C 38.796875 32 47.796875 28.90625 47.796875 17.5 
C 47.796875 4.796875 38.296875 3.703125 29.703125 3.703125 
C 27.296875 3.703125 24.90625 3.796875 22.5 4 
z
" id="STIXTwoMath-412"/>
      <path d="M 44.796875 30.703125 
L 44.203125 47.296875 
L 1.5 47.296875 
L 0.90625 30.703125 
L 3.59375 30.703125 
C 5.5 40.203125 7 43.59375 14.90625 43.59375 
L 18.59375 43.59375 
L 18.59375 10 
C 18.59375 3.59375 17.296875 2.796875 10.796875 2.796875 
L 10.796875 0 
L 34.796875 0 
L 34.796875 2.796875 
C 28.296875 2.796875 27 3.59375 27 10 
L 27 43.59375 
L 30.90625 43.59375 
C 38.703125 43.59375 40.203125 40.296875 42.09375 30.703125 
z
" id="STIXTwoMath-442"/>
     </defs>
     <g transform="translate(21.080625 173.525)rotate(-90)scale(0.1 -0.1)">
      <use xlink:href="#STIXGeneral-Italic-50"/>
      <use transform="translate(61.099991 -13.228125)scale(0.7)" xlink:href="#STIXGeneral-Italic-41d"/>
      <use transform="translate(115.069357 0)" xlink:href="#STIXTwoMath-20"/>
      <use transform="translate(138.569342 0)" xlink:href="#STIXTwoMath-28"/>
      <use transform="translate(174.169333 0)" xlink:href="#STIXTwoMath-412"/>
      <use transform="translate(235.969321 0)" xlink:href="#STIXTwoMath-442"/>
      <use transform="translate(281.569312 0)" xlink:href="#STIXTwoMath-29"/>
     </g>
    </g>
   </g>
   <g id="line2d_29">
    <path clip-path="url(#pb6656484ca)" d="M 51.59 301.93 
L 93.483122 156.412353 
L 135.376243 83.653529 
L 177.269365 45.926732 
L 219.162487 32.452876 
L 261.055608 27.063333 
L 302.94873 30.566536 
L 344.841852 59.400588 
L 386.734974 38.920327 
L 428.628095 43.231961 
" style="fill:none;stroke:#1f77b4;stroke-linecap:square;stroke-width:1.5;"/>
   </g>
   <g id="patch_3">
    <path d="M 51.59 301.93 
L 51.59 13.32 
" style="fill:none;stroke:#000000;stroke-linecap:square;stroke-linejoin:miter;stroke-width:0.8;"/>
   </g>
   <g id="patch_4">
    <path d="M 447.48 301.93 
L 447.48 13.32 
" style="fill:none;stroke:#000000;stroke-linecap:square;stroke-linejoin:miter;stroke-width:0.8;"/>
   </g>
   <g id="patch_5">
    <path d="M 51.59 301.93 
L 447.48 301.93 
" style="fill:none;stroke:#000000;stroke-linecap:square;stroke-linejoin:miter;stroke-width:0.8;"/>
   </g>
   <g id="patch_6">
    <path d="M 51.59 13.32 
L 447.48 13.32 
" style="fill:none;stroke:#000000;stroke-linecap:square;stroke-linejoin:miter;stroke-width:0.8;"/>
   </g>
  </g>
 </g>
 <defs>
  <clipPath id="pb6656484ca">
   <rect height="288.61" width="395.89" x="51.59" y="13.32"/>
  </clipPath>
 </defs>
</svg>
